<svg xmlns="http://www.w3.org/2000/svg" xmlns:xlink="http://www.w3.org/1999/xlink" width="120.048" height="83.764" viewBox="0 0 31.763 22.162" xmlns:v="https://vecta.io/nano"><style><![CDATA[.B{font-family:sans-serif}.C{word-spacing:0px}.D{visibility:hidden}.E{fill-opacity:.992}]]></style><defs><linearGradient id="A" x1="281.769" y1="446.012" x2="215.623" y2="382.512" gradientUnits="userSpaceOnUse"><stop offset="0" stop-color="#0f0f0f" stop-opacity=".992"/><stop offset="1" stop-color="#191919" stop-opacity=".992"/></linearGradient><path id="B" d="M192.187 359.667q.528.571 1.05 1.385l-.479.279q-.366-.69-.84-1.269-.591.765-1.63 1.261l-.292-.364q.923-.399 1.496-1.141.473-.61.651-1.383h-1.855v-.401h2.352l.127.159q-.203.85-.58 1.474z"/></defs><g transform="translate(-175.942 -339.492)"><text xml:space="preserve" transform="matrix(.12 0 0 .12 160.07292 348.57673)" font-size="141.111" letter-spacing="0" fill="#000" class="B C"><tspan x="92.604" y="158.094" class="D"><tspan dx="0 65.938919 29.042061 64.233604" font-size="105.833">blog</tspan></tspan></text><text xml:space="preserve" transform="matrix(.12 0 0 .12 160.07292 346.21335)" font-size="141.111" letter-spacing="0" fill="#000" class="B C"><tspan x="92.604" y="158.094" class="D"><tspan dx="0 65.938919 29.042061 64.233604" font-size="105.833">blog</tspan></tspan></text><g transform="translate(.006 .278)"><path d="M206.11 347.152s0 3.175-3.175 3.175h-4.762-3.175v-3.175h6.35 1.588z" fill="#641220"/><path d="M206.11 355.089h-3.175c0-12.7-7.938-12.7-7.938-12.7v-3.175s11.113 0 11.113 15.875z" fill="#1f1f1f" class="E"/><path d="M188.648 339.214v10.478l-5.239-5.239-1.587-1.587-2.245 2.245 1.588 1.587 5.216 5.216h-10.432v3.175h15.875v-15.875z" fill="#202020" class="E"/><path d="M207.698 355.089h-2.54c0-12.7-10.16-12.7-10.16-12.7v-3.175s12.7 0 12.7 15.875z" fill="#641220"/><path d="M181.885 343.987l6.826 6.826.03 2.216-2.298.007-6.804-6.804z" fill="url(#A)" transform="translate(0 -1.058)"/><path d="M175.935 357.999h3.014l.109.128q-.08.542-.292.899-.187.32-.535.595l-.392-.298q.285-.192.457-.477.138-.225.169-.444h-2.53zm.1 3.032q.624-.234.861-.614.216-.347.216-.961v-.715h.517v.647q0 .847-.361 1.331-.283.384-.885.657zm4.492-2.019q.97.242 1.75.655l-.256.449q-.635-.403-1.494-.651v1.875h-.511v-3.568h.511zm.736-1.329l.301-.076q.181.287.334.703l-.31.093q-.129-.399-.325-.719zm.562-.128l.296-.081q.192.318.325.674l-.308.097q-.14-.403-.314-.69zm3.389.132l.301-.056q.158.291.283.723l-.31.068q-.103-.411-.274-.736zm-2.553 3.344q.778-1.12.905-2.972l.537.064q-.123 1.124-.381 1.904-.223.672-.591 1.232zm3.097-3.433l.296-.06q.154.294.279.69l-.312.076q-.107-.397-.263-.707zm-1.106.515l.524-.054q.201 1.84.927 2.95l-.493.254q-.41-.738-.649-1.592-.189-.672-.31-1.559zm2.247-.025q.633.302 1.146.67l-.332.424q-.515-.434-1.119-.73zm2.209.182l.479.229q-.203 1.172-.852 1.856-.662.701-1.855.984l-.247-.432q1.264-.258 1.875-1.046.466-.606.6-1.592z"/><use xlink:href="#B"/><path d="M193.636 359.21l.218-.351q.769.242 1.146.449l-.241.389q-.392-.242-1.124-.486zm.388-.901l.243-.351q.673.221 1.108.477l-.259.391q-.408-.289-1.092-.517zm2.43.134l.455.242q-.125.533-.372.998-.23.43-.508.695-.725.686-1.935.92l-.225-.428q1.166-.192 1.772-.779.299-.291.517-.744.198-.418.297-.903z"/><use xlink:href="#B" x="7.299"/><path d="M202.319 359.278h-1.378v-.387h3.027v.387h-1.141q-.011.573-.085.876-.06.238-.194.444-.169.26-.421.442-.225.167-.584.318l-.346-.347q.673-.234.921-.664.116-.201.156-.411.04-.221.045-.659zm-1.108-1.308h2.497v.384h-2.497zm5.656 2.544q-.232-.519-.544-1.042l.435-.157q.499.794.927 1.829l-.495.207q-.076-.242-.167-.465-.997.145-2.521.312l-.109-.449q.218-.017.323-.021.497-1.308.914-2.877l.506.126q-.397 1.323-.921 2.71.907-.076 1.652-.174z"/></g></g></svg>