<svg xmlns="http://www.w3.org/2000/svg" width="120" height="60" viewBox="0 0 31.75 15.875"  xmlns:v="https://vecta.io/nano"><style><![CDATA[.B{font-family:sans-serif}.C{word-spacing:0px}.D{visibility:hidden}.E{fill-opacity:.992}]]></style><defs><linearGradient id="A" x1="281.781" y1="446.012" x2="215.635" y2="382.512" gradientUnits="userSpaceOnUse"><stop offset="0" stop-color="#0f0f0f" stop-opacity=".992"/><stop offset="1" stop-color="#191919" stop-opacity=".992"/></linearGradient></defs><g transform="translate(-175.954 -339.492)"><text xml:space="preserve" transform="matrix(.12 0 0 .12 160.07292 348.57673)" font-size="141.111" letter-spacing="0" fill="#000" class="B C"><tspan x="92.604" y="158.094" class="D"><tspan dx="0 65.938919 29.042061 64.233604" font-size="105.833">blog</tspan></tspan></text><text xml:space="preserve" transform="matrix(.12 0 0 .12 160.07292 346.21335)" font-size="141.111" letter-spacing="0" fill="#000" class="B C"><tspan x="92.604" y="158.094" class="D"><tspan dx="0 65.938919 29.042061 64.233604" font-size="105.833">blog</tspan></tspan></text><path d="M206.116 347.43s0 3.175-3.175 3.175h-4.762-3.175v-3.175h6.35 1.588z" fill="#641220"/><path d="M206.116 355.367h-3.175c0-12.7-7.938-12.7-7.938-12.7v-3.175s11.113 0 11.113 15.875z" fill="#1f1f1f" class="E"/><path d="M188.654 339.492v10.478l-5.239-5.239-1.587-1.587-2.245 2.245 1.588 1.587 5.216 5.216h-10.432v3.175h15.875v-15.875z" fill="#202020" class="E"/><path d="M207.704 355.367h-2.54c0-12.7-10.16-12.7-10.16-12.7v-3.175s12.7 0 12.7 15.875z" fill="#641220"/><path d="M181.885 343.987l6.826 6.826.03 2.216-2.298.007-6.804-6.804z" fill="url(#A)" transform="translate(.006 -.78)"/></g></svg>