<?xml version="1.0" encoding="UTF-8" standalone="no"?>
<svg
   width="120.048"
   height="83.764"
   viewBox="0 0 31.763 22.162"
   version="1.1"
   id="svg48"
   sodipodi:docname="advanced-systems-logo-annotated_min.svg"
   inkscape:version="1.1 (c4e8f9ed74, 2021-05-24)"
   xmlns:inkscape="http://www.inkscape.org/namespaces/inkscape"
   xmlns:sodipodi="http://sodipodi.sourceforge.net/DTD/sodipodi-0.dtd"
   xmlns:xlink="http://www.w3.org/1999/xlink"
   xmlns="http://www.w3.org/2000/svg"
   xmlns:svg="http://www.w3.org/2000/svg">
  <sodipodi:namedview
     id="namedview50"
     pagecolor="#ffffff"
     bordercolor="#666666"
     borderopacity="1.0"
     inkscape:pageshadow="2"
     inkscape:pageopacity="0.0"
     inkscape:pagecheckerboard="0"
     showgrid="false"
     inkscape:zoom="4.1963135"
     inkscape:cx="25.498572"
     inkscape:cy="42.656489"
     inkscape:window-width="1920"
     inkscape:window-height="1021"
     inkscape:window-x="1920"
     inkscape:window-y="31"
     inkscape:window-maximized="1"
     inkscape:current-layer="svg48" />
  <style
     id="style2"><![CDATA[.B{font-family:sans-serif}.C{word-spacing:0px}.D{visibility:hidden}.E{fill-opacity:.992}]]></style>
  <defs
     id="defs10">
    <linearGradient
       id="A"
       x1="281.769"
       y1="446.012"
       x2="215.623"
       y2="382.512"
       gradientUnits="userSpaceOnUse">
      <stop
         offset="0"
         stop-color="#0f0f0f"
         stop-opacity=".992"
         id="stop4" />
      <stop
         offset="1"
         stop-color="#191919"
         stop-opacity=".992"
         id="stop6" />
    </linearGradient>
    <path
       id="B"
       d="M192.187 359.667q.528.571 1.05 1.385l-.479.279q-.366-.69-.84-1.269-.591.765-1.63 1.261l-.292-.364q.923-.399 1.496-1.141.473-.61.651-1.383h-1.855v-.401h2.352l.127.159q-.203.85-.58 1.474z" />
  </defs>
  <g
     transform="translate(-175.936,-339.214)"
     id="g44">
    <path
       d="m 206.11,347.152 c 0,0 0,3.175 -3.175,3.175 h -4.762 -3.175 v -3.175 h 6.35 1.588 z"
       fill="#641220"
       id="path24" />
    <path
       d="m 206.11,355.089 h -3.175 c 0,-12.7 -7.938,-12.7 -7.938,-12.7 v -3.175 c 0,0 11.113,0 11.113,15.875 z"
       fill="#1f1f1f"
       class="E"
       id="path26" />
    <path
       d="m 188.648,339.214 v 10.478 l -5.239,-5.239 -1.587,-1.587 -2.245,2.245 1.588,1.587 5.216,5.216 h -10.432 v 3.175 h 15.875 v -15.875 z"
       fill="#202020"
       class="E"
       id="path28" />
    <path
       d="m 207.698,355.089 h -2.54 c 0,-12.7 -10.16,-12.7 -10.16,-12.7 v -3.175 c 0,0 12.7,0 12.7,15.875 z"
       fill="#641220"
       id="path30" />
    <path
       d="m 181.885,343.987 6.826,6.826 0.03,2.216 -2.298,0.007 -6.804,-6.804 z"
       fill="url(#A)"
       transform="translate(0,-1.058)"
       id="path32"
       style="fill:url(#A)" />
    <path
       d="m 175.935,357.999 h 3.014 l 0.109,0.128 q -0.08,0.542 -0.292,0.899 -0.187,0.32 -0.535,0.595 l -0.392,-0.298 q 0.285,-0.192 0.457,-0.477 0.138,-0.225 0.169,-0.444 h -2.53 z m 0.1,3.032 q 0.624,-0.234 0.861,-0.614 0.216,-0.347 0.216,-0.961 v -0.715 h 0.517 v 0.647 q 0,0.847 -0.361,1.331 -0.283,0.384 -0.885,0.657 z m 4.492,-2.019 q 0.97,0.242 1.75,0.655 l -0.256,0.449 q -0.635,-0.403 -1.494,-0.651 v 1.875 h -0.511 v -3.568 h 0.511 z m 0.736,-1.329 0.301,-0.076 q 0.181,0.287 0.334,0.703 l -0.31,0.093 q -0.129,-0.399 -0.325,-0.719 z m 0.562,-0.128 0.296,-0.081 q 0.192,0.318 0.325,0.674 l -0.308,0.097 q -0.14,-0.403 -0.314,-0.69 z m 3.389,0.132 0.301,-0.056 q 0.158,0.291 0.283,0.723 l -0.31,0.068 q -0.103,-0.411 -0.274,-0.736 z m -2.553,3.344 q 0.778,-1.12 0.905,-2.972 l 0.537,0.064 q -0.123,1.124 -0.381,1.904 -0.223,0.672 -0.591,1.232 z m 3.097,-3.433 0.296,-0.06 q 0.154,0.294 0.279,0.69 l -0.312,0.076 q -0.107,-0.397 -0.263,-0.707 z m -1.106,0.515 0.524,-0.054 q 0.201,1.84 0.927,2.95 l -0.493,0.254 q -0.41,-0.738 -0.649,-1.592 -0.189,-0.672 -0.31,-1.559 z m 2.247,-0.025 q 0.633,0.302 1.146,0.67 l -0.332,0.424 q -0.515,-0.434 -1.119,-0.73 z m 2.209,0.182 0.479,0.229 q -0.203,1.172 -0.852,1.856 -0.662,0.701 -1.855,0.984 l -0.247,-0.432 q 1.264,-0.258 1.875,-1.046 0.466,-0.606 0.6,-1.592 z"
       id="path34" />
    <use
       xlink:href="#B"
       id="use36"
       x="0"
       y="0"
       width="100%"
       height="100%" />
    <path
       d="m 193.636,359.21 0.218,-0.351 q 0.769,0.242 1.146,0.449 l -0.241,0.389 q -0.392,-0.242 -1.124,-0.486 z m 0.388,-0.901 0.243,-0.351 q 0.673,0.221 1.108,0.477 l -0.259,0.391 q -0.408,-0.289 -1.092,-0.517 z m 2.43,0.134 0.455,0.242 q -0.125,0.533 -0.372,0.998 -0.23,0.43 -0.508,0.695 -0.725,0.686 -1.935,0.92 l -0.225,-0.428 q 1.166,-0.192 1.772,-0.779 0.299,-0.291 0.517,-0.744 0.198,-0.418 0.297,-0.903 z"
       id="path38" />
    <use
       xlink:href="#B"
       x="7.2989998"
       id="use40"
       y="0"
       width="100%"
       height="100%" />
    <path
       d="m 202.319,359.278 h -1.378 v -0.387 h 3.027 v 0.387 h -1.141 q -0.011,0.573 -0.085,0.876 -0.06,0.238 -0.194,0.444 -0.169,0.26 -0.421,0.442 -0.225,0.167 -0.584,0.318 l -0.346,-0.347 q 0.673,-0.234 0.921,-0.664 0.116,-0.201 0.156,-0.411 0.04,-0.221 0.045,-0.659 z m -1.108,-1.308 h 2.497 v 0.384 h -2.497 z m 5.656,2.544 q -0.232,-0.519 -0.544,-1.042 l 0.435,-0.157 q 0.499,0.794 0.927,1.829 l -0.495,0.207 q -0.076,-0.242 -0.167,-0.465 -0.997,0.145 -2.521,0.312 l -0.109,-0.449 q 0.218,-0.017 0.323,-0.021 0.497,-1.308 0.914,-2.877 l 0.506,0.126 q -0.397,1.323 -0.921,2.71 0.907,-0.076 1.652,-0.174 z"
       id="path42" />
  </g>
</svg>
