<?xml version="1.0" encoding="UTF-8"?>
<!-- Created with Inkscape (http://www.inkscape.org/) -->
<svg width="132.29mm" height="103.19mm" version="1.1" viewBox="0 0 132.29 103.19" xmlns="http://www.w3.org/2000/svg" xmlns:cc="http://creativecommons.org/ns#" xmlns:dc="http://purl.org/dc/elements/1.1/" xmlns:rdf="http://www.w3.org/1999/02/22-rdf-syntax-ns#" xmlns:xlink="http://www.w3.org/1999/xlink">
 <title>Blackboard</title>
 <defs>
  <linearGradient id="linearGradient23213">
   <stop stop-color="#ffe4b2" stop-opacity=".20414" offset="0"/>
   <stop stop-color="#fefee3" stop-opacity="0" offset="1"/>
  </linearGradient>
  <linearGradient id="linearGradient114160" x1="214.31" x2="82.021" y1="134.94" y2="63.5" gradientUnits="userSpaceOnUse">
   <stop stop-color="#2a9d8f" offset="0"/>
   <stop stop-color="#35c7b5" offset="1"/>
  </linearGradient>
  <linearGradient id="linearGradient23207" x1="82.021" x2="226.55" y1="87.312" y2="160.67" gradientTransform="scale(3.7795)" gradientUnits="userSpaceOnUse" xlink:href="#linearGradient23213"/>
  <linearGradient id="linearGradient29346" x1="82.021" x2="226.55" y1="87.312" y2="160.67" gradientTransform="matrix(3.7795 0 0 3.7795 1.8676e-6 -31.035)" gradientUnits="userSpaceOnUse" xlink:href="#linearGradient23213"/>
 </defs>
 <g transform="translate(-82.354 -63.5)">
  <g>
   <path d="m103.72 143.81v12.294h4.4979v-12.294z" fill="#0084c8"/>
   <path d="m108.21 142.88v13.229h2.9104v-13.229z" fill="#003049"/>
   <text x="244.27657" y="84.931252" fill="#000000" font-family="sans-serif" font-size="10.583px" stroke-width=".26458" style="line-height:1.25" xml:space="preserve"><tspan x="244.27657" y="84.931252" stroke-width=".26458"/></text>
   <rect x="82.354" y="63.5" width="132.29" height="71.438" ry="5.2917" fill="#bf8159" fill-rule="evenodd" stroke-width=".27236"/>
   <rect x="85" y="66.146" width="127" height="66.146" ry="4.8997" fill="url(#linearGradient114160)" fill-rule="evenodd" stroke-width=".25678"/>
  </g>
  <path d="m202.41 72.76v19.844h-14.552v-19.844z" fill="#1a1a1a" fill-opacity=".19527"/>
  <path d="m203.73 92.604h-14.552c-1.3229-3.9688-1.3229-19.844-1.3229-19.844h14.552s-0.26458 15.875 1.3229 19.844z" fill="#fefee3"/>
  <g transform="matrix(.26458 0 0 .26458 -3.3205 1.9713)" style="white-space:pre" aria-label="数学">
   <path transform="translate(10.175 -10.781)" d="m733.74 295.04 0.452 6.092-6.301-2e-3 0.053 0.647 5.621 2e-3c-1.126 1.936-3.096 3.968-5.902 6.095-0.194 0.353-0.073 0.459 0.361 0.318 2.781-1.485 4.884-3.226 6.303-5.227l0.334 4.49 0.237 0.214-1.258 2.541-5.117-5e-3 0.052 0.633 4.779 5e-3 -2.25 3.878c-0.335 0.417 0.045 0.556 1.14 0.418l0.884-1.46c0.891 0.071 2.209 0.421 3.952 1.05-1.495 1.735-3.888 3.15-7.177 4.248-0.277 0.206-0.232 0.309 0.134 0.31 3.467-0.683 6.159-2.025 8.077-4.034 0.693 0.418 1.277 0.87 1.753 1.356 0.235 0.208 0.501 0.312 0.796 0.313 0.294 0 0.427-0.208 0.399-0.624-0.037-0.555-0.818-1.182-2.343-1.88 0.746-0.976 1.331-2.164 1.755-3.567l3.006 3e-3c0.436-0.14 0.42-0.388-0.048-0.741l-1.628-1.059-1.149 1.163-5.569-5e-3 0.894-1.481c0.68 0.142 0.934 0.036 0.76-0.318l-1.507-0.744 0.871-0.318-0.317-4.385c1.314 0.573 2.298 1.29 2.956 2.147 0.407 0.499 0.724 0.748 0.948 0.748 0.373 0 0.544-0.248 0.51-0.747-0.062-0.928-1.543-1.788-4.445-2.578l-0.055-0.756 6.303 3e-3c0.441-0.143 0.425-0.395-0.049-0.755l-1.65-1.082-1.161 1.188-3.49-1e-3 -0.362-4.998c0.896-0.146 1.029-0.401 0.398-0.766zm10.792 0.218c-0.761 4.796-2.187 8.929-4.272 12.416-0.046 0.425 0.07 0.494 0.349 0.211 0.833-0.921 1.682-2.236 2.545-3.948 0.65 3.207 1.722 6.073 3.212 8.604-1.604 2.79-4.229 4.971-7.87 6.553-0.274 0.275-0.228 0.412 0.139 0.412 3.676-1.027 6.532-2.994 8.571-5.915 1.662 1.884 3.489 3.519 5.479 4.905 0.7-0.69 1.453-1.104 2.257-1.241-3.33-1.601-5.677-3.242-7.033-4.923 1.411-2.6 2.242-5.751 2.488-9.465l3.492 1e-3c0.443-0.143 0.431-0.396-0.038-0.755l-1.873-1.298-1.39 1.405-6.53-3e-3c0.653-1.584 1.294-3.392 1.927-5.426 1.268-0.291 1.517-0.583 0.744-0.875zm-5.403 0.657-2.434 4.03c-0.19 0.505-0.069 0.613 0.361 0.325l2.743-2.825c1.212 0.073 1.387-0.145 0.523-0.654zm-10.746 0.09c-0.154 0.014-0.109 0.13 0.135 0.348 0.957 0.655 1.749 1.636 2.378 2.939 0.178 0.362 0.418 0.541 0.718 0.541 0.376 0 0.54-0.325 0.49-0.976-0.072-0.942-1.238-1.885-3.5-2.832-0.096-0.018-0.169-0.025-0.221-0.02zm15.489 6.858 4.951 3e-3c0.082 2.789-0.54 5.628-1.858 8.518-1.473-2.256-2.572-4.95-3.292-8.092zm-9.073 7.981 4.229 5e-3c-0.288 1.193-0.77 2.243-1.445 3.15-2.031-0.491-3.454-0.739-4.267-0.74zm4.061 11.082c-0.274 0-0.208 0.153 0.197 0.462 1.08 0.821 1.845 1.877 2.297 3.167 0.173 0.407 0.441 0.611 0.805 0.612 0.437 1e-3 0.635-0.304 0.595-0.914-0.089-1.359-1.257-2.452-3.507-3.276-0.167-0.035-0.295-0.051-0.387-0.051zm9.635 0.48c-0.631 1.703-1.471 3.5-2.52 5.389l-13.074-0.029c-0.104-0.405-0.204-0.741-0.298-1.012-0.249-0.406-0.394-0.406-0.435-1e-3 0.123 1.551-0.286 2.791-1.224 3.726-0.401 0.401-0.59 0.735-0.568 1.002 0.038 0.467 0.382 0.7 1.031 0.702 0.361 1e-3 0.702-0.231 1.026-0.697 0.453-0.666 0.662-1.704 0.624-3.114l19.277 0.044-1.393 2.414c-0.119 0.467 0.031 0.535 0.447 0.202l2.318-1.402c1.462 0.205 1.889 0.039 1.281-0.5l-2.402-2.129-0.611 0.808-5.564-0.013c1.099-1.077 2.196-2.259 3.289-3.547 1.75-0.064 1.913-0.406 0.49-1.022zm-14.99 0.482c-0.292-1e-3 -0.319 0.137-0.079 0.41 0.99 0.546 1.791 1.499 2.402 2.855 0.181 0.474 0.381 0.71 0.599 0.71 0.581 2e-3 0.846-0.335 0.797-1.011-0.084-1.153-1.321-2.142-3.719-2.964zm14.286 7.934-0.821 0.8-11.387-0.028 0.046 0.6 11.052 0.028-2.753 2.683-1.45-0.699 0.192 2.873-11.193-0.033 0.048 0.592 11.185 0.033 0.301 4.51c0.039 0.584-0.263 0.875-0.904 0.873l-2.564-9e-3c-0.347 0.129-0.338 0.258 0.027 0.388l1.728 0.297c0.37 0.196 0.564 0.422 0.581 0.68 0.027 0.388 0.253 0.582 0.68 0.583 0.355 2e-3 0.769-0.19 1.241-0.576s0.683-0.968 0.633-1.746l-0.325-4.996 11.419 0.033c0.425-0.13 0.413-0.36-0.035-0.69l-2.123-1.393-1.539 1.48-7.76-0.022-0.116-1.782 4.389-2.475c1.309 0.136 1.735 5e-3 1.278-0.396z" color="#000000" fill="#4d4d4d" style="-inkscape-stroke:none"/>
  </g>
  <g transform="translate(4.068 .016536)">
   <circle cx="191.94" cy="70.354" r=".79375" fill-opacity=".2"/>
   <circle cx="191.88" cy="70.303" r=".79375" fill="#ff686b"/>
  </g>
  <g transform="translate(7.3422 -2.0671)">
   <circle cx="191.94" cy="70.354" r=".79375" fill-opacity=".2"/>
   <circle cx="191.88" cy="70.303" r=".79375" fill="#ff686b"/>
  </g>
  <g transform="translate(-.44434 .56127)">
   <circle cx="200.56" cy="74.29" r=".79375" fill-opacity=".2"/>
   <circle cx="200.49" cy="74.238" r=".79375" fill="#66b9c9"/>
  </g>
  <g transform="translate(3.2228 -5.2981)">
   <circle cx="200.56" cy="74.29" r=".79375" fill-opacity=".2"/>
   <circle cx="200.49" cy="74.238" r=".79375" fill="#66b9c9"/>
  </g>
  <g transform="translate(-2.4322 3.9289)">
   <circle cx="191.94" cy="70.354" r=".79375" fill-opacity=".2"/>
   <circle cx="191.88" cy="70.303" r=".79375" fill="#ff686b"/>
  </g>
  <g transform="matrix(.26458 0 0 .26458 6.3101 .086896)" fill="#fefee3" style="shape-inside:url(#rect139919);white-space:pre" aria-label="アドバンス      システム">
   <path d="m402.36 338.23v-0.0937l-0.375-0.46875-0.46875 0.0937-0.28125-0.375 0.5625-0.375q-0.0937-0.0937-0.28125-0.0937-0.1875 0-0.375 0t-0.32812-0.0937q-0.14063-0.0937-0.32813-0.0937l-0.46875 0.1875-0.375-0.46875 0.28125-0.375-0.0937-0.32812-0.46875-0.1875q-0.0937-0.0937-0.0937-0.28125 0-0.1875-0.0469-0.32813-0.0469-0.14062-0.1875-0.28125-0.14063-0.14062-0.23438-0.23437l-0.5625-0.1875-0.0937-0.1875q0.375-0.375 0.28125-0.98438-0.0937-0.60937 0.0937-1.0781 0.1875-0.46875 0.1875-1.0312t0.1875-1.0312l-0.0937-0.65625q0.0937-0.0937 0.14063-0.1875 0.0469-0.0937 0.1875-0.0937 0.14062 0 0.23437-0.0469 0.0937-0.0469 0.1875-0.14062l-0.0937-0.28125h-0.1875l-0.46875-0.375-0.0937 0.0937 0.375-0.1875v-0.32813l-0.28125-0.375 0.84375-1.5 0.9375-0.375 0.0937-0.46875-0.1875-0.75-0.65625-0.1875v-0.1875l0.0937-0.1875-0.1875-0.65625 0.46875-0.84375 0.28125 0.375h0.375l0.1875-0.46875-0.5625-0.375-0.0937-0.28125 0.5625-0.5625-0.375-0.375q0.1875-0.0937 0.1875-0.28125 0-0.23437 0-0.46875 0-0.23437 0.0937-0.375 0.0937-0.14062 0.1875-0.32812l-0.1875-0.84375 0.65625-1.4062 0.28125-0.0937v-0.375l-0.1875-0.28125 0.46875-0.84375 0.84375-0.46875 0.0937-0.28125-0.0937-0.46875 0.0937-0.1875 0.46875-0.1875 0.0937-0.1875h0.375l0.46875 0.375v0.18732l0.65625 0.375 0.46875 1.0312-0.1875 0.28125 0.70313 0.375 0.65625 0.9375-0.1875 0.375 1.2188 0.84375v0.46875l-0.1875 0.375-0.84375 0.375 0.65625 0.375 0.1875 0.51562-1.5938 1.0312v0.28125l0.46875 0.28125 0.0937 0.5625-0.46875 0.46875q0.0937 0.1875 0.1875 0.32813 0.0937 0.14062 0.1875 0.32812 0.0937 0.1875 0.0937 0.375t0 0.375l-0.375 0.65625 0.0937 0.46875q-0.1875 0.0937-0.28125 0.23438-0.0937 0.14062-0.14063 0.28125 0 0.14062 0 0.32812t0 0.375l0.42188 0.1875v0.28125l-0.42188 0.375 0.0469 0.0937q-0.0469 0.28125-0.0469 0.5625 0 0.23438 0 0.5625 0 0.32813-0.1875 0.5625-0.1875 0.23438-0.1875 0.51563l0.0937 0.5625-0.46875 0.84375 0.0937 1.125-0.28125 0.375-0.46875-0.375-0.0937 0.0937 0.28125 0.5625-0.375 0.1875 0.0937 0.28125q0.0937 0 0.23438 0 0.14062 0 0.1875 0.0469 0.0469 0.0469 0.14062 0.14063 0.0937 0.0937 0.0937 0.1875l-0.375 0.1875 0.46875 0.75-0.375 0.46875h-0.28125v0.375l0.28125 0.375-0.0937 0.0469-0.46875-0.0469v0.23437l0.5625 0.28125 0.0937 0.46875-0.46875 0.46875-0.5625 0.65625h-0.28125l-0.375-0.1875zm2.9062-8.2031 0.0937-0.1875-0.46875-0.1875-0.1875 0.1875 0.46875 0.28125zm-0.75-0.1875 0.0937-0.0937-0.28125-0.1875-0.1875 0.375h0.28125zm-0.84375-1.7812v-0.14063l0.0937-0.1875-0.65625-0.1875v0.375zm1.5-0.79688v-0.375l0.0937-0.1875-0.1875-0.1875-0.0937 0.75 0.0937 0.0937zm0.5625-2.8125v-0.28125l-0.1875-0.46875h-0.28125l-0.46875 0.1875-0.0937 0.375 0.375 0.375zm10.312-0.0937q-0.1875-0.1875-0.42187-0.0937-0.23438 0.0937-0.375-0.0469-0.14063-0.14063-0.32813-0.23438-0.1875-0.0937-0.375-0.0937l-0.375 0.0937-0.51562-0.375 0.0937-0.1875 0.23437-0.1875v-0.375l-0.23437-0.375-0.65625-0.375-0.1875-0.65625-0.5625 0.65625h-0.4687l-0.28125-0.0937-0.0937-0.375h-0.28125l-0.1875 0.0937-0.84375-0.28125v-0.375q0.0937-0.1875 0.1875-0.32812 0.0937-0.14063 0.1875-0.28125 0.0937-0.14063 0.28125-0.23438 0.1875-0.0937 0.28125-0.1875h0.28125q0.0937-0.23437 0.0937-0.60937t0.14062-0.70313q0.14063-0.32812 0.375-0.60937 0.23438-0.28125 0.42188-0.5625l1.2188-0.75 0.32812 0.28125 0.1875-0.375-0.1875-0.46875 0.28125 0.0937q0.0937-0.0937 0.1875-0.23438 0.0937-0.14062 0.14063-0.23437 0.0469-0.0937 0.0469-0.23438 0-0.14062 0-0.32812h-0.1875v-0.0937l0.5625-0.375v-0.1875l-0.0937-0.0937 0.5625-0.65625-0.0937-0.0937 0.0937-0.28125-0.0937-0.1875 0.28125-0.9375 0.28125-0.0937 0.1875 1.4062 0.46875 0.1875q0.0937-0.0937 0.23438-0.14063 0.14062-0.0469 0.28125-0.0469 0.14062 0 0.23437-0.0469 0.0937-0.0469 0.28125-0.0469v-0.375l-0.28125-0.65625 0.0937-0.5625-0.28125-0.70313 0.5625-1.125q-0.0937-0.28125-0.0937-0.5625t-0.0469-0.5625-0.1875-0.51562q-0.14063-0.23438-0.23438-0.51563h-0.1875l-0.46875 0.5625 0.0937 0.1875-0.0937 0.1875-0.375 0.0937-0.28125-0.65625-0.84375-0.5625-0.28125 0.0937v0.28125l0.5625 0.46875v0.1875l0.375 0.28125-0.28125 0.0937-1.125-0.28125-0.51562 0.1875q-0.1875-0.0937-0.32813-0.23437-0.14062-0.14063-0.32812-0.0937-0.1875 0.0469-0.32813-0.0937-0.14062-0.14063-0.32812-0.23438l-0.1875 0.28125-1.7812 0.28125-0.0937 0.1875-0.5625 0.0937-0.65625-0.0937-0.375 0.0937-0.84375-0.0937-0.75 0.0937-1.125-0.65625-0.60938 0.28125-0.28125-0.375-0.65625-0.1875-0.0937 0.28125q-0.1875 0.0937-0.375 0.14063-0.1875 0.0469-0.375 0.0469t-0.32812 0.1875q-0.14063 0.1875-0.32813 0.28125l-0.0937 0.1875h-0.46875l-0.46875-0.1875q-0.1875 0.1875-0.42187 0.1875-0.23438 0-0.51563 0t-0.51562 0.0469q-0.23438 0.0469-0.42188 0.14062l-0.5625-0.28125v-0.1875l-1.4062-0.1875v-0.46875l0.0937-0.46875h-0.42187l-0.28125 0.0937-0.1875 0.46875-0.9375 0.28125q-0.375-0.1875-0.79688-0.14062-0.42187 0.0469-0.79687 0t-0.70313-0.1875q-0.32812-0.14063-0.79687-0.0469l-0.28125 0.0937-0.5625-0.28125-0.1875-0.28125-0.1875 0.375q-0.1875 0-0.32813 0-0.14062 0-0.28125 0-0.14062 0-0.23437 0.0937-0.0937 0.0937-0.1875 0.1875l-0.1875 0.375-1.1719 0.1875-0.46875-0.0937-0.5625 0.28125-0.46875-1.0312q-0.1875-0.1875-0.42187-0.1875-0.23438 0-0.46875 0-0.23438 0-0.375-0.1875-0.14063-0.1875-0.32813-0.28125l-0.1875-0.84375-0.75-0.28125v-0.0937l0.0937-0.375-0.5625-0.0937v-0.28125l0.28125-0.0937 0.0937 0.0937q0.1875-0.1875 0.375-0.28125 0.1875-0.0937 0.375-0.1875 0.1875-0.0937 0.375-0.1875 0.1875-0.0937 0.375-0.1875l0.0937-0.1875h0.1875l0.375-0.75 0.46875-0.42187 0.65625-0.0937 0.1875 0.0937 0.0937 0.60937 0.28125 0.1875 0.42188-0.28125-0.0469-0.32812q0.14063-0.28125 0.42188-0.42188 0.28125-0.14062 0.65625-0.0469 0.375 0.0937 0.60937-0.0937 0.23438-0.1875 0.60938-0.1875l0.28125 0.0937 1.125-0.1875 0.1875 0.375-0.0937 0.28125 0.0937 0.32812h0.375l0.5625-0.51562 0.46875 0.1875 0.28125-0.0937 0.65625 0.375 0.46875-0.65625h0.46875q0.46875 0.0937 0.84375 0.0937 0.42187 0 0.79687 0.28125t0.84375 0.28125 0.9375 0l1.0312-0.375 1.125 0.1875 0.1875 0.42187-0.0937 0.375 0.46875 0.1875 0.1875-0.5625q0.1875-0.1875 0.46875-0.1875t0.5625 0 0.46875-0.0937q0.1875-0.14062 0.46875-0.14062l0.28125 0.0937 0.70313-0.0937 0.84375 0.23437 0.1875-0.60937 0.375-0.0937q0.28125 0.1875 0.60937 0.28125 0.32813 0.0937 0.65625 0.14062 0.32813 0.0469 0.70313 0.0469t0.65625 0.23437q0.1875-0.14062 0.46875-0.14062t0.51562 0q0.23438 0 0.46875-0.0937 0.23438-0.0937 0.51563-0.0937 0.0937 0.0937 0.28125 0.0937 0.1875 0 0.32812 0 0.14063 0 0.23438 0.14062 0.0937 0.0937 0.0937 0.1875l-0.0937 0.0937 0.1875 0.28125q0.0937-0.1875 0.23437-0.28125 0.14063-0.0937 0.28125-0.14062 0.1875-0.0469 0.375-0.0469 0.1875-0.0469 0.375-0.0469l0.1875 0.0469 0.375-0.0469 0.46875 0.23437q0.0937 0.1875 0.32813 0.1875 0.23437 0 0.42187 0t0.375 0.0469 0.28125 0.23437l0.65625 0.65625q0.0937-0.0937 0.1875-0.1875 0.0937-0.0937 0.14063-0.23437 0.0469-0.14063 0.0469-0.28125 0-0.14063 0-0.23438l0.46875-0.0937 0.5625 0.5625q-0.0937 0.1875 0 0.32813 0.0937 0.14062 0.23438 0.23437 0.14062 0.0937 0.1875 0.23438 0.0469 0.14062 0.14062 0.23437l0.375 0.28125 0.46875-0.5625-1.0312-0.46875-0.0937-0.46875h0.28125l0.46875 0.1875 0.1875 0.28125 0.46875 0.0937 0.46875 0.75-1.0312 0.46875-0.5625 1.0312 0.28125 0.46875 0.5625 0.1875 0.28125-0.5625 0.375-0.1875 0.79688 0.9375 0.375-0.0937h-0.375l-0.0469 0.46875 1.0781 0.375 0.1875 0.375-0.0937 0.0937 0.1875 0.5625-0.28125 0.65625-0.84375 0.46875-0.23438 0.5625h-0.1875l-0.375 0.98438 0.28125 0.0937 0.60938-0.1875 0.28125 0.46875-0.5625 0.375v0.1875h-0.14063l-0.0937 0.65625-0.28125 0.0937q-0.0937 0.1875-0.14062 0.375-0.0469 0.1875-0.0469 0.42187 0 0.23438-0.14062 0.375-0.14063 0.14063-0.32813 0.23438l-0.5625 0.375-0.375 0.84375h1.0312l0.28125-0.375 0.0937 0.28125-0.46875 0.1875-0.1875 0.28125 0.0937 0.46875-0.5625 0.9375 0.1875 0.5625-0.28125 0.375 0.0937 0.1875-0.0937 0.32812-0.375 0.1875-0.75 1.0312-0.28125 0.0937-0.65625 0.65625-0.65625 0.0937-0.28125 0.375-0.1875-0.0937-0.375-0.9375 0.1875-0.5625-0.5625-0.0937v-0.5625l0.1875-0.375h0.1875l0.0937 0.0937 0.5625-0.1875v-0.14062l-0.5625-0.28125q-0.0937 0.0937-0.23437 0.14062-0.14063 0.0469-0.32813 0.0469t-0.32812 0q-0.14063 0-0.32813 0v0.1875l-0.375 0.32812-0.0937 0.65625q0.375 0.1875 0.32813 0.51563-0.0469 0.32812 0.14062 0.60937 0.1875 0.28125 0.42188 0.51563 0.23437 0.23437 0.32812 0.51562l0.28125 0.375-0.0937 0.375 0.375 0.46875zm-10.5-1.125v-0.5625h-0.28125v0.5625zm14.156-3.3281v-0.1875l0.0937-0.0937-0.0937-0.28125h-0.375l-0.28125 0.28125zm-4.2188-0.28125-0.375-0.28125-0.28125 0.0937v0.28125h0.5625zm-1.7344-0.0937v-0.1875l-0.0937-0.0937-0.1875 0.1875 0.1875 0.1875zm0.70312 0 0.0937-0.46875-0.28125-0.1875-0.0937-0.375h-0.32812v0.46875l0.51562 0.65625zm-9.6562-0.1875v-0.9375l-0.5625-0.375-0.375 0.46875 0.375 0.75zm10.406-0.375v-0.375l-0.0937-0.0937-0.1875 0.375 0.1875 0.1875zm2.25-0.0937v-0.37515h-0.1875l-0.1875 0.1875zm0-2.25 0.28125-0.5625-0.0937-0.46875 0.1875-0.28125-0.5625-0.1875q-0.1875 0.0937-0.23437 0.28125-0.0469 0.1875-0.0937 0.375-0.0469 0.1875-0.0469 0.375t-0.0937 0.375l0.5625 0.1875zm-12.656-0.5625-0.0937-0.0937-0.0937 0.0937 0.0937 0.0937zm15.656-0.9375 0.0937-0.1875q-0.1875-0.1875-0.375-0.32813-0.1875-0.14062-0.42187-0.23437-0.23438-0.0937-0.46875-0.1875-0.23438-0.0937-0.42188-0.1875l-0.28125 0.46875q0.1875 0.1875 0.42188 0.23437 0.23437 0.0469 0.46875 0.0937 0.23437 0.0469 0.42187 0.23438 0.1875 0.1875 0.46875 0.1875zm1.3125 0-0.0937-0.28125 0.1875-0.0937 0.0469 0.28125zm-0.5625-1.1252v-0.28125l-0.1875-0.46875-0.375-0.0937-0.1875 0.1875 0.375 0.28125 0.0937 0.28125zm-0.75-0.84375-0.0937-0.0937-0.0937 0.0937 0.0937 0.0937zm1.9219-0.84375v-0.1875l0.46875-0.14063 0.0937 0.23438zm-6.1406-0.1875-0.0937-0.0937 0.0937-0.14063zm3.5625-3.3281v-0.1875l-0.375-0.1875v0.1875zm-20.906-0.28125v-0.375h-0.5625v0.375zm23.578-0.46875v-0.0937h0.0937v0.0937zm-5.1094-0.1875-0.1875-0.0937-0.0937 0.0937 0.1875 0.0937zm-28.031-1.875 0.51563-1.0312q-0.0469-0.0937-0.14063-0.1875-0.0937-0.0937-0.23437-0.0937-0.14063 0-0.28125 0-0.14063 0-0.32813 0l-0.1875 0.0937-0.28125-0.46875-0.65625-0.0937-0.1875 0.375 0.46875 0.46875 0.28125-0.0937 0.1875 0.0937 0.0937 0.46875h0.1875l0.1875 0.46875 0.28125 0.0937zm-1.4062-0.0937v-0.46875h-0.46875l-0.0937 0.375 0.1875 0.1875zm20.297-0.84375-0.1875-0.1875-0.0937 0.28125h0.1875z"/>
   <path d="m436.44 336.17-0.65625-0.14062v-0.1875l-0.46875-0.0937-0.46875 0.1875-0.5625-0.84375-0.28125-0.0938q-0.0937-0.1875-0.23438-0.32813-0.14062-0.14062-0.28125-0.28125-0.0937-0.14062-0.0937-0.375 0-0.23437-0.0937-0.42187l-0.5625-0.46875-0.0937-0.65625q0.1875-0.0937 0.0937-0.28125-0.0937-0.1875 0-0.32813 0.0937-0.14062 0.23438-0.23437 0.14062-0.0937 0.0469-0.28125l-0.1875-0.28125 0.46875-0.84375-0.28125-0.65625 0.46875-0.28125q0.0469-0.0937 0.14063-0.23438 0.0937-0.14062 0.14062-0.23437 0.0469-0.0937 0.0469-0.28125 0-0.1875 0-0.28125l-0.1875-0.60938q0.0937-0.46875 0.0937-1.0312t0.23437-1.0312q0.23438-0.46875 0.28125-1.0312 0.0469-0.5625 0.14063-1.0312l-0.0937-0.375 0.0937-0.1875-0.28125-0.65625-0.375-0.0937-0.0937-0.28125q0.1875-0.0937 0.1875-0.28125 0-0.1875 0-0.375t0-0.375 0-0.375l0.28125-0.1875q0-0.28125 0-0.42187 0-0.1875-0.0469-0.42188-0.047-0.23442 0.1405-0.42192t0.28125-0.375l-0.0937-0.375 0.0937-0.1875-0.0937-0.65625 0.1875-0.65625 0.375-0.46875-0.0937-0.28125 0.1875-0.1875q-0.1875-0.0937-0.23438-0.23438-0.047-0.14062-0.047-0.32812t0-0.375 0-0.375q0.1875-0.1875 0.14062-0.42188-0.0469-0.23437 0-0.42187t0.1875-0.375q0.14063-0.1875 0.0469-0.46875l-0.1875-0.375 0.5625-0.98438-0.28125-0.65625-0.28125-0.1875 0.375-0.1875v-0.1875l-0.0937-0.46875 0.28125-0.0937 0.375-0.65625 0.28125-0.0937 0.0937-0.375h0.1875v-0.375l-0.84375-0.0937v-0.28125h0.1875v-0.28125l-0.1875-0.84375 0.0937-0.1875 0.46875-0.0937v-0.28125l-0.46875-0.9375 0.28125-0.5625h0.1875l0.28125-0.79687 0.75-0.1875 0.65625 0.1875 0.84375 0.60937 0.46875 1.2188-0.0937 0.5625 0.375 0.75 0.375-0.5625 0.0937 0.28125 0.28125 0.0937 0.0937 0.46875-0.0937 0.0937 0.375 0.28125 0.0937 0.9375h0.1875l0.28125 1.3125q-0.0937 0.0937-0.0937 0.28125 0 0.1875-0.0937 0.28125-0.0937 0.0937-0.23438 0.1875-0.14062 0.0937-0.14062 0.28125l0.28125 0.9375-0.46875 0.79688-0.65625 0.375-0.0937 0.28125h0.65625l0.28125-0.28125v0.375l-0.28125 0.5625-0.46875 0.0937v0.28125l0.1875 0.46875 0.46875 0.28125-0.84375 0.84375h-0.28125v0.375h0.1875l0.375-0.0937 0.0937 0.46875-0.28125 0.84375 0.28125 1.3125 0.46875 0.1875 0.75 0.5625q0.42187 0.1875 0.84375 0.375 0.42187 0.14062 0.84375 0.32812 0.42187 0.1875 0.89062 0.375t0.9375 0.1875l0.28125 0.375q0.5625 0 1.0312 0.32813 0.46875 0.32812 0.9375 0.46875 0.46875 0.14062 0.9375 0.46875 0.46875 0.32812 1.0312 0.32812l0.1875-0.0937q0.28125 0.1875 0.5625 0.23438 0.32813 0.0469 0.65625 0.0937 0.32813 0.0469 0.5625 0.32812 0.23438 0.28125 0.60938 0.1875l0.375-0.1875 0.0937-0.1875 0.375-0.0937 0.0937-0.375 0.65625-0.0937 0.0937 0.0937 0.5625-0.0937q0.0937 0.0937 0.1875 0.14063 0.0937 0.0469 0.0937 0.14062 0 0.0937 0 0.23438 0 0.14062 0 0.23437l0.75 0.28125 0.0937 0.28125q-0.0937 0.0937-0.1875 0.1875-0.0937 0.0937-0.1875 0.14063-0.0937 0.0469-0.23438 0.0469-0.14062 0-0.23437 0l-0.0937 0.46875 0.5625 0.1875 0.28125-0.0937 0.28125 0.0937v0.1875l-0.46875 0.46875 0.5625 0.75-0.28125 0.46875 0.1875 0.5625-0.0937 0.46875 0.375 1.0781-0.28125 1.3125-0.28125-0.375h-0.28125v0.1875l-0.1875 0.0937-1.2188-0.28125-0.28125 0.0937-0.0937-0.28125-1.125-0.28125-0.28125 0.1875-0.0937-0.46875-0.28125-0.0937-0.0937 0.1875-0.84375 0.0937q-0.28125-0.375-0.75-0.32813-0.42188 0.0469-0.79688-0.1875-0.375-0.23437-0.70312-0.42187-0.32813-0.1875-0.79688-0.1875l-0.0937 0.0937-0.375-0.1875-0.375-0.51563h-0.28125l-0.46875 0.1875v-0.65625l-0.46875-0.0937-0.1875-0.5625h-0.28125l-0.1875 0.0937-0.28125-0.46875h-0.28125l-0.5625 0.28125-0.1875-0.65625q-0.0937-0.0937-0.23437-0.1875-0.14063-0.0937-0.23438-0.1875-0.0937-0.0937-0.23437-0.0937-0.14063 0-0.32813 0l-0.28125 0.375-0.14062-1.0312h-0.28125v0.1875l-0.375 0.0937-0.1875-0.0937v-0.46875l-0.46875-0.1875-0.65625 0.65625h-0.1875l-0.0937-0.46875h-0.375l-0.28125 0.28125 0.28125 0.65625 0.5625 0.375v0.28125l-0.46875 0.1875-0.84375-0.0937v0.375q0.0937 0.0937 0.1875 0.1875 0.0937 0.0937 0.14062 0.14063 0.0469 0.0469 0.1875 0.0469 0.14063 0 0.23438 0l0.28125 1.0312-0.28125 0.42188 0.0937 0.65625-0.28125 0.46875-0.28125 0.1875 0.0937 0.375-0.0937 0.1875 0.0937 0.28125h0.1875l0.1875 0.375h-0.37499l-0.375-0.1875-0.375 0.46875q0.0937 0.0937 0.28125 0.23437 0.1875 0.14063 0.28125 0.28125 0.0937 0.14063 0.14062 0.32813 0.0469 0.1875 0.0469 0.375l-0.0937 0.28125 0.0937 0.375-0.1875 0.65625h-0.56252l-0.65625-0.1875v0.375q0.1875 0 0.32812 0 0.14063 0 0.28125 0.0937 0.14063 0.0937 0.32813 0.0937t0.0937 0.28125l-0.28125 0.0937v0.1875l0.1875 0.375-0.0937 0.46875-0.46875 0.0937v0.28124l0.1875 0.28125-0.1875 0.0469-0.28125-0.14062zm-2.5312-5.2969v-0.1875l-0.0937-0.0937-0.1875 0.1875zm0.28125-2.25 0.0937-0.28125h-0.2812l-0.1875 0.1875 0.28125 0.1875zm7.9219-3.7031v-0.1875h-0.28125l-0.0937 0.0937 0.28125 0.1875zm-0.375-0.28125-0.23437-0.0937-0.0937 0.0937 0.23437 0.0937zm22.312-3.8438-0.28125-0.375-0.5625-0.28125-0.5625-0.42187-0.0937-0.1875-0.0937 0.1875-0.28125 0.0937-0.28125-0.375-0.375-0.0937 0.0937-0.0937-0.0937-0.28125-0.28125-0.1875-0.375-0.65625 0.375-1.5-0.28125-0.375 0.28125-0.375q-0.0937-0.28125-0.375-0.46875-0.28125-0.1875-0.32812-0.46875-0.0469-0.28125-0.14063-0.5625-0.0937-0.28125-0.1875-0.5625l0.5625-0.0937 0.0937-0.65625-1.0312-0.5625 0.0937-0.375-0.1875-0.42188 0.28125-0.375-0.1875-0.5625h-0.1875l-0.1875-0.75q0.0937 0 0.0937-0.14062 0-0.14063 0.0937-0.14063t0.1875 0q0.0937 0 0.1875 0v-0.28125l-0.1875-1.0312 0.0937-0.375-0.5625-0.5625 0.1875-0.28125 0.46875 0.1875 0.75-1.2188q-0.0937-0.0937-0.1875-0.14062-0.0937-0.0469-0.23437-0.0469-0.14063 0-0.28125 0-0.14063 0-0.23438 0v-0.375l0.0937-0.375 0.375-0.28125 0.0937-0.28125-0.0937-0.1875q0.1875 0 0.28125-0.0937 0.0937-0.0937 0.23438-0.1875 0.14062-0.0937 0.28125-0.0937 0.14062 0 0.32812 0l0.5625 0.375 0.1875 0.75 0.375 0.28125 0.0937 0.46875-0.0937 0.46875q0.1875 0 0.32813 0 0.14062 0 0.28125 0.0937 0.14062 0.0937 0.23437 0.14063 0.0937 0.0469 0.28125 0.0469 0.0937 0.375 0.32813 0.65625 0.23437 0.28125 0.375 0.60938 0.14062 0.32812 0.28125 0.65625 0.14062 0.32812 0.0469 0.70312h0.1875l0.28125 0.65625-0.28125 0.9375 0.0937 0.5625-0.1875 0.28125-0.375-0.28125-0.1875 0.28125 0.375 0.1875 0.1875 0.32813-0.28125 0.375q0.0937 0.1875 0.14063 0.46875 0.0469 0.28125 0.14062 0.46875 0.0937 0.1875 0.0937 0.46875t0 0.5625l0.28125 0.1875-0.0937 0.28125 0.28125 0.5625-0.65625 0.28125v0.46875h0.1875l0.1875 0.75-0.0937 0.1875-0.46875 0.375 0.46875 0.65625-0.65625 0.5625 0.1875 0.0937 0.1875 0.75-0.46875 0.23437v0.375l0.1875 0.375zm0.09375-0.79687v-0.0937l-0.0937-0.0937-0.0937 0.1875 0.0937 0.0469zm-9.0469-1.0312-0.375-0.0937 0.0937-0.46875-0.0937-0.0937-0.46875 0.1875-0.0937-0.28125 0.0937-0.1875 0.65625-0.1875 0.28125-0.65625-0.0937-0.0937-0.46875 0.28125-1.0312-0.375-0.46875-0.5625-0.75 0.46875-0.0937-0.375 0.28125-0.0937 0.375-1.0312-0.0937-0.0937 0.0937-0.65625h-0.28125l-0.65635 0.0935v-0.28125l-0.375-0.0937-0.28125 0.1875-0.1875-0.375 0.1875-0.46875-0.1875-0.375-0.375-0.28125 0.46875-0.75-0.0937-0.32813 0.0937-0.0937-0.28125-0.1875 0.75-0.28125 0.0937-0.28125h-0.84375l-0.0937-0.375 0.0937-0.1875 0.84375-0.0937v-0.375h-0.1875l-0.1875-0.65625-0.1875-0.0937-0.0937-0.46875 0.75-0.9375 0.375-0.28125 0.375-1.6875-0.375-0.46875h-0.1875v-0.5625l0.28125-1.1719-0.1875-0.1875 0.0937-0.1875 0.28125-0.1875q0-0.0937 0-0.23438 0-0.14062 0-0.28125 0-0.14062 0.14062-0.1875 0.14063-0.0469 0.0469-0.23437l-0.75-0.1875-0.28125 0.0937v-0.375l0.375-0.28125-0.0937-0.375 0.84375-0.375 0.46875 0.375v0.28125l0.46875 0.0937 0.1875 0.75 0.375-0.375 0.5625 1.4062 0.375 0.0937 0.28125 0.60937-0.0937 0.28125 0.46875 0.375 0.375 1.5938-0.0937 0.1875 0.0937 0.375-0.0937 0.46875q0.375 0.28125 0.42187 0.65625 0.0469 0.375 0.0469 0.79688 0 0.42187 0 0.84375 0 0.42187 0 0.79687l-0.28125 1.0312 0.0937 0.28125-0.5625 1.1719 0.0937 0.375-0.46875 0.46875v0.375l0.375 0.0937v0.28125l-0.5625 0.375-0.375-0.0937-0.375 0.375 0.1875 0.75-0.0937 0.1875h-0.28125l-0.0937-0.0937-0.0937 0.1875 0.1875 0.375-0.1875 0.28125 0.5625 0.1875v-0.1875l0.84375-0.28125 0.1875-0.84375 0.375 0.65625-0.46875 0.28125v0.28125l0.46875 0.28125 0.0937 0.1875q-0.1875 0.0937-0.0937 0.32812 0.0937 0.23438-0.0469 0.42188-0.14062 0.1875-0.23437 0.32812-0.0937 0.14063-0.0937 0.32813zm6.7969-0.65625v-0.1875l0.28125-0.46875-0.84375-0.28125-0.28125 0.0937v0.2813l0.375 0.0937q0 0.0937 0.0469 0.1875 0.0469 0.0937 0.0937 0.14062 0.0469 0.0469 0.14062 0.0937 0.0937 0.0469 0.1875 0.0469zm-9.0469-0.65625-0.0937-0.46875h0.0937l0.375 0.46875zm2.3438-3.1875v-0.1875l0.1875-0.375-0.28125-0.1875-0.46875 0.65625zm-2.25-0.84375 0.0937-0.375-0.1875-0.1875-0.375 0.375 0.375 0.28125zm6.9844 0v-0.1875 0.0937l0.0937 0.0937zm-8.0156-0.28125 0.0937-0.0937-0.0937-0.28125h-0.5625l-0.0937 0.0937 0.0937 0.28125 0.46875 0.0937zm1.4062-3.2344v-0.375h-0.65625v0.1875zm6.9844-0.75 0.0937-0.375h-0.375v0.28125l0.1875 0.1875z"/>
   <path d="m476.94 337.67-0.1875-0.0937v-0.46875l0.0937-0.375q-0.1875-0.1875-0.375-0.23437-0.14063-0.0469-0.375-0.0469-0.23438 0-0.42188-0.0937t-0.375-0.0937l-0.28125-0.60937-0.375 0.42187q-0.0937-0.32812-0.1875-0.60937-0.0937-0.28125-0.1875-0.60938-0.0937-0.32812-0.0937-0.70312t-0.1875-0.65625l0.0937-0.28125-0.28125-0.375q0.0937-0.0937 0.1875-0.23438 0.0937-0.14062 0.14063-0.28125 0.0469-0.14062 0.0469-0.32812t0.0937-0.28125l0.28125-0.1875q-0.0937-0.0937-0.1875-0.14063-0.0937-0.0469-0.14062-0.14062-0.0469-0.0937-0.0469-0.23438 0-0.14062 0-0.23437l0.1875-0.46875h-0.1875v-0.1875l0.375-0.9375 0.5625-0.1875v-0.46875h-0.1875l-0.28125-1.5469 0.0937-0.375-0.1875-0.46875 0.375-0.28125v-0.375l-0.28125-0.84375 0.5625-0.1875v-0.5625l-0.1875-0.1875-0.28125 0.0937v0.28125l-0.0937-0.1875 0.5625-0.84375-0.1875-0.46875 0.65625-0.46875v-0.375l-0.28125-0.75 0.46875-0.0937v-0.28125l-0.1875-0.5625 0.0937-0.23437-0.375-0.0937v-0.375l0.375-0.65625-0.0937-0.46875 0.28125-1.2188-0.0937-0.1875 0.28125-0.75 0.28125-0.1875q0.0469-0.28125 0.0469-0.60938 0-0.32812 0.0937-0.60937t0.14062-0.60938q0.0469-0.32812 0.32813-0.51562l0.65625-0.28125 1.2188 0.75 0.0937 0.28125-0.0937 0.28125q0.0937 0.28125 0.32812 0.28125 0.23438 0 0.46875 0.0937 0.23438 0.0937 0.375 0.28125 0.14063 0.1875 0.32813 0.28125v0.1875l1.0312 0.5625q0 0.1875 0.0469 0.32812 0.0469 0.14063 0.14063 0.28125 0.0937 0.14063 0.1875 0.28125 0.0937 0.14063 0.0937 0.32813-0.0937 0.0937-0.1875 0.23437-0.0937 0.14063-0.14063 0.23438-0.0469 0.0937-0.0469 0.28125 0 0.1875 0 0.28125l0.28125 0.1875 0.0937 1.2188-0.9375 0.89062-0.28125-0.0937-0.1875 0.46875 0.1875 0.1875 0.46875-0.46875h0.65625l0.0937 0.1875-0.28125 0.0937-0.46875-0.0937-0.0937 0.46875 0.0937 0.28125 0.75 0.28125v0.375q-0.0937 0.28125-0.1875 0.51563-0.0937 0.23437-0.28125 0.46875-0.1875 0.23437-0.1875 0.51562t0 0.5625l0.0937 0.1875q-0.375 0.1875-0.28125 0.60938 0.0937 0.42187-0.0937 0.75-0.1875 0.32812-0.1875 0.65625 0 0.32812-0.0937 0.70312l-0.5625 0.1875v0.28125l0.1875 0.70313-0.46875 0.65625 0.46875 1.125-0.0937 0.0937-0.46875-0.0937-0.65625 0.75 0.65625 0.75-0.375 0.0937-0.28125 1.125 0.46875 0.375-0.46875 0.28125q-0.0937 0.28125-0.1875 0.60937-0.0937 0.32813-0.0937 0.65625 0 0.32813-0.0937 0.65625-0.0937 0.32813-0.1875 0.5625l-0.375 0.28125v0.28125l0.28125 0.46875-0.46875 0.28125-0.375-0.375-0.1875 0.375zm0.75-1.5938 0.0937-0.0469-0.1875-0.28125-0.1875 0.1875 0.1875 0.23437zm-0.75-0.42187v-0.1875l-0.0937-0.0937-0.0937 0.28125 0.0937 0.0937zm25.266-1.4062v-0.0937h0.1875v-0.2813l-1.2188-0.0937v-0.1875l0.375-0.28125 0.28125 0.1875q0.0937-0.0937 0.14063-0.1875 0.0469-0.0937 0.0469-0.23438 0-0.14062 0-0.28125 0-0.14062 0-0.23437l-0.0937-0.375 0.0937-0.5625h-0.65625l-0.1875 0.28125-0.65625 0.0937q0 0.0937-0.0469 0.1875 0 0.0937-0.0937 0.14062-0.0937 0.0469-0.1875 0.0937-0.0937 0.0469-0.1875 0.0469l-1.0312-0.75q0-0.1875 0-0.32813 0-0.14062-0.0469-0.32812t-0.14062-0.28125q-0.0937-0.0937-0.0937-0.28125l-0.28125-0.1875-0.5625-1.0312 0.0937-0.46875-0.65625-0.28125-0.0937-0.28125h-0.18758v-0.1875l0.0937-0.42188q-0.1875 0-0.32813-0.0469-0.14062-0.0469-0.28125-0.0469-0.14062 0-0.23437-0.14062-0.0937-0.14063-0.28125-0.14063l-0.0937-0.375 0.1875-0.75q-0.0937-0.0937-0.1875-0.23437-0.0937-0.14063-0.1875-0.28125-0.0937-0.14063-0.0937-0.32813t0-0.375l-0.46875-0.0937-0.46875 0.0937-0.1875-0.375 0.0937-0.28125-0.1875-0.1875 0.0937-0.46875-1.125-0.65625-0.0937 0.0937q-0.1875-0.1875-0.32813-0.42187-0.14062-0.23438-0.14062-0.46875 0-0.23438-0.0937-0.46875-0.0937-0.23438-0.23438-0.42188l-0.375-0.0937-0.1875-0.5625 0.1875-0.5625-0.375-0.42187 0.0937-0.1875-0.375-0.5625 0.65625-1.5938 0.375-0.0937 0.51563 0.28125 0.1875 0.375 1.5 0.84375-0.0937 0.1875 0.28125 0.1875 0.9375 1.3594q0.0937 0.0937 0.1875 0.0937 0.0937 0 0.0937 0.14063 0 0.14062 0.0469 0.23437 0.0469 0.0937 0.0469 0.1875 0.28125 0.1875 0.23437 0.5625-0.0469 0.375 0.1875 0.65625 0.23438 0.28125 0.32813 0.5625 0.0937 0.28125 0.28125 0.5625l0.46875 0.46875 0.75 0.46875q0.28125 0.65625 0.65625 1.1719 0.375 0.51562 0.75 1.0781t0.65625 1.125q0.32812 0.51563 0.89062 0.98438l-0.0937 0.0937 0.46875 0.9375 0.28125 0.0937 0.0937 1.0312 0.65625 0.28125 0.1875 1.125-0.1875 0.375 0.0937 0.28125h0.46875l0.1875 0.65625 0.28125 0.1875-0.0937 0.1875-0.375-0.1875q-0.0937 0.0937-0.28125 0.0937-0.1875 0-0.28125 0.14062-0.0937 0.14063-0.23437 0.1875-0.14063 0.0469-0.32813 0.0469zm-1.5-0.75v-0.375h0.0937v0.375zm0.75-0.84375-0.0937-0.1875 0.375-0.0937zm-4.0781-3.1875 0.0937-0.0937v0.0937zm-23.109-0.75v-0.0937l-0.1875-0.28125 0.28125-0.0937 0.0937 0.375zm2.0625-0.79688v-0.28125h-0.28125v0.28125zm2.4844-0.1875 0.0937-0.375-0.28125-0.1875-0.0937-0.5625-0.28125-0.0937v0.1875l0.0937 0.0937-0.0937 0.9375 0.1875 0.1875zm1.5938-2.5312v-0.28125l-0.28125-0.1875-0.0937 0.0937 0.28125 0.46875zm-0.28125-0.5625v-0.0937l-0.0937-0.28125h-0.2813v0.5625h0.375zm1.0312-1.3125-0.0937-0.0937-0.0937 0.0937 0.0937 0.0937zm11.812-2.25 0.1875-0.46875-0.375-0.1875v0.65625l0.0937 0.0937zm-0.60938-2.0156-0.1875-0.1875-0.1875 0.1875 0.28125 0.0937zm15.656-1.2188-0.0937-0.0937 0.0937-0.0937-0.28125-0.46875 0.28125-0.0937v-0.1875l-0.65625-0.28125-0.0937-0.9375 0.28125-1.125-0.1875-0.375-0.84375-0.1875-0.5625 0.0937-0.375-0.1875-0.375 0.1875-0.0937-0.28125q-0.1875 0-0.28125-0.0469-0.0937-0.0469-0.23437-0.0937-0.14063-0.0469-0.1875-0.1875-0.0469-0.14062-0.23438-0.14062l-0.0937-0.1875h0.375l0.375 0.0937 0.1875-0.5625-0.46875-0.28125 0.0937-0.51563h-0.75l-0.1875 0.32813v-0.23438l0.1875-0.28125 0.46875-0.28125v-0.28125l-0.65625-0.28125-0.0937-0.28125 0.65625-0.5625 0.0937-0.5625 0.5625-0.1875 0.0937-0.28125-0.75-0.28125v-0.28125l0.0937-0.28125-0.28125-0.375-0.375 0.0937-0.375-0.1875v-0.28125l0.0937-0.5625-0.0937-0.5625h0.46875v-0.1875l-0.28125-0.46875 0.375-0.1875 0.0937-0.1875 0.5625-0.375-0.65625-0.5625v-0.1875q0.0937-0.14062 0.0937-0.32812t0.0469-0.375 0.14062-0.375q0.0937-0.1875 0.1875-0.375l0.5625-0.75-0.1875-0.375-0.1875-0.0937v-0.18758h0.46875l0.0937-0.46875-0.0937-0.28125-0.28125-0.0937-0.0937-0.28125q0.0937 0 0.23438 0 0.14062 0 0.28125 0 0.14062 0 0.23437-0.14063 0.0937-0.14062 0.28125-0.0469l0.28125 0.75 0.1875 0.0937 0.0937 0.75 0.28125 0.0937 0.46875-0.0937 0.375 0.28125-0.375 0.0937v0.375l0.5625 0.28125 0.28125-0.1875 0.28125 1.2188-0.375 0.0937-0.75-0.0937v0.1875l-0.65625 0.51562v0.375l0.9375 0.28125 0.375-0.375-0.28125-0.375 0.1875-0.0937 0.0937 0.28125 0.65625 0.0937v0.28125l-0.375 0.46875 0.28125 0.5625-0.1875 0.375-0.28125 0.1875v0.28125l0.1875 0.28125 0.28125-0.46875 0.28125 0.28125-0.46875 0.0937v0.1875q0.1875 0.28125 0.375 0.46875 0.23438 0.1875 0.28125 0.51563 0.0469 0.32812 0.0469 0.65625 0 0.32812 0.0937 0.60937l-0.32813 0.1875v0.375l0.14063 0.28125-0.70313 0.28125v0.28125l0.0937 0.28125h0.1875v0.0937l-0.28125 0.5625 0.46875 0.0937v0.42188l-0.75 0.1875-0.0937-0.0937-0.75 0.75-0.46875 0.0937v0.1875q0.0937 0.1875 0.23438 0.1875 0.14062 0 0.32812 0t0.375 0 0.28125 0.0937l0.375-0.375 0.0937 0.28125-0.28125 0.0937-0.0937 0.375 0.28125 0.28125 0.28125-0.5625 0.51563 0.28125 0.0937 0.75-0.0937 0.28125 0.1875 0.5625-0.0937 0.28125 0.1875 0.75-0.375 0.1875q0 0.1875 0 0.32812 0 0.14063 0 0.32813t-0.0937 0.28125q-0.0469 0.0937-0.23438 0.1875zm-9.0469-0.1875v-0.46875l-0.1875-0.75 0.0937-0.375-0.375-0.0937-0.375 0.1875-0.28125-0.1875-0.5625 0.1875-0.0937-0.75h-0.375l-0.0937 0.0937-0.0937-0.65625 0.1875-0.65625h0.28125v-0.28125l-0.46875-0.1875-0.28125-0.5625 0.1875-0.5625-0.0937-0.28125-0.46875-0.0937v-0.1875l0.28125-0.14063q-0.0937-0.28125-0.1875-0.51562-0.0937-0.23438-0.23438-0.46875-0.14062-0.23438-0.0469-0.5625 0.0937-0.32813-0.1875-0.51563l-0.9375-0.28125-0.0937-0.28125 0.1875-0.46875 0.9375-0.375-0.9375-0.28125v-0.0937l0.9375-0.46875-0.1875-0.65625 0.1875-0.1875-0.5625-0.1875-0.46875-1.3125 0.28125-0.1875 0.375-0.46875 0.375 0.1875q0-0.0937 0-0.23437 0-0.14063 0.0937-0.23438 0.0937-0.0937 0.1875-0.1875 0.0937-0.0937 0.0937-0.23437l-0.1875-0.1875-0.375 0.32812-0.1875-0.23437 0.5625-0.375v-0.5625h0.0937l0.46875 0.375-0.1875 0.0937 0.5625 0.28125v0.42187l-0.28125 0.1875 0.65625 0.1875 0.375-0.0937 0.1875 0.375 0.5625 0.1875v0.28125l0.375 0.1875 0.1875 1.0312 0.75 0.5625-0.375 0.46875 0.9375 1.0312-0.5625 0.1875-0.0937 0.5625 0.1875 0.0937 0.375-0.0937 0.0937 0.46875-0.0937 0.28125 0.375 0.28125v0.28125l-0.1875 0.65625 0.32812 1.8281-0.23437 0.5625 0.23437 0.375-0.0937 0.1875-0.70312 0.75 0.65625 0.1875 0.23437-0.5625 0.0937 0.75-0.0937 0.46875 0.0937 0.375-0.0937 0.375-0.0937-0.28125-0.60937-0.1875-0.28125 0.65625 0.375 0.28125v0.375h-0.1875l-0.28125-0.0937-0.65625 0.28125zm6.5156-1.7812-0.1875-0.0937v-0.2813l0.28125-0.46875h0.0937l0.0937 0.5625-0.0937 0.28125zm1.3125-0.75-0.375-0.28125v-0.1875l0.375-0.28125 0.0937 0.46875zm-8.4844 0v-0.84375l-0.46875-0.1875-0.65625 0.9375 0.0937 0.28125h0.5625zm6.1406-0.375-0.1875-0.0937 0.1875-0.375h0.375v0.1875zm-6.5156-0.84375v-0.1875l-0.1875-0.28125-0.0937 0.375 0.1875 0.1875zm2.3438-0.46875v-0.28125l-0.375-0.1875v0.46875zm-4.3125-0.1875-0.0937-0.28125h0.0937l0.0937 0.1875zm2.0625-1.8281 0.5625-0.375 0.0937-0.5625h-0.28125l-0.0937 0.28125-0.5625 0.1875v-0.1875l-0.375-0.1875-0.28125 0.5625 0.1875 0.46875 0.28125 0.0937zm1.7812-0.84375-0.0937-0.0937-0.0937 0.0937 0.0937 0.0937zm7.8281 0-0.0937-0.0937-0.0937 0.0937 0.0937 0.0937zm-8.6719-0.28125v-0.0937l-0.0937-0.0937-0.0937 0.1875 0.0937 0.0937zm7.9219 0 1.125-1.0312-0.9375-0.375-0.1875 0.5625 0.1875 0.1875-0.375 0.0937-0.0937 0.65625h0.1875zm-3.5625-0.65625v-0.0937l-0.0937-0.375h0.28125l0.1875 0.0937v0.0937zm-7.7344-0.0937 0.375-0.1875v-0.28125l-0.65625-0.1875-0.28125 0.46875 0.46875 0.28125zm3.8438-0.1875-0.0937-0.0937-0.0937 0.0937 0.0937 0.0937zm7.8281-0.65625v-0.1875l0.375-0.28125 0.0937-0.46875-0.75-0.0937v1.0312zm-9.0469-2.25 0.0937-0.0937-0.46875-0.46875-0.1875 0.65625h0.46875zm9.4219-0.5625v-0.28125h-0.28125v0.28125zm-2.5312-6.3281-0.0937-0.1875 0.28125-0.0937v0.1875z"/>
   <path d="m528.83 333.31-0.28125-0.375-0.5625-0.0937v-0.28125l0.0937-0.0937 0.28125 0.28125 0.1875-0.65625-0.46875-0.28125-0.375 0.28125-0.375-0.28125q-0.18745 0.1874-0.32807 0.28115-0.14063 0.0937-0.42188 0.0937t-0.42187 0.14062q-0.0937 0.14063-0.28125 0.23438-0.0937-0.0937-0.23438-0.23438-0.14062-0.14062-0.28125-0.28125-0.14062-0.14062-0.28125-0.1875-0.14062-0.0469-0.32812-0.0469l-0.28125-0.65625 0.1875-1.2188-0.375-0.0937-0.28125 0.0937-0.0937-0.28125 0.65625-0.375 0.28125-0.375 0.84375-0.46875 0.1875-0.375q0.28125-0.23438 0.5625-0.23438 0.32812 0 0.60937-0.1875t0.51563-0.42187q0.23437-0.23438 0.60937-0.23438v-0.1875l1.4062-0.28125 0.0937-0.1875 1.2188-0.46875 0.0937-0.1875 0.5625-0.28125 0.75 0.28125 0.1875-0.75 0.65625-0.0937v-0.1875q0.375-0.28125 0.79688-0.375 0.46875-0.0937 0.84375-0.42187 0.375-0.32813 0.89062-0.375 0.51563-0.0469 0.89063-0.32813l0.75-0.9375h0.28125l0.1875 0.0937 0.28125-0.46875q0.28125-0.28125 0.70312-0.28125 0.42188 0 0.70313-0.32812 0.28125-0.32813 0.65625-0.46875 0.375-0.14063 0.75-0.32813l0.1875-0.375q0.5625-0.32812 1.2188-0.51562 0.70312-0.1875 1.2656-0.60938 0.5625-0.42187 1.2656-0.5625 0.70312-0.14062 1.3594-0.32812v-0.1875l0.5625-0.0937q0.1875 0.1875 0.46875 0.23437 0.28125 0.0469 0.46875 0.28125 0.1875 0.23438 0.46875 0.23438t0.5625 0.0937l0.0937 0.28125h0.1875l0.5625 0.75-0.65625 0.70312-0.28125 1.125 0.46875 0.65625-0.0937 0.1875h-0.1875l-0.1875-0.0937-0.5625 1.0312 0.1875 0.375-1.125 0.0937v0.1875-0.1875h-0.5625l-1.125 0.0937-0.375 0.9375-0.9375 0.46875-0.9375-0.1875-0.375 0.0937 0.0937-0.28125-0.28125-0.0937-0.1875 0.28125 0.1875 0.9375-1.0781 0.28125v0.1875h-0.1875v0.1875l-0.28125-0.0937-0.28125 0.0937v0.28125h-0.0937v-0.0937l0.0937-0.0937-0.375-0.0937-0.75 0.65625 0.46875 0.1875 0.28125-0.0937v0.375l-0.5625-0.1875-0.375 0.0937-0.1875 0.79688-0.65625-0.375q0 0.1875-0.0469 0.375t0 0.375-0.0937 0.32812q-0.14062 0.14063-0.32812 0.23438l-0.28125-0.65625-0.65625-0.375-0.1875 0.1875-0.75-0.46875-0.28125 1.2188 0.0937 0.28125-0.46875 0.375v0.375l0.0937 0.0937-0.375 0.0937-0.0937-0.65625-0.65625-0.1875-0.60938 0.65625 0.1875 0.65625-0.375 0.1875-0.1875-0.5625h-0.1875l-0.0937-0.1875-0.375 0.28125-1.875 1.3125v0.1875h-0.0937q-0.09373-0.18742-0.23435-0.2343-0.14063-0.0469-0.28125-0.14062-0.14063-0.0937-0.28125-0.14063-0.14063-0.0469-0.32813-0.0469l-0.5625 0.28125-0.0937 0.5625h-0.1875l-0.1875 0.5625 0.0937 0.1875zm-0.1875-1.3125-0.0937-0.0937-0.0937 0.0937 0.0937 0.0937zm0.28125-0.0937-0.1875-0.0937-0.0937 0.0937 0.1875 0.0937zm0-1.125 0.1875-0.65625-0.65625-0.1875-0.1875 0.65625 0.5625 0.28125zm5.3906-13.125v-0.1875l-0.14063-0.375-1.6875-0.5625-0.28125-0.46875-0.375 0.46875 0.5625 0.5625 0.1875 0.46875 0.375-0.1875v0.1875h-0.75l-1.3125-0.46875-0.46875-0.1875v0.5625h-0.0937l-0.0937-0.28125-0.28125-0.1875-0.46875-0.375-0.0937-0.46875 0.1875-0.1875q0 0.0937 0.0469 0.23437 0.0469 0.14063 0.1875 0.1875 0.14062 0.0469 0.23437 0.0937 0.0937 0.0469 0.1875 0.14063l0.0937 0.28125 0.5625-0.375 0.375-0.5625q-0.0937-0.0937-0.1875-0.1875-0.0937-0.0937-0.23437-0.0937-0.14063 0-0.28125 0-0.14063 0-0.23438-0.0937l-0.5625 0.28125-0.1875-0.65625-0.28125 0.5625-0.5625 0.0937-0.28125 0.28125-0.75-0.75q-0.1875 0-0.28125 0-0.0937 0-0.28125 0-0.1875 0-0.23437-0.0937-0.0469-0.0937-0.14063-0.1875l-0.0937-0.46875h-0.375l-0.0469 0.0937-0.375-0.1875-0.1875-0.375h0.28125v-0.28125l-0.0937-0.0937-0.75 0.375-0.46875-0.0937v-0.1875l0.28125-0.375-0.28125-0.1875-0.65625 0.5625-0.1875-0.75h-0.1875l-0.0937-0.375-0.65625-0.46875-0.5625 0.0937-0.1875-0.70313-0.1875 0.32813-0.28125 0.0937-0.28125-0.51563-0.46875-0.1875-0.75-0.84375 0.28125-0.65625-0.75-0.28125 0.375-0.65625q-0.0937-0.0937-0.1875-0.14062-0.0937-0.0469-0.23438-0.0469-0.14062 0-0.28125 0-0.14062 0-0.23437 0v-0.28125l0.46875-1.125-0.0937-0.0937-0.375 0.28125q-0.0937-0.0937-0.23438-0.1875-0.14062-0.0937-0.1875-0.23437-0.0469-0.14063-0.0469-0.28125 0-0.14063 0-0.32813h0.1875l0.375-0.65625 0.28125 0.375 0.375 0.0937q0.0937-0.0937 0.1875-0.1875 0.0937-0.0937 0.14062-0.14062 0.0469-0.0469 0.1875-0.0469 0.14063 0 0.23438 0l0.84375 0.28125 0.1875 0.46875h0.5625l1.0312-0.1875 0.0937 0.375 0.5625 0.28125 0.1875 0.375-0.0937 0.375q0.1875 0.1875 0.32812 0.23438 0.14063 0.0469 0.32813 0.14062 0.1875 0.0937 0.42187 0.0937 0.23438 0 0.42188 0l0.0937 0.375 0.65625 0.0937v0.46875l-0.0937 0.0937 0.70312 0.375 0.0937 0.28125-0.0937 0.46875 0.0937 0.0937 0.375-0.375 1.2188 0.75 0.0937 0.375 1.5938 1.0781 0.28125 0.375 0.65625 0.0937v0.375l0.46875 0.0937 0.1875-0.0937 0.75 0.0937 0.46875 0.65625 0.375 0.0937 0.0937 0.375 0.5625 0.1875q0 0.1875 0 0.42187 0 0.23438 0.0937 0.375 0.0937 0.14063 0.1875 0.32813 0.14063 0.1875 0.0469 0.375l-0.14063 0.1875 0.23438 0.1875 0.28125-0.0937 0.1875 0.5625zm-5.5781-1.2188 0.0937-0.0937 0.0937 0.0937zm-2.7656-3.1875v-0.375l-0.375-0.5625-0.65625-0.1875-0.46875 0.1875v0.5625l0.84375 0.375 0.375-0.0937zm-4.0312-2.3906v-0.28125l-0.0937-0.375 0.0937-0.1875h0.28125l0.0937-0.65625-0.5625-0.1875-0.1875 0.65625 0.0937 1.0312z"/>
   <path d="m569.8 335.28v-0.0937l-0.375-0.46875-1.2656-0.375-0.375-0.84375-0.5625-0.46875-0.28125-0.84375 0.0937-0.46875-0.0937-0.1875 0.375-0.0937 0.28125 0.0937q0.28125-0.0937 0.28125-0.32813 0-0.23437 0.0937-0.375 0.0937-0.14062 0.14062-0.32812 0.0469-0.1875 0.14063-0.375l0.65625-0.65625 0.0937-0.5625h0.14062l0.28125 0.28125 0.65625-1.3594 0.375-0.375 0.65625-0.0937 0.75-1.7812 0.28125-0.0937v-0.375q0.375-0.0937 0.65625-0.42187 0.28125-0.32813 0.51563-0.65625 0.23437-0.32813 0.5625-0.5625 0.32812-0.23438 0.42187-0.60938l0.28125-0.28125 0.9375-0.5625 0.1875-0.5625 0.9375-0.0937v-0.1875l-0.0937-0.1875 0.46875-0.65625 0.32813-0.0937 0.46875-0.42187 0.28125 0.0937v-0.1875l-0.0937-0.28145 0.375-0.75 1.2188-0.28125q0-0.1875 0-0.375t0.0469-0.32813q0.0469-0.14062 0.14063-0.28125 0.0937-0.14062 0.28125-0.23437l-0.0937-0.28125 0.46875-0.28125 0.375-0.65625 0.5625-0.375 0.28125-1.0312 0.28125-0.0937v-0.4688l-0.46875-0.84375-0.65625-0.1875-0.0937-0.46875h-0.1875l-0.75 0.5625-0.75-0.84375-0.1875 0.75h-0.09388l-0.75-0.1875v-0.1875l0.5625-1.4531-0.1875-0.1875q-0.0937 0.0937-0.1875 0.1875-0.0937 0.0937-0.23438 0.0937-0.14062 0-0.23437 0.0469-0.0937 0.0469-0.28125 0.0469 0 0.1875 0 0.375t-0.14063 0.32813q-0.14062 0.0937-0.28125 0.1875-0.0937 0.0937-0.0937 0.28125l-0.28125-1.1719h-0.1875q-0.28125 0.1875-0.51562 0.375-0.23438 0.1875-0.5625 0.23438-0.32813 0.0469-0.60938 0.23437-0.28125 0.14063-0.5625 0.23438l-0.84375-1.0781-0.5625-0.0937-0.28125 0.0937-0.0937 0.65625-0.0937-0.28125 0.0937-0.46875-0.0937-0.375-1.3125-0.375-0.0937-0.1875-0.1875 0.375 0.375 0.0937v0.0937l-0.1875 0.375-0.5625-0.375-0.0937-0.28125-1.0312-0.0937-0.0937 0.0937 0.1875 0.1875-0.0937 0.28125 0.28125 0.46875-0.70312 0.1875-0.1875 0.32813-0.0937-0.70313q-0.0937-0.0937-0.28125-0.14062-0.1875-0.0469-0.32813-0.0937-0.14062-0.0469-0.32812-0.0469t-0.375 0q-0.28125 0-0.46875 0.23438-0.1875 0.23437-0.46875 0.23437t-0.51563 0.0469q-0.23437 0.0469-0.42187 0.32812l-0.28125-0.65625-0.46875-0.1875-0.28125 0.0937-0.28125 0.65625-0.5625 0.1875v-0.1875l0.28125-0.5625 0.28125-0.0937v-0.28125l-0.5625-0.0937q-0.1875 0.0937-0.32813 0.1875-0.14062 0.0937-0.28125 0.14063-0.14062 0.0469-0.32812 0.0469t-0.375 0l-1.125-0.75v-0.0937l0.5625-0.28125 0.1875-0.375q-0.0937-0.0937-0.14063-0.1875-0.0469-0.0937-0.14062-0.0937-0.0937 0-0.23438 0-0.14062 0-0.23437 0l-0.14063 0.0937v-0.1875l0.0937-0.1875-0.1875-0.375 0.0937-0.46875-0.75-0.1875-0.0937-0.375q0.0937-0.0937 0.1875-0.23437 0.0937-0.14063 0.14063-0.28125 0.0469-0.14063 0.0469-0.28125 0-0.14063 0-0.32813h0.1875l0.0937 0.28125h0.28125l1.8281-0.75 0.375 0.0937 0.75-0.1875 0.46875 0.0937 0.75-0.0937q0.375 0.0937 0.79687 0.14063 0.42188 0.0469 0.89063 0.0469t0.84375 0.0469 0.84375 0.0469l0.51562-0.0937q0.0937 0.1875 0.32813 0.23438 0.23437 0.0469 0.42187 0.0469t0.375 0.14063q0.1875 0.14062 0.375 0.14062l0.5625-0.1875q0.1875 0.0937 0.375 0.23438 0.1875 0.14062 0.375 0.23437 0.1875 0.0937 0.46875 0.0937t0.46875 0l0.75-0.0937 0.84375 0.5625 0.5625-0.28125q1.5 0.375 3 0.75 1.5469 0.375 2.9531 0.9375t2.7656 1.2656q1.4062 0.70312 2.9062 1.0781l0.75 0.5625 0.46875 0.89063-0.0937 0.65625 0.0937 0.65625q-0.1875 0.1875-0.23437 0.51562-0.0469 0.32813-0.23438 0.51563-0.1875 0.1875-0.23437 0.46875-0.0469 0.28125-0.14063 0.5625l0.0937 0.65625-0.28125 0.75-0.5625 0.0937-0.375-0.1875-0.375 0.28125v0.375l-0.375-0.1875 0.0937-0.28125h-0.51562l-0.0937 0.84375 0.60937 0.75-0.70312 0.46875q0 0.1875-0.0937 0.375-0.0937 0.14062-0.0937 0.375 0 0.23437-0.14063 0.375-0.141 0.14048-0.141 0.32798l0.28125 0.46875 0.28125 0.375 0.70312 0.375 0.46875 0.65625 0.9375 0.375v0.1875l0.75 0.375 0.28125 0.5625 0.65625 0.28125 0.0937 0.28125 0.28125 0.0937 0.0937 0.28125 0.65625 0.375 2.1562 2.0625 0.375 0.60938 0.1875 0.0937 0.0937 0.65625-0.0937 0.28125-0.5625 0.0937-0.1875 0.28125-0.1875-0.28125 0.0937-0.46875-0.6561-0.18735q-0.0937 0.0937-0.1875 0.23437-0.0937 0.14063-0.0937 0.28125 0 0.14063-0.0469 0.28125-0.0469 0.14063-0.0469 0.32813l-0.46875 0.0937-0.1875-0.5625h-0.28125l-0.5625 0.1875-0.75-0.375v-0.28125l-1.2188-0.28125-0.375-0.46875 0.0937-0.1875v0.1875l0.75 0.0937 0.46875-0.1875 0.0937-0.51563-0.5625-0.5625h-0.84375l-0.1875 0.28125 0.5625 0.28125v0.0937l-0.75 0.14063-0.375-0.14063 0.0937-0.0937-0.46875-0.0937-0.70312 0.1875-0.84375-0.75v-0.375l0.375-0.1875v-0.375l-0.9375-0.5625-0.0937-0.28125 0.1875-0.375h-0.46865q-0.0937 0.0937-0.1875 0.1875-0.0937 0.0937-0.14063 0.14063-0.0469 0.0469-0.1875 0.0469-0.14062 0-0.23437 0.0937l-0.5625-0.28125-0.5625 0.0937-0.5625-0.375-0.375 0.0937q0 0.1875 0 0.42188 0 0.23437-0.14063 0.375-0.14062 0.14062-0.14062 0.32812t-0.0937 0.375l-1.0312 0.0937v0.1875l0.375 0.28125v0.0937l-0.375 0.0937-0.0937-0.28125-0.46875-0.0937-0.1875 0.46875 0.1875 0.65625q-0.1875 0-0.32813 0-0.14062 0-0.28125 0.0937-0.14062 0.0469-0.28125 0.14063-0.14062 0.0937-0.28125 0.0937v0.46875h-0.375l-0.75-0.375-0.375 0.46875 0.0937 0.0937-0.0937 0.1875h-0.0937l-0.65625-0.9375-0.375 0.65625 0.0937 0.28125 0.46875 0.28125v0.28167l-0.1875 0.375 0.0937 0.65625h0.1875v0.0937l-0.75 0.1875-0.28125 0.46875 0.0937 0.0937h-0.1875l-0.0937-0.9375-0.375-0.0937-0.1875-0.65625-0.28125 0.65625 0.0937 0.28125 0.28125 0.0937v0.28135l-0.28125 0.65625-0.5625 0.28125-0.1875 0.84375 0.1875 0.65625-0.0937 0.0937-0.375-0.28125-0.1875-0.375-0.46875-0.0937-0.1875 0.375 0.375 0.75-0.46875 0.375-0.0937 0.28125-0.375-0.5625q-0.0937 0.0937-0.23437 0.23437-0.14063 0.14063-0.23438 0.23438-0.0937 0.0937-0.1875 0.23437-0.0937 0.14063-0.0937 0.32813zm1.5938-2.9062 0.0937-0.46875-0.28125-0.1875-0.375 0.46875 0.46875 0.28125zm19.406-4.3125 0.1875-0.23438-0.0937-0.46875h-0.1875l-0.46875 0.89063h0.28125zm-13.078-1.5469v-0.1875l-0.0937-0.0937-0.0937 0.28125 0.0937 0.0937zm4.125-1.5938v-0.0937l-0.0937-0.0937-0.0937 0.1875 0.0937 0.0937zm1.125-4.7812v-0.32812l-0.5625-0.28125-0.28125-0.46875-0.28125 0.0937v0.1875l0.46875 0.46875 0.375 0.32812zm1.5-0.89062-0.0937-0.0937-0.0937 0.0937 0.0937 0.0937zm-8.9531-7.9219v-0.375h-0.28125v0.375zm-1.125-0.1875v-0.0937l-0.0937-0.0937-0.0937 0.1875 0.0937 0.0937zm-8.9531-0.28125 0.1875-0.5625-0.375-0.28125-0.75 0.5625v0.375h0.84375zm3.4688-0.0937 0.32812-0.28125-0.0937-0.28125-0.42187-0.0937-0.46875 0.1875-0.1875 0.5625 0.46875 0.0937zm-5.5312-0.5625v-0.1875q-0.0937-0.0937-0.14063-0.1875-0.0469-0.0937-0.14062-0.0937-0.0937 0-0.23438 0-0.14062 0-0.23437 0l-0.28125 0.5625 0.375 0.0937zm2.625-1.6875-0.28125-0.1875-0.1875 0.1875 0.1875 0.1875zm0.84375-1.7812-0.28125-0.5625h-0.28125l-0.28125 0.6562 0.46875 0.0937z"/>
   <path d="m514.86 403.85-0.375-0.28125-0.0937-0.28125 0.28125-0.28125-0.46875-0.0937-0.0937 0.0937-0.65625-0.5625 0.75-0.65625v-0.28125l-0.1875-0.375-0.375-0.0937-0.28125 0.375-0.75-0.28125-0.42187-0.65625-0.375-0.28125v-0.79687l0.375-0.65625 0.70312-0.75 1.125-0.46875 0.0937-0.375q0.375-0.375 0.84375-0.60938 0.46875-0.23437 0.89063-0.46875 0.42187-0.23437 0.89062-0.375 0.46875-0.14062 0.9375-0.32812l0.1875 0.1875 0.0937-0.1875-0.1875-0.1875 0.0937-0.1875 0.375 0.1875 0.9375-0.75 0.1875-0.46875q0.46875-0.1875 0.84375-0.46875 0.42188-0.28125 0.9375-0.42188 0.51563-0.14062 0.9375-0.42187 0.42188-0.28125 0.89063-0.46875l0.46875-0.46875 0.375-0.1875 0.0937-0.23438 0.375-0.0937 0.1875-0.5625q0.1875-0.0937 0.46875-0.0937t0.42187-0.14062q0.14063-0.14063 0.375-0.23438 0.23438-0.0937 0.42188-0.1875l0.9375-0.9375 0.9375-0.1875 0.89062-1.0312 0.9375-0.0937 0.28125-0.5625 0.46875 0.28125 0.28125-0.0937 0.1875-0.65625 0.5625-0.28125 0.375 0.375q0.0937-0.0937 0.1875-0.1875 0.0937-0.0937 0.0937-0.23437 0-0.14063 0.0469-0.23438 0.0469-0.0937 0.0469-0.1875 0.28125 0.0937 0.46875-0.0469 0.1875-0.14063 0.375-0.1875 0.1875-0.0469 0.42188-0.0937 0.23437-0.0469 0.51562-0.0469 0-0.0937 0-0.23437 0-0.14063 0.0469-0.1875 0.0469-0.0469 0.14062-0.14063 0.0937-0.0937 0.1875-0.1875l0.9375-0.46875q0.1875 0.0937 0.375 0.1875 0.1875 0.0937 0.375 0.1875 0.1875 0.0937 0.32813 0.14063 0.1875 0.0469 0.375 0.14062l0.28125-0.1875v0.0937l-0.28125 0.9375 0.0937 0.375 0.5625 0.0937 0.0937 0.75-0.1875 0.84375-0.75 0.1875-0.23438 0.28125q-0.0937-0.0937-0.1875-0.1875-0.0937-0.0937-0.1875-0.0937-0.0937 0-0.23437 0-0.14063 0-0.23438 0v0.1875l0.0937 0.28125-0.0937 0.0937-0.65625-0.28125-0.28125 0.46875-0.65625 0.1875-0.84375-0.28125v-0.1875h-0.28125v0.375l0.0937 0.1875-0.65625 0.65625-0.46875 0.375 0.28125 0.1875 0.9375-0.84375 1.125-0.0937 0.0937 0.1875-0.1875 0.65625 0.0937 0.46875-0.75 0.46875-0.28125 0.32813-0.5625 0.0937-0.28125 0.375h-0.375l-0.28125-0.0937-0.46875 1.125-0.84375 0.0937-0.375-0.375-0.75 0.375-0.46875-0.1875-0.42187 0.0937-0.0937 0.75 0.1875 0.65625-0.0937 0.0937 0.32812 0.0937v0.1875l-0.42187 1.0312-1.4062 0.5625-0.0937-0.0937-0.0937 0.28125 0.1875 0.65625-0.0937 0.0937-0.46875-0.28125-0.1875-0.75-0.75-0.0937v0.1875l0.65625 1.3125h-0.0937l-0.375-0.28125-0.375 0.375q-0.0937-0.1875-0.23438-0.23438-0.14062-0.0469-0.28125-0.14062-0.14062-0.0937-0.28125-0.0937-0.14062 0-0.32812 0l-0.28125 0.0937-0.0937 0.28125 0.1875 0.65625-0.75 0.375-0.1875 0.5625 0.0937 0.23437-0.65625 0.1875 0.1875-0.32812-0.28125-0.375-0.28125 0.46875 0.1875 0.23437-0.5625 0.46875 0.0937 0.28125-0.0937 0.1875h-0.1875l-0.1875-0.375-0.46875-0.0937-0.32813 0.1875-0.28125 1.0312q-0.0937 0.0937-0.32812 0.0937-0.23438 0-0.375 0.0937-0.14063 0.0937-0.28125 0.1875-0.14063 0.0937-0.32813 0.1875l-0.84375-0.46875-0.1875 0.375 0.0937 0.65625-0.46875 0.1875-0.28125-0.9375-0.375-0.0937-0.65625 0.0937-0.0937-0.0937-0.28125 0.46875 0.84375 0.46875v0.375l-0.65625 0.375v0.1875l0.0937 0.0937-0.1875 0.0937v-0.1875h-0.28125l-0.46875 0.0937-0.0937-0.0937zm-1.9688-1.2188v-0.1875l-0.28125-0.0937h0.0937l0.28125 0.0937v0.1875zm6.375-1.2188v-1.0312l-0.1875-0.5625h-0.28125l-0.1875 0.46875-0.375 0.0937v0.375l0.46875 0.28125 0.28125 0.46875zm0.5625-0.28125v-0.28125l0.0937-0.0937-0.0937-0.28125h-0.1875l-0.1875 0.46875zm1.4531-2.3906 0.0937-0.28125-0.0937-0.28125h-0.375l-0.1875 0.28125 0.46875 0.375zm-1.4531-0.5625 0.0937-0.0937-0.0937-0.65625h-0.65625v0.46875h0.375l0.1875 0.375zm-0.75-0.28125-0.0937-0.0937-0.0937 0.0937 0.0937 0.0937zm-0.75-0.28125v-0.46875l-0.0937-0.0937-0.0937 0.5625 0.0937 0.0937zm7.0781-0.28125 0.0937-0.28125h-0.375v0.1875l0.1875 0.1875zm0-1.125v-0.375l-0.375-0.28125-0.0937-0.28125-0.1875 0.46875 0.375 0.28125v0.1875zm3.9844-1.7812-0.0937-0.0937 0.0937-0.0937zm1.875-0.75-0.0937-0.1875 0.0937-0.0937zm-3.2344-0.0937-0.46875-0.28125-0.1875 0.375h0.5625zm-6.75-0.0937-0.5625-0.1875v0.28125h0.46875zm13.641-3.1406-0.0937-0.28125 0.1875-0.0937 0.0937 0.1875-0.0937 0.1875zm-15.75-1.2188v-0.1875l-0.5625-0.1875-0.375 0.28125q-0.0937-0.1875-0.23437-0.1875-0.14063 0-0.23438-0.0469-0.0937-0.0469-0.28125-0.0469-0.1875 0-0.28125 0l-1.125 0.0937-0.28125-0.0937-1.125 0.1875-1.3125-0.375v-0.18755h0.46875v-0.65625h-0.375q-0.1875 0.0937-0.32812 0.14063-0.14063 0.0469-0.28125 0.1875-0.14063 0.14062-0.28125 0.23437-0.0937 0.0937-0.28125 0.0937v-0.1875l0.1875-0.375-0.375-0.1875-0.1875 0.0937-0.84375-0.46875-0.0937-0.375 0.28125-0.46875-0.46875-0.1875-0.46875 0.46875-0.46875-0.1875-0.0937-0.375q-0.1875 0-0.375-0.0469t-0.375-0.0469-0.32813-0.14062q-0.14062-0.14063-0.32812-0.14063v-0.1875q0.0937 0 0.0937-0.14062 0-0.14063 0.0937-0.14063t0.1875 0q0.0937 0 0.1875 0l0.28125-0.28125-0.75-0.375-0.46875-0.75 0.5625-0.1875v-0.23437l-0.5625-0.28125-0.5625 0.79687-0.28125-0.60937-0.28125-0.0937v-0.375l0.0937-0.28125-0.46875-0.1875-0.1875-0.5625-0.28125-0.375 0.1875-0.5625-0.65625-0.65625 0.1875-0.28125 0.46875-0.0937 0.84375 0.28125 0.75-0.46875 1.5 0.375 0.5625 0.46875h0.1875v0.1875l1.4062 0.84375 0.0937 0.28125 0.375 0.0937 0.65625 0.75 0.32812 0.0937v0.1875q0.46875 0.0937 0.84375 0.28125 0.375 0.1875 0.70313 0.46875 0.32812 0.23437 0.75 0.375 0.42187 0.14062 0.79687 0.32812l0.375 0.375q0.375-0.0937 0.60938 0.0469 0.23437 0.14062 0.5625 0.1875 0.32812 0.0469 0.5625 0.23437 0.23437 0.1875 0.51562 0.28125l0.5625 1.0312h0.375l0.1875-0.28125 0.1875 0.28125 0.375 0.375 0.1875 0.375-0.0937 0.65625 0.1875 0.46875-0.0937 0.28125h-0.375l-0.46875-0.28125-0.28125 0.65625zm-8.9531-4.125-0.0937-0.28125h-0.28125v0.375h0.2812zm-2.7188-1.6407v-0.5625l0.0937-0.0937-0.375-0.0937v0.28125l0.0937 0.1875-0.0937 0.28125zm12.984-2.8125-0.28125-0.84375-0.5625-0.375-1.125-0.46875-0.375-0.75-0.65625-0.1875-0.0937-0.46875-0.46875-0.1875v-0.75h-0.28125l-0.1875 0.28125h-0.1875l-1.3125-1.6406 0.28125-0.0937 0.0937-0.46875h-0.1875l-0.46875 0.0937-0.65625-0.375-0.65625-0.65625-0.0937-0.46875-0.70312-0.375-0.46875-0.75h-0.1875l-0.375-0.375-0.0937-0.28125 0.46875-0.1875v-0.1875l-0.28135-0.65625-0.28125-0.0937-0.28125 0.1875-0.1875-0.0937 0.1875-0.65625-0.75-0.28125-0.46875-1.0312-0.1875-0.0937v-0.18765q0.0937-0.0937 0.1875-0.1875 0.0937-0.0937 0.14062-0.14062 0.0469-0.0469 0.0469-0.1875 0-0.14063 0-0.1875l-0.5625-0.5625-0.28125-0.75 0.0937-0.1875 0.375 0.28125 0.28125-0.375 0.65625-0.0937 0.28125-0.28125 0.28125 0.375h0.375l0.28125-0.375h0.375l0.42187 0.75 0.28125 0.0937 0.46875 0.65625 0.65625 0.375 0.0937 0.32812-0.0937 0.28125 0.0937 0.0937 0.375-0.0937 0.28125 0.46875 0.46875 0.0937 0.75 1.2188-0.0937 0.1875 0.28125 0.375q0.1875 0.0937 0.42188 0.0937 0.23437 0 0.42187 0t0.23438 0.28125q0.0469 0.28125 0.23437 0.375v0.375q0.1875 0 0.28125 0.0469 0.0937 0.0469 0.23438 0.0469 0.14062 0 0.23437 0.14063 0.0937 0.14062 0.1875 0.23437l0.375 0.9375 0.375 0.0937 0.0937-0.0937 0.1875 0.0937 0.0937 0.28125q0.0937 0.0937 0.23438 0.14063 0.14062 0.0469 0.28125 0.14062 0.14062 0.0937 0.1875 0.1875 0.0469 0.0937 0.0469 0.28125l0.1875 0.375 0.70313 0.46875 0.9375 1.0781v0.375l-0.28125 0.46875q0.0937 0.0937 0.23437 0.1875 0.14063 0.0937 0.32813 0.0937t0.32812 0.0469q0.14063 0.0469 0.23438 0.14063h-0.0937l-0.1875-0.0937-0.28125 0.375q0.0937 0.1875 0.23437 0.28125 0.14063 0.0937 0.32813 0.14062 0.1875 0.0469 0.375 0.0469t0.28125 0.1875l0.1875 0.46875-0.375 0.9375h-0.18745v0.46875h0.1875v0.0937q-0.0937-0.1875-0.23438-0.1875-0.14062 0-0.28125 0-0.14062 0-0.28125 0-0.14062 0-0.23437 0-0.0937 0.0937-0.1875 0.14062-0.0937 0.0469-0.1875 0.14063-0.0937 0.0937-0.28125 0.0937-0.1875 0-0.28125 0l-0.1875-0.0937v-0.1875h-0.375zm-15.328-0.0937v-0.0937l-0.0937-0.0937 0.1875-0.0937 0.0937 0.1875zm14.672-2.5312v-0.0937l-0.0937-0.0937-0.0937 0.1875 0.0937 0.0937zm1.4531-1.125v-0.1875l-0.0937-0.0937-0.0937 0.28125 0.0937 0.0937z"/>
   <path d="m557.61 398.74v-0.0937l-0.375-0.46875-1.2656-0.375-0.375-0.84375-0.5625-0.46875-0.28125-0.84375 0.0937-0.46875-0.0937-0.1875 0.375-0.0937 0.28125 0.0937q0.28125-0.0937 0.28125-0.32813 0-0.23437 0.0937-0.375 0.0937-0.14062 0.14062-0.32812 0.0469-0.1875 0.14063-0.375l0.65625-0.65625 0.0937-0.5625h0.14062l0.28125 0.28125 0.65625-1.3594 0.375-0.375 0.65625-0.0937 0.75-1.7812 0.28125-0.0937v-0.375q0.375-0.0937 0.65625-0.42187 0.28125-0.32813 0.51563-0.65625 0.23437-0.32813 0.5625-0.5625 0.32812-0.23438 0.42187-0.60938l0.28125-0.28125 0.9375-0.5625 0.1875-0.5625 0.9375-0.0937v-0.1877l-0.0937-0.1875 0.46875-0.65625 0.32813-0.0937 0.46875-0.42187 0.28125 0.0937v-0.1875l-0.0937-0.28125 0.375-0.75 1.2188-0.28125q0-0.1875 0-0.375t0.0469-0.32813q0.0469-0.14062 0.14063-0.28125 0.0937-0.14062 0.28125-0.23437l-0.0937-0.28125 0.46875-0.28125 0.375-0.65625 0.5625-0.375 0.28125-1.0312 0.28125-0.0937v-0.46875l-0.46875-0.84375-0.65625-0.1875-0.0937-0.46875h-0.1875l-0.75 0.5625-0.75-0.84375-0.1875 0.75h-0.0937l-0.75-0.1875v-0.1875l0.5625-1.4531-0.1875-0.1875q-0.0937 0.0937-0.1875 0.1875-0.0937 0.0937-0.23438 0.0937-0.14062 0-0.23437 0.0469-0.0937 0.0469-0.28125 0.0469 0 0.1875 0 0.375t-0.14063 0.32813q-0.14062 0.0937-0.28125 0.1875-0.0937 0.0937-0.0937 0.28125l-0.28125-1.1719h-0.1875q-0.28125 0.1875-0.51562 0.375-0.23438 0.1875-0.5625 0.23438-0.32813 0.0469-0.60938 0.23437-0.28125 0.14063-0.5625 0.23438l-0.84375-1.0781-0.5625-0.0937-0.28125 0.0937-0.0937 0.65625-0.0937-0.28125 0.0937-0.46875-0.0937-0.375-1.3125-0.375-0.0937-0.1875-0.1875 0.375 0.375 0.0937v0.0937l-0.1875 0.375-0.5625-0.375-0.0937-0.28125-1.0312-0.0937-0.0937 0.0937 0.1875 0.1875-0.0937 0.28125 0.28125 0.46875-0.70312 0.1875-0.1875 0.32813-0.0937-0.70313q-0.0937-0.0937-0.28125-0.14062-0.1875-0.0469-0.32813-0.0937-0.14062-0.0469-0.32812-0.0469t-0.375 0q-0.28125 0-0.46875 0.23438-0.1875 0.23437-0.46875 0.23437t-0.51563 0.0469q-0.23437 0.0469-0.42187 0.32812l-0.28125-0.65625-0.46875-0.1875-0.28125 0.0937-0.28125 0.65625-0.5625 0.1875v-0.1875l0.28125-0.5625 0.28125-0.0937v-0.28125l-0.5625-0.0937q-0.1875 0.0937-0.32813 0.1875-0.14062 0.0937-0.28125 0.14063-0.14062 0.0469-0.32812 0.0469t-0.375 0l-1.125-0.75v-0.0937l0.5625-0.28125 0.1875-0.375q-0.0937-0.0937-0.14063-0.1875-0.0469-0.0937-0.14062-0.0937-0.0937 0-0.23438 0-0.14062 0-0.23437 0l-0.14063 0.0937v-0.1875l0.0937-0.1875-0.1875-0.375 0.0937-0.46875-0.75-0.1875-0.0937-0.375q0.0937-0.0937 0.1875-0.23437 0.0937-0.14063 0.14063-0.28125 0.0469-0.14063 0.0469-0.28125 0-0.14063 0-0.32813h0.1875l0.0937 0.28125h0.28125l1.8281-0.75 0.375 0.0937 0.75-0.1875 0.46875 0.0937 0.75-0.0937q0.375 0.0937 0.79687 0.14063 0.42188 0.0469 0.89063 0.0469t0.84375 0.0469 0.84375 0.0469l0.51562-0.0937q0.0937 0.1875 0.32813 0.23438 0.23437 0.0469 0.42187 0.0469t0.375 0.14063q0.1875 0.14062 0.375 0.14062l0.5625-0.1875q0.1875 0.0937 0.375 0.23438 0.1875 0.14062 0.375 0.23437 0.1875 0.0937 0.46875 0.0937t0.46875 0l0.75-0.0937 0.84375 0.5625 0.5625-0.28125q1.5 0.375 3 0.75 1.5469 0.375 2.9531 0.9375t2.7656 1.2656q1.4062 0.70312 2.9062 1.0781l0.75 0.5625 0.46875 0.89063-0.0937 0.65625 0.0937 0.65625q-0.1875 0.1875-0.23437 0.51562-0.0469 0.32813-0.23438 0.51563-0.1875 0.1875-0.23437 0.46875-0.0469 0.28125-0.14063 0.5625l0.0937 0.65625-0.28125 0.75-0.5625 0.0937-0.375-0.1875-0.375 0.28125v0.375l-0.375-0.1875 0.0937-0.28125h-0.51562l-0.0937 0.84375 0.60937 0.75-0.70312 0.46875q0 0.1875-0.0937 0.375-0.0937 0.14062-0.0937 0.375 0 0.23437-0.14063 0.375-0.14062 0.14062-0.14062 0.32812l0.28125 0.46875 0.28125 0.375 0.70312 0.375 0.46875 0.65625 0.9375 0.375v0.1875l0.75 0.375 0.28125 0.5625 0.65625 0.28125 0.0937 0.28125 0.28125 0.0937 0.0937 0.28125 0.65625 0.375 2.1562 2.0625 0.375 0.60938 0.1875 0.0937 0.0937 0.65625-0.0937 0.28125-0.5625 0.0937-0.1875 0.28125-0.1875-0.28125 0.0937-0.46875-0.65625-0.1875q-0.0937 0.0937-0.1875 0.23437-0.0937 0.14063-0.0937 0.28125 0 0.14063-0.0469 0.28125-0.0469 0.14063-0.0469 0.32813l-0.46875 0.0937-0.1875-0.5625h-0.28125l-0.5625 0.1875-0.75-0.375v-0.28125l-1.2188-0.28125-0.375-0.46875 0.0937-0.1875v0.1875l0.75 0.0937 0.46875-0.1875 0.0937-0.51563-0.5625-0.5625h-0.84375l-0.1875 0.28125 0.5625 0.28125v0.0937l-0.75 0.14063-0.375-0.14063 0.0937-0.0937-0.46875-0.0937-0.70312 0.1875-0.84375-0.75v-0.375l0.37474-0.18749v-0.375l-0.9375-0.5625-0.0937-0.28125 0.1875-0.375h-0.46875q-0.0937 0.0937-0.1875 0.1875-0.0937 0.0937-0.14063 0.14063-0.0469 0.0469-0.1875 0.0469-0.14062 0-0.23437 0.0937l-0.5625-0.28125-0.5625 0.0937-0.5625-0.375-0.375 0.0937q0 0.1875 0 0.42188 0 0.23437-0.14063 0.375-0.14062 0.14062-0.14062 0.32812t-0.0937 0.375l-1.0312 0.0937v0.1875l0.375 0.28125v0.0937l-0.375 0.0937-0.0937-0.28125-0.46875-0.0937-0.1875 0.46875 0.1875 0.65625q-0.1875 0-0.32813 0-0.14062 0-0.28125 0.0937-0.14062 0.0469-0.28125 0.14063-0.14062 0.0937-0.28125 0.0937v0.46875h-0.375l-0.75-0.375-0.375 0.46875 0.0937 0.0937-0.0937 0.1875h-0.0937l-0.65625-0.9375-0.375 0.65625 0.0937 0.28125 0.46875 0.28125v0.28125l-0.1875 0.375 0.0937 0.65625h0.1875v0.0937l-0.75 0.1875-0.28125 0.46875 0.0937 0.0937h-0.1875l-0.0937-0.9375-0.375-0.0937-0.1875-0.65625-0.28125 0.65625 0.0937 0.28125 0.28125 0.0937v0.28125l-0.28125 0.65625-0.5625 0.28125-0.1875 0.84375 0.1875 0.65625-0.0937 0.0937-0.375-0.28125-0.1875-0.375-0.46875-0.0937-0.1875 0.375 0.375 0.75-0.46875 0.375-0.0937 0.28125-0.375-0.5625q-0.0937 0.0937-0.23437 0.23437-0.14063 0.14063-0.23438 0.23438-0.0937 0.0937-0.1875 0.23437-0.0937 0.14063-0.0937 0.32813zm1.5938-2.9062 0.0937-0.46875-0.28125-0.1875-0.375 0.46875 0.46875 0.28125zm19.406-4.3125 0.1875-0.23438-0.0937-0.46875h-0.1875l-0.46875 0.89063h0.28125zm-13.078-1.5469v-0.1875l-0.0937-0.0937-0.0937 0.28125 0.0937 0.0937zm4.125-1.5938v-0.0937l-0.0937-0.0937-0.0937 0.1875 0.0937 0.0937zm1.125-4.7812v-0.32812l-0.5625-0.28125-0.28125-0.46875-0.28125 0.0937v0.1875l0.46875 0.46875 0.375 0.32812zm1.5-0.89062-0.0937-0.0937-0.0937 0.0937 0.0937 0.0937zm-8.9531-7.9219v-0.375h-0.28125v0.375zm-1.125-0.1875v-0.0937l-0.0937-0.0937-0.0937 0.1875 0.0937 0.0937zm-8.9531-0.28125 0.1875-0.5625-0.375-0.28125-0.75 0.5625v0.375h0.84375zm3.4688-0.0937 0.32812-0.28125-0.0937-0.28125-0.42187-0.0937-0.46875 0.1875-0.1875 0.5625 0.46875 0.0937zm-5.5312-0.5625v-0.1875q-0.0937-0.0937-0.14063-0.1875-0.0469-0.0937-0.14062-0.0937-0.0937 0-0.23438 0-0.14062 0-0.23437 0l-0.28125 0.5625 0.375 0.0937zm2.625-1.6875-0.28125-0.1875-0.1875 0.1875 0.1875 0.1875zm0.84375-1.7812-0.28125-0.5625h-0.28125l-0.28125 0.65625 0.46875 0.0937z"/>
   <path d="m603.55 401.88v-0.0937l-0.46875-0.5625h-0.375l-0.65625 0.1875-0.28125-0.375q-0.0937 0-0.1875 0-0.0937 0-0.0937-0.0937t-0.0469-0.1875q-0.0469-0.0937-0.0469-0.1875l0.28125-0.0937v-0.5625q-0.0937-0.1875-0.28125-0.23437-0.1875-0.0469-0.375-0.0937-0.1875-0.0469-0.375-0.0469t-0.375-0.0937l-0.0937-0.375 0.65625-0.60937 0.46875-1.4062 0.375-0.0937 0.375 0.0937 0.1875-0.65625-0.28125-0.65625 0.84375-1.5938 0.28125-0.1875 0.46875-0.84375 0.46875-0.1875 0.0937-0.28125q-0.0937 0-0.1875-0.0469-0.0937-0.0469-0.23437-0.0469-0.14063 0-0.1875-0.0937-0.0469-0.0937-0.0469-0.1875l0.375-0.0937q0-0.1875 0-0.375t0.14063-0.32813q0.14062-0.14062 0.1875-0.32812 0.0469-0.1875 0.23437-0.28125l-0.9375-0.42188-0.0937-0.65625h-0.1875l-0.375 0.28125-0.28125-0.5625-0.75-0.28125v-0.1875l0.46875-0.5625-0.0937-0.28125-1.2188-0.28125q-0.0937 0.0937-0.1875 0.14063-0.0937 0.0469-0.23437 0.0469-0.14063 0-0.28125 0-0.14063 0-0.23438 0l-0.1875-0.46875h-0.375l-0.28125 0.5625 1.6875 0.5625 0.0937 0.28125-1.125 0.65625-0.375-0.1875-0.1875-0.46875-1.0312-0.1875-0.28125 0.46875-0.5625-0.1875-0.28125 0.0937-0.60937-0.46875-0.0937-0.375 0.0937-0.28125-0.65625-1.0312-0.5625-0.0937-0.1875 0.1875 0.28125 0.375-0.375 0.375 0.65625 0.1875 0.0937 0.65625-0.9375 0.0937-0.0937-0.0937-0.46875 0.0937-0.375-0.28125-0.46875-1.0312-0.28125-0.46875 0.28125-0.5625-0.84375-0.65625-0.0937-0.46875 0.0937-0.65625-1.0312-0.375-0.46875-1.0312 0.1875-0.375 0.375-0.0937 1.2188 0.375 0.375-0.60937 0.75-0.28125 1.7812 0.60937 0.375 0.75 0.28125-0.375 1.1719-0.375q0.28125 0.28125 0.60938 0.28125 0.32812 0 0.70312 0t0.70313 0.0469q0.32812 0.0469 0.60937 0.23437l0.46875-0.1875q0.375 0.1875 0.89063 0.1875 0.51562 0 0.98437 0.0469t0.9375 0.0937q0.46875 0.0469 0.9375 0.14062l1.0781-0.1875q0.28125 0.0937 0.65625 0.14063 0.375 0.0469 0.70312 0.0937 0.32813 0.0469 0.65625 0.1875 0.32813 0.14062 0.70313 0.0469l0.28125-0.0937 0.84375 0.1875 0.65625-0.0937 0.375 0.1875 0.9375-0.1875 1.5469 0.46875 0.5625-0.1875 0.28125 0.0937 0.75-0.0937 1.5 0.28125 0.5625-0.0937 0.75 0.375 0.65625-0.0937 1.0312 0.65625 0.28125-0.1875 0.375 0.5625-0.375 0.5625 0.375 0.1875 0.75-0.1875v0.375l-0.9375 0.46875-0.1875 0.5625h-0.375v0.1875l0.46875 0.46875v0.46875l-0.0937 0.0937 0.0937 0.1875-0.1875 0.0937-0.1875-0.0937v-0.09418l0.0937-0.0937-0.0937-0.46875h-0.1875l-0.0937 0.0937 0.0937 0.5625-0.1875 0.375h-0.28125l-0.46875-0.1875 0.1875-0.375 0.375-0.0937 0.0937-0.28125-1.5938-0.65625-0.1875 1.125-0.65625 0.0937-0.0937-0.375-0.46875-0.0937-0.0937-0.375q-0.1875 0-0.32812 0-0.14063 0-0.28125 0-0.14063 0-0.23438-0.14062-0.0937-0.14063-0.28125-0.0469l-0.375 0.28125-0.0937-0.1875 0.46875-0.5625-0.28125-0.1875-0.84375 0.75-0.1875 1.5h-0.0937q-0.0937-0.0937-0.23437-0.23437-0.0937-0.14063-0.23438-0.14063-0.14062 0-0.32812-0.0469t-0.28125-0.14063l-0.28125 0.0937v0.28125l0.0937 0.375-0.46875 0.1875-0.5625-0.1875-0.1875 0.375 0.28125 0.1875v0.1875l-0.65625 0.0469v0.1875l0.375 0.84375-0.46875 0.65625 0.1875 0.75-0.65625 0.375v0.1875l0.0937 0.1875-0.84375 0.5625-0.0937 0.1875-1.0312 0.1875v0.84375l0.0937 0.5625-0.28125 0.28125 0.0937 0.375q-0.0937 0.0937-0.14063 0.1875-0.0469 0.0937-0.0937 0.1875-0.0469 0.0937-0.1875 0.0937-0.14062 0-0.23437 0v0.28125h0.1875v0.1875l-0.375 0.1875-0.28125 1.0781 0.0937 0.5625q-0.0937 0.1875-0.23438 0.42188-0.14062 0.23437-0.23437 0.42187-0.0937 0.1875-0.0937 0.46875t-0.0937 0.46875l-0.9375 0.0937-0.98438-0.1875zm0.84375-0.75 0.0937-0.1875-0.28125-0.1875-0.1875 0.1875 0.28125 0.28125zm-1.7812-0.28125v-0.28125l-0.375-0.1875-0.28125 0.0937v0.46875l0.0937 0.0937zm11.719-10.406-0.375-0.28125v-0.1875l0.84375-0.28125v-0.375l-0.0937-0.0937-0.46875 0.0937-0.375-0.28125 0.5625-0.0937 0.1875 0.0937 0.0937 0.1875q0.0937 0 0.0937-0.14062 0-0.14063 0.0937-0.14063t0.1875 0q0.0937 0 0.1875 0l0.0937 0.375 0.375 0.0937-0.5625 0.28125-0.1875 0.28125-0.28125 0.375zm-19.641-2.9062 0.1875-0.46875-0.28125-0.1875-0.1875 0.5625 0.1875 0.1875zm1.2188-0.84375 0.0937-0.375-0.1875-0.65625-0.46875-0.1875-0.28125 0.75 0.75 0.5625zm21.047-10.359-0.28125-0.46875q-0.1875-0.1875-0.375-0.23438-0.1875-0.0469-0.42187-0.0469-0.23438 0-0.375-0.0469-0.14063-0.0469-0.42188-0.0469l-0.1875 0.28125 0.0937 0.1875-0.0937 0.1875-0.28125 0.0937-0.84375-0.1875-0.1875 0.0937-0.28125-0.65625h-0.5625v0.28125l-0.98437 0.375-0.84375-0.65625-0.28125-0.65625-0.28125 0.5625-1.0312 0.0937-0.1875-0.79688-0.28125 0.51563 0.1875 0.46875-0.375 0.0937q-0.1875-0.28125-0.46875-0.28125t-0.51563-0.1875q-0.23437-0.1875-0.51562-0.23438-0.28125-0.0469-0.5625-0.0469l-0.84375 0.28125-0.375-0.375v-0.1875l-0.75-0.14063-2.2031 0.32813-0.0937-0.1875 0.0937-0.14063-0.0937-0.5625 0.0937-0.28125-0.375-0.46875-1.3125-0.0937v0.46875h0.28125l0.28125-0.1875q0.0937 0.0937 0.1875 0.23438 0.0937 0.14062 0.0937 0.28125 0 0.14062 0 0.32812t0.0937 0.28125l-1.0312 0.0937-0.0937-0.0937-0.375 0.14063-0.75-0.0469-0.84375 0.23438q-0.28125-0.32813-0.70312-0.23438-0.42188 0.0469-0.79688-0.0937-0.375-0.1875-0.75-0.23437-0.32807-0.04665-0.70307-0.1404l-0.28125 0.375q-0.1875-0.28125-0.46875-0.28125t-0.5625-0.0469-0.46875-0.1875q-0.1875-0.14063-0.46875-0.23438l-0.1875-0.46872q0.0937-0.0937 0.1875-0.23437 0.0937-0.14063 0.14062-0.28125 0.0469-0.14063 0.0469-0.32813t0-0.375l-0.56252-0.09375-0.1875 0.28125-0.375 0.46875h-0.1875l-0.84375-1.6875 0.28125-0.0937 0.28125-0.75q-0.0937-0.0937-0.23438-0.23437-0.14062-0.14063-0.28125-0.1875-0.14062-0.0469-0.28125-0.0937-0.14062-0.0469-0.32812-0.0469l-0.0937-0.5625 0.0937-0.46875-0.65625-0.375v-0.28125l0.375-0.84375 1.0312 0.1875 0.75-0.28125 1.2188 0.46875v-0.28125l0.9375-0.1875 1.125 0.0937 0.0937-0.0937 1.0781 0.28125 0.5625-0.0937 0.375 0.0937 0.1875-0.0937 1.5 0.65625 0.375-0.0937 0.75 0.28125v0.46875l-0.1875 0.46875h0.1875l0.84375-0.9375-0.0937-0.0937 0.5625-0.1875 0.46875 0.1875v0.1875l0.46875 0.0937 0.84375-0.0937 1.9219 0.1875 0.1875-0.0937q0.28125 0.28125 0.65625 0.32813 0.375 0.0469 0.75 0.14062 0.375 0.0937 0.70312 0.23438 0.32813 0.14062 0.79688 0.0469l0.0937-0.0937 0.375 0.28125 0.75-0.1875 0.9375 0.46875 0.65625-0.375 0.46875 0.46875 0.1875-0.0937 0.46875 0.0937 0.79687-0.0937 0.5625 0.46875 1.125-0.0937 0.375 0.375 0.46875-0.1875 0.9375 0.1875 0.0937-0.0937 0.1875 0.0937 0.375 0.375h0.28125l0.28125 0.5625q0.0937-0.0937 0.1875-0.14062 0.0937-0.0469 0.1875-0.0469 0.0937 0 0.23438 0 0.14062 0 0.23437 0l0.84375 0.375 0.28125 0.46875 1.3594 0.65625v0.0937l-0.1875 0.46875 0.28125 0.9375q-0.0937 0.0937-0.1875 0.1875-0.0937 0.0937-0.0937 0.23438 0 0.14062 0 0.28125 0 0.0937 0 0.1875l0.0937 0.0937-0.0937 0.28125-0.1875 0.0937q-0.0937-0.0937-0.1875-0.14063-0.0937-0.0469-0.1875-0.0937-0.0469-0.0469-0.0937-0.1875-0.0469-0.14062-0.0469-0.23437h-0.28125l-0.28125 0.46875-0.375-0.1875-0.1875 0.1875 0.5625 0.375v0.1875h-0.1875l-1.5-0.75-0.46875 0.28125-0.0937 0.375-0.46875 0.0937zm-6.2344-1.6406v-0.28125l0.0937-0.1875-0.375-0.75h-0.375v0.5625l0.46875 0.46875 0.0937 0.23438zm-5.5312-0.375 0.0937-0.1875-0.65625-0.375-0.51563 0.46875 0.51563 0.375zm-5.2969-0.0937 0.1875-0.5625q-0.0937 0-0.23437 0-0.14063 0-0.14063-0.0937t-0.0469-0.1875q-0.0469-0.0937-0.14063-0.1875v-0.1875l-0.46875-0.0937-0.28125 0.46875 0.65625 1.125zm6.9844-0.0937 0.1875-0.375 0.5625-0.375q-0.0937-0.0937-0.23438-0.23437-0.14062-0.14063-0.28125-0.23438-0.14062-0.0937-0.32812-0.0937t-0.28125-0.0937l-0.1875 0.46875 0.0937 0.1875-0.1875 0.5625 0.5625 0.28125zm2.7188-0.1875v-0.375l0.46875-0.9375-0.65625-0.375-0.75 0.46875-0.375 0.65625 0.65625 0.375 0.28125-0.0937 0.28125 0.375zm-12.422-0.9375 0.28125-0.46875 0.28125-0.375-1.0312-0.75-0.14062 0.28125h-0.28125l-0.5625-0.375-0.1875 0.375 0.28125 0.1875 0.375 0.65625q0.0937 0 0.23437 0 0.14063 0 0.14063 0.0937t0 0.1875q0.0469 0.0937 0.14062 0.1875v0.1875h0.1875zm-3.5156-1.7812 0.0937-0.28125q-0.1875 0-0.375-0.0469t-0.375-0.0937q-0.1875-0.0469-0.32813-0.1875-0.14062-0.14063-0.32812-0.23438l-0.28125 0.5625 0.1875 0.375 0.46875 0.28125z"/>
   <path d="m656.33 398.18-0.46875-0.375v-0.1875l0.0937-0.375-0.65625-0.65625h-0.375l-0.1875 0.375 0.1875 0.28125-0.46875 0.28125-0.46875-0.75 0.1875-0.1875-0.46875-0.28125-0.51562-0.5625v-0.375l0.1875-0.46875-0.28125-0.46875-1.0312-0.28125-0.0937 0.0937-0.375-0.28125-0.375 0.1875-0.1875-0.46875 0.1875-0.46875-0.375-0.46875-0.5625 0.1875-0.1875-0.0937-0.65625 0.65625h-0.28125l-0.1875-0.0937q-0.0937 0.1875-0.28125 0.1875-0.1875 0-0.375 0t-0.375 0.0469-0.375 0.0469l-0.1875 0.75-0.28125 0.0937-0.375-0.28125-0.28125 0.5625h-0.375l-0.0937-0.1875-0.0937 0.28125 0.5625 0.46875 0.0937 0.28125q-0.0937 0.0937-0.1875 0.1875-0.0937 0.0937-0.23438 0.14062-0.14062 0.0469-0.23437 0.0469-0.0937 0-0.23438 0l-0.0937-0.375 0.14063-0.375-0.42188-0.75q-0.1875-0.0937-0.23437-0.23438-0.0469-0.14062-0.0469-0.32812t0-0.32813q0-0.14062 0-0.32812h-0.1875l-0.75 0.46875q-0.0937 0.0937-0.14062 0.28125-0.0469 0.1875-0.0469 0.375t0 0.375 0 0.375l0.375 0.46875h-0.65625l-0.375-0.5625-0.75-0.46875v-0.1875l-0.28125-0.0937-0.28125 0.5625h-0.0937v-0.1875l0.375-1.125-0.375-0.375-0.28125 0.1875-0.28125-0.46875-0.28125-0.0937-0.375 0.28125-0.1875 0.46875-0.5625-0.28125-0.375 0.75-0.375 0.0937-0.1875-0.0937v-0.1875q0.0937 0 0.0937-0.14063 0-0.14062 0.0937-0.14062t0.1875 0q0.0937 0 0.1875 0v-0.46875l-0.0937-0.28125q-0.28125 0-0.42187-0.1875-0.14063-0.1875-0.42188-0.0937-0.28125 0.0937-0.46875-0.0469-0.1875-0.14062-0.42187-0.14062l-0.5625 0.5625h-0.46875l-0.0937-1.0312-0.9375-0.0937v0.1875-0.46875q-0.1875 0-0.375 0t-0.32813-0.0469q-0.14062-0.0937-0.23437-0.23437-0.0937-0.14063-0.28125-0.14063l-0.375-0.65625-0.46875-0.0937-0.46875-1.3125 0.0937-0.46875-0.65625-0.65625v-0.84375l-0.375-0.0937-0.375-2.0625 0.375-0.65625-0.1875-0.65625q0.1875-0.14062 0.0937-0.42187-0.0937-0.28125 0.0937-0.42188 0.1875-0.14062 0.23437-0.375 0.0469-0.23437 0.14063-0.42187l0.75-0.75 0.375-1.6875-0.0937-0.1875 0.375-0.84375 0.375-0.28125 0.28125-0.75 0.375-0.1875 0.28125 0.0937 0.46875-0.5625-0.1875-0.375 0.0937-0.1875-0.0937-0.0937 0.1875-0.65625-0.375-0.70313q0.1875-0.1875 0.51562-0.28125 0.32813-0.0937 0.65625-0.0937 0.32813 0 0.51563-0.23437 0.1875-0.23438 0.5625-0.23438l0.51562-2.1562 0.28125-0.28125-0.0937-0.375 0.46875-0.75-0.0937-0.0937 0.46875-0.28125 0.1875-0.65625h0.1875q0.0937-0.28125 0.0937-0.51562 0-0.23438 0.14063-0.42188 0.14062-0.1875 0.1875-0.46875 0.0469-0.28125 0.23437-0.46875l0.28125-0.0469v-0.1875h0.1875l0.0937 0.0937 0.5625-0.1875 1.4062 0.60937v0.28125l-0.0937 0.0937 0.5625 0.5625 0.0937 0.28125 0.28125 0.0937 0.28125-0.1875 0.46875 0.5625 0.0937 0.375-0.0937 0.46875 0.0937 0.1875-0.375 0.0937-0.1875-0.1875-0.0937 0.46875q0.1875-0.0937 0.28125 0 0.0937 0.0937 0.23438 0.0937 0.14062 0 0.1875 0.0937 0.0469 0.0937 0.14062 0.1875l-0.1875 0.65625 0.0937 0.0937-0.375 1.125 0.1875 0.375-0.28125 0.375q-0.0937 0.0937-0.28125 0.0937-0.1875 0-0.32812 0.0937-0.14063 0.0937-0.23438 0.1875-0.0937 0.0937-0.28125 0.1875l-0.28125 0.84375h-0.1875q0 0.1875 0 0.32813 0 0.0937 0 0.28125 0 0.1875-0.0469 0.32812-0.0469 0.14063-0.23438 0.14063l-0.84375 0.46875-0.0937 0.375 0.5625 0.375v0.28125l-0.1875 0.0937-0.75-0.75-0.46875 0.84375q0.1875 0.0937 0.1875 0.23437 0 0.14063 0.14063 0.28125 0.14062 0.14063 0.14062 0.28125 0 0.14063 0 0.32813h-0.1875l-0.65625-0.1875-0.84375 0.375-0.0937 0.5625-0.65625 0.28125-0.1875 0.375 0.75 2.0625-0.375 0.28125-0.89062-0.84375-0.0937-0.46875h-0.28133l-0.0937 0.46875-0.28125 0.375 0.375 0.5625-0.375 0.28125-0.375 0.51562 0.375 0.9375q-0.1875 0.0937-0.0937 0.32813 0.0937 0.23437-0.0469 0.375-0.14062 0.14062-0.23437 0.28125-0.0937 0.14062 0 0.32812l-0.46875 0.1875-0.5625 1.4062 0.0937 0.0937 1.125-0.375q0.0937 0.0937 0.1875 0.14063 0.0937 0.0469 0.0937 0.1875 0 0.14062 0 0.23437 0 0.0937 0.0937 0.1875l0.5625 0.375 0.51562 0.46875 0.0937 0.375q0.375 0.0937 0.60938 0.375 0.23437 0.28125 0.60937 0.28125t0.70313 0.0937q0.32812 0.0937 0.70312 0.0937l0.375-0.0937 0.5625 0.0937 0.28125-0.0937 0.75 0.0937 1.6875-0.0937 0.46875 0.0937q0.46875-0.0937 0.89063-0.28125 0.46875-0.1875 1.0781-0.0937 0.60938 0.0937 1.0781-0.0937 0.46875-0.1875 0.9375-0.28125l0.375 0.0937 0.375-0.46875 0.84375 0.0937 1.0312-0.28125 0.0937-0.65625-0.0937-0.46875 0.0937-0.375q-0.1875-0.1875-0.1875-0.42187 0-0.23438 0-0.42188t-0.0469-0.42187q-0.0469-0.23438-0.14062-0.42188l0.0937-0.5625q-0.0937-0.1875-0.14063-0.32812-0.0469-0.14063-0.0937-0.32813-0.0469-0.1875-0.0469-0.375t0-0.375l0.0937-0.32812-0.1875-0.84375 0.0937-0.65625q-0.0937-0.1875-0.1875-0.375-0.0937-0.1875-0.28125-0.32813-0.1875-0.14062-0.1875-0.375 0-0.23437 0-0.42187l0.0937-0.375-0.0937-0.375 0.1875-0.46875-0.0937-0.375 0.0937-0.1875-0.1875-0.28125-0.375 0.0937-0.0937-0.28125 0.1875-0.5625-0.1875-0.5625 0.1875-0.75-0.1875-0.375 0.0937-0.1875-0.28125-1.1719 0.28125-1.125q0.1875 0 0.32812 0 0.14063 0 0.28125-0.0937 0.14063-0.0937 0.28125-0.14062 0.14063-0.0469 0.23438-0.14063l0.28125 0.375-0.1875 0.375 0.65625 0.28125 0.375-0.28125 0.65625 0.1875 0.1875-0.28125v0.0937l-0.28125 0.0937-0.0937 0.46875 0.28125 0.28125 0.28125-0.375-0.0937-0.1875h0.1875v0.375l0.32812 0.0937q0.1875 0.28125 0.28125 0.5625 0.0937 0.28125 0.1875 0.60938 0.0937 0.28125 0.23438 0.5625 0.14062 0.28125 0.14062 0.65625l-0.28125 0.375 0.1875 0.5625 0.28125 0.1875q-0.1875 0.0937-0.23437 0.23437-0.0469 0.14063-0.0469 0.32813t0 0.32812q0 0.14063 0 0.32813l0.0937 0.0937-0.1875 0.28125 0.0937 0.0937 0.375-0.0937 0.0937 0.375-0.0937 0.375-0.5625 0.375v0.28125l0.5625 0.0937v0.46875l-0.5625 1.0312 0.28125 0.1875 0.28125-0.0937 0.375 0.75-0.375 0.23437 0.375 0.28125q0.0937 0.5625 0.28125 1.0312 0.1875 0.46875 0.1875 1.0781 0 0.60937 0.1875 1.0781t0.5625 0.9375l-0.0937 0.28125 0.75 0.1875 0.0937 0.65625-0.46875 0.375v0.2817l0.375 1.3125-0.28125 0.1875v0.23438l0.0937 0.28125 0.65625 0.0937v0.28125l-0.375 0.375 0.5625 0.1875v0.375l-0.0937 0.375 0.5625 0.46875v0.28125l-0.375 0.0937-0.0937 0.46875 0.5625 0.5625-0.46875 0.1875v0.5625l-0.75-0.46875-0.28125 0.5625 0.1875 0.75h0.28125l0.28125 0.84375-0.375 0.0937-0.5625-0.0937zm1.875-1.2188-0.1875-0.0937v-0.1875l0.28125-0.28125 0.0937 0.375-0.0937 0.1875zm-8.5781-2.625-0.0937-0.28125 0.0937-0.1875h0.375l0.0937 0.0937 0.46875-0.1875v0.1875zm2.7188-0.375 0.375-0.65625q-0.0937 0-0.1875-0.0469-0.0937-0.0469-0.14063-0.14062-0.0469-0.0937-0.0937-0.1875-0.0469-0.0937-0.0469-0.1875l-0.375-0.1875-0.375 0.5625h-0.1875v0.28125l0.46875 0.375v0.28125h0.46873zm-14.578-0.375v-0.1875l0.75-0.65625 0.46875 0.28125v0.1875l-0.1875 0.375zm9.7969 0-0.0937-0.1875 0.28125-0.28125q-0.0937-0.0937-0.1875-0.1875-0.0937-0.0937-0.23438-0.0937-0.14062 0-0.28125 0-0.14062 0-0.32812 0l-0.1875 0.1875 0.28125 0.65625 0.375 0.0937zm-4.0781-0.75v-0.1875l-0.0937-0.0937-0.0937 0.28125 0.0937 0.0937zm7.2656-0.375 0.0937-0.28125-0.375-0.1875-0.375 0.46875 0.5625 0.0937zm-3.5625-0.0937 0.375-0.46875-0.46875-0.0937-0.28125 0.375 0.28125 0.28125zm5.25-0.0937v-0.0937l0.0937-0.28125h-0.6562v0.28125l0.46875 0.1875zm-15.656-3.5156 0.1875-0.375-0.0937-0.28125h-0.28125l-0.1875 0.46875 0.28125 0.28125zm-1.125-3v-0.0937l0.46875-0.28125 0.46875-1.0312-1.0312-0.0937v-0.1875l-0.375-0.0937-0.46875 0.65625 0.65625 0.28125 0.1875 0.46875h-0.46875v0.28125l0.46875 0.1875zm-1.0312-0.65625 0.0937-0.0937-0.46875-0.1875v0.1875l0.28125 0.1875zm17.062-1.5v-0.32812h-0.28125l-0.1875 0.1875zm2.2031-7.4531v-0.28125h-0.23437v0.1875l0.14062 0.1875zm-10.406-3.4219v-0.09385l0.1875-0.28125-0.46875-0.375-0.0937 0.46875 0.28125 0.375zm-2.1562-4.3125-0.1875-0.0937-0.0937 0.0937 0.1875 0.0937zm0.28125 0v-0.28135l-0.0937-0.0937-0.28125 0.1875zm-0.75-0.5625v-0.28125l-0.0937-0.0937-0.0937 0.375 0.0937 0.0937z"/>
  </g>
  <g>
   <rect x="88.635" y="138.91" width="119.06" height="3.9688" ry="2.1868e-7" fill="#d08c60"/>
   <rect transform="rotate(-90)" x="-166.69" y="89.958" width="23.812" height="3.9688" ry="2.1868e-7" fill="#bf8159"/>
   <rect transform="rotate(-90)" x="-166.69" y="202.41" width="23.812" height="3.9688" ry="2.1868e-7" fill="#bf8159"/>
   <g fill="#d08c60">
    <rect x="93.927" y="156.1" width="108.48" height="3.9688" ry="2.1868e-7"/>
    <path transform="scale(.26458)" d="m387 525 25.98 15h80l-25.98-15z"/>
    <path transform="scale(.26458)" d="m499.58 590 25.98 15h80l-25.98-15z"/>
   </g>
  </g>
  <g>
   <g>
    <path d="m193.02 136.72v1.4654c0 0.40591 0.32678 0.73269 0.7327 0.73269h7.0827c0.40591 0 0.73269-0.32678 0.73269-0.73269v-1.4654h-7.8154z" fill="#013a63" stroke-width=".25051"/>
    <rect x="192.53" y="135.5" width="9.525" height="1.2212" fill="#dda15e" stroke-width=".24237"/>
    <rect transform="rotate(-90)" x="-136.72" y="196.68" width="1.9538" height="1.2212" fill="#582f0e" stroke-width=".10977"/>
   </g>
  </g>
  <g>
   <path d="m108.21 142.88v13.229h2.9104v-13.229z" fill="#f1dca7"/>
   <path d="m132.56 142.88v13.229h2.9104v-13.229z" fill="#ffcb69"/>
   <path d="m172.77 142.88v13.229h2.9104v-13.229z" fill="#ffcb69"/>
   <path d="m187.59 142.88v13.229h2.9104v-13.229z" fill="#e7efc5"/>
   <path d="m99.219 142.88v13.229h4.2333v-13.229z" fill="#a3c4bc"/>
   <rect x="99.219" y="144.2" width="4.2333" height="1.5875" ry="0" fill="#8eaba4"/>
   <rect x="99.219" y="153.19" width="4.2333" height="1.5875" ry="0" fill="#8eaba4"/>
   <path transform="scale(.26458)" d="m392.06 566.75v-23.188h16.875v46.375h-16.875z" fill="#66b9c9"/>
   <rect x="104.64" y="145.52" width="2.6458" height="2.6458" ry=".79376" fill="#fefee3"/>
   <g transform="rotate(-12.529 113.14 150.33)">
    <rect x="112.45" y="144.2" width="2.6458" height="11.906" ry="0" fill="#a3c4bc"/>
    <rect x="112.45" y="145.52" width="2.6458" height="1.0583" ry="0" fill="#8eaba4"/>
    <rect x="112.45" y="153.72" width="2.6458" height="1.0583" ry="0" fill="#8eaba4"/>
   </g>
   <g transform="rotate(-22.523 117.61 150.7)">
    <rect x="116.42" y="144.2" width="2.6458" height="11.906" ry="0" fill="#d9ae94"/>
    <rect x="116.42" y="145.52" width="2.6458" height="9.2604" ry="0" fill="#f2c2a5"/>
    <rect x="116.95" y="146.05" width="1.5875" height="8.2021" ry=".52916" fill="#fefee3"/>
   </g>
   <path d="m121.21 149.97v-6.135h4.4648v12.27h-4.4648z" fill="#ff686b"/>
   <rect x="121.21" y="144.73" width="4.4648" height=".52918" ry="2.1193e-6" fill="#ffcb69"/>
   <rect x="121.21" y="145.79" width="4.4648" height=".52916" ry="2.1192e-6" fill="#ffcb69"/>
   <path d="m93.927 142.88v13.229h5.2917v-13.229z" fill="#ffcb69"/>
   <rect x="95.25" y="144.2" width="2.6458" height="10.583" ry="1.0583" fill="#fefee3"/>
   <path d="m125.68 149.96v-6.1433h3.7042v12.287h-3.7042z" fill="#66b9c9"/>
   <rect x="126.47" y="145.52" width="2.1167" height="4.7625" ry=".52916" fill="#f1dca7"/>
   <path d="m129.65 142.88v13.229h2.9104v-13.229z" fill="#f68e5f"/>
   <rect x="129.65" y="143.67" width="2.9104" height="1.0583" ry="0" fill="#c2704b"/>
   <rect x="129.65" y="154.25" width="2.9104" height="1.0583" ry="0" fill="#c2704b"/>
   <path d="m135.73 142.88v13.229h2.9104v-13.229z" fill="#ff686b"/>
   <rect x="136.52" y="144.46" width="1.3229" height="5.0271" ry=".37238" fill="#fefee3"/>
   <path d="m139.17 145.52v10.583h2.9104v-10.583z" fill="#66b9c9"/>
   <rect x="139.17" y="146.84" width="2.9104" height="7.9375" ry="0" fill="#59a2b0"/>
   <path d="m142.08 142.88v13.229h2.9104v-13.229z" fill="#a3c4bc"/>
   <rect x="142.61" y="144.2" width="1.8521" height="2.6458" ry=".52916" fill="#ffcb69"/>
   <path d="m158.75 153.19h-13.229v2.9104h13.229z" fill="#ffcb69"/>
   <rect x="146.31" y="153.19" width="1.0583" height="2.9104" ry="0" fill="#cca254"/>
   <rect x="156.9" y="153.19" width="1.0583" height="2.9104" ry="0" fill="#cca254"/>
   <path d="m159.54 150.28h-13.229v2.9104h13.229z" fill="#ff686b"/>
   <rect x="148.17" y="150.81" width="5.8208" height="1.8521" ry=".52917" fill="#fefee3"/>
   <path d="m157.43 147.37h-10.583v2.9104h10.583z" fill="#d9ae94"/>
   <path d="m157.43 147.37h-7.9375v2.9104h7.9375z" fill="#bf9982"/>
   <path d="m158.22 144.46h-10.583v2.9104h10.583z" fill="#bfd7b5"/>
   <rect x="150.02" y="145.26" width="5.8208" height="1.3229" ry=".29398" fill="#f1dca7"/>
   <rect x="156.63" y="144.46" width=".79375" height="2.9104" ry="1.6104e-5" fill="#a8bd9f"/>
   <rect x="148.43" y="144.46" width=".79375" height="2.9104" ry="1.6104e-5" fill="#a8bd9f"/>
   <path d="m161.13 145.52v10.583h4.2333v-10.583z" fill="#f68e5f"/>
   <rect x="161.13" y="146.84" width="4.2333" height=".79375" ry="1.6104e-5" fill="#c2704b"/>
   <path d="m165.36 142.88v13.229h2.9104v-13.229z" fill="#a3c4bc"/>
   <rect x="166.03" y="144.86" width="1.5875" height="9.2604" ry=".79375" fill="#f1dca7"/>
   <g transform="rotate(7.7927 170.52 150.03)">
    <path d="m169.07 144.07-1e-5 11.906 2.9104-1e-5 1e-5 -11.906z" fill="#66b9c9"/>
    <rect x="169.07" y="145.52" width="2.9104" height="1.0583" ry="1.8664e-6" fill="#f1dca7"/>
    <rect x="169.07" y="153.46" width="2.9104" height="1.0583" ry="1.8664e-6" fill="#f1dca7"/>
   </g>
   <path d="m175.68 144.2v11.906h2.9104v-11.906z" fill="#ff686b"/>
   <rect x="175.68" y="146.05" width="2.9104" height="1.5875" ry="5.4681e-6" fill="#f1dca7"/>
   <path d="m178.59 149.97v-6.135h4.4648v12.27h-4.4648z" fill="#a3c4bc"/>
   <rect x="179.64" y="146.58" width="2.3812" height="4.7625" ry="1.1906" fill="#fefee3"/>
   <path transform="scale(.26458)" d="m693 543.62v46.375h16v-46.375h-7.5625z" fill="#d9ae94"/>
   <rect x="183.36" y="145.52" width="4.2333" height=".79375" ry="5.4681e-6" fill="#ffcb69"/>
   <rect x="183.36" y="147.11" width="4.2333" height=".79375" ry="5.4681e-6" fill="#ffcb69"/>
   <path d="m193.41 150.02v-6.135h4.4648v12.27h-4.4648z" fill="#ffcb69"/>
   <rect x="194.58" y="145.52" width="2.1167" height="3.4396" ry=".79376" fill="#fefee3"/>
   <g transform="rotate(8.5954 200.93 152.97)">
    <rect x="198.44" y="144.2" width="2.6458" height="11.906" ry="0" fill="#ff686b"/>
    <rect x="198.44" y="144.99" width="2.6458" height=".52918" ry="2.1193e-6" fill="#ffcb69"/>
    <rect x="198.44" y="154.78" width="2.6458" height=".52916" ry="2.1192e-6" fill="#ffcb69"/>
   </g>
   <path d="m190.5 145.52v10.583h2.6458v-10.583z" fill="#f68e5f"/>
   <rect x="190.5" y="146.84" width="2.6458" height="1.3229" ry="1.3245e-6" fill="#f1dca7"/>
  </g>
  <g fill="#fefee3">
   <path d="m153.46 116.95 31.162 17.992h-31.162z" fill-opacity=".20339"/>
   <path transform="scale(.26458)" d="m311.26 327.45s1e-5 0 0 0zm0 0v19.188l63.426 36.619v60.363c38.205 22.14 76.492 44.138 114.63 66.385h67.379v-81.283l-83.645-48.293-50.264 11.414z" fill-opacity=".20056"/>
   <path transform="scale(.26458)" d="m375 470v40h13.812v-12.875h7.7871c-1.9944 0-3.5996-1.6052-3.5996-3.5996v-1.8008c0-1.9944 1.6052-3.5996 3.5996-3.5996h9.793zm60.188 34.75v5.25h9.0938z" fill-opacity=".2"/>
   <path transform="scale(.26458)" d="m387 525 33.025 19.068-0.02539-4.0684h70v44.467l35.564 20.533h80l-52.564-30.348v4.3477h-3v11h-2v-18.234l-22-12.701v30.936h-2v-32.09l-11-6.3516v38.441h-1v-39.02l-45-25.98zm102 18.562-30.875 0.0625v22.439l30.875 17.824zm-59.199 0.38867-7.2031 1.6016 23.527 13.582-5.959-14.367-9.2363 3.8301z" fill-opacity=".20339"/>
   <path transform="scale(.26458)" d="m580 525 23.438 15h21.562v10h-5.9375l16.938 10.84v-20.84h17v31.721l52 33.279v-61.375h-12v46.375h-1.125v-46.375h-16.875v1.375h-11v-5h41v-15zm73 20.48-10.898-1.4922-2.6113 19.086 10.209 6.5332z" fill-opacity=".20056"/>
   <path transform="scale(.26458)" d="m730 525v15h25.98zm1 18.812v46.188h-1v15h35v25h15v-76.133l-15.051-8.6895-2e-3 0.2793-9.8887-1.4941-6.7246 44.494 9.8867 1.4941-10.346 0.04883v-46.188z" fill-opacity=".20056"/>
  </g>
  <path transform="scale(.26458)" d="m311.26 268.96v177.08l125.74 77.836v-9.875h-1.8125v-4h327.07v-0.35547h29c11.08 0 20-8.92 20-20v-108.13zm480 240.69-29 0.35547h29.627zm-352.44 15.355 129.24 80h196.95v25h15v-90h5v-15h-80z" fill="url(#linearGradient29346)"/>
  <path transform="scale(.26458)" d="m311.26 299.99v116.98l164.61 93.029h286.39v-0.35547h29c11.08 0 20-8.92 20-20v-4.3809zm480 209.66-29 0.35547h29.627zm-288.84 15.355 141.56 80h121.03v25h15v-90h5v-15h-80z" fill="url(#linearGradient23207)"/>
  <g transform="translate(0 -.11577)">
   <path d="m109.01 131.65h6.135v4.4648h-12.27v-4.4648z" fill="#f68e5f"/>
   <rect transform="rotate(90)" x="132.82" y="-113.51" width="2.1167" height="3.4396" ry=".79376" fill="#fefee3"/>
  </g>
  <g transform="translate(.52917)">
   <path d="m115.09 136h-13.229v2.9104h13.229z" fill="#ff686b"/>
   <rect x="112.98" y="136" width=".79375" height="2.9104" ry="1.6104e-5" fill="#ffcb69"/>
   <rect x="103.19" y="136" width=".79375" height="2.9104" ry="1.6104e-5" fill="#ffcb69"/>
  </g>
  <g>
   <rect x="103.98" y="129.15" width="10.583" height="2.3813" ry=".9525" fill="#b87c55"/>
   <path d="m107.95 124.82v4.3279h2.6458v-4.3246a10.583 11.272 0 0 1-1.3229 0.0974 10.583 11.272 0 0 1-1.3229-0.10072z" fill="#a6704d"/>
   <path d="m103.25 105.66a10.583 10.583 0 0 0-4.5558 8.6734 10.583 10.583 0 0 0 10.583 10.583 10.583 10.583 0 0 0 8.6873-4.5418l-0.95601-0.95602a9.2604 9.2604 0 0 1-7.7313 4.1749 9.2604 9.2604 0 0 1-9.2604-9.2604 9.2604 9.2604 0 0 1 4.1749-7.7313z" fill="#b87c55"/>
   <circle cx="109.27" cy="114.33" r="7.9375" fill="#45c1da"/>
   <path d="m101.36 105.56c-0.11354 0-0.22719 0.0432-0.31419 0.13023l-0.40876 0.40876c-0.17401 0.174-0.17401 0.45386 0 0.62787l2.4825 2.4825c0.0178 0.0178 0.0366 0.0334 0.0563 0.0476a7.9375 7.9375 0 0 1 1.0278-1.0278c-0.0142-0.0198-0.0298-0.0385-0.0476-0.0563l-2.4825-2.4825c-0.087-0.087-0.20014-0.13023-0.31368-0.13023z" fill="#a6704d"/>
   <path d="m115.37 119.41a7.9375 7.9375 0 0 1-1.0278 1.0278c0.0142 0.0198 0.0298 0.0386 0.0475 0.0563l2.4825 2.4825c0.174 0.174 0.45386 0.174 0.62787 0l0.40876-0.40876c0.174-0.17401 0.174-0.45387 0-0.62787l-2.4825-2.4825c-0.0178-0.0178-0.0366-0.0334-0.0563-0.0475z" fill="#a6704d"/>
  </g>
  <g fill="#afd79d">
   <path d="m106.82 106.79a7.9375 7.9375 0 0 0-4.3584 3.4773c1.1128 1.262 3.5018 3.8034 4.6953 3.8034 0 0-2.9104 3.9688 1.3229 3.4396 4.2333-0.52916-0.52917 3.4396 0.52916 3.9688 1.0583 0.52917 3.7042-2.6458 3.175-3.7042-0.52916-1.0583 1.3229-2.1167 0.26459-3.175-1.0583-1.0583-2.6458-1.0583-3.4396-1.0583s-3.9688-1.0583-2.1167-2.1167c1.8521-1.0583 1.5875 0.79375 2.3812 0.26458s-1.3229-0.79375-1.3229-1.5875-0.26458-1.5875 0.79375-1.8521c1.0583-0.26459 2.6458 0.26458 2.1167-0.52917-0.52917-0.79375-2.6458-0.3638-3.4396-0.79375-0.15732-0.0852-0.36702-0.12591-0.60151-0.13694z"/>
   <path d="m114.79 108.63c-1.226 0.68656-2.6799 1.7388-0.2248 3.0608 1.2643 0.68078 2.0626 1.1824 2.5683 1.5451a7.9375 7.9375 0 0 0-2.3435-4.6059z"/>
   <path d="m101.94 117.36a7.9375 7.9375 0 0 0 3.5528 3.9501c0.10479-0.31484 0.15065-0.76701 0.0785-1.4159-0.18798-1.6918-2.3782-2.3151-3.6313-2.5342z"/>
  </g>
 </g>
 <metadata>
  <rdf:RDF>
   <cc:Work rdf:about="">
    <dc:title>Blackboard</dc:title>
    <dc:date>16</dc:date>
    <dc:source>https://github.com/Advanced-Systems/vector-assets</dc:source>
    <dc:language>Japanese</dc:language>
    <dc:publisher>
     <cc:Agent>
      <dc:title>Advanced Systems</dc:title>
     </cc:Agent>
    </dc:publisher>
    <dc:creator>
     <cc:Agent>
      <dc:title>Stefan Greve</dc:title>
     </cc:Agent>
    </dc:creator>
    <cc:license rdf:resource="http://creativecommons.org/licenses/by-nc-nd/4.0/"/>
    <dc:rights>
     <cc:Agent>
      <dc:title>Stefan Greve</dc:title>
     </cc:Agent>
    </dc:rights>
   </cc:Work>
   <cc:License rdf:about="http://creativecommons.org/licenses/by-nc-nd/4.0/">
    <cc:permits rdf:resource="http://creativecommons.org/ns#Reproduction"/>
    <cc:permits rdf:resource="http://creativecommons.org/ns#Distribution"/>
    <cc:requires rdf:resource="http://creativecommons.org/ns#Notice"/>
    <cc:requires rdf:resource="http://creativecommons.org/ns#Attribution"/>
    <cc:prohibits rdf:resource="http://creativecommons.org/ns#CommercialUse"/>
   </cc:License>
  </rdf:RDF>
 </metadata>
</svg>
