<svg xmlns="http://www.w3.org/2000/svg" xmlns:xlink="http://www.w3.org/1999/xlink" width="1300" height="1300" viewBox="0 0 343.958 343.958" xmlns:v="https://vecta.io/nano"><style><![CDATA[.B{fill-opacity:.992}.C{fill:#e3e3e3}.D{fill:#bebdbc}.E{fill:#a5a3a2}.F{fill:#d7d7d7}.G{fill:#767676}.H{fill:#f0f0f0}.I{opacity:.998}.J{fill:#202021}.K{fill:#ccc}.L{fill:#8f8f8f}.M{fill:#2a2b2c}.N{fill-opacity:.996}.O{fill:#f0eff0}.P{fill:#e0e0e0}.Q{fill:#d6d6d6}.R{fill:#43a047}.S{fill:#3949ab}.T{stroke-opacity:0}.U{stroke-width:1.323}]]></style><defs><linearGradient id="A" x1="513.883" y1="1398.874" x2="519.469" y2="1151.009" xlink:href="#BR"><stop offset="0" stop-color="#ffa726"/><stop offset="1" stop-color="#ab47bc"/></linearGradient><linearGradient id="B" x1="1018.927" y1="1067.44" x2="1364.311" y2="1306.364" xlink:href="#BR"><stop offset="0" stop-color="#e53935"/><stop offset="1" stop-color="#ab47bc"/></linearGradient><linearGradient id="C" x1="425.847" y1="238.125" x2="465.27" y2="198.702" xlink:href="#BR"><stop offset="0"/><stop offset="1" stop-color="#bdbdbd"/></linearGradient><linearGradient id="D" x1="123.55" y1="411.595" x2="162.846" y2="389.658" xlink:href="#BR"><stop offset="0" stop-color="#ea0652"/><stop offset="1" stop-color="#ea0652" stop-opacity="0"/></linearGradient><linearGradient id="E" x1="368.646" y1="130.743" x2="400.239" y2="113.037" xlink:href="#BR"><stop offset="0" stop-color="#fdd201"/><stop offset="1" stop-color="#fdd201" stop-opacity="0"/></linearGradient><path id="F" d="M121.082 132.807l-.001.001s-9.51 9.507-6.032 22.491l26.188 7.011c-3.479-12.985 6.031-22.492 6.031-22.492v-.001l-26.187-7.011z"/><path id="G" d="M120.377 162.125l-.001.039c0 4.296 1.19 6.533 2.809 7.587l23.482 13.552c-1.619-1.054-2.81-3.291-2.81-7.588l-23.481-13.589zm26.712 21.421l.007.004-.001-.001z"/><path id="H" d="M140.16 130.515c-2.522 1.456-4.204 4.367-4.204 4.367l27.109-.005s2.865-4.96 6.724-5.169h.001l-27.103.005c-.905.048-1.755.357-2.527.802z"/><path id="I" d="M95.102 125.852h0 0c0 0-9.511 9.507-6.031 22.492l25.98 6.956c-3.479-12.985 6.032-22.492 6.032-22.492l.001-.001-25.981-6.956z"/><path id="J" d="M89.05 148.268c.021.077 0 0 .021.078 1.112 4.151 2.841 6.003 4.678 6.603l.47.126h.008l.001.002 25.514 6.831c-1.842-.595-3.577-2.446-4.692-6.607l-.01-.038z"/><path id="K" d="M100.292 122.721c-2.813.754-5.19 3.13-5.19 3.13l25.98 6.956s4.057-4.055 7.841-3.251l-25.988-6.958h-.001c-.884-.186-1.784-.108-2.642.122z"/><path id="L" d="M80.44 124.877s-7.127 7.126-4.519 16.859l13.205 6.555c-3.477-12.977 6.019-22.48 6.03-22.491z"/><path id="M" d="M84.275 122.584c-2.108.565-3.89 2.346-3.89 2.346l14.716.922h0s2.731-2.73 5.801-3.266l-14.646-.094h-.001c-.663-.14-1.338-.081-1.981.091zm18.658.015h.003z"/><path id="N" d="M75.921 141.735c.905 3.379 2.445 4.757 3.952 5.076v.001l12.394 7.296c-1.23-1.004-2.331-2.792-3.121-5.74l-.021-.078.054.015z"/><path id="O" d="M44.112 115.182s-7.127 7.126-4.519 16.859l36.328 9.695c-2.608-9.733 4.519-16.859 4.519-16.859z"/><path id="P" d="M39.592 132.04c.905 3.379 2.356 4.726 3.863 5.044h0l36.326 9.705-.011-.013c-1.503-.324-2.948-1.672-3.851-5.042z"/><path id="Q" d="M48.001 112.836c-2.108.565-3.89 2.346-3.89 2.346l36.326 9.697h.001c.002-.001 2.687-2.685 5.364-2.508l-35.459-9.529a3.43 3.43 0 0 0-.354-.095l-.006-.002h-.001c-.663-.14-1.337-.081-1.981.091z"/><path id="R" d="M10.348 115.176l29.344 7.857.001-.001c1.384-4.814 4.42-7.85 4.42-7.85s2.249-2.249 4.683-2.494zm38.729-2.507l.032-.001.001-.001z"/><path id="S" d="M10.348 115.176l31.271 20.885c-.796-.79-1.502-2.064-2.027-4.021l-.073-.283-.019-.078-.053-.226-.015-.062-.061-.277-.013-.063-.042-.213-.017-.091-.048-.266-.045-.279-.011-.075-.03-.215-.008-.062-.034-.275-.003-.032-.025-.246-.006-.056-.023-.27-.019-.283-.002-.04-.012-.24-.002-.041-.008-.276-.003-.348.001-.132.004-.241.003-.127.013-.324.008-.135.015-.226.01-.133.028-.312.016-.148.021-.185.021-.17.026-.193.035-.237.028-.178.029-.171.026-.145.062-.317.023-.113.043-.196.022-.098.162-.647.021-.077.057-.203v-.002l.001-.002c1.384-4.814 4.419-7.849 4.419-7.849z"/><path id="T" d="M44.112 115.182s-7.127 7.126-4.519 16.859l5.195 1.386c-2.604-9.731 4.521-16.854 4.521-16.854z"/><path id="U" d="M39.592 132.04c.905 3.379 2.356 4.726 3.863 5.044h0l4.804 1.284c-1.364-.461-2.645-1.852-3.472-4.937z"/><path id="V" d="M48.001 112.836c-2.108.565-3.89 2.346-3.89 2.346l5.199 1.388c.024-.024 2.993-2.979 5.795-2.449l-4.763-1.28a3.43 3.43 0 0 0-.354-.095l-.006-.002h-.001c-.663-.14-1.337-.081-1.981.091z"/><path id="W" d="M10.348 115.176l31.271 20.885c-.795-.79-1.502-2.064-2.026-4.021z"/><path id="X" d="M212.883 217.929l6.336 3.658c2.413 1.393 2.409 3.288-.014 5.685l-.908.899c-2.423 2.398-4.842 2.9-7.256 1.506l-3.44-1.986-4.544 4.496-2.897-1.672zm.352 4.189l-3.089 3.056 3.44 1.986c.482.279 1.087.058 1.814-.661l.909-.899c.727-.719.849-1.218.366-1.497z"/><path id="Y" d="M217.015 233.411l2.987 1.725 2.895-5.205zm1.312 4.744l-4.725-2.728-2.443 1.438-2.897-1.672 17.066-10.079 3.077 1.776-8.374 15.097-2.897-1.672z"/><path id="Z" d="M232.749 229.399l6.336 3.657c2.413 1.394 2.409 3.289-.012 5.687l-.908.899c-1.986 1.967-3.97 2.658-5.95 2.075l-1.981 6.161-3.132-1.809 1.926-6.007-1.557-.899-4.543 4.497-2.897-1.673zm.354 4.189l-3.089 3.057 3.44 1.986c.483.279 1.088.058 1.814-.661l.908-.899c.727-.72.849-1.219.366-1.497z"/><path id="a" d="M238.74 245.954l2.988 1.725 2.892-5.207zm1.314 4.745l-4.726-2.728-2.441 1.438-2.897-1.672 17.059-10.082 3.077 1.776-8.367 15.1-2.897-1.672z"/><path id="b" d="M253.579 253.382l-2.173-1.254 2.362-2.623 5.249 3.031-3.994 3.958c-2.421 2.399-4.839 2.902-7.253 1.508l-2.716-1.568c-2.414-1.394-2.41-3.29.011-5.689l5.448-5.397c2.421-2.398 4.839-2.9 7.252-1.507l2.715 1.568c2.414 1.393 2.41 3.289-.01 5.688l-.273.269-3.077-1.492.453-.45c.727-.719.848-1.218.366-1.497l-2.716-1.568c-.482-.278-1.087-.058-1.813.662l-5.448 5.396c-.726.72-.848 1.219-.365 1.498l2.715 1.568c.483.279 1.088.058 1.814-.662z"/><path id="c" d="M255.928 257.016l9.077-8.994 2.896 1.672-9.076 8.995c-.726.72-.848 1.219-.365 1.498l2.715 1.567c.483.279 1.088.059 1.814-.661l9.076-8.996 2.896 1.672-9.076 8.996c-2.42 2.4-4.838 2.903-7.252 1.509l-2.716-1.568c-2.414-1.394-2.41-3.29.011-5.69z"/><path id="d" d="M270.64 264.371l2.987 1.725 2.89-5.208zm1.315 4.746l-4.726-2.728-2.44 1.439-2.897-1.672 17.051-10.087 3.077 1.776-8.359 15.105-2.897-1.672z"/><path id="e" d="M281.724 267.966l2.785-8.684 3.131 1.808-1.538 4.806 5.72-2.392 3.131 1.808-10.333 4.326-6.143 6.093-2.897-1.673z"/><path id="f" d="M268.274 255.629c-1.217-.329-2.989-.207-5.009 1.813-3.803 3.802-.999 6.605-.999 6.605v-.001c2.335-3.213 5.096-5.657 7.721-7.483l.003-.002s-.642-.642-1.716-.932z"/><path id="g" d="M290.303 269.846s4.079-1.092 5.471-6.286-2.681-4.104-2.681-4.104l.001-.002c-.025 1.424-.269 3.084-.787 5.019-.521 1.945-1.203 3.729-2.001 5.366z"/><path id="h" d="M175.467 140.202h-.001c-3.31-1.679-8.003.887-8.372 1.094l23.171 13.372s4.961-2.863 8.408-1.114h.001l-23.207-13.352z"/><path id="i" d="M168.658 148.274h-.001s-12.964 3.471-16.459 16.424l18.95 18.942c3.479-12.985 16.469-16.463 16.469-16.463h.001l-18.96-18.903z"/><path id="j" d="M144.584 173.035c.263.983.561 1.837.887 2.576 1.05 2.382 2.389 3.569 3.791 4.027l25.892 6.968c-1.837-.599-3.566-2.452-4.678-6.603l-25.892-6.968zm5.149 6.728l.009.002-.008-.002z"/><path id="k" d="M215.25 183.109s20.801-5.568 15.231 15.222-26.372 26.357-26.372 26.357-20.801 5.568-15.231-15.222 26.372-26.357 26.372-26.357z"/><path id="l" d="M246.005 218.253s17.33-4.639 12.689 12.682-21.971 21.96-21.971 21.96-17.33 4.639-12.689-12.682 21.971-21.96 21.971-21.96z"/><path id="m" d="M160.207 186.434l.004.011c.001 5.729 1.588 8.711 3.748 10.117l.563.325h.009l18.827 10.865c-2.16-1.407-3.748-4.39-3.748-10.122v-.003l-19.398-11.19zm23.713 21.643l.011.006-.001-.001z"/><path id="n" d="M264.303 272.907l-17.698-12.9 21.282 13.56z"/><path id="o" d="M246.605 260.007l14.678 20.173c.731-2.729 1.777-5.142 3.021-7.273h0z"/><path id="p" d="M246.605 260.008l13.907 26.034v-.003c-.075-1.598.151-3.528.774-5.855z"/><path id="q" d="M263.071 243.54l11.449 18.823.004-.002c4.696-3.063 8.73-4.143 8.73-4.143z"/><path id="r" d="M263.071 243.54l20.182 14.676.009-.001c.044-.012 4.043-1.072 7.676-.251h.001z"/><path id="s" d="M263.071 243.54l12.474 22.122-1.025-3.299z"/><path id="t" d="M200.457 157.326c-3.364-1.942-7.849-1.943-7.849-1.943l11.204 19.398s7.64.002 10.456 4.32h.001l-11.204-19.398h-.001c-.659-1.01-1.58-1.784-2.607-2.377z"/><path id="u" d="M189.607 161.873l-.021.006v-.001h-.001c-.24.065-17.34 4.754-21.949 21.954v.001l.003.004h.001 0l15.839 15.834v-.001c4.641-17.321 21.971-21.96 21.971-21.96z"/><path id="v" d="M-380.274 286.119c.588-1.074.802-2.295.597-3.395s-.816-1.987-1.695-2.468c-1.83-1.002-4.306-.001-5.53 2.236s-.732 4.862 1.098 5.863c.879.481 1.955.516 2.993.097s1.949-1.259 2.537-2.333z"/><path id="w" d="M-385.537 287.491c.007-.012.009-.026.007-.038s-.009-.022-.019-.028-.022-.006-.034-.001-.022.014-.028.026-.009.026-.007.038.009.022.019.028.022.006.034.001.022-.014.028-.026z"/><path id="x" d="M-384.171 287.089c.007-.012.009-.026.007-.038s-.009-.022-.019-.028-.022-.006-.034-.001-.022.014-.029.026-.009.026-.007.038.009.022.019.028.022.006.034.001.022-.014.028-.026z"/><path id="y" d="M-384.941 281.091c.01-.019.006-.041-.009-.049s-.036 0-.047.019-.006.041.009.049.036 0 .046-.019z"/><path id="z" d="M-383.039 281.204c.005-.009.007-.019.005-.029s-.007-.017-.014-.021-.016-.004-.025-.001-.016.011-.021.02-.007.019-.005.029.007.017.014.021.016.004.025.001.016-.011.021-.02z"/><path id="AA" d="M-385.683 286.887c.01-.019.006-.041-.009-.049s-.036 0-.047.019-.006.041.009.049.036 0 .047-.019z"/><path id="AB" d="M-385.794 286.913c.01-.019.006-.041-.009-.049s-.036 0-.046.019-.006.041.009.049.036 0 .047-.019z"/><path id="AC" d="M-385.735 285.66c.01-.019.006-.041-.009-.049s-.036 0-.046.019-.006.041.009.049.036 0 .046-.019z"/><path id="AD" d="M-385.587 288.041c.005-.009.007-.019.005-.029s-.007-.017-.014-.021-.016-.004-.025-.001-.016.011-.021.02c-.01.019-.006.041.009.049s.036 0 .046-.019z"/><path id="AE" d="M-384.528 281.089c.01-.019.006-.041-.009-.049-.007-.004-.016-.004-.025-.001s-.016.011-.021.02-.007.019-.005.029.007.017.014.021c.015.008.036 0 .047-.019z"/><path id="AF" d="M-382.35 281.71c.005-.009.007-.019.005-.029s-.007-.017-.014-.021-.017-.004-.025-.001-.016.011-.021.02-.007.019-.005.029.007.017.014.021.016.004.025.001.016-.011.021-.02z"/><path id="AG" d="M-383.966 281.432c.01-.019.006-.041-.009-.049-.007-.004-.017-.004-.025-.001s-.016.011-.021.02-.007.019-.005.029.007.017.014.021c.015.008.036 0 .047-.019z"/><path id="AH" d="M-383.826 282.035c.006-.012.009-.026.007-.038s-.009-.022-.019-.028-.022-.006-.034-.001-.022.014-.028.026-.009.026-.007.038.009.022.019.028.022.006.034.001.022-.014.029-.026z"/><path id="AI" d="M-380.946 283.643c.007-.012.009-.026.007-.038s-.009-.022-.019-.028-.022-.006-.033-.001-.022.014-.029.026-.009.026-.007.038.009.022.019.028.022.006.033.001.022-.014.029-.026z"/><path id="AJ" d="M-380.633 284.223c.007-.012.009-.026.007-.038s-.009-.022-.019-.028-.022-.006-.034-.001-.022.014-.028.026-.009.026-.007.038.009.022.019.028.022.006.034.001.022-.014.029-.026z"/><path id="AK" d="M-384.679 287.997l.086.061-.096-.044c-.015.02-.039.029-.058.022l-.07.108.057-.116c-.014-.014-.018-.038-.008-.06l-.089-.062.098.046c.014-.018.035-.026.054-.021l.072-.111-.058.118c.015.013.02.036.012.059z"/><path id="AL" d="M-380.278 284.454l.087.061-.096-.044c-.015.02-.039.029-.058.022l-.07.108.057-.116c-.014-.014-.018-.038-.008-.06l-.089-.062.099.046c.014-.018.035-.026.053-.021l.072-.111-.058.118c.015.013.02.036.012.059z"/><path id="AM" d="M-383.093 280.655l.087.061-.096-.044c-.015.02-.039.029-.058.022l-.07.107.057-.116c-.014-.014-.018-.038-.008-.06l-.089-.062.098.046c.014-.018.035-.026.054-.021l.072-.111-.058.118c.015.013.02.036.012.059z"/><path id="AN" d="M-380.084 283.403l.087.061-.096-.044c-.015.02-.038.029-.058.022l-.07.108.057-.116c-.014-.014-.017-.038-.008-.06l-.089-.062.099.046c.014-.018.035-.026.053-.021l.072-.111-.058.118c.015.013.02.036.012.058z"/><path id="AO" d="M-383.333 285.705l-.823-1.058c-.509-.599-1.907-2.232-2.512-3.656l.112.006c.404.803.749 1.175 1.069 1.552.348.411 1.55 1.598 2.075 2.173l.584.7-.375.213-.129.068zm.905-.535l-.129-.301c-.194-.397-1.035-2.533-1.224-3.022s-.549-2.149-.657-2.633l.063-.139.704 2.478.921 2.4.468 1.118-.026.018-.119.081zm.425 2.661c-.274-.57-.772-1.35-1.281-2.058l.09-.048.414-.238c.409.541.825 1.194 1.08 1.849-.082-.384-.455-1.47-.701-2.097l.144-.102.734 2.028c.163.585.543 1.902.239 3.222-.084-1.187-.477-2.055-.719-2.557z"/><path id="AP" d="M-383.466 283.069l-.458.243-.539.317-.07-.072.667-.4.396-.206.097-.061.044.112-.138.068zm.857-.3c-.098.037-.307.073-.554.164l-.054-.14c.19-.115.437-.249.574-.252.207-.005.16.182.034.229zm-.585 2.956c-1.595.858-3.054 1.011-3.268.319-.166-.538.53-1.464 1.596-2.253l.058.072c-1.056.759-1.714 1.642-1.558 2.149.197.638 1.613.458 3.162-.376a9.02 9.02 0 0 0 .894-.549c1.046-.732 1.695-1.557 1.554-2.115-.043-.171-.339-.391-.886-.39-.001-.012.022-.031.032-.033.46.02.845.142.927.409.198.64-.917 1.908-2.512 2.766z"/><path id="AQ" d="M-386.822 283.534l.555.304.994-.711-.412.754a.38.38 0 0 1-.235.147l.384.21c-.019-.02-.034-.174.017-.266l.606-1.108c.037-.068.169-.118.228-.133l-.535-.293-1.004.711.418-.763c.041-.076.142-.115.239-.143l-.409-.224c.042.062.045.188.009.266s-.575 1.052-.599 1.094c-.051.092-.165.128-.255.154z"/><path id="AR" d="M-380.917 284.794l.738.404c-.048-.01-.126.024-.193.089l-1.165 1.14-.281-.154-.135-.362c.041-.106.353-1.199.366-1.254.018-.077-.037-.203-.054-.263l.398.218c-.07.033-.131.068-.156.133l-.07.198.411.225a1.25 1.25 0 0 0 .131-.145c.043-.057.029-.155.009-.229zm-.62.363l-.164.63.486-.454zm-.567.888l.031.089-.108-.059.077-.03z"/><path id="AS" d="M-384.217 283.202l-.07.198.411.225a1.25 1.25 0 0 0 .131-.145c.043-.057.029-.155.009-.229l.65.356.022.055c-.04.013-.086.042-.128.082l-1.165 1.14-.644-.352c.05-.018.19-.063.232-.172.038-.097.35-1.19.363-1.245.018-.077-.037-.203-.054-.263l.398.218c-.069.033-.131.068-.156.133zm-.303 1.042l.487-.454-.322-.176z"/><path id="AT" d="M-382.3 285.03l-.215-.519c.08-.003.153-.021.189-.077.068-.104-.082-.255-.257-.322a.39.39 0 0 0-.111-.023l-.058-.136-.071-.17.086-.157c-.01.095.023.202.075.236.023.014.155-.033.479.174.157.1.357.486.217.729a.58.58 0 0 1-.335.265zm-.72-.886l.087-.16.049.12c-.066.014-.118.032-.136.04zm.55.923c-.044.006-.086.008-.126.009-.208.004-.383-.07-.485.033-.072.073-.047.191.124.28s.393.052.459.031l-.214.39c-.004-.022-.017-.128-.074-.142a2.05 2.05 0 0 1-.473-.188c-.212-.118-.285-.42-.152-.677.186-.36.472-.33.634-.314l.056.007.164.374.087.198z"/><path id="AU" d="M206.379 174.242c0 0-8.861 2.372-16.565 9.8l8.87 8.867h0c7.704-7.428 16.565-9.8 16.565-9.8z"/><path id="AV" d="M180.024 200.596l.003.023-.013-.013c-1.784 6.66-.871 10.612 1.196 12.914l.553.553.008-.013 8.307 8.304c-2.067-2.302-2.981-6.254-1.2-12.899zm10.607 22.322l.011.01v-.001z"/><path id="AW" d="M216.083 174.057c-4.503-1.207-9.703.185-9.704.185h0 0l8.871 8.867s8.858-2.37 13.465 1.76h.001l-8.871-8.867-.002-.001c-1.077-.966-2.386-1.577-3.76-1.945z"/><path id="AX" d="M214.32 186.578l-.021.006h0 0c-.24.065-17.34 4.754-21.949 21.954v.001l.003.004v-.001.001l15.839 15.834v-.001c4.641-17.321 21.971-21.96 21.971-21.96z"/><path id="AY" d="M230.185 202.409l-.021.006h0v.001c-.24.065-17.34 4.754-21.949 21.954v.001l.003.004h0 0l15.839 15.834v-.001c4.641-17.321 21.971-21.96 21.971-21.96z"/><path id="AZ" d="M192.348 208.538v.012c-1.482 5.534-.72 8.825 1.002 10.742l.46.459.008.003 15.373 15.368c-1.723-1.918-2.484-5.21-1.001-10.747v-.003l-15.841-15.83zm17.304 27.043l.009.009v-.001z"/><path id="Aa" d="M208.197 224.375l.001.012c-1.482 5.534-.72 8.825 1.002 10.742l.46.459.008.003 15.373 15.368c-1.723-1.918-2.484-5.21-1.001-10.747l.001-.003-15.841-15.83zm17.304 27.043l.009.009v-.001z"/><path id="Ab" d="M222.406 186.424c-3.752-1.005-8.085.154-8.085.154l15.843 15.838s7.38-1.975 11.218 1.466h.002l-15.843-15.838h-.001c-.897-.805-1.988-1.314-3.134-1.621z"/><path id="Ac" d="M238.247 202.261c-3.752-1.005-8.085.154-8.085.154l15.843 15.838s7.38-1.975 11.218 1.466h.002l-15.843-15.838h-.002c-.897-.805-1.988-1.314-3.134-1.621z"/><path id="Ad" d="M254.051 224.229c-4.378 1.51-18.874 7.605-24.121 24.085l8.871 8.872c5.083-15.883 19.181-22.29 24.129-24.093zm10.625 8.29c-.012.003-.169.046-.462.138l.014-.004.449-.133z"/><path id="Ae" d="M221.492 242.031c-.565.543-1.191.753-1.327.795-1.207 5.644-.282 9.121 1.605 11.222l.553.553.008-.013 8.307 8.304c-2.067-2.302-2.981-6.254-1.2-12.899zm9.699 21.414l.011.01v-.001z"/><path id="Af" d="M256.639 214.6c-2.926-.784-6.145-.471-8.042-.156l8.88 8.866c2.79-.463 8.426-.917 11.794 2.102h.002l-8.871-8.867-.002-.001c-1.077-.966-2.386-1.577-3.76-1.945z"/><path id="Ag" d="M265.509 223.467c-2.921-.783-6.134-.472-8.032-.157l8.806 8.792.074.074s.022-.063 0 0c2.794-.462 8.42-.912 11.784 2.103l.002.001-8.871-8.867-.002-.001c-1.077-.966-2.386-1.576-3.76-1.945zm-.825 9.049l-.009.004z"/><path id="Ah" d="M274.378 232.335c-2.916-.781-6.122-.473-8.022-.159-.128.372-.677 1.683-2.147 2.076s-1.346-.804-1.28-1.159c-5.119 1.864-20.04 8.659-24.628 25.784s8.715 16.366 13.548 15.566c.128-.372.676-1.683 2.147-2.077s1.347.803 1.28 1.159c4.939-1.798 19.023-8.193 24.118-24.054-.004.001-1.68.43-1.226-1.267s2.137-2.149 2.142-2.151c1.948-9.125-1.682-12.58-5.933-13.719zm-9.271.082l-.434.103s-.162.044-.443.132z"/><path id="Ai" d="M245.172 215.365c-4.963 1.81-19.032 8.22-24.11 24.081l8.87 8.87c5.081-15.872 19.164-22.281 24.12-24.087z"/><path id="Aj" d="M248.596 214.444v.001c-.139.393-.692 1.671-2.141 2.059l17.755 17.748c1.47-.394 2.018-1.704 2.147-2.076zm17.761 17.733z"/><path id="Ak" d="M245.172 215.365l.002.001zm1.303 1.134l-.02.005-.117.027 16.586 16.595-.004.027.004-.027c-.064.372-.135 1.407 1.099 1.17l.186-.042-.029-.027.03.026z"/><path id="Al" d="M239.596 257.142c-.364-.102-.786.011-.786.011l-.009.032 1.235 1.235c.23-.859-.076-1.176-.44-1.278z"/><path id="Am" d="M222.295 240.68c-.422 1.574-1.911 2.079-2.13 2.146h-.001l17.726 17.758h0 0 0c.002 0 1.687-.453 2.147-2.17h0l-1.235-1.235z"/><path id="An" d="M279.395 249.472s-1.681.432-1.226-1.267z"/><path id="Ao" d="M254.751 272.313c-.186-.042-.432-.031-.754.055l.101-.019 1.178 1.177c.052-.273.143-1.065-.525-1.213z"/><path id="Ap" d="M241.797 257.936l.001.012c-1.481 5.534-.72 8.825 1.002 10.742l.46.459.008.003 15.373 15.368c-1.723-1.918-2.484-5.21-1.001-10.747v-.003l-15.841-15.83zm17.304 27.043l.009.009v-.001z"/><path id="Aq" d="M263.766 235.983l-.021.006h0c-.156.042-7.443 2.04-13.787 8.163l13.308 13.29 2.544 2.543c3.002-2.894 6.214-4.867 8.784-6.148l-.362.183h-.002zm-13.815 8.175l-.003.003z"/><path id="Ar" d="M249.957 244.152c-3.411 3.292-6.55 7.776-8.161 13.79v.001l.003.004 14.722 14.717 1.628-.587c1.713-5.17 4.575-9.118 7.66-12.092l-2.544-2.543z"/><path id="As" d="M259.64 268.413s-4.079 1.092-5.471 6.286 2.681 4.104 2.681 4.104v-.003c.025-1.424.269-3.084.787-5.019a29.78 29.78 0 0 1 2.001-5.366z"/><path id="At" d="M241.799 257.947l12.37 16.751c1.392-5.194 5.471-6.286 5.471-6.286z"/><path id="Au" d="M241.799 257.947l12.271 19.783v-.001c-.252-.631-.287-1.588.099-3.03z"/><path id="Av" d="M293.067 258.519l.019.927.012.008h0a3.37 3.37 0 0 1 1.543-.005h0z"/><path id="Aw" d="M275.745 284.242h-.002c-3.132 1.607-5.416 2.22-5.416 2.22s-2.284.611-4.971.561h-.002s-1.153 4.303 4.043 2.912 6.349-5.693 6.349-5.693z"/><path id="Ax" d="M270.325 286.463c0 .001-.072.018-.145.036l.145-.036zm-.383.091l-.027.006.027-.006zm-.087.019l-.204.043.204-.043zm-.32.066l-.243.046.243-.046zm-.351.066l-.372.063.372-.063zm-1.072.163zm-.841.089zm-.663.045l-.045.002.045-.002zm-.969.024h-.062.062zm-.282-.003l-1.164-.065 1.3 2.189c-.458-.927-.138-2.123-.138-2.123zm.284 2.373l.001.002h0z"/><path id="Ay" d="M283.244 248.179c-.617-.17-1.486-.158-2.704.169-5.196 1.391-6.311 5.674-6.311 5.674h.002c3.112-1.593 5.378-2.2 5.378-2.2s2.284-.611 4.972-.561h.002s.676-2.522-1.339-3.08z"/><path id="Az" d="M263.766 235.983l10.463 18.038s1.115-4.282 6.311-5.674z"/><path id="BA" d="M263.766 235.983l16.774 12.365c1.218-.326 2.087-.339 2.704-.169a2.27 2.27 0 0 1 .316.113h0z"/><path id="BB" d="M272.18 279.548s2.575-.692 1.884 1.887-3.266 3.27-3.266 3.27-2.575.692-1.884-1.887 3.266-3.27 3.266-3.27z"/><path id="BC" d="M287.671 274.235l-.003.002c-2.335 3.213-5.095 5.656-7.72 7.481l-.003.003s2.922 2.921 6.726-.881.999-6.605.999-6.605z"/><path id="BD" d="M249.957 244.152l11.595 18.739c-.466-1.164-.619-3.118 1.713-5.449z"/><path id="BE" d="M249.957 244.152l13.308 13.29c2.021-2.02 3.792-2.142 5.009-1.813.158.043.306.094.445.149z"/><path id="BF" d="M242.801 268.69l13.074 17.896c-.761-1.554.108-3.176.754-4.066z"/><path id="BG" d="M274.986 237.449l12.479 14.153h0c.025-.025 2.326-2.31 4.548-1.68a2.82 2.82 0 0 1 .47.18z"/><path id="BH" d="M292.013 249.922c-2.235-.633-4.553 1.684-4.553 1.684v.001c2.316.563 4.452 1.915 5.272 4.826h0s3.17-3.17.639-5.688c-.435-.433-.895-.691-1.359-.823z"/><path id="BI" d="M257.198 281.832c-.04.04-3.156 3.187-.641 5.689 2.532 2.518 5.9-.849 5.9-.849v-.001c-2.314-.567-4.444-1.924-5.259-4.839z"/><path id="BJ" d="M280.055 286.158s3.571-.958 2.613 2.615-4.528 4.532-4.528 4.532-3.571.958-2.613-2.615 4.528-4.532 4.528-4.532z"/><path id="BK" d="M272.18 279.548s-2.575.692-3.266 3.27l6.613 7.869h0c.959-3.571 4.527-4.529 4.527-4.529z"/><path id="BL" d="M268.914 282.818c-.239.893-.087 1.394.215 1.667h0l6.433 8.181c-.226-.413-.287-1.038-.036-1.976l.001-.003h0zM275.825 293l.001.002h0z"/><path id="BM" d="M273.381 279.524c-.557-.149-1.201.024-1.201.024l7.875 6.611s1.345-.361 2.162.187l-8.368-6.578h0a1.12 1.12 0 0 0-.467-.243zm9 6.949h0z"/><path id="BN" d="M260.475 281.726c-.239.893-.087 1.394.215 1.667h0l6.433 8.181c-.226-.413-.287-1.038-.036-1.976l.001-.003h0zm6.911 10.182l.001.002h0z"/><path id="BO" d="M284.283 257.949c-.239.893-.087 1.394.215 1.667h0l6.433 8.181c-.226-.413-.287-1.038-.035-1.976l.001-.003h0zm6.911 10.182l.001.002h0z"/><path id="BP" d="M275.873 256.848c-.239.893-.087 1.394.215 1.667h0l6.433 8.181c-.226-.413-.287-1.038-.036-1.976v-.003h0zm6.911 10.182l.001.002h0z"/><path id="BQ" d="M189.814 184.042c-4.097 3.95-7.867 9.329-9.803 16.542l.006.006-.01.01 8.875 8.851c1.936-7.213 5.706-12.592 9.803-16.541v-.001z"/><linearGradient id="BR" gradientUnits="userSpaceOnUse"/></defs><g transform="translate(-84.667 -92.604)"><g fill="#212121"><circle cx="256.646" cy="264.583" r="79.375" class="I"/><circle cx="375.708" cy="145.521" r="52.917" class="I"/><circle cx="137.583" cy="383.646" r="52.917" class="I"/></g><g stroke="#ffe1b3" class="T"><circle cx="360.25" cy="125.942" r="19.579" fill="url(#C)" stroke-width=".529"/><g transform="scale(.26458334)" stroke-width="2"><path d="M519.791 1250a200 200 0 0 0-138.066 55.504C404.396 1361.985 459.139 1399 520 1399s115.605-37.017 138.275-93.498A200 200 0 0 0 519.791 1250z" fill="url(#A)"/><path d="M 1169.3906,1000 A 199,199 0 0 0 971,1199 199,199 0 0 0 997.7832,1298.7109 300,300 0 0 0 1268.8457,1026.2852 199,199 0 0 0 1170,1000 a 199,199 0 0 0 -0.6094,0 z" fill="url(#B)"/></g></g><circle cx="162.057" cy="415.396" r="3.307" fill="none" stroke="#dfdfdf" class="I U"/><circle cx="101.203" cy="388.938" r="3.307" class="B I P"/><g fill-rule="evenodd"><path d="M162.844 389.653c.491.822-18.058 12.074-25.295 16.117s-13.503 6.655-13.993 5.834 4.978-4.766 12.216-8.81 26.582-13.963 27.073-13.141z" fill="url(#D)"/><path d="M400.26 112.924c.396.664-14.585 9.752-20.431 13.018s-10.906 5.376-11.302 4.712 4.021-3.85 9.867-7.116 21.47-11.278 21.867-10.614z" fill="url(#E)"/></g><circle cx="415.528" cy="145.521" r="3.307" class="B I P"/><g fill="none" stroke="#dfdfdf" class="U"><circle cx="272.43" cy="215.106" r="1.984" class="I"/><circle cx="379.677" cy="174.373" r="3.969" class="I"/></g><g class="P B"><circle cx="210.862" cy="238.364" r="4.63" class="I"/><circle cx="236.594" cy="316.106" r="5.292" class="I"/></g></g><use xlink:href="#F" class="C"/><use xlink:href="#G" class="H"/><use xlink:href="#H" class="K"/><use xlink:href="#I" class="B C"/><use xlink:href="#J" class="H"/><use xlink:href="#K" class="K"/><use xlink:href="#L" class="B Q"/><use xlink:href="#M" class="J"/><use xlink:href="#N" class="M"/><use xlink:href="#O" fill="#e1e1e1" class="B"/><use xlink:href="#P" class="H"/><g class="K"><use xlink:href="#Q"/><use xlink:href="#R"/></g><use xlink:href="#S" class="B P"/><use xlink:href="#T" fill="#262626" class="B"/><use xlink:href="#U" class="M"/><use xlink:href="#V" class="J"/><use xlink:href="#W" class="H"/><g transform="matrix(-.196396 .052624 -.052601 -.196309 180.28248 173.25117)"><use xlink:href="#X"/><use xlink:href="#Y"/><use xlink:href="#Z"/><use xlink:href="#a"/><use xlink:href="#b"/><use xlink:href="#c"/><use xlink:href="#d"/><use xlink:href="#e"/></g><use xlink:href="#f" fill="#42a048"/><use xlink:href="#g" class="E"/><use xlink:href="#h" class="K"/><use xlink:href="#i" class="C"/><use xlink:href="#j" class="H"/><use xlink:href="#k" class="E"/><use xlink:href="#l" class="B R"/><use xlink:href="#m" class="H"/><g transform="matrix(.965926 -.258819 .258819 .965926 -153.391544 -18.026738)"><use xlink:href="#n" class="E"/><use xlink:href="#o" class="C"/><use xlink:href="#p" fill="#ebebeb"/></g><g transform="matrix(.965926 .258819 -.258819 .965926 -20.164992 -155.197389)"><use xlink:href="#q" class="C"/><use xlink:href="#r" class="D"/><use xlink:href="#s" fill="#757575" class="B"/></g><use xlink:href="#t" class="D"/><use xlink:href="#u" class="B Q"/><g transform="matrix(.798387 .213927 -.213832 .798032 549.82884 33.75179)"><use xlink:href="#v" fill="#0b3d91"/><g fill="#fff"><use xlink:href="#w"/><use xlink:href="#w" x="0.415" y="0.148"/><use xlink:href="#x"/><use xlink:href="#x" x="-0.426" y="-5.739"/><use xlink:href="#w" x="1.235" y="-6.451"/><use xlink:href="#y"/><use xlink:href="#z"/><use xlink:href="#y" x="3.942" y="2.012"/><use xlink:href="#z" x="2.229" y="3.19"/><use xlink:href="#y" x="-1.009" y="4.68"/><use xlink:href="#y" x="-0.624" y="5.775"/><use xlink:href="#AA"/><use xlink:href="#AB"/><use xlink:href="#AC"/><use xlink:href="#AD"/><use xlink:href="#y" x="0.074" y="6.07"/><use xlink:href="#AC" x="0.474" y="1.534"/><use xlink:href="#AA" x="0.069" y="-0.224"/><use xlink:href="#AA" x="5.308" y="-4.61"/><use xlink:href="#AE"/><use xlink:href="#AF"/><use xlink:href="#AG"/><use xlink:href="#z" x="-0.423" y="-0.121"/><use xlink:href="#AA" x="3.829" y="-4.531"/><use xlink:href="#AA" x="4.438" y="-3.322"/><use xlink:href="#AC" x="5.457" y="-2.103"/><use xlink:href="#AA" x="5.766" y="-3.389"/><use xlink:href="#AC" x="5.565" y="-1.601"/><use xlink:href="#AC" x="1.461" y="-2.855"/><use xlink:href="#AH"/><use xlink:href="#w" x="2.248" y="-5.909"/><use xlink:href="#AI"/><use xlink:href="#AH" x="3.804" y="2.2"/><use xlink:href="#AJ"/><use xlink:href="#AI" x="-0.16" y="0.29"/><use xlink:href="#AK"/><use xlink:href="#AK" x="-0.871" y="-2.11"/><use xlink:href="#AL"/><use xlink:href="#AM"/><use xlink:href="#AN"/><use xlink:href="#AO" fill="#fc3d21"/><use xlink:href="#AP"/><use xlink:href="#AQ"/><use xlink:href="#AR"/><use xlink:href="#AS"/><use xlink:href="#AT"/></g></g><use xlink:href="#AU" class="J"/><use xlink:href="#AV" class="M"/><g class="C"><use xlink:href="#AW"/><use xlink:href="#AX"/><use xlink:href="#AY"/></g><g class="H N"><use xlink:href="#AZ"/><use xlink:href="#Aa"/></g><g class="D"><use xlink:href="#Ab"/><use xlink:href="#Ac"/></g><use xlink:href="#Ad" class="B F"/><g class="C"><use xlink:href="#Ae"/><use xlink:href="#AV" x="49.409" y="49.413"/></g><g class="D"><use xlink:href="#Af"/><use xlink:href="#Ag"/></g><use xlink:href="#Ah" class="E"/><use xlink:href="#Ai" class="B F"/><use xlink:href="#Aj" class="L"/><g class="G"><use xlink:href="#Ak"/><use xlink:href="#Al"/></g><use xlink:href="#Am" class="L"/><use xlink:href="#An" class="B R"/><use xlink:href="#Ao" fill="#c1cc31"/><use xlink:href="#l" x="33.604" y="33.567" class="E"/><use xlink:href="#Ac" x="33.604" y="33.567" class="J"/><g class="C"><use xlink:href="#Ap"/><use xlink:href="#Aq"/></g><use xlink:href="#Ar" class="J"/><use xlink:href="#As" class="E"/><use xlink:href="#At" class="O"/><use xlink:href="#Au" class="C"/><use xlink:href="#Av" class="L"/><use xlink:href="#Aw" class="E"/><use xlink:href="#Ax" fill="#ab48bb"/><use xlink:href="#Ay" class="E"/><use xlink:href="#Az" class="H N"/><use xlink:href="#BA" class="C"/><g class="S B"><use xlink:href="#BB"/><use xlink:href="#BB" x="6.958" y="-25.97"/><use xlink:href="#BB" x="16.472" y="-16.475"/></g><g class="E"><use xlink:href="#BC"/><use xlink:href="#f"/></g><use xlink:href="#BD" class="C"/><use xlink:href="#BE" class="O"/><use xlink:href="#BF" class="L"/><use xlink:href="#BG" class="O"/><g class="E"><use xlink:href="#BH"/><use xlink:href="#BI"/></g><g class="S B"><use xlink:href="#BB" x="10.345" y="-6.122"/><use xlink:href="#BB" x="-3.387" y="-19.849"/><use xlink:href="#BB" x="-9.508" y="-9.519"/><use xlink:href="#BB" x="-8.411" y="-1.101"/><use xlink:href="#BB" x="15.369" y="-24.87"/></g><use xlink:href="#BJ" class="G"/><use xlink:href="#BK" class="F"/><use xlink:href="#BL" class="C"/><use xlink:href="#BM" class="D"/><use xlink:href="#BJ" x="-8.44" y="-1.092" class="G"/><use xlink:href="#BK" x="-8.44" y="-1.092" class="F"/><use xlink:href="#BN" class="C"/><use xlink:href="#BM" x="-8.44" y="-1.092" class="D"/><use xlink:href="#BJ" x="-9.508" y="-9.519" class="G"/><use xlink:href="#BK" x="-9.508" y="-9.519" class="F"/><use xlink:href="#BN" x="-1.068" y="-8.427" class="C"/><use xlink:href="#BM" x="-9.508" y="-9.519" class="D"/><use xlink:href="#BJ" x="-3.387" y="-19.848" class="G"/><use xlink:href="#BK" x="-3.387" y="-19.849" class="F"/><use xlink:href="#BN" x="5.052" y="-18.756" class="C"/><use xlink:href="#BM" x="-3.387" y="-19.848" class="D"/><use xlink:href="#BJ" x="16.473" y="-16.478" class="G"/><use xlink:href="#BK" x="16.473" y="-16.478" class="F"/><use xlink:href="#BN" x="24.912" y="-15.386" class="C"/><use xlink:href="#BM" x="16.473" y="-16.478" class="D"/><use xlink:href="#BJ" x="15.369" y="-24.869" class="G"/><use xlink:href="#BK" x="15.369" y="-24.87" class="F"/><use xlink:href="#BO" class="C"/><use xlink:href="#BM" x="15.369" y="-24.87" class="D"/><use xlink:href="#BJ" x="6.959" y="-25.97" class="G"/><use xlink:href="#BK" x="6.958" y="-25.97" class="F"/><use xlink:href="#BP" class="C"/><use xlink:href="#BM" x="6.958" y="-25.97" class="D"/><use xlink:href="#BJ" x="10.345" y="-6.121" class="G"/><use xlink:href="#BK" x="10.345" y="-6.122" class="F"/><use xlink:href="#BO" x="-5.024" y="18.748" class="C"/><use xlink:href="#BM" x="10.345" y="-6.121" class="D"/><g class="C"><use xlink:href="#BQ"/><use xlink:href="#F"/></g><use xlink:href="#G" class="H"/><use xlink:href="#H" class="K"/><use xlink:href="#I" class="B C"/><use xlink:href="#J" class="H"/><use xlink:href="#K" class="K"/><use xlink:href="#L" class="B Q"/><use xlink:href="#M" class="J"/><use xlink:href="#N" class="M"/><use xlink:href="#O" fill="#e1e1e1" class="B"/><use xlink:href="#P" class="H"/><g class="K"><use xlink:href="#Q"/><use xlink:href="#R"/></g><use xlink:href="#S" class="B P"/><use xlink:href="#T" fill="#262626" class="B"/><use xlink:href="#U" class="M"/><use xlink:href="#V" class="J"/><use xlink:href="#W" class="H"/><g transform="matrix(-.196396 .052624 -.052601 -.196309 180.28248 173.25117)"><use xlink:href="#X"/><use xlink:href="#Y"/><use xlink:href="#Z"/><use xlink:href="#a"/><use xlink:href="#b"/><use xlink:href="#c"/><use xlink:href="#d"/><use xlink:href="#e"/></g><use xlink:href="#f" fill="#42a048"/><use xlink:href="#g" class="E"/><use xlink:href="#h" class="K"/><use xlink:href="#i" class="C"/><use xlink:href="#j" class="H"/><use xlink:href="#k" class="E"/><use xlink:href="#l" class="B R"/><use xlink:href="#m" class="H"/><g transform="matrix(.965926 -.258819 .258819 .965926 -153.391544 -18.026738)"><use xlink:href="#n" class="E"/><use xlink:href="#o" class="C"/><use xlink:href="#p" fill="#ebebeb"/></g><g transform="matrix(.965926 .258819 -.258819 .965926 -20.164992 -155.197389)"><use xlink:href="#q" class="C"/><use xlink:href="#r" class="D"/><use xlink:href="#s" fill="#757575" class="B"/></g><use xlink:href="#t" class="D"/><use xlink:href="#u" class="B Q"/><g transform="matrix(.798387 .213927 -.213832 .798032 549.82884 33.75179)"><use xlink:href="#v" fill="#0b3d91"/><g fill="#fff"><use xlink:href="#w"/><use xlink:href="#w" x="0.415" y="0.148"/><use xlink:href="#x"/><use xlink:href="#x" x="-0.426" y="-5.739"/><use xlink:href="#w" x="1.235" y="-6.451"/><use xlink:href="#y"/><use xlink:href="#z"/><use xlink:href="#y" x="3.942" y="2.012"/><use xlink:href="#z" x="2.229" y="3.19"/><use xlink:href="#y" x="-1.009" y="4.68"/><use xlink:href="#y" x="-0.624" y="5.775"/><use xlink:href="#AA"/><use xlink:href="#AB"/><use xlink:href="#AC"/><use xlink:href="#AD"/><use xlink:href="#y" x="0.074" y="6.07"/><use xlink:href="#AC" x="0.474" y="1.534"/><use xlink:href="#AA" x="0.069" y="-0.224"/><use xlink:href="#AA" x="5.308" y="-4.61"/><use xlink:href="#AE"/><use xlink:href="#AF"/><use xlink:href="#AG"/><use xlink:href="#z" x="-0.423" y="-0.121"/><use xlink:href="#AA" x="3.829" y="-4.531"/><use xlink:href="#AA" x="4.438" y="-3.322"/><use xlink:href="#AC" x="5.457" y="-2.103"/><use xlink:href="#AA" x="5.766" y="-3.389"/><use xlink:href="#AC" x="5.565" y="-1.601"/><use xlink:href="#AC" x="1.461" y="-2.855"/><use xlink:href="#AH"/><use xlink:href="#w" x="2.248" y="-5.909"/><use xlink:href="#AI"/><use xlink:href="#AH" x="3.804" y="2.2"/><use xlink:href="#AJ"/><use xlink:href="#AI" x="-0.16" y="0.29"/><use xlink:href="#AK"/><use xlink:href="#AK" x="-0.871" y="-2.11"/><use xlink:href="#AL"/><use xlink:href="#AM"/><use xlink:href="#AN"/><use xlink:href="#AO" fill="#fc3d21"/><use xlink:href="#AP"/><use xlink:href="#AQ"/><use xlink:href="#AR"/><use xlink:href="#AS"/><use xlink:href="#AT"/></g></g><use xlink:href="#AU" class="J"/><use xlink:href="#AV" class="M"/><g class="C"><use xlink:href="#AW"/><use xlink:href="#AX"/><use xlink:href="#AY"/></g><g class="H N"><use xlink:href="#AZ"/><use xlink:href="#Aa"/></g><g class="D"><use xlink:href="#Ab"/><use xlink:href="#Ac"/></g><use xlink:href="#Ad" class="B F"/><g class="C"><use xlink:href="#Ae"/><use xlink:href="#AV" x="49.409" y="49.413"/></g><g class="D"><use xlink:href="#Af"/><use xlink:href="#Ag"/></g><use xlink:href="#Ah" class="E"/><use xlink:href="#Ai" class="B F"/><use xlink:href="#Aj" class="L"/><g class="G"><use xlink:href="#Ak"/><use xlink:href="#Al"/></g><use xlink:href="#Am" class="L"/><use xlink:href="#An" class="B R"/><use xlink:href="#Ao" fill="#c1cc31"/><use xlink:href="#l" x="33.604" y="33.567" class="E"/><use xlink:href="#Ac" x="33.604" y="33.567" class="J"/><g class="C"><use xlink:href="#Ap"/><use xlink:href="#Aq"/></g><use xlink:href="#Ar" class="J"/><use xlink:href="#As" class="E"/><use xlink:href="#At" class="O"/><use xlink:href="#Au" class="C"/><use xlink:href="#Av" class="L"/><use xlink:href="#Aw" class="E"/><use xlink:href="#Ax" fill="#ab48bb"/><use xlink:href="#Ay" class="E"/><use xlink:href="#Az" class="H N"/><use xlink:href="#BA" class="C"/><g class="S B"><use xlink:href="#BB"/><use xlink:href="#BB" x="6.958" y="-25.97"/><use xlink:href="#BB" x="16.472" y="-16.475"/></g><g class="E"><use xlink:href="#BC"/><use xlink:href="#f"/></g><use xlink:href="#BD" class="C"/><use xlink:href="#BE" class="O"/><use xlink:href="#BF" class="L"/><use xlink:href="#BG" class="O"/><g class="E"><use xlink:href="#BH"/><use xlink:href="#BI"/></g><g class="S B"><use xlink:href="#BB" x="10.345" y="-6.122"/><use xlink:href="#BB" x="-3.387" y="-19.849"/><use xlink:href="#BB" x="-9.508" y="-9.519"/><use xlink:href="#BB" x="-8.411" y="-1.101"/><use xlink:href="#BB" x="15.369" y="-24.87"/></g><use xlink:href="#BJ" class="G"/><use xlink:href="#BK" class="F"/><use xlink:href="#BL" class="C"/><use xlink:href="#BM" class="D"/><use xlink:href="#BJ" x="-8.44" y="-1.092" class="G"/><use xlink:href="#BK" x="-8.44" y="-1.092" class="F"/><use xlink:href="#BN" class="C"/><use xlink:href="#BM" x="-8.44" y="-1.092" class="D"/><use xlink:href="#BJ" x="-9.508" y="-9.519" class="G"/><use xlink:href="#BK" x="-9.508" y="-9.519" class="F"/><use xlink:href="#BN" x="-1.068" y="-8.427" class="C"/><use xlink:href="#BM" x="-9.508" y="-9.519" class="D"/><use xlink:href="#BJ" x="-3.387" y="-19.848" class="G"/><use xlink:href="#BK" x="-3.387" y="-19.849" class="F"/><use xlink:href="#BN" x="5.052" y="-18.756" class="C"/><use xlink:href="#BM" x="-3.387" y="-19.848" class="D"/><use xlink:href="#BJ" x="16.473" y="-16.478" class="G"/><use xlink:href="#BK" x="16.473" y="-16.478" class="F"/><use xlink:href="#BN" x="24.912" y="-15.386" class="C"/><use xlink:href="#BM" x="16.473" y="-16.478" class="D"/><use xlink:href="#BJ" x="15.369" y="-24.869" class="G"/><use xlink:href="#BK" x="15.369" y="-24.87" class="F"/><use xlink:href="#BO" class="C"/><use xlink:href="#BM" x="15.369" y="-24.87" class="D"/><use xlink:href="#BJ" x="6.959" y="-25.97" class="G"/><use xlink:href="#BK" x="6.958" y="-25.97" class="F"/><use xlink:href="#BP" class="C"/><use xlink:href="#BM" x="6.958" y="-25.97" class="D"/><use xlink:href="#BJ" x="10.345" y="-6.121" class="G"/><use xlink:href="#BK" x="10.345" y="-6.122" class="F"/><use xlink:href="#BO" x="-5.024" y="18.748" class="C"/><use xlink:href="#BM" x="10.345" y="-6.121" class="D"/><use xlink:href="#BQ" class="C"/></svg>