<svg xmlns="http://www.w3.org/2000/svg" xmlns:xlink="http://www.w3.org/1999/xlink" width="1340" height="1200" viewBox="0 0 354.542 317.5" xmlns:v="https://vecta.io/nano"><style><![CDATA[.B{fill-opacity:.992}.C{fill:#455a64}.D{fill:#546e7a}.E{opacity:.998}.F{fill:#bdbdbd}.G{fill:#616161}.H{fill:#757575}.I{fill:#e0e0e0}.J{fill:#253137}.K{fill:#e3e2e2}.L{fill:#bebdbd}.M{fill:#2196f3}.N{fill:#f1f0f0}.O{fill:#263238}.P{fill:#424242}.Q{fill:#78909c}.R{fill:#606162}.S{fill:#7e8081}.T{stroke:#dfdfdf}.U{stroke-width:1.323}]]></style><defs><linearGradient id="A" x1="228.678" y1="106.648" x2="277.812" y2="79.375" xlink:href="#Az"><stop offset="0" stop-color="#f50057"/><stop offset="1" stop-color="#ff5722" stop-opacity="0"/></linearGradient><linearGradient id="B" x1="127.002" y1="365.986" x2="166.688" y2="343.958" xlink:href="#Az"><stop offset="0" stop-color="#ffd600"/><stop offset="1" stop-color="#ff5722" stop-opacity="0"/></linearGradient><linearGradient id="C" x1="396.875" y1="343.958" x2="476.25" y2="423.333" xlink:href="#Az"><stop offset="0" stop-color="#ffa726" stop-opacity=".992"/><stop offset="1" stop-color="#ab47bc" stop-opacity=".992"/></linearGradient><linearGradient id="D" x1="121.708" y1="367.771" x2="140.229" y2="349.25" xlink:href="#Az"><stop offset="0" stop-opacity=".992"/><stop offset="1" stop-color="#bdbdbd" stop-opacity=".992"/></linearGradient><linearGradient id="E" x1="296.333" y1="259.292" x2="322.792" y2="232.833" xlink:href="#Az"><stop offset="0" stop-color="#fad53e" stop-opacity=".992"/><stop offset="1" stop-color="#f57f17"/></linearGradient><linearGradient id="F" x1="264.583" y1="118.93" x2="264.583" y2="225.028" xlink:href="#Az"><stop offset="0" stop-color="#ab47bc"/><stop offset="1" stop-color="#e53935"/></linearGradient><path id="G" d="M101.723 225.523l10.131-5.815 9.625 5.525-10.131 5.815z"/><path id="H" d="M121.479 225.232l-10.131 5.816 4.435 2.546 10.131-5.815z"/><path id="I" d="M63.229 203.422v1.163l28.874 16.574 30.394 17.446v-1.163l-30.394-17.446z"/><path id="J" d="M152.891 208.946s10.131 5.815 10.131 17.446-10.131 5.815-10.131 5.815-10.131-5.815-10.131-17.446 10.131-5.815 10.131-5.815z"/><path id="K" d="M168.087 195.861c-.771 0-1.541.136-2.241.488l-.009-.001-.18.103-.094.054-19.989 11.474.009.001c2.998-1.506 7.307.966 7.307.966l10.131-5.815 10.131-5.815s-2.533-1.454-5.066-1.454z"/><path id="L" d="M178.219 190.046c-.771 0-1.541.136-2.241.487l-.009-.001-.18.103-.094.054-9.847 5.659c.699-.351 1.47-.487 2.241-.487 2.533 0 5.066 1.454 5.066 1.454l10.131-5.815s-2.533-1.454-5.066-1.454z"/><path id="M" d="M183.284 191.5l-10.131 5.815s10.131 5.815 10.131 17.446l10.131-5.815c0-11.631-10.131-17.446-10.131-17.446z"/><path id="N" d="M173.153 197.315l-20.263 11.631s10.131 5.815 10.131 17.446l20.263-11.631c0-11.631-10.131-17.446-10.131-17.446zm-12.675 35.68c-.09.065-.181.125-.272.18.091-.055.182-.115.272-.18z"/><path id="O" d="M147.825 207.492c-1.266 0-2.532.363-3.482 1.453h-.002l-.022.028c-.121.141-.236.295-.346.46l-6.929 9.212h.041c1.897-2.16 5.674.009 5.674.009l10.131-9.709h0c-.001-.001-2.533-1.454-5.065-1.454z"/><path id="P" d="M152.89 208.946h0l-10.131 9.709s6.725 3.871 6.725 11.614l13.537-3.877c0-11.628-10.126-17.443-10.131-17.446z"/><path id="Q" d="M162.61 222.418l.075.368-.075-.368zm.412 3.974l-13.528 3.875c-.002 3.264-1.203 4.46-2.591 4.752h0l11.324-1.364a5.51 5.51 0 0 0 .874-.105l.009-.001v-.001c2.095-.434 3.912-2.231 3.912-7.156z"/><path id="R" d="M142.759 214.762l-6.735.034-3.396 5.782 3.396 9.681 6.735 7.765 6.735-.034 3.396-5.782-3.396-9.681zm-3.367 2.927c1.684 0 3.367.967 3.367.967s6.735 3.868 6.735 11.605-6.735 3.868-6.735 3.868-6.735-3.868-6.735-11.605c0-3.868 1.684-4.835 3.367-4.835z"/><path id="S" d="M142.759 218.656l-10.131 5.815s6.725 3.871 6.725 11.614l10.129-5.82.003.003v-.006c-.003-7.738-6.725-11.608-6.725-11.608z"/><path id="T" d="M112.365 236.102s6.735 3.868 6.735 11.605-6.735 3.868-6.735 3.868-6.735-3.868-6.735-11.605 6.735-3.868 6.735-3.868z"/><path id="U" d="M129.231 241.895l-6.724 3.86-3.398 1.95c-.001 2.649-.792 3.937-1.832 4.484h0l10.129-5.814c1.188-.668 1.824-1.312 1.824-4.479z"/><path id="V" d="M119.126 229.315h0c-.059 0-.119 0-.178.001l-.222.013-.046.003-.202.025-.206.041-.064.016-.175.048c-.013.003-.025.006-.036.013l-.17.062a.58.58 0 0 0-.073.031l-.145.068-.005.002-.028.016c-.013.006-.028.013-.041.022a1.75 1.75 0 0 0-.13.075c-.006.006-.016.009-.022.016l-8.699 4.993-1.248.691h.003l.148-.07c.025-.009.048-.019.073-.031l.17-.062a.12.12 0 0 0 .036-.013l.175-.048.064-.016.195-.039.213-.027c.016-.002.031-.003.046-.003l.211-.013.189-.001.263.009.303.029.073.009.217.033c.025.003.048.009.073.013l.27.056.274.069c.016.003.028.009.044.013l.18.053.289.093.13.046.215.08.131.052.181.076.607.291.076.041h-.001l.041.006 10.131-5.815h-.006l.002-.001s-.025-.016-.076-.041l-.607-.291-.181-.076-.131-.052-.215-.08-.13-.046-.289-.093-.18-.053c-.016-.003-.028-.009-.044-.013l-.274-.069-.27-.056c-.025-.003-.048-.009-.073-.013l-.217-.033-.073-.009-.285-.028-.282-.01z"/><path id="W" d="M183.284 214.762l-20.263 11.631c0 3.803-1.357 5.898-2.815 6.783l20.263-11.631-.002-.006c1.595-.805 2.817-2.739 2.817-6.778z"/><path id="X" d="M193.416 208.946l-10.131 5.815c0 3.901-1.141 5.838-2.656 6.692l9.972-5.724-.002-.006c1.595-.806 2.817-2.739 2.817-6.778zm-12.803 12.516l-.145.077.002.006z"/><path id="Y" d="M188.321 192.539l-2.087 1.184c1.377 1.229 3.007 2.965 4.368 5.215l2.515-1.435z"/><path id="Z" d="M184.014 191.971c.535.367 1.322.952 2.219 1.752l2.087-1.184z"/><path id="a" d="M193.117 197.503l-2.515 1.435c1.081 1.788 1.99 3.898 2.463 6.33l1.99-1.129z"/><path id="b" d="M195.054 204.14l-1.99 1.129a19.11 19.11 0 0 1 .333 2.862z"/><path id="c" d="M190.897 190.802c-.385 0-.77.068-1.119.245l.003-.003-.006.003c-.288.146-.551.366-.769.684l-.878.781.192.025 1.605 1.661 3.49-2.674h0s-1.259-.724-2.518-.724z"/><path id="d" d="M193.416 191.526h0l-3.49 2.674 3.191 3.303 1.274 4.362 4.059-1.661.002.001v-.002l.016-.006-.016-.025c-.022-5.762-5.033-8.644-5.035-8.645z"/><path id="e" d="M198.471 200.243l-4.069 1.662.652 2.234-.067.161 2.497-.833c.398-.225.982-1.254.988-3.224h0 0 0z"/><path id="f" d="M107.508 240.158l-2.506 1.347s.765.448.788 1.343l.002.003 2.49-1.349h0l-.001-.009c-.022-.849-.704-1.292-.773-1.335z"/><path id="g" d="M109.943 244.347l-2.506 1.347s.766.448.789 1.343l.002.003 2.49-1.349h0l-.001-.009c-.022-.849-.704-1.292-.773-1.335z"/><path id="h" d="M107.437 245.694s.791.461.791 1.383-.791.461-.791.461-.791-.461-.791-1.383.791-.461.791-.461z"/><path id="i" d="M109.529 244.2a.38.38 0 0 0-.175.041h-.001l-.036.019-2.449 1.358h0c.234-.118.569.075.569.075l2.506-1.347s-.216-.147-.413-.147z"/><path id="j" d="M110.717 245.69l-.825.447-1.665.902-.001.003.002.034c0 .317-.094.468-.217.533l-.001.003 2.432-1.346c.154-.039.28-.179.28-.538 0-.013-.003-.025-.003-.039z"/><path id="k" d="M114.382 246.954c-.06 0-.12.013-.174.041h-.001l-.036.019-2.449 1.358h0c.234-.118.569.075.569.075l2.506-1.347s-.216-.147-.413-.147z"/><path id="l" d="M83.132 253.196l4.043 6.989 1.584-1.061-4.019-7.005z"/><path id="m" d="M87.175 260.185l20.263-11.631 1.584-1.061-20.263 11.631z"/><path id="n" d="M92.088 262.904l-1.608-2.801 4.118-2.416 1.604 2.793z"/><path id="o" d="M109.93 239.645l4.877 2.792-1.64.885-4.877-2.792z"/><path id="p" d="M114.808 242.437l-.006 2.796-1.64.885.006-2.796z"/><path id="q" d="M110.742 233.299s-.807.448 0 .896 1.615 0 1.615 0 .807-.448 0-.896-1.615 0-1.615 0z"/><path id="r" d="M112.713 233.734h0c-.003.233-.272.41-.336.449l-.009 6.861v.881c.035-.019.342-.205.344-.454l.002-.003z"/><path id="s" d="M110.383 233.764h0c.003.233.272.41.336.449l.009 6.861.003.849c-.035-.019-.346-.173-.349-.422l-.002-.003z"/><path id="t" d="M112.337 234.201h0 0c-.042.022-.804.422-1.584 0h0 0l-.039 7.728.022.016h0c.78.422 1.543.022 1.584 0h0l.031-.016z"/><path id="u" d="M108.282 240.526l.002 2.801 4.869 2.787.006-2.796z"/><path id="v" d="M107.101 226.266c-.309-.021-.309.092-.309.092l-9.973 5.725c.475-.055 2.375.382 9.973 4.743 10.131 5.815 10.131 6.978 10.131 6.978l10.131-5.816s0-1.163-10.131-6.978c-6.965-3.998-9.142-4.698-9.822-4.744zm-10.283 5.817c-.158.018-.158.091-.158.091z"/><path id="w" d="M111.813 222.27l.066 9.777-3.28 1.883-.066-9.777z"/><path id="x" d="M110.254 225.052l-.051 9.759.042.032c1.599.849 3.162.046 3.248 0l.062-.032-.016-9.739c-.165.085-1.712.837-3.278-.016z"/><path id="y" d="M116.923 243.805v1.163l10.131-5.815v-1.163z"/><path id="z" d="M96.97 232.081c-.309-.021-.31.093-.31.093v1.163s.001-1.164 10.132 4.652c10.119 5.847 10.131 6.979 10.131 6.979v-1.163s0-1.163-10.131-6.978c-6.965-3.998-9.142-4.698-9.822-4.745z"/><path id="AA" d="M114.204 224.119c-.038.461-.488.854-.597.918l-.009 7.991h-.001l-.04 1.783c.072-.041.743-.422.748-.924l.003-.006z"/><path id="AB" d="M109.422 224.186l.1 9.757.003.006c.006.501.647.854.719.895l-.009-1.754h-.001l-.009-8.054c-.524-.295-.699-.589-.699-.849h-.001z"/><path id="AC" d="M110.158 223.251s-1.655.902 0 1.803 3.31 0 3.31 0 1.655-.902 0-1.803-3.31 0-3.31 0z"/><path id="AD" d="M112.299 226.325l-.486-.29.066 9.777.486.29z"/><path id="AE" d="M112.299 226.325l3.28-1.882-.486-.29-3.28 1.883z"/><path id="AF" d="M130.988 217.653l5.036-2.857 6.735-.034-4.986 2.916z"/><path id="AG" d="M142.759 214.762l6.735 7.765-5.036 2.857-6.684-7.707z"/><path id="AH" d="M144.458 225.384l3.396 9.681 5.036-2.857-3.396-9.681z"/><path id="AI" d="M144.458 240.847l5.036-2.857 3.396-5.782-5.036 2.857z"/><path id="AJ" d="M134.398 220.549l-.178.001-.222.013c-.016.002-.031.003-.046.003l-.202.025c-.076.011-.141.027-.206.041l-.063.016-.175.048c-.013.003-.025.006-.036.013-.033.009-.065.022-.097.035l-5.391 3.078c1.096-.543 2.449-.291 3.447.044l.117.04.228.083.065.025c.594.232.986.457.986.457l.003-.002 5.127-2.939c-.006-.003-.025-.016-.028-.016h-.002.001l-.073-.04a.54.54 0 0 0-.048-.025l-.177-.09-.091-.042-.269-.124-.112-.048-.05-.022-.187-.075-.118-.044-.117-.043c-.013-.003-.025-.009-.038-.013l-.143-.048-.16-.052-.494-.136-.281-.06-.262-.044-.067-.009-.211-.022-.104-.009-.2-.009-.124-.003zm-6.619 3.274l-.011.006z"/><path id="AK" d="M129.298 223.506h0c-.059 0-.119 0-.178.001l-.222.013-.046.003-.202.025-.206.041-.063.016-.175.048c-.013.003-.025.006-.036.013l-.17.062a.58.58 0 0 0-.073.031l-.145.068-.005.002-.028.016c-.013.006-.028.013-.041.022a1.75 1.75 0 0 0-.13.075c-.006.006-.016.009-.022.016l-8.699 4.993-1.248.691h.003a1.89 1.89 0 0 1 .148-.069.58.58 0 0 0 .073-.031l.17-.062c.013-.003.025-.006.036-.013l.175-.048.064-.016.195-.039.213-.027a.37.37 0 0 1 .046-.003l.211-.013.189-.001.263.009.303.029.073.009.217.033c.025.003.048.009.073.013l.27.056.274.069c.016.003.028.009.044.013l.18.053.289.093.13.046.215.08.131.052.181.076.607.291.076.041h-.001l.041.006 10.131-5.815h-.006l.002-.001s-.025-.016-.075-.041l-.607-.291-.181-.076-.131-.052-.215-.08-.13-.046-.289-.093-.18-.053c-.016-.003-.028-.009-.044-.013l-.274-.069-.27-.056c-.025-.003-.048-.009-.073-.013l-.217-.033-.073-.009-.285-.028-.282-.01z"/><path id="AL" d="M144.467 233.15l-1.706.98-3.398 1.95-.009.006c-.001 2.476-.692 3.762-1.631 4.367l4.676-2.741h0l.657-.385c.139-.111.271-.242.395-.39.607-.725 1.01-1.911 1.016-3.785zm-6.745 7.302l-.201.118.201-.118z"/><path id="AM" d="M129.198 241.288l.016.59h0l-.016.573 23.693 13.6 28.874 16.574v-1.163l-28.874-16.574z"/><path id="AN" d="M139.329 235.473l.016.59h0l-.016.573 23.693 13.6v-1.163z"/><path id="AO" d="M181.764 272.625l30.394-17.446v-1.163l-30.394 17.446z"/><path id="AP" d="M122.497 202.549l-20.263 11.631 1.013.582 19.25-11.05z"/><path id="AQ" d="M143.266 249.363l10.131-5.816 9.625 5.525-10.131 5.816z"/><path id="AR" d="M163.022 249.073l10.131-5.816 9.625 5.525-10.131 5.815z"/><path id="AS" d="M172.14 265.937l10.131-5.815 9.625 5.525-10.131 5.816z"/><path id="AT" d="M94.598 257.688l20.202-11.595 1.604 2.793-20.202 11.595z"/><path id="AU" d="M84.74 252.12l20.263-11.631 4.019 7.005-20.263 11.631z"/><path id="AV" d="M133.633 243.834l10.131-5.816-4.435-2.546-10.131 5.815z"/><path id="AW" d="M463.412 362.489c2.703 3.256 2.537 7.279-.37 8.985-1.396.819-3.251.984-5.156.458s-3.705-1.699-5.003-3.262-1.989-3.389-1.92-5.074.892-3.092 2.288-3.912c2.908-1.707 7.457-.451 10.161 2.805z"/><path id="AX" d="M453.94 360.964c.015.017.022.038.022.057s-.01.035-.026.044-.036.011-.058.005-.042-.019-.056-.037-.022-.038-.022-.057.01-.035.026-.044.036-.011.058-.005.042.019.056.037z"/><path id="AY" d="M454.619 360.697c.015.018.022.038.022.057s-.01.035-.026.044-.036.011-.058.005-.042-.019-.056-.037-.022-.038-.022-.057.01-.035.026-.044.036-.011.058-.005.042.019.056.037z"/><path id="AZ" d="M456.644 370.583c.023.028.021.061-.003.075s-.063.004-.085-.024-.021-.061.003-.075.063-.004.085.024z"/><path id="Aa" d="M459.907 370.213c.011.013.017.029.016.043s-.008.026-.019.033-.027.008-.043.004-.031-.015-.042-.028-.017-.029-.016-.043.008-.026.019-.033.027-.008.043-.004.031.014.042.028z"/><path id="Ab" d="M462.944 367.128c.023.027.021.061-.003.075s-.063.004-.085-.024-.021-.061.003-.075.063-.004.085.024z"/><path id="Ac" d="M462.933 365.156c.011.013.017.029.016.043s-.008.026-.019.033-.027.008-.043.004-.031-.014-.042-.027-.017-.029-.016-.043.008-.026.019-.033.027-.008.043-.004.031.014.042.028z"/><path id="Ad" d="M453.645 361.864c.023.028.021.061-.003.076s-.063.004-.085-.024-.021-.061.003-.076.063-.004.085.024z"/><path id="Ae" d="M453.708 360.136c.011.013.017.028.016.043s-.007.026-.019.033-.027.008-.043.004-.031-.014-.042-.027c-.023-.028-.021-.061.003-.075s.063-.004.085.024z"/><path id="Af" d="M457.36 370.543c.011.013.017.028.016.043s-.008.026-.019.033-.027.008-.043.004-.031-.014-.042-.028-.017-.029-.016-.043.008-.026.019-.033.027-.008.043-.004.031.014.042.028z"/><path id="Ag" d="M458.243 369.966c.011.013.017.028.016.043s-.008.026-.019.033c-.024.014-.063.004-.086-.024s-.021-.061.003-.076c.012-.007.027-.008.043-.004s.031.014.042.028z"/><path id="Ah" d="M455.293 360.108l.134-.102-.154.077c-.031-.029-.074-.04-.106-.028l-.15-.156.129.17c-.021.022-.021.059.002.092l-.137.103.159-.08c.029.025.068.035.098.025l.154.161-.132-.173c.023-.021.025-.057.005-.09z"/><path id="Ai" d="M454.335 363.392l.134-.102-.154.077c-.031-.029-.074-.04-.106-.028l-.15-.155.129.17c-.021.022-.021.059.002.092l-.137.103.159-.08c.029.025.068.035.098.025l.154.161-.132-.173c.023-.021.025-.057.005-.09z"/><path id="Aj" d="M463.839 365.009l.134-.102-.154.077c-.031-.029-.074-.04-.106-.028l-.15-.155.129.17c-.021.022-.021.059.002.092l-.137.103.159-.079c.029.025.068.035.098.025l.154.161-.132-.173c.023-.021.025-.057.005-.09z"/><path id="Ak" d="M459.957 371.049l.134-.102-.154.077c-.031-.029-.074-.04-.106-.028l-.15-.155.129.17c-.021.022-.021.059.001.092l-.137.103.159-.08c.029.025.068.035.098.026l.154.16-.132-.173c.023-.021.025-.057.005-.09z"/><path id="Al" d="M458.223 363.435l-1.148 1.686c-.726.96-2.719 3.575-3.394 5.793l.193-.021c.489-1.257.989-1.855 1.445-2.46.495-.658 2.267-2.58 3.024-3.505l.828-1.12-.706-.283-.242-.09zm1.706.715l-.145.469c-.233.622-1.13 3.94-1.33 4.699s-.389 3.308-.451 4.051l.145.203.572-3.821c.212-1.041.762-3.061.967-3.726l.518-1.74-.049-.025-.227-.111zm.041-4.071c-.326.891-.985 2.123-1.681 3.248l.169.063.779.317c.567-.861 1.116-1.893 1.387-2.911-.043.589-.403 2.272-.666 3.246l.276.14.741-3.146c.129-.902.443-2.935-.428-4.901.164 1.805-.29 3.159-.577 3.944z"/><path id="Am" d="M458.681 367.437l-.856-.32-1.017-.424-.102.116 1.26.536.74.271.184.083.047-.173-.257-.089zm1.562.364c-.179-.045-.551-.078-1.001-.19l-.058.218c.359.154.821.331 1.06.321.36-.014.229-.292 0-.35zm-1.785-4.411c-2.987-1.132-5.553-1.211-5.742-.14-.147.831 1.3 2.159 3.352 3.241l.081-.116c-2.027-1.038-3.398-2.305-3.259-3.089.174-.985 2.674-.861 5.574.238l1.691.736c2.002.999 3.341 2.178 3.244 3.037-.03.263-.485.627-1.432.682.002.019.046.045.065.047.791-.079 1.425-.304 1.498-.715.175-.988-2.086-2.79-5.072-3.922z"/><path id="An" d="M452.748 367.084l.881-.517 1.907.971-.911-1.097c-.102-.123-.376-.202-.445-.197l.61-.358c-.028.033-.013.266.099.401l1.339 1.612c.082.099.324.161.428.178l-.85.499-1.924-.971.922 1.11c.091.11.276.159.451.191l-.649.381c.056-.098.029-.289-.054-.404s-1.271-1.531-1.323-1.593c-.112-.134-.319-.176-.481-.206z"/><path id="Ao" d="M462.645 364.562l1.173-.688c-.08.021-.224-.022-.358-.114l-2.315-1.604-.446.262-.139.561c.099.157.925 1.776.962 1.859.051.114-.011.311-.024.404l.632-.371c-.129-.042-.244-.089-.305-.185l-.172-.292.653-.383c.103.071.19.137.264.206.089.082.09.232.076.345zm-1.168-.484l-.449-.936.961.636zm-1.214-1.285l.03-.138-.171.101.141.037z"/><path id="Ap" d="M457.346 367.314l-.172-.292.653-.383c.103.071.19.137.264.205.089.082.09.232.076.345l1.032-.606.024-.086a.73.73 0 0 1-.242-.111l-2.315-1.603-1.023.601c.091.022.346.075.447.235.09.143.916 1.763.953 1.845.051.114-.011.311-.024.404l.631-.37c-.129-.042-.244-.089-.305-.185zm-.797-1.544l.961.635-.511.3z"/><path id="Aq" d="M460.187 364.349l-.236.808c.139-.004.27.016.348.097.146.151-.076.395-.361.513-.057.024-.12.038-.185.046l-.065.212-.079.264.189.228c-.042-.142-.014-.309.069-.365.036-.024.277.034.785-.313.246-.169.491-.773.186-1.125-.18-.208-.415-.315-.65-.366zm-1.015 1.415l.193.232.053-.186a1.65 1.65 0 0 1-.246-.046zm.711-1.454h-.221c-.362.016-.645.146-.849 0-.143-.103-.13-.284.141-.436s.667-.12.787-.095l-.472-.568c-.001.034.004.195-.09.223a3.48 3.48 0 0 0-.77.334c-.337.201-.385.665-.087 1.041.416.526.903.45 1.179.409l.095-.016.187-.582.1-.309z"/><path id="Ar" d="M158.926 210.143l-.748.43.531.637.746-.432zm-.248-.576c.072-.041.153-.031.246.031l.02.021 1.112 1.332.017.023c.038.094.021.161-.05.202l-.903.524.772.925-.304.177-2.009-2.4-.017-.023c-.038-.094-.02-.161.052-.203z"/><path id="As" d="M160.564 210.864l.758.908-.291.189-2.001-2.391-.017-.023c-.038-.093-.02-.16.051-.202l1.066-.611c.009-.005.018-.009.027-.011.099-.018.177.008.235.078l1.973 2.363-.289.188-.771-.917zm.333-.918l-.528-.633-.743.428.529.634z"/><path id="At" d="M161.799 208.489l-.736.424.527.632.736-.425zm.413 1.419l-.214.125.766.918-.299.175-1.994-2.382-.017-.023c-.038-.093-.021-.16.05-.201l1.049-.602c.071-.04.152-.03.243.032l.02.021 1.104 1.323.017.023c.038.093.021.16-.049.2l-.284.164 1.196.666-.39.228z"/><path id="Au" d="M163.419 209.207l.753.902-.287.187-1.987-2.374-.017-.023c-.038-.093-.021-.159.05-.2l1.05-.603c.009-.005.018-.009.027-.011.097-.017.175.009.233.078l1.958 2.346-.285.186-.766-.911zm.325-.909l-.524-.628-.732.422.525.629z"/><path id="Av" d="M165.556 207.968l-.581.337-.404-.484.879-.508 1.048 1.255.016.023c.038.092.022.158-.047.199l-1.028.6c-.069.041-.149.03-.241-.031l-.02-.021-1.861-2.23-.017-.023c-.038-.092-.021-.158.049-.199l1.179-.677.4.478-1.025.59 1.288 1.543.724-.422z"/><path id="Aw" d="M166.84 208.571c-.069.04-.149.03-.239-.031l-.02-.021-1.958-2.345.283-.182 1.687 2.013.719-.418-1.668-1.998.282-.181 1.966 2.348.016.023c.038.091.022.157-.047.198z"/><path id="Ax" d="M167.626 206.768l.745.891-.28.183-1.965-2.348-.017-.023c-.037-.091-.021-.157.048-.196l1.028-.59c.009-.005.018-.008.026-.011.096-.017.172.009.229.078l1.937 2.32-.279.182-.757-.901zm.314-.895l-.519-.621-.716.412.52.622z"/><path id="Ay" d="M168.996 205.579l-.084-.054-.001-.001-1.013-.646-.497-.317.347-.199.773.495.189.119-.069-.188-.287-.774.345-.198.183.495.325.88.079.215.977 1.17-.291.17z"/><linearGradient id="Az" gradientUnits="userSpaceOnUse"/></defs><g transform="translate(-87.312 -66.146)"><g fill="#212121"><circle cx="264.583" cy="264.583" r="79.375" class="E"/><circle cx="264.583" cy="105.833" r="39.688" class="E"/></g><path d="M264.583 185.208a79.375 79.375 0 0 0-45.268 14.174 52.917 52.917 0 0 0 90.536 0 79.375 79.375 0 0 0-45.268-14.174z" fill="url(#F)" class="E"/><g fill="#212121"><circle cx="402.167" cy="343.958" r="39.688" class="E"/><circle cx="127" cy="343.958" r="39.688" class="E"/></g><path d="M264.528 119.063a52.917 52.917 0 0 0-31.695 10.583 39.688 39.688 0 0 0 63.501 0 52.917 52.917 0 0 0-31.805-10.583z" fill="url(#F)" class="E"/><circle cx="309.563" cy="246.063" r="13.229" fill="url(#E)" class="E"/><circle cx="291.042" cy="317.5" r="4.63" fill="none" class="E T U"/><circle cx="211.667" cy="238.125" r="4.63" class="B E I"/><circle cx="391.583" cy="322.792" r="3.307" fill="none" class="E T U"/><circle cx="132.292" cy="357.188" r="9.26" fill="url(#D)" class="E"/><circle cx="105.833" cy="330.729" r="3.307" fill="none" class="E T U"/><circle cx="134.938" cy="317.5" r="3.307" class="B E I"/><path d="M436.563 343.958a39.688 39.688 0 0 0-39.685 39.333 39.688 39.688 0 0 0 44.975-38.979 39.688 39.688 0 0 0-5.29-.354z" fill="url(#C)" class="E"/><g fill-rule="evenodd"><path d="M166.688 343.958c.396.664-14.585 9.752-20.431 13.018s-10.906 5.376-11.302 4.712 4.021-3.85 9.867-7.116 21.47-11.278 21.867-10.614z" fill="url(#B)"/><path d="M277.813 79.375c.491.822-18.058 12.074-25.295 16.117s-13.503 6.655-13.993 5.834 4.978-4.766 12.216-8.81 26.582-13.963 27.073-13.141z" fill="url(#A)"/></g></g><use xlink:href="#G" class="B C"/><use xlink:href="#H" class="B D"/><use xlink:href="#I" class="B J"/><use xlink:href="#J" fill="#ff5252"/><g class="F B"><use xlink:href="#K"/><use xlink:href="#L"/></g><use xlink:href="#M" class="B I"/><use xlink:href="#N" fill="#e1e1e1" class="B"/><use xlink:href="#O" class="B F"/><use xlink:href="#P" fill="#e2e2e2" class="B"/><use xlink:href="#Q" fill="#f0f0f0" class="B"/><use xlink:href="#R" class="M"/><use xlink:href="#S" class="K"/><use xlink:href="#T" class="B I"/><use xlink:href="#U" class="N"/><use xlink:href="#S" x="-20.262" y="11.631" class="K"/><use xlink:href="#V" class="L"/><use xlink:href="#W" fill="#efefef" class="B"/><use xlink:href="#X" fill="#eee" class="B"/><use xlink:href="#Y" fill="#37474f" class="B"/><use xlink:href="#Z" class="B O"/><use xlink:href="#a" class="B C"/><use xlink:href="#b" class="B D"/><use xlink:href="#c" class="B P"/><use xlink:href="#d" class="B G"/><g class="H"><use xlink:href="#e" class="B"/><use xlink:href="#f"/><use xlink:href="#g"/></g><use xlink:href="#h" class="B F"/><g class="G"><use xlink:href="#i"/><use xlink:href="#j"/></g><use xlink:href="#f" x="7.288" y="6.944" class="H"/><use xlink:href="#h" x="4.853" y="2.755" class="F"/><g class="G"><use xlink:href="#k"/><use xlink:href="#j" x="4.853" y="2.755"/></g><use xlink:href="#f" x="9.794" y="5.597" class="H"/><use xlink:href="#h" x="7.359" y="1.408" class="F"/><g class="G"><use xlink:href="#k" x="2.506" y="-1.347"/><use xlink:href="#j" x="7.359" y="1.408"/></g><use xlink:href="#h" x="-2.435" y="-4.189" class="F"/><g class="G"><use xlink:href="#k" x="-7.288" y="-6.943"/><use xlink:href="#j" x="-2.435" y="-4.188"/></g><use xlink:href="#l" class="B C"/><use xlink:href="#m" class="B J"/><g class="C B"><use xlink:href="#n"/><use xlink:href="#o"/></g><use xlink:href="#p" class="B Q"/><use xlink:href="#q" fill="#4dd1e2" class="B"/><g class="G B"><use xlink:href="#r"/><use xlink:href="#s"/></g><use xlink:href="#t" class="B H"/><use xlink:href="#u" class="B D"/><use xlink:href="#v" class="B H"/><use xlink:href="#w" fill="#536d79"/><use xlink:href="#x" class="R"/><use xlink:href="#y" class="S"/><use xlink:href="#z" fill="#656667"/><use xlink:href="#AA" fill="#3849ab" class="B"/><use xlink:href="#AB" class="B P"/><use xlink:href="#AC" class="B H"/><g class="C B"><use xlink:href="#AD"/><use xlink:href="#AD" x="-3.766" y="-2.173"/></g><use xlink:href="#AE" fill="#77909c"/><use xlink:href="#w" x="3.766" y="2.173" class="B D"/><use xlink:href="#AE" x="-3.766" y="-2.173" class="B Q"/><use xlink:href="#R" x="-5.036" y="2.857" class="M"/><use xlink:href="#AF" fill="#414141"/><use xlink:href="#AG" class="R"/><use xlink:href="#AH" fill="#767676"/><use xlink:href="#AI" class="S"/><use xlink:href="#R" x="-5.036" y="2.857" fill="#666" class="B"/><use xlink:href="#AJ" class="L"/><use xlink:href="#S" x="-10.121" y="5.81" class="K"/><use xlink:href="#AK" class="L"/><g class="N"><use xlink:href="#U" x="10.122" y="-5.81"/><use xlink:href="#AL"/></g><use xlink:href="#AM" class="B O"/><use xlink:href="#AN" class="B J"/><g class="C B"><use xlink:href="#AO"/><use xlink:href="#AP"/></g><use xlink:href="#AQ" class="B D"/><g class="C B"><use xlink:href="#AQ" x="-9.633" y="-5.529"/><use xlink:href="#AQ" x="29.887" y="-6.106"/></g><use xlink:href="#AR" class="B D"/><use xlink:href="#AQ" x="9.625" y="5.525" class="B C"/><use xlink:href="#AQ" x="39.005" y="10.759" class="B D"/><use xlink:href="#AQ" x="29.38" y="5.234" class="B C"/><use xlink:href="#AQ" x="19.249" y="11.05" class="B D"/><use xlink:href="#AS" class="B C"/><use xlink:href="#AR" x="19.756" y="-0.291" class="B D"/><use xlink:href="#AR" x="29.38" y="5.233" class="B C"/><use xlink:href="#AQ" x="-51.163" y="-29.367" class="B D"/><use xlink:href="#AQ" x="-60.784" y="-34.89" class="B C"/><use xlink:href="#AQ" x="-50.653" y="-40.706" class="B D"/><use xlink:href="#AQ" x="-40.525" y="-46.523" class="B C"/><use xlink:href="#AQ" x="-70.409" y="-40.415" class="B D"/><g class="C B"><use xlink:href="#AQ" x="-80.037" y="-45.941"/><use xlink:href="#AQ" x="-60.278" y="-46.23"/></g><use xlink:href="#AQ" x="-50.15" y="-52.048" class="B D"/><use xlink:href="#AQ" x="-59.774" y="-57.572" class="B C"/><g class="D B"><use xlink:href="#AQ" x="-69.905" y="-51.757"/><use xlink:href="#AT"/><use xlink:href="#AU"/><use xlink:href="#AV"/></g><g transform="matrix(.442151 0 0 .439591 -19.351622 38.72843)"><use xlink:href="#AW" fill="#0b3d91"/><g fill="#fff"><use xlink:href="#AX"/><use xlink:href="#AY"/><use xlink:href="#AX" x="2.469" y="0.465"/><use xlink:href="#AX" x="3.232" y="9.192"/><use xlink:href="#AY" x="3.145" y="9.897"/><use xlink:href="#AZ"/><use xlink:href="#Aa"/><use xlink:href="#Ab"/><use xlink:href="#Ac"/><use xlink:href="#AZ" x="-2.97" y="-6.974"/><use xlink:href="#AZ" x="-2.589" y="-8.671"/><use xlink:href="#Ab" x="-9.1" y="-5.236"/><use xlink:href="#Ad"/><use xlink:href="#Ab" x="-8.869" y="-3.374"/><use xlink:href="#Ae"/><use xlink:href="#Ab" x="-7.759" y="-5.735"/><use xlink:href="#Ad" x="0.849" y="-0.48"/><use xlink:href="#AZ" x="-2.622" y="-8.358"/><use xlink:href="#Ab" x="1.295" y="1.185"/><use xlink:href="#Af"/><use xlink:href="#Ac" x="-1.966" y="4.22"/><use xlink:href="#Ag"/><use xlink:href="#Ac" x="-3.727" y="5.285"/><use xlink:href="#Ab" x="-1.287" y="1.219"/><use xlink:href="#AZ" x="5.752" y="-4.129"/><use xlink:href="#Ab" x="1.129" y="-0.763"/><use xlink:href="#AZ" x="8.069" y="-4.166"/><use xlink:href="#Ab" x="1.184" y="-1.534"/><use xlink:href="#Ab" x="-5.592" y="0.792"/><use xlink:href="#AX" x="4.387" y="8.075"/><use xlink:href="#AY" x="4.757" y="8.971"/><use xlink:href="#AX" x="8.953" y="5.342"/><use xlink:href="#AX" x="10.4" y="4.349"/><use xlink:href="#AX" x="9.344" y="4.431"/><use xlink:href="#AX" x="8.602" y="4.919"/><use xlink:href="#Ah"/><use xlink:href="#Ai"/><use xlink:href="#Aj"/><use xlink:href="#Ak"/><use xlink:href="#Ai" x="10.114" y="3.186"/><use xlink:href="#Al" fill="#fc3d21"/><use xlink:href="#Am"/><use xlink:href="#An"/><use xlink:href="#Ao"/><use xlink:href="#Ap"/><use xlink:href="#Aq"/></g></g><use xlink:href="#Ar"/><use xlink:href="#As"/><use xlink:href="#At"/><use xlink:href="#Au"/><use xlink:href="#Av"/><use xlink:href="#Aw"/><use xlink:href="#Ax"/><use xlink:href="#Ay"/><use xlink:href="#G" class="B C"/><use xlink:href="#H" class="B D"/><use xlink:href="#I" class="B J"/><use xlink:href="#J" fill="#ff5252"/><g class="F B"><use xlink:href="#K"/><use xlink:href="#L"/></g><use xlink:href="#M" class="B I"/><use xlink:href="#N" fill="#e1e1e1" class="B"/><use xlink:href="#O" class="B F"/><use xlink:href="#P" fill="#e2e2e2" class="B"/><use xlink:href="#Q" fill="#f0f0f0" class="B"/><use xlink:href="#R" class="M"/><use xlink:href="#S" class="K"/><use xlink:href="#T" class="B I"/><use xlink:href="#U" class="N"/><use xlink:href="#S" x="-20.262" y="11.631" class="K"/><use xlink:href="#V" class="L"/><use xlink:href="#W" fill="#efefef" class="B"/><use xlink:href="#X" fill="#eee" class="B"/><use xlink:href="#Y" fill="#37474f" class="B"/><use xlink:href="#Z" class="B O"/><use xlink:href="#a" class="B C"/><use xlink:href="#b" class="B D"/><use xlink:href="#c" class="B P"/><use xlink:href="#d" class="B G"/><g class="H"><use xlink:href="#e" class="B"/><use xlink:href="#f"/><use xlink:href="#g"/></g><use xlink:href="#h" class="B F"/><g class="G"><use xlink:href="#i"/><use xlink:href="#j"/></g><use xlink:href="#f" x="7.288" y="6.944" class="H"/><use xlink:href="#h" x="4.853" y="2.755" class="F"/><g class="G"><use xlink:href="#k"/><use xlink:href="#j" x="4.853" y="2.755"/></g><use xlink:href="#f" x="9.794" y="5.597" class="H"/><use xlink:href="#h" x="7.359" y="1.408" class="F"/><g class="G"><use xlink:href="#k" x="2.506" y="-1.347"/><use xlink:href="#j" x="7.359" y="1.408"/></g><use xlink:href="#h" x="-2.435" y="-4.189" class="F"/><g class="G"><use xlink:href="#k" x="-7.288" y="-6.943"/><use xlink:href="#j" x="-2.435" y="-4.188"/></g><use xlink:href="#l" class="B C"/><use xlink:href="#m" class="B J"/><g class="C B"><use xlink:href="#n"/><use xlink:href="#o"/></g><use xlink:href="#p" class="B Q"/><use xlink:href="#q" fill="#4dd1e2" class="B"/><g class="G B"><use xlink:href="#r"/><use xlink:href="#s"/></g><use xlink:href="#t" class="B H"/><use xlink:href="#u" class="B D"/><use xlink:href="#v" class="B H"/><use xlink:href="#w" fill="#536d79"/><use xlink:href="#x" class="R"/><use xlink:href="#y" class="S"/><use xlink:href="#z" fill="#656667"/><use xlink:href="#AA" fill="#3849ab" class="B"/><use xlink:href="#AB" class="B P"/><use xlink:href="#AC" class="B H"/><g class="C B"><use xlink:href="#AD"/><use xlink:href="#AD" x="-3.766" y="-2.173"/></g><use xlink:href="#AE" fill="#77909c"/><use xlink:href="#w" x="3.766" y="2.173" class="B D"/><use xlink:href="#AE" x="-3.766" y="-2.173" class="B Q"/><use xlink:href="#R" x="-5.036" y="2.857" class="M"/><use xlink:href="#AF" fill="#414141"/><use xlink:href="#AG" class="R"/><use xlink:href="#AH" fill="#767676"/><use xlink:href="#AI" class="S"/><use xlink:href="#R" x="-5.036" y="2.857" fill="#666" class="B"/><use xlink:href="#AJ" class="L"/><use xlink:href="#S" x="-10.121" y="5.81" class="K"/><use xlink:href="#AK" class="L"/><g class="N"><use xlink:href="#U" x="10.122" y="-5.81"/><use xlink:href="#AL"/></g><use xlink:href="#AM" class="B O"/><use xlink:href="#AN" class="B J"/><g class="C B"><use xlink:href="#AO"/><use xlink:href="#AP"/></g><use xlink:href="#AQ" class="B D"/><g class="C B"><use xlink:href="#AQ" x="-9.633" y="-5.529"/><use xlink:href="#AQ" x="29.887" y="-6.106"/></g><use xlink:href="#AR" class="B D"/><use xlink:href="#AQ" x="9.625" y="5.525" class="B C"/><use xlink:href="#AQ" x="39.005" y="10.759" class="B D"/><use xlink:href="#AQ" x="29.38" y="5.234" class="B C"/><use xlink:href="#AQ" x="19.249" y="11.05" class="B D"/><use xlink:href="#AS" class="B C"/><use xlink:href="#AR" x="19.756" y="-0.291" class="B D"/><use xlink:href="#AR" x="29.38" y="5.233" class="B C"/><use xlink:href="#AQ" x="-51.163" y="-29.367" class="B D"/><use xlink:href="#AQ" x="-60.784" y="-34.89" class="B C"/><use xlink:href="#AQ" x="-50.653" y="-40.706" class="B D"/><use xlink:href="#AQ" x="-40.525" y="-46.523" class="B C"/><use xlink:href="#AQ" x="-70.409" y="-40.415" class="B D"/><g class="C B"><use xlink:href="#AQ" x="-80.037" y="-45.941"/><use xlink:href="#AQ" x="-60.278" y="-46.23"/></g><use xlink:href="#AQ" x="-50.15" y="-52.048" class="B D"/><use xlink:href="#AQ" x="-59.774" y="-57.572" class="B C"/><g class="D B"><use xlink:href="#AQ" x="-69.905" y="-51.757"/><use xlink:href="#AT"/><use xlink:href="#AU"/><use xlink:href="#AV"/></g><g transform="matrix(.442151 0 0 .439591 -19.351622 38.72843)"><use xlink:href="#AW" fill="#0b3d91"/><g fill="#fff"><use xlink:href="#AX"/><use xlink:href="#AY"/><use xlink:href="#AX" x="2.469" y="0.465"/><use xlink:href="#AX" x="3.232" y="9.192"/><use xlink:href="#AY" x="3.145" y="9.897"/><use xlink:href="#AZ"/><use xlink:href="#Aa"/><use xlink:href="#Ab"/><use xlink:href="#Ac"/><use xlink:href="#AZ" x="-2.97" y="-6.974"/><use xlink:href="#AZ" x="-2.589" y="-8.671"/><use xlink:href="#Ab" x="-9.1" y="-5.236"/><use xlink:href="#Ad"/><use xlink:href="#Ab" x="-8.869" y="-3.374"/><use xlink:href="#Ae"/><use xlink:href="#Ab" x="-7.759" y="-5.735"/><use xlink:href="#Ad" x="0.849" y="-0.48"/><use xlink:href="#AZ" x="-2.622" y="-8.358"/><use xlink:href="#Ab" x="1.295" y="1.185"/><use xlink:href="#Af"/><use xlink:href="#Ac" x="-1.966" y="4.22"/><use xlink:href="#Ag"/><use xlink:href="#Ac" x="-3.727" y="5.285"/><use xlink:href="#Ab" x="-1.287" y="1.219"/><use xlink:href="#AZ" x="5.752" y="-4.129"/><use xlink:href="#Ab" x="1.129" y="-0.763"/><use xlink:href="#AZ" x="8.069" y="-4.166"/><use xlink:href="#Ab" x="1.184" y="-1.534"/><use xlink:href="#Ab" x="-5.592" y="0.792"/><use xlink:href="#AX" x="4.387" y="8.075"/><use xlink:href="#AY" x="4.757" y="8.971"/><use xlink:href="#AX" x="8.953" y="5.342"/><use xlink:href="#AX" x="10.4" y="4.349"/><use xlink:href="#AX" x="9.344" y="4.431"/><use xlink:href="#AX" x="8.602" y="4.919"/><use xlink:href="#Ah"/><use xlink:href="#Ai"/><use xlink:href="#Aj"/><use xlink:href="#Ak"/><use xlink:href="#Ai" x="10.114" y="3.186"/><use xlink:href="#Al" fill="#fc3d21"/><use xlink:href="#Am"/><use xlink:href="#An"/><use xlink:href="#Ao"/><use xlink:href="#Ap"/><use xlink:href="#Aq"/></g></g><use xlink:href="#Ar"/><use xlink:href="#As"/><use xlink:href="#At"/><use xlink:href="#Au"/><use xlink:href="#Av"/><use xlink:href="#Aw"/><use xlink:href="#Ax"/><use xlink:href="#Ay"/></svg>