<svg xmlns="http://www.w3.org/2000/svg" xmlns:xlink="http://www.w3.org/1999/xlink" width="5271.243" height="3232.355" viewBox="0 0 1394.683 855.227" xmlns:v="https://vecta.io/nano"><style><![CDATA[.B{stroke-width:.265}.C{fill:#e3e3e3}.D{fill-opacity:.992}.E{fill:#bebdbc}.F{fill:#a5a3a2}.G{fill:#d7d7d7}.H{fill:#767676}.I{fill:#f0f0f0}.J{fill:#202021}.K{fill:#8f8f8f}.L{fill:#2a2b2c}.M{fill-opacity:.996}.N{fill:#f0eff0}.O{stroke-opacity:.992}]]></style><g stroke="#000" class="B"><use xlink:href="#B" fill="#42a048"/><path d="M1349.442 720.272s17.987-10.385 17.988-36.843-17.962-16.088-17.962-16.088v-.01c1.695 6.8 2.65 15.001 2.651 24.858 0 9.907-.966 19.256-2.677 28.051z" class="F"/><g fill="none"><path d="M504.486 225.136v132.292"/><path d="M561.77 258.209l-114.568 66.146"/></g><path d="M660.841 286.247h-.004c-16.277-8.261-39.361 4.365-41.174 5.384l113.963 65.796s24.401-14.085 41.351-5.483h.004l-114.14-65.697z" fill="#ccc"/><path d="M619.489 291.727l-.003.003s-57.167 33.007-57.282 99.02l114.136 65.895c0-66.146 57.284-99.219 57.284-99.219l.003-.003-114.137-65.696z" class="C"/><path d="M562.201 390.949c0 5.006.328 9.444.935 13.371 1.956 12.659 6.805 20.007 12.884 23.967l114.135 66.092c-7.965-5.188-13.819-16.193-13.819-37.338l-114.135-66.092zm15.895 38.536c.011.006.021.012.032.016l.003.004-.035-.02z" class="I"/><path d="M882.48 403.614s91.734-52.952 91.734 52.952-91.734 158.856-91.734 158.856-91.734 52.952-91.734-52.952 91.734-158.856 91.734-158.856z" class="F"/><g fill="none"><path d="M810.027 379.438l-152.801 88.271"/><path d="M733.626 335.379v176.389"/></g><use xlink:href="#C" fill="#43a047" class="D"/><path d="M657.203 467.696l.022.053c.005 28.188 7.812 42.861 18.434 49.78l2.768 1.598.052.027-.01-.025 92.594 53.462c-10.625-6.921-18.434-21.601-18.434-49.805v-.016l-95.404-55.062zM773.83 574.19l.054.031-.003-.005-.052-.027z" class="I"/><path d="M662.295 429.285l-100.499-38.772 118.362 37.343z" class="F"/><path d="M561.796 390.513l95.407 77.184c0-13.899 1.898-26.703 5.093-38.412h-.002z" class="C"/><path d="M561.796 390.514l99.205 106.021-.002-.015c-2.39-7.502-3.772-16.961-3.774-28.812z" fill="#ebebeb"/><path d="M619.059 291.278l78.353 74.879.014-.012c18.412-20.537 36.2-30.809 36.2-30.809z" class="C"/><path d="M619.059 291.278l114.558 44.052.047-.014c.195-.112 17.844-10.246 36.149-10.967l.005-.003z" class="E"/><path d="M619.059 291.278l87.42 89.254-9.067-14.375z" fill="#757575" class="D"/><path d="M810.027 379.438l-152.801 88.271" fill="none"/><path d="M771.836 324.311c-19.106 0-38.211 11.029-38.211 11.029l95.426 55.096s32.546-18.786 55.16-7.317h.006l-95.425-55.096h-.007c-5.288-2.682-11.118-3.712-16.949-3.712z" class="E"/><path d="M733.626 335.339l-.093.056v-.003l-.003.003c-1.055.613-76.327 44.677-76.327 132.293v.006l.022.012.003-.003v.003l95.403 55.084v-.006c0-88.234 76.423-132.351 76.423-132.351z" fill="#d6d6d6" class="D"/><path d="M829.051 372.766c0 0-39.075 22.559-66.22 67.671l53.428 30.847v.003c27.145-45.114 66.221-67.673 66.221-67.673z" class="J"/><path d="M737.396 531.586l.044.106-.079-.046v.081c0 33.847 9.371 51.466 22.122 59.775l3.334 1.925.061.03-.041-.101 50.033 28.887c-12.751-8.309-22.122-25.928-22.122-59.775v-.081zm78.806 92.583l.063.036-.003-.006-.061-.03z" class="L"/><g class="C"><path d="M874.918 359.528c-22.931 0-45.86 13.235-45.866 13.238h0 0l53.429 30.847s39.064-22.546 66.208-8.784h.007l-53.43-30.848h-.008c-6.346-3.217-13.343-4.454-20.34-4.454zm7.562 61.756l-.093.056v-.002.003c-1.055.613-76.327 44.677-76.327 132.293v.006l.022.012v-.003.003l95.403 55.084v-.006c0-88.234 76.423-132.351 76.423-132.351z"/><path d="M978.002 476.323l-.093.056v-.002.003c-1.055.613-76.327 44.677-76.327 132.293v.006l.022.012v-.003.003l95.403 55.085v-.006c0-88.234 76.423-132.351 76.423-132.351z"/></g><g class="I M"><path d="M806.049 553.636l.022.053c.005 28.188 7.812 42.861 18.434 49.78l2.768 1.598.052.026-.01-.025 92.594 53.462c-10.625-6.921-18.434-21.601-18.434-49.805v-.017l-95.403-55.062zM922.676 660.13l.054.031-.002-.005-.052-.026z"/><path d="M901.504 608.724l.022.053c.005 28.188 7.812 42.861 18.434 49.78l2.768 1.598.052.026-.01-.025 92.594 53.462c-10.625-6.921-18.434-21.601-18.434-49.805v-.017l-95.403-55.062zm116.627 106.494l.054.031v-.005c-.017-.009-.034-.018-.052-.026z"/></g><g class="E"><path d="M920.698 410.254c-19.106 0-38.211 11.029-38.211 11.029l95.426 55.096s32.546-18.786 55.16-7.317l.01-.001-95.425-55.096-.007.001c-5.288-2.682-11.118-3.712-16.949-3.712z"/><use xlink:href="#D"/></g><path d="M1119.155 549.633c-18.875 12.754-79.981 60.181-83.932 145.191l53.437 30.867c3.929-81.96 62.747-130.368 83.961-145.236zm61.027 25.87c-.051.03-.744.433-2.022 1.243l.06-.035 1.965-1.207z" class="D G"/><g class="C"><path d="M987.14 675.706c-1.993 3.3-4.699 5.097-5.295 5.468 1.45 28.362 10.271 43.707 21.911 51.291l3.334 1.925.061.03-.041-.101 50.034 28.887c-12.751-8.309-22.122-25.928-22.122-59.775v-.081zm73.336 89.426l.063.036v-.006l-.06-.03z"/><path d="M1035.021 703.513l.044.106-.079-.045-.001.081c0 33.847 9.371 51.466 22.122 59.775l3.334 1.925.061.03-.041-.101 50.033 28.887c-12.751-8.309-22.122-25.928-22.122-59.775v-.081zm78.805 92.583l.063.036v-.006l-.06-.03z"/></g><g class="E"><path d="M1119.191 500.571c-14.9 0-29.793 5.587-38.403 9.502l53.472 30.831c12.666-5.754 38.86-15.091 58.703-5.031h.01l-53.43-30.847h-.01c-6.346-3.217-13.343-4.454-20.34-4.454z"/><path d="M1172.617 531.422c-14.875 0-29.742 5.567-38.358 9.481l53.027 30.574.446.257s.023-.328 0 0c12.684-5.755 38.839-15.058 58.657-5.01h.01l-53.43-30.847h-.01c-6.346-3.217-13.343-4.454-20.34-4.454zm7.6 44.06a1.69 1.69 0 0 1-.04.024v.003l.041-.023z"/></g><path d="M1226.043 562.273c-14.848 0-29.688 5.548-38.312 9.46-.136 1.933-1.072 8.859-7.555 12.602s-7.42-2.107-7.555-3.88c-21.944 15.377-84.179 66.676-84.179 153.912s62.236 66.686 84.179 56.73c.136-1.933 1.072-8.86 7.555-12.603s7.419 2.1 7.555 3.877c21.173-14.834 79.941-63.166 83.959-145.039-.021.012-7.436 4.183-7.436-4.46s7.416-12.937 7.439-12.951c-2.362-45.849-24.005-57.649-45.65-57.649zm-43.938 12.195l-1.929 1.043s-.714.417-1.939 1.19z" class="F"/><path d="M1065.689 518.81c-21.271 14.924-79.95 63.305-83.887 145.156l53.429 30.862c3.933-81.906 62.682-130.3 83.924-145.196z" class="D G"/><path d="M1080.784 510.073v.007c-.158 2.046-1.159 8.825-7.548 12.514l106.941 61.742c6.482-3.742 7.418-10.667 7.555-12.602zm106.947 61.661z" class="K"/><path d="M1065.689 518.81l.01.003zm7.636 3.732l-.089.052-.523.276 99.921 57.752.013.131-.013-.132c.171 1.849 1.148 6.862 6.711 4.159l.831-.438-.173-.093.176.087zm19.054 201.931c-1.86-.02-3.72 1.054-3.72 1.054v.164l7.439 4.295c0-4.377-1.859-5.492-3.719-5.512z" class="H"/><path d="M989.236 668.261c0 8.018-6.431 12.315-7.389 12.912l-.003.005 106.815 61.827h0 0 0c.01-.007 7.436-4.299 7.436-13.047h0l-7.439-4.295z" class="K"/><path d="M1271.69 637.333s-7.436 4.196-7.436-4.46z" fill="#43a047" class="D"/><path d="M1183.691 777.273c-.938.042-2.093.4-3.514 1.221l.458-.22 7.094 4.095c-.101-1.366-.677-5.246-4.037-5.096z" fill="#c1cc31"/><use xlink:href="#C" x="202.372" y="116.74" class="F"/><path d="M1180.27 593.124l-.093.056-.001-.002v.003c-1.055.613-76.327 44.677-76.327 132.293v.006l.022.012v-.003.003l95.403 55.085v-.006c0-88.234 76.423-132.351 76.423-132.351z" fill="#ab47bc" class="D"/><use xlink:href="#D" x="202.368" y="116.744" class="J"/><path d="M1103.849 725.439l.022.053c.01 28.188 7.812 42.861 18.434 49.78l2.768 1.598a1.4 1.4 0 0 0 .052.026l-.01-.025 92.594 53.462c-10.625-6.921-18.434-21.601-18.434-49.805v-.017l-95.403-55.062zm116.627 106.494l.054.031v-.005c-.017-.009-.034-.018-.052-.026z" class="C"/></g><path d="M1151.639 753.129l47.635 27.448" fill="none" stroke="#3d48ac" class="B"/><g stroke="#000" class="B"><path d="M1180.27 593.124l-.093.056h0c-.686.399-32.761 19.176-55.108 56.357l80.138 46.218 15.322 8.846c10.577-17.58 23.327-31.047 33.905-40.405l-1.487 1.329-.01.005zm-55.222 56.448l-.012.021.012-.021z" class="C"/><path d="M1125.068 649.538c-12.015 19.99-21.218 45.3-21.218 75.936v.006l.022.012 88.673 51.199 6.986-4.861c1.557-26.752 10.128-49.161 20.998-67.228l-15.322-8.846z" class="J"/><path d="M1201.95 752.511s-17.988 10.385-17.988 36.843 17.962 16.088 17.962 16.088v-.014c-1.695-6.8-2.65-15.001-2.65-24.858 0-9.907.966-19.256 2.676-28.051z" class="F"/><path d="M1103.871 725.492l80.091 63.862c0-26.458 17.988-36.843 17.988-36.843z" class="N"/><path d="M1103.871 725.492l83.479 78.397v-.007c-2-2.678-3.386-7.182-3.386-14.528z" class="C"/><path d="M1348.156 662.921l1.268 4.383.069.022h0c.132-.075 3.515-1.986 7.326-1.987h0z" class="K"/><path d="M1298.61 807.235l-.01.005c-12.831 11.628-22.905 17.447-22.905 17.447s-10.073 5.811-22.903 8.997l-.01.005s0 21.919 22.913 8.689 22.913-35.144 22.913-35.144z" class="F"/><path d="M1275.687 824.693c0 .003-.319.177-.642.354l.642-.354zm-1.704.92l-.12.064.12-.064zm-.391.202l-.916.463.916-.463zm-1.438.721l-1.097.529 1.097-.529zm-1.583.76l-1.686.771 1.686-.771zm-4.885 2.138l-.069.029.069-.029zm-3.884 1.494l-.081.029.081-.029zm-3.093 1.059l-.212.069.212-.069zm-4.571 1.35l-.293.077.293-.077zm-1.344.347l-5.612 1.171 8.962 8.748c-3.358-3.822-3.36-9.914-3.36-9.914zm4.37 10.915l.011.011h0z" fill="#ab48bb"/><path d="M1288.326 626.284c-3.148-.026-7.259 1.144-12.63 4.244-22.913 13.229-22.757 35.002-22.757 35.002l.01-.005c12.757-11.535 22.749-17.306 22.749-17.306s10.075-5.812 22.907-8.997l.01-.003s0-12.849-10.283-12.935z" class="F"/><path d="M1180.27 593.124l72.669 72.406s-.156-21.773 22.757-35.002z" class="I M"/><path d="M1180.27 593.124l95.427 37.404c5.37-3.101 9.482-4.27 12.63-4.244.581.005 1.128.052 1.645.134h0z" class="C"/><g fill="#3949ab" class="D"><use xlink:href="#E"/><use xlink:href="#E" y="-132.291"/><use xlink:href="#E" x="57.284" y="-99.28"/></g></g><g fill="none" stroke="#3849ab" class="B O"><path d="M1220.527 704.602l13.229-22.914m-26.458 45.827l13.229-22.914m110.34 63.705l-13.229 22.914m26.458-45.827l-13.229 22.914"/><path d="M1220.477 831.933l-15.232-8.743m110.39-191.029l15.232 8.743m-110.34 63.698l-15.321-8.846m125.658-54.853l8.846-15.321"/></g><g stroke="#000" class="B"><g class="F"><path d="M1342.527 744.487l-.01.012c-7.004 18.242-17.007 33.369-27.15 45.386l-.011.018s17.6 10.162 30.83-12.752-3.661-32.665-3.661-32.665z"/><use xlink:href="#B"/></g><path d="M1125.067 649.538l78.938 74.298c-3.698-4.939-6.909-14.032 1.201-28.079z" class="C"/><path d="M1125.067 649.538l80.139 46.218c7.028-12.173 15.289-15.011 21.49-14.998.806.003 1.572.056 2.302.14z" class="N"/><path d="M1122.305 775.272l84.89 68.407c-5.592-6.419-3.529-15.233-1.594-20.286z" class="K"/><path d="M1235.44 585.806l77.297 51.373h0c.088-.151 8.109-13.94 19.467-13.776.805.012 1.627.096 2.464.257z" class="N"/><path d="M1332.206 623.402c-11.422-.164-19.484 13.803-19.484 13.803v.003c11.72-.274 23.587 3.434 31.188 16.222h0s11.027-19.104-4.205-27.847c-2.618-1.503-5.133-2.146-7.503-2.18zm-124.773 195.999c-.139.243-10.936 19.166 4.198 27.853 15.232 8.743 26.947-11.549 26.947-11.549v-.003c-11.714.253-23.563-3.485-31.143-16.302z" class="F"/><g fill="#3949ab" class="D"><use xlink:href="#E" x="41.356" y="-42.269"/><use xlink:href="#E" x="-41.355" y="-90.022"/><use xlink:href="#E" x="-57.283" y="-33.134"/><use xlink:href="#E" x="-41.357" y="5.483"/><use xlink:href="#E" x="41.358" y="-137.774"/></g><use xlink:href="#F" class="H"/><use xlink:href="#G" class="G"/><use xlink:href="#H" class="C"/><use xlink:href="#I" class="E"/><use xlink:href="#F" x="-41.482" y="5.558" class="H"/><use xlink:href="#G" x="-41.483" y="5.558" class="G"/><use xlink:href="#H" x="-41.483" y="5.558" class="C"/><use xlink:href="#I" x="-41.483" y="5.557" class="E"/><use xlink:href="#F" x="-57.283" y="-33.134" class="H"/><use xlink:href="#G" x="-57.283" y="-33.134" class="G"/><use xlink:href="#H" x="-57.284" y="-33.135" class="C"/><use xlink:href="#I" x="-57.284" y="-33.135" class="E"/><use xlink:href="#F" x="-41.355" y="-90.022" class="H"/><use xlink:href="#G" x="-41.355" y="-90.022" class="G"/><use xlink:href="#H" x="-41.355" y="-90.022" class="C"/><use xlink:href="#I" x="-41.355" y="-90.023" class="E"/><use xlink:href="#F" x="57.285" y="-99.294" class="H"/><use xlink:href="#G" x="57.284" y="-99.294" class="G"/><use xlink:href="#H" x="57.284" y="-99.295" class="C"/><use xlink:href="#I" x="57.284" y="-99.295" class="E"/><use xlink:href="#F" x="41.358" y="-137.773" class="H"/><use xlink:href="#G" x="41.358" y="-137.773" class="G"/><use xlink:href="#H" x="41.357" y="-137.773" class="C"/><use xlink:href="#I" x="41.357" y="-137.773" class="E"/><use xlink:href="#F" x="0.001" y="-132.291" class="H"/><use xlink:href="#G" x="0.001" y="-132.291" class="G"/><use xlink:href="#H" y="-132.292" class="C"/><use xlink:href="#I" y="-132.292" class="E"/><use xlink:href="#F" x="41.356" y="-42.269" class="H"/><use xlink:href="#G" x="41.356" y="-42.269" class="G"/><use xlink:href="#H" x="41.355" y="-42.269" class="C"/><use xlink:href="#I" x="41.355" y="-42.27" class="E"/><path d="M504.007 225.058l-.006.003s-57.282 33.071-57.284 99.214l115.486 66.674c0-66.146 57.284-99.219 57.284-99.219l.003-.003-115.483-66.669z" class="C"/><path d="M446.718 324.084l-.003.191c0 21.14 5.852 32.144 13.813 37.334l115.492 66.679c-7.965-5.188-13.819-16.193-13.819-37.338l-115.484-66.865zm131.379 105.401l.035.02-.003-.004c-.011-.005-.021-.011-.032-.016z" class="I"/><path d="M532.654 216.792c-14.323-.003-28.648 8.266-28.648 8.266l115.48 66.672s24.4-14.085 41.351-5.483h.004L545.39 219.591c-3.971-2.023-8.353-2.798-12.735-2.799z" fill="#ccc"/><path d="M389.435 158.912h0l-.003.003c0 0-57.284 33.073-57.284 99.219l114.568 66.144c.001-66.144 57.284-99.217 57.284-99.217l.006-.003-114.571-66.146z" class="C D"/><path d="M332.154 257.744c0 .393 0 0 0 .397 0 21.145 5.854 32.15 13.819 37.338l2.071 1.196.037.019-.004-.008.005.008 112.514 64.959c-7.995-5.172-13.879-16.18-13.879-37.378l.002-.191z" class="I"/><path d="M418.08 150.644c-14.321 0-28.642 8.268-28.642 8.268l114.568 66.146s24.437-14.107 41.39-5.463l-114.603-66.166h-.005c-3.965-2.012-8.336-2.785-12.708-2.785z" fill="#ccc"/><path d="M321.024 135.608s-42.93 24.79-42.93 74.37l54.386 47.97c0-66.106 57.21-99.176 57.278-99.215z" fill="#d6d6d6" class="D"/><path d="M342.163 129.593c-10.732 0-21.465 6.198-21.465 6.198l68.74 23.122h.001s16.448-9.495 31.717-8.133l-69.461-19.097h-.003c-2.973-1.51-6.251-2.09-9.529-2.09zm88.619 23.833l.012.004z" class="J"/><path d="M278.094 209.978c0 17.214 5.558 25.724 12.315 29.158l.001.003 49.59 50.46c-4.565-6.337-7.519-16.236-7.519-31.254v-.397l.24.139z" class="L"/><path d="M160.782 43.265s42.93-24.79 42.93 24.79-42.93 74.37-42.93 74.37-42.93 24.79-42.93-24.79 42.93-74.37 42.93-74.37z" fill="#b71c1c"/><path d="M160.782 43.265s-42.93 24.79-42.93 74.37l160.242 92.343c0-49.58 42.93-74.37 42.93-74.37z" fill="#e1e1e1" class="D"/><path d="M117.852 117.635c0 17.214 5.176 25.461 11.932 28.895l.001.003 160.216 92.389-.032-.077c-6.728-3.452-11.875-11.701-11.875-28.866z" class="I"/><g fill="#ccc"><path d="M182.247 37.067c-10.732 0-21.465 6.198-21.465 6.198l160.231 92.349h.003c.01-.006 16.182-9.343 28.674-5.093L193.367 40.076a16.96 16.96 0 0 0-1.562-.904l-.025-.014h-.003c-2.972-1.51-6.25-2.09-9.529-2.09z"/><path d="M.387.241l129.4 74.711.006-.004c12.703-21.12 30.989-31.683 30.989-31.683s13.549-7.823 25.424-5.889zm187.178 37.407l.153.037.007-.005z"/></g><path d="M.387.241l121.974 139.086c-2.774-4.767-4.51-11.726-4.51-21.692l.013-1.438.008-.395.032-1.141.011-.316.066-1.394.019-.317.07-1.068.034-.456.113-1.327.143-1.383.042-.369.13-1.059.039-.305.19-1.35.024-.156.193-1.204.046-.273.234-1.311.27-1.371.04-.193.25-1.156.044-.198.312-1.324.009-.035.418-1.627.171-.627.323-1.139.174-.599.475-1.525.208-.634.357-1.054.214-.618.528-1.446.263-.682.334-.853.316-.781.37-.882.468-1.08.361-.808.358-.777.311-.656.698-1.429.254-.508.454-.878.229-.436a87.3 87.3 0 0 1 1.591-2.867l.196-.337.528-.892.005-.012.008-.008c12.703-21.116 30.986-31.678 30.986-31.678z" fill="#e0e0e0" class="D"/><path d="M160.782 43.265s-42.93 24.79-42.93 74.37l22.914 13.205c.014-49.564 42.93-74.346 42.93-74.346l.022-.012z" fill="#262626" class="D"/><path d="M117.852 117.635c0 17.214 5.176 25.461 11.932 28.895l.001.003 21.188 12.218c-5.893-3.929-10.208-12.17-10.208-27.887v-.024z" class="L"/><path d="M182.247 37.067c-10.732 0-21.465 6.198-21.465 6.198l22.934 13.218c.148-.085 18.013-10.346 30.648-4.258l-20.998-12.149a16.96 16.96 0 0 0-1.562-.904l-.025-.014-.003.001c-2.972-1.51-6.25-2.09-9.529-2.09z" class="J"/><path d="M.387.241l121.974 139.085c-2.773-4.766-4.509-11.725-4.509-21.691z" class="I"/><path d="M762.831 440.437c-14.435 23.99-25.497 54.356-25.514 91.104l.035.02-.035.061 53.43 30.767c.016-36.746 11.078-67.112 25.513-91.101v-.003z" class="C"/></g><g transform="matrix(-1 0 0 -1 733.764 492.671)"><path d="M212.883 217.929l6.336 3.658c2.413 1.393 2.409 3.288-.014 5.685l-.908.899c-2.423 2.398-4.842 2.9-7.256 1.506l-3.44-1.986-4.544 4.496-2.897-1.672zm.352 4.189l-3.089 3.056 3.44 1.986c.482.279 1.087.058 1.814-.661l.909-.899c.727-.719.849-1.218.366-1.497zm3.78 11.293l2.987 1.725 2.895-5.205zm1.312 4.744l-4.725-2.728-2.443 1.438-2.897-1.672 17.066-10.079 3.077 1.776-8.374 15.097-2.897-1.672z"/><path d="M232.749 229.399l6.336 3.657c2.413 1.394 2.409 3.289-.012 5.687l-.908.899c-1.986 1.967-3.97 2.658-5.95 2.075l-1.981 6.161-3.132-1.809 1.926-6.007-1.557-.899-4.543 4.497-2.897-1.673zm.354 4.189l-3.089 3.057 3.44 1.986c.483.279 1.088.058 1.814-.661l.908-.899c.727-.72.849-1.219.366-1.497z"/><path d="M238.74 245.954l2.988 1.725 2.892-5.207zm1.314 4.745l-4.726-2.728-2.441 1.438-2.897-1.672 17.059-10.082 3.077 1.776-8.367 15.1-2.897-1.672zm13.525 2.683l-2.173-1.254 2.362-2.623 5.249 3.031-3.994 3.958c-2.421 2.399-4.839 2.902-7.253 1.508l-2.716-1.568c-2.414-1.394-2.41-3.29.011-5.689l5.448-5.397c2.421-2.398 4.839-2.9 7.252-1.507l2.715 1.568c2.414 1.393 2.41 3.289-.01 5.688l-.273.269-3.077-1.492.453-.45c.727-.719.848-1.218.366-1.497l-2.716-1.568c-.482-.278-1.087-.058-1.813.662l-5.448 5.396c-.726.72-.848 1.219-.365 1.498l2.715 1.568c.483.279 1.088.058 1.814-.662zm2.349 3.634l9.077-8.994 2.896 1.672-9.076 8.995c-.726.72-.848 1.219-.365 1.498l2.715 1.567c.483.279 1.088.059 1.814-.661l9.076-8.996 2.896 1.672-9.076 8.996c-2.42 2.4-4.838 2.903-7.252 1.509l-2.716-1.568c-2.414-1.394-2.41-3.29.011-5.69zm14.712 7.355l2.987 1.725 2.89-5.208zm1.315 4.746l-4.726-2.728-2.44 1.439-2.897-1.672 17.051-10.087 3.077 1.776-8.359 15.105-2.897-1.672zm9.769-1.151l2.785-8.684 3.131 1.808-1.538 4.806 5.72-2.392 3.131 1.808-10.333 4.326-6.143 6.093-2.897-1.673z"/></g><g transform="matrix(4.06519 0 0 4.06519 2281.8316 -732.33691)"><path d="M-380.274 286.119c.588-1.074.802-2.295.597-3.395s-.816-1.987-1.695-2.468c-1.83-1.002-4.306-.001-5.53 2.236s-.732 4.862 1.098 5.863c.879.481 1.955.516 2.993.097s1.949-1.259 2.537-2.333z" fill="#0b3d91"/><g fill="#fff"><use xlink:href="#J"/><use xlink:href="#J" x="0.415" y="0.148"/><use xlink:href="#K"/><use xlink:href="#K" x="-0.426" y="-5.739"/><use xlink:href="#J" x="1.235" y="-6.451"/><use xlink:href="#L"/><use xlink:href="#M"/><use xlink:href="#L" x="3.942" y="2.012"/><use xlink:href="#M" x="2.229" y="3.19"/><use xlink:href="#L" x="-1.009" y="4.68"/><use xlink:href="#L" x="-0.624" y="5.775"/><use xlink:href="#N"/><path d="M-385.794 286.913c.01-.019.006-.041-.009-.049s-.036 0-.046.019-.006.041.009.049.036 0 .047-.019z"/><use xlink:href="#O"/><path d="M-385.587 288.041c.005-.009.007-.019.005-.029s-.007-.017-.014-.021-.016-.004-.025-.001-.016.011-.021.02c-.01.019-.006.041.009.049s.036 0 .046-.019z"/><use xlink:href="#L" x="0.074" y="6.07"/><use xlink:href="#O" x="0.474" y="1.534"/><use xlink:href="#N" x="0.069" y="-0.224"/><use xlink:href="#N" x="5.308" y="-4.61"/><path d="M-384.528 281.089c.01-.019.006-.041-.009-.049-.007-.004-.016-.004-.025-.001s-.016.011-.021.02-.007.019-.005.029.007.017.014.021c.015.008.036 0 .047-.019zm2.178.621c.005-.009.007-.019.005-.029s-.007-.017-.014-.021-.017-.004-.025-.001-.016.011-.021.02-.007.019-.005.029.007.017.014.021.016.004.025.001.016-.011.021-.02zm-1.616-.278c.01-.019.006-.041-.009-.049-.007-.004-.017-.004-.025-.001s-.016.011-.021.02-.007.019-.005.029.007.017.014.021c.015.008.036 0 .047-.019z"/><use xlink:href="#M" x="-0.423" y="-0.121"/><use xlink:href="#N" x="3.829" y="-4.531"/><use xlink:href="#N" x="4.438" y="-3.322"/><use xlink:href="#O" x="5.457" y="-2.103"/><use xlink:href="#N" x="5.766" y="-3.389"/><use xlink:href="#O" x="5.565" y="-1.601"/><use xlink:href="#O" x="1.461" y="-2.855"/><use xlink:href="#P"/><use xlink:href="#J" x="2.248" y="-5.909"/><use xlink:href="#Q"/><use xlink:href="#P" x="3.804" y="2.2"/><path d="M-380.633 284.223c.007-.012.009-.026.007-.038s-.009-.022-.019-.028-.022-.006-.034-.001-.022.014-.028.026-.009.026-.007.038.009.022.019.028.022.006.034.001.022-.014.029-.026z"/><use xlink:href="#Q" x="-0.16" y="0.29"/><use xlink:href="#R"/><use xlink:href="#R" x="-0.871" y="-2.11"/><path d="M-380.278 284.454l.087.061-.096-.044c-.015.02-.039.029-.058.022l-.07.108.057-.116c-.014-.014-.018-.038-.008-.06l-.089-.062.099.046c.014-.018.035-.026.053-.021l.072-.111-.058.118c.015.013.02.036.012.059zm-2.815-3.799l.087.061-.096-.044c-.015.02-.039.029-.058.022l-.07.107.057-.116c-.014-.014-.018-.038-.008-.06l-.089-.062.098.046c.014-.018.035-.026.054-.021l.072-.111-.058.118c.015.013.02.036.012.059zm3.009 2.748l.087.061-.096-.044c-.015.02-.038.029-.058.022l-.07.108.057-.116c-.014-.014-.017-.038-.008-.06l-.089-.062.099.046c.014-.018.035-.026.053-.021l.072-.111-.058.118c.015.013.02.036.012.058z"/><path d="M-383.333 285.705l-.823-1.058c-.509-.599-1.907-2.232-2.512-3.656l.112.006c.404.803.749 1.175 1.069 1.552.348.411 1.55 1.598 2.075 2.173l.584.7-.375.213-.129.068zm.905-.535l-.129-.301c-.194-.397-1.035-2.533-1.224-3.022s-.549-2.149-.657-2.633l.063-.139.704 2.478.921 2.4.468 1.118-.026.018-.119.081zm.425 2.661c-.274-.57-.772-1.35-1.281-2.058l.09-.048.414-.238c.409.541.825 1.194 1.08 1.849-.082-.384-.455-1.47-.701-2.097l.144-.102.734 2.028c.163.585.543 1.902.239 3.222-.084-1.187-.477-2.055-.719-2.557z" fill="#fc3d21"/><path d="M-383.466 283.069l-.458.243-.539.317-.07-.072.667-.4.396-.206.097-.061.044.112-.138.068zm.857-.3c-.098.037-.307.073-.554.164l-.054-.14c.19-.115.437-.249.574-.252.207-.005.16.182.034.229zm-.585 2.956c-1.595.858-3.054 1.011-3.268.319-.166-.538.53-1.464 1.596-2.253l.058.072c-1.056.759-1.714 1.642-1.558 2.149.197.638 1.613.458 3.162-.376a9.02 9.02 0 0 0 .894-.549c1.046-.732 1.695-1.557 1.554-2.115-.043-.171-.339-.391-.886-.39-.001-.012.022-.031.032-.033.46.02.845.142.927.409.198.64-.917 1.908-2.512 2.766z"/><path d="M-386.822 283.534l.555.304.994-.711-.412.754a.38.38 0 0 1-.235.147l.384.21c-.019-.02-.034-.174.017-.266l.606-1.108c.037-.068.169-.118.228-.133l-.535-.293-1.004.711.418-.763c.041-.076.142-.115.239-.143l-.409-.224c.042.062.045.188.009.266a76.63 76.63 0 0 1-.599 1.094c-.051.092-.165.128-.255.154zm5.905 1.26l.738.404c-.048-.01-.126.024-.193.089l-1.165 1.14-.281-.154-.135-.362c.041-.106.353-1.199.366-1.254.018-.077-.037-.203-.054-.263l.398.218c-.07.033-.131.068-.156.133l-.07.198.411.225a1.25 1.25 0 0 0 .131-.145c.043-.057.029-.155.009-.229zm-.62.363l-.164.63.486-.454zm-.567.888l.031.089-.108-.059.077-.03zm-2.113-2.843l-.07.198.411.225a1.25 1.25 0 0 0 .131-.145c.043-.057.029-.155.009-.229l.65.356.022.055c-.04.013-.086.042-.128.082l-1.165 1.14-.644-.352c.05-.018.19-.063.232-.172.038-.097.35-1.19.363-1.245.018-.077-.037-.203-.054-.263l.398.218c-.069.033-.131.068-.156.133zm-.303 1.042l.487-.454-.322-.176z"/><path d="M-382.3 285.03l-.215-.519c.08-.003.153-.021.189-.077.068-.104-.082-.255-.257-.322a.39.39 0 0 0-.111-.023l-.058-.136-.071-.17.086-.157c-.01.095.023.202.075.236.023.014.155-.033.479.174.157.1.357.486.217.729a.58.58 0 0 1-.335.265zm-.72-.886l.087-.16.049.12c-.066.014-.118.032-.136.04zm.55.923c-.044.006-.086.008-.126.009-.208.004-.383-.07-.485.033-.072.073-.047.191.124.28s.393.052.459.031l-.214.39c-.004-.022-.017-.128-.074-.142a2.05 2.05 0 0 1-.473-.188c-.212-.118-.285-.42-.152-.677.186-.36.472-.33.634-.314l.056.007.164.374.087.198z"/></g></g><defs ><path id="B" d="M1226.696 680.759c-6.201-.014-14.462 2.825-21.49 14.998-13.229 22.914 3.66 32.665 3.66 32.665v-.006c7.004-18.247 17.01-33.377 27.156-45.396l.01-.016s-3.867-2.233-9.338-2.245z"/><path id="C" d="M1073.324 531.48s76.423-44.117 76.423 44.117-76.423 132.351-76.423 132.351-76.423 44.117-76.423-44.117 76.423-132.351 76.423-132.351z"/><path id="D" d="M1016.113 465.351c-19.106 0-38.211 11.029-38.211 11.029l95.426 55.096s32.546-18.786 55.16-7.317l.01-.001-95.425-55.096-.01.001c-5.288-2.682-11.118-3.712-16.949-3.712z"/><path id="E" d="M1275.696 789.464s11.351-6.568 11.351 6.568-11.351 19.703-11.351 19.703-11.351 6.568-11.351-6.568 11.351-19.703 11.351-19.703z"/><path id="F" d="M1321.523 810.854s15.743-9.102 15.743 9.102-15.743 27.305-15.743 27.305-15.743 9.102-15.743-9.102 15.743-27.305 15.743-27.305z"/><path id="G" d="M1275.696 789.464s-11.351 6.568-11.351 19.703l41.436 28.98h0c.01-18.194 15.743-27.292 15.743-27.292z"/><path id="H" d="M1264.345 809.167c0 4.549 1.362 6.734 3.142 7.648h.001l40.976 30.688c-1.599-1.674-2.684-4.569-2.684-9.345v-.013h0zm45.793 39.591l.01.01h0z"/><path id="I" d="M1281.372 787.823c-2.838 0-5.676 1.642-5.676 1.642l45.827 21.39s5.928-3.426 10.509-1.867l-48.128-20.605h0c-.789-.404-1.659-.56-2.53-.56zm51.603 21.568h.001z"/><path id="J" d="M-385.537 287.491c.007-.012.009-.026.007-.038s-.009-.022-.019-.028-.022-.006-.034-.001-.022.014-.028.026-.009.026-.007.038.009.022.019.028.022.006.034.001.022-.014.028-.026z"/><path id="K" d="M-384.171 287.089c.007-.012.009-.026.007-.038s-.009-.022-.019-.028-.022-.006-.034-.001-.022.014-.029.026-.009.026-.007.038.009.022.019.028.022.006.034.001.022-.014.028-.026z"/><path id="L" d="M-384.941 281.091c.01-.019.006-.041-.009-.049s-.036 0-.047.019-.006.041.009.049.036 0 .046-.019z"/><path id="M" d="M-383.039 281.204c.005-.009.007-.019.005-.029s-.007-.017-.014-.021-.016-.004-.025-.001-.016.011-.021.02-.007.019-.005.029.007.017.014.021.016.004.025.001.016-.011.021-.02z"/><path id="N" d="M-385.683 286.887c.01-.019.006-.041-.009-.049s-.036 0-.047.019-.006.041.009.049.036 0 .047-.019z"/><path id="O" d="M-385.735 285.66c.01-.019.006-.041-.009-.049s-.036 0-.046.019-.006.041.009.049.036 0 .046-.019z"/><path id="P" d="M-383.826 282.035c.006-.012.009-.026.007-.038s-.009-.022-.019-.028-.022-.006-.034-.001-.022.014-.028.026-.009.026-.007.038.009.022.019.028.022.006.034.001.022-.014.029-.026z"/><path id="Q" d="M-380.946 283.643c.007-.012.009-.026.007-.038s-.009-.022-.019-.028-.022-.006-.033-.001-.022.014-.029.026-.009.026-.007.038.009.022.019.028.022.006.033.001.022-.014.029-.026z"/><path id="R" d="M-384.679 287.997l.086.061-.096-.044c-.015.02-.039.029-.058.022l-.07.108.057-.116c-.014-.014-.018-.038-.008-.06l-.089-.062.098.046c.014-.018.035-.026.054-.021l.072-.111-.058.118c.015.013.02.036.012.059z"/></defs></svg>