<?xml version="1.0" encoding="UTF-8" standalone="no"?>
<svg
   xmlns:dc="http://purl.org/dc/elements/1.1/"
   xmlns:cc="http://creativecommons.org/ns#"
   xmlns:rdf="http://www.w3.org/1999/02/22-rdf-syntax-ns#"
   xmlns:svg="http://www.w3.org/2000/svg"
   xmlns="http://www.w3.org/2000/svg"
   xmlns:sodipodi="http://sodipodi.sourceforge.net/DTD/sodipodi-0.dtd"
   xmlns:inkscape="http://www.inkscape.org/namespaces/inkscape"
   width="5271.2427"
   height="3232.3545"
   viewBox="0 0 1394.6829 855.22713"
   version="1.1"
   id="svg8"
   inkscape:version="1.0.1 (3bc2e813f5, 2020-09-07)"
   sodipodi:docname="rocket.svg">
  <title
     id="title1057">Rocket</title>
  <defs
     id="defs2">
    <rect
       x="74.087112"
       y="364.44873"
       width="104.76965"
       height="36.669376"
       id="rect2484" />
    <rect
       x="-137.48154"
       y="370.41666"
       width="41.476406"
       height="94.558609"
       id="rect1347" />
    <rect
       x="251.35416"
       y="188.64792"
       width="82.285416"
       height="17.727083"
       id="rect9486" />
    <inkscape:perspective
       sodipodi:type="inkscape:persp3d"
       inkscape:vp_x="-207.38655 : 1433.724 : 1"
       inkscape:vp_y="0 : 3779.5274 : 0"
       inkscape:vp_z="1792.6133 : 1433.724 : 1"
       inkscape:persp3d-origin="792.61347 : 1100.3907 : 1"
       id="perspective1223" />
    <inkscape:perspective
       sodipodi:type="inkscape:persp3d"
       inkscape:vp_x="-69.905032 : 1433.724 : 1"
       inkscape:vp_y="0 : 3779.5274 : 0"
       inkscape:vp_z="1930.0948 : 1433.724 : 1"
       inkscape:persp3d-origin="930.09499 : 1100.3907 : 1"
       id="perspective1207" />
    <inkscape:perspective
       sodipodi:type="inkscape:persp3d"
       inkscape:vp_x="-184.47296 : 1579.2449 : 1"
       inkscape:vp_y="0 : 3779.5274 : 0"
       inkscape:vp_z="1815.5269 : 1579.2449 : 1"
       inkscape:persp3d-origin="815.52705 : 1245.9115 : 1"
       id="perspective1177" />
    <inkscape:perspective
       sodipodi:type="inkscape:persp3d"
       inkscape:vp_x="119.89748 : 1521.5534 : 1"
       inkscape:vp_y="0 : 3779.5274 : 0"
       inkscape:vp_z="2119.8974 : 1521.5534 : 1"
       inkscape:persp3d-origin="1119.8975 : 1188.2201 : 1"
       id="perspective1161" />
    <inkscape:perspective
       sodipodi:type="inkscape:persp3d"
       inkscape:vp_x="66.03444 : 1342.1947 : 1"
       inkscape:vp_y="0 : 3779.5274 : 0"
       inkscape:vp_z="2066.0343 : 1342.1947 : 1"
       inkscape:persp3d-origin="1066.0344 : 1008.8613 : 1"
       id="perspective1159" />
    <inkscape:perspective
       sodipodi:type="inkscape:persp3d"
       inkscape:vp_x="-22.551886 : 1396.6733 : 1"
       inkscape:vp_y="0 : 3779.5274 : 0"
       inkscape:vp_z="1977.448 : 1396.6733 : 1"
       inkscape:persp3d-origin="977.4481 : 1063.3399 : 1"
       id="perspective1155" />
    <inkscape:perspective
       sodipodi:type="inkscape:persp3d"
       inkscape:vp_x="-48.808471 : 622.63003 : 1"
       inkscape:vp_y="0 : 999.99997 : 0"
       inkscape:vp_z="480.35817 : 622.63003 : 1"
       inkscape:persp3d-origin="215.77485 : 534.43553 : 1"
       id="perspective1083" />
    <rect
       x="251.35416"
       y="188.64792"
       width="82.285416"
       height="17.727083"
       id="rect9494" />
    <clipPath
       clipPathUnits="userSpaceOnUse"
       id="clipPath6836">
      <rect
         style="opacity:0.477419;fill:#bdbdbd;stroke:#ffe1b3;stroke-width:0.529169;stroke-opacity:0"
         id="rect6838"
         width="978.2301"
         height="178.1084"
         x="0"
         y="667.72052"
         transform="rotate(90)" />
    </clipPath>
  </defs>
  <sodipodi:namedview
     id="base"
     pagecolor="#ffffff"
     bordercolor="#666666"
     borderopacity="1.0"
     inkscape:pageopacity="0.0"
     inkscape:pageshadow="2"
     inkscape:zoom="0.125"
     inkscape:cx="2962.0108"
     inkscape:cy="1357.7145"
     inkscape:document-units="px"
     inkscape:current-layer="layer1"
     showgrid="true"
     inkscape:showpageshadow="true"
     showborder="true"
     inkscape:window-width="1920"
     inkscape:window-height="1017"
     inkscape:window-x="-8"
     inkscape:window-y="-8"
     inkscape:window-maximized="1"
     units="px"
     inkscape:snap-object-midpoints="true"
     showguides="false"
     inkscape:guide-bbox="true"
     inkscape:snap-grids="false"
     inkscape:document-rotation="0"
     inkscape:snap-intersection-paths="true"
     inkscape:lockguides="true"
     inkscape:snap-page="false"
     inkscape:snap-smooth-nodes="true"
     inkscape:object-paths="true"
     fit-margin-top="0"
     fit-margin-left="0"
     fit-margin-right="0"
     fit-margin-bottom="0">
    <inkscape:grid
       type="axonomgrid"
       id="grid815"
       units="px"
       empspacing="5"
       spacingy="26.458333"
       originx="-11.06952"
       originy="-138.66543" />
    <sodipodi:guide
       position="1286.7662,712.38067"
       orientation="-0.5,-0.8660254"
       id="guide7864"
       inkscape:locked="true" />
  </sodipodi:namedview>
  <metadata
     id="metadata5">
    <rdf:RDF>
      <cc:Work
         rdf:about="">
        <dc:format>image/svg+xml</dc:format>
        <dc:type
           rdf:resource="http://purl.org/dc/dcmitype/StillImage" />
        <dc:title>Rocket</dc:title>
        <dc:date>2021/01/30</dc:date>
        <dc:creator>
          <cc:Agent>
            <dc:title>hentai-chan</dc:title>
          </cc:Agent>
        </dc:creator>
        <dc:rights>
          <cc:Agent>
            <dc:title>hentai-chan</dc:title>
          </cc:Agent>
        </dc:rights>
        <cc:license
           rdf:resource="" />
        <dc:publisher>
          <cc:Agent>
            <dc:title>Advanced Systems</dc:title>
          </cc:Agent>
        </dc:publisher>
        <dc:source>https://github.com/Advanced-Systems/vector-assets</dc:source>
      </cc:Work>
    </rdf:RDF>
  </metadata>
  <g
     inkscape:label="Layer 1"
     inkscape:groupmode="layer"
     id="layer1"
     transform="translate(-11.069521,93.501264)">
    <g
       id="g17485"
       transform="translate(1.2119583e-7,-232.16669)">
      <path
         id="path8370"
         style="fill:#42a048;fill-opacity:1;stroke:#000000;stroke-width:0.264583px;stroke-linecap:butt;stroke-linejoin:miter;stroke-opacity:1"
         d="m 1237.7663,819.42436 c -6.2009,-0.0138 -14.4622,2.82472 -21.4902,14.99753 -13.2293,22.91358 3.6602,32.66467 3.6602,32.66467 v -0.006 c 7.0043,-18.24686 17.0103,-33.37703 27.1555,-45.39618 l 0.01,-0.0156 c 0,0 -3.8671,-2.23266 -9.3384,-2.24483 z" />
      <path
         id="path7916"
         style="fill:#a5a3a2;fill-opacity:1;stroke:#000000;stroke-width:0.264583px;stroke-linecap:butt;stroke-linejoin:miter;stroke-opacity:1"
         d="m 1360.5124,858.93814 c 0,0 17.9875,-10.38485 17.9876,-36.84319 0,-26.4583 -17.9618,-16.0884 -17.9618,-16.0884 v -0.01 c 1.6946,6.79984 2.6505,15.00086 2.6507,24.8583 0,9.90718 -0.9659,19.25636 -2.6766,28.05093 z" />
      <path
         style="fill:none;stroke:#000000;stroke-width:0.264583px;stroke-linecap:butt;stroke-linejoin:miter;stroke-opacity:1"
         d="M 515.55573,363.80206 V 496.09373"
         id="path6842" />
      <path
         style="fill:none;stroke:#000000;stroke-width:0.264583px;stroke-linecap:butt;stroke-linejoin:miter;stroke-opacity:1"
         d="M 572.83971,396.87497 458.27176,463.02081"
         id="path6844" />
      <path
         id="path6904"
         style="fill:#cccccc;fill-opacity:1;stroke:#000000;stroke-width:0.264583px;stroke-linecap:butt;stroke-linejoin:miter;stroke-opacity:1"
         d="m 671.9109,424.91306 h -0.004 c -16.27741,-8.2605 -39.36063,4.36462 -41.17425,5.38366 l 113.96257,65.79648 c 0,0 24.40059,-14.08515 41.35147,-5.48286 h 0.004 C 685.44794,433.56112 671.9109,424.91359 671.9109,424.91359 Z"
         sodipodi:nodetypes="ccccccc" />
      <path
         id="path6908"
         style="fill:#e3e3e3;fill-opacity:1;stroke:#000000;stroke-width:0.264583px;stroke-linecap:butt;stroke-linejoin:miter;stroke-opacity:1"
         d="m 630.55888,430.39282 -0.003,0.003 c 0,0 -57.16749,33.00722 -57.28229,99.02031 11.1511,6.43763 44.93982,25.94443 114.13566,65.89466 0,-66.14583 57.28382,-99.21874 57.28382,-99.21874 l 0.003,-0.003 C 661.12813,448.16559 630.55629,430.39591 630.55886,430.39279 Z"
         sodipodi:nodetypes="ccccccc" />
      <path
         id="path6910"
         style="fill:#f0f0f0;fill-opacity:1;stroke:#000000;stroke-width:0.264583px;stroke-linecap:butt;stroke-linejoin:miter;stroke-opacity:1"
         d="m 573.27144,529.61469 c 0,5.00634 0.32816,9.44427 0.93482,13.37116 1.95564,12.65894 6.80527,20.00732 12.88449,23.96712 0,0 19.56634,11.49229 114.13514,66.09157 -7.96505,-5.18814 -13.8193,-16.19332 -13.8193,-37.33829 C 573.27234,529.61476 573.27138,529.61469 573.27144,529.61469 Z m 15.89516,38.5356 c 0.0106,0.006 0.0212,0.0116 0.032,0.0164 l 0.003,0.004 -0.0351,-0.0201 z"
         sodipodi:nodetypes="csccccccccc" />
      <path
         style="fill:#a5a3a2;fill-opacity:1;stroke:#000000;stroke-width:0.264584px;stroke-linecap:butt;stroke-linejoin:miter;stroke-opacity:1"
         d="m 893.55044,542.27933 c 0,0 91.73383,-52.95202 91.73383,52.95197 0,105.90396 -91.73383,158.85594 -91.73383,158.85594 0,0 -91.73375,52.95198 -91.73375,-52.95197 0,-105.90396 91.73375,-158.85593 91.73375,-158.85594 z"
         id="path7380" />
      <path
         style="fill:none;stroke:#000000;stroke-width:0.264583px;stroke-linecap:butt;stroke-linejoin:miter;stroke-opacity:1"
         d="M 821.09658,518.10342 668.29512,606.3743"
         id="path6918" />
      <path
         style="fill:none;stroke:#000000;stroke-width:0.264583px;stroke-linecap:butt;stroke-linejoin:miter;stroke-opacity:1"
         d="m 744.69585,474.04431 v 176.3891"
         id="path6920" />
      <path
         style="fill:#43a047;fill-opacity:0.992157;stroke:#000000;stroke-width:0.264583px;stroke-linecap:butt;stroke-linejoin:miter;stroke-opacity:1"
         d="m 1084.3941,670.14537 c 0,0 76.4228,-44.11687 76.4228,44.11684 0,88.2337 -76.4228,132.35055 -76.4228,132.35055 0,0 -76.4227,44.11685 -76.4227,-44.11685 0,-88.23369 76.4227,-132.35054 76.4227,-132.35054 z"
         id="path6940" />
      <path
         id="path6957"
         style="fill:#f0f0f0;fill-opacity:1;stroke:#000000;stroke-width:0.264583px;stroke-linecap:butt;stroke-linejoin:miter;stroke-opacity:1"
         d="m 668.27288,606.36192 0.0217,0.0532 c 0.005,28.18752 7.81201,42.86068 18.43402,49.7799 l 2.76831,1.59835 c 0.0172,0.009 0.0344,0.0177 0.0517,0.0265 l -0.0103,-0.0249 92.59382,53.46236 c -10.62516,-6.92129 -18.434,-21.60074 -18.434,-49.80471 0,-0.005 0,-0.0106 0,-0.0161 v 0 L 668.2946,606.37475 Z m 116.62748,106.49375 0.0538,0.031 -0.003,-0.005 c -0.0172,-0.009 -0.0344,-0.0175 -0.0517,-0.0265 z" />
      <path
         style="fill:#a5a3a2;fill-opacity:1;stroke:#000000;stroke-width:0.264583px;stroke-linecap:butt;stroke-linejoin:miter;stroke-opacity:1"
         d="M 673.36467,567.95032 572.86605,529.1783 691.22851,566.52144 Z"
         id="path7079" />
      <path
         id="path7081"
         style="fill:#e3e3e3;fill-opacity:1;stroke:#000000;stroke-width:0.264583px;stroke-linecap:butt;stroke-linejoin:miter;stroke-opacity:1"
         d="m 572.86577,529.17852 95.40711,77.18393 c 0,-1.9e-4 0,-3.5e-4 0,-5.3e-4 0,-13.89891 1.89799,-26.7021 5.09323,-38.4116 h -0.002 z" />
      <g
         id="g7306"
         style="fill:#ebebeb;fill-opacity:1">
        <path
           id="path7118"
           style="fill:#ebebeb;fill-opacity:1;stroke:#000000;stroke-width:0.264583px;stroke-linecap:butt;stroke-linejoin:miter;stroke-opacity:1"
           d="m 572.86578,529.18008 99.2048,106.02142 -0.002,-0.0155 c -2.38955,-7.50168 -3.77211,-16.96064 -3.77393,-28.81167 z" />
      </g>
      <path
         id="path7199"
         style="fill:#e3e3e3;fill-opacity:1;stroke:#000000;stroke-width:0.264583px;stroke-linecap:butt;stroke-linejoin:miter;stroke-opacity:1"
         d="m 630.12897,429.94385 78.35291,74.87946 0.0145,-0.0124 c 18.41236,-20.53706 36.20037,-30.80895 36.20037,-30.80895 z"
         sodipodi:nodetypes="ccccc" />
      <path
         id="path7201"
         style="fill:#bebdbc;fill-opacity:1;stroke:#000000;stroke-width:0.264583px;stroke-linecap:butt;stroke-linejoin:miter;stroke-opacity:1"
         d="m 630.12897,429.94385 114.55794,44.05188 0.0465,-0.014 c 0.1951,-0.11234 17.84392,-10.24551 36.1492,-10.96729 l 0.005,-0.003 z"
         sodipodi:nodetypes="cccccc" />
      <path
         style="fill:#757575;fill-opacity:0.992157;stroke:#000000;stroke-width:0.264583px;stroke-linecap:butt;stroke-linejoin:miter;stroke-opacity:1"
         d="m 630.12896,429.94384 87.4204,89.25418 -9.0674,-14.37479 z"
         id="path7209"
         sodipodi:nodetypes="cccc" />
      <path
         style="fill:none;stroke:#000000;stroke-width:0.264584px;stroke-linecap:butt;stroke-linejoin:miter;stroke-opacity:1"
         d="M 821.09656,518.10341 668.29514,606.37432"
         id="path7230" />
      <path
         id="path6968"
         style="fill:#bebdbc;fill-opacity:1;stroke:#000000;stroke-width:0.264583px;stroke-linecap:butt;stroke-linejoin:miter;stroke-opacity:1"
         d="m 782.90617,462.97636 c -19.10569,0 -38.2111,11.02931 -38.2111,11.02931 l 95.42571,55.09639 c 0,0 32.54647,-18.78584 55.16044,-7.31687 h 0.006 l -95.42517,-55.09638 h -0.007 c -5.28799,-2.68187 -11.11819,-3.71245 -16.94937,-3.71245 z" />
      <path
         id="path6942"
         style="fill:#d6d6d6;fill-opacity:0.992157;stroke:#000000;stroke-width:0.264583px;stroke-linecap:butt;stroke-linejoin:miter;stroke-opacity:1"
         d="m 744.6956,474.00515 c 0,0 -0.086,0.0523 -0.093,0.0563 v -0.003 l -0.003,0.003 c -1.05532,0.61349 -76.3266,44.67683 -76.3266,132.2927 v 0.006 l 0.0217,0.0124 0.003,-0.003 v 0.003 l 95.40298,55.0845 v -0.006 c 0,-88.23369 76.42272,-132.35055 76.42272,-132.35055 z" />
      <path
         id="path7398"
         style="fill:#202021;fill-opacity:1;stroke:#000000;stroke-width:0.264583px;stroke-linecap:butt;stroke-linejoin:miter;stroke-opacity:1"
         d="m 840.12078,511.43181 c 0,2e-5 -39.07491,22.55879 -66.21973,67.67131 l 53.42773,30.84671 v 0.003 c 27.14488,-45.11357 66.22076,-67.67284 66.22076,-67.67287 z"
         sodipodi:nodetypes="cccccccc" />
      <path
         id="path7413"
         style="fill:#2a2b2c;fill-opacity:1;stroke:#000000;stroke-width:0.264583px;stroke-linecap:butt;stroke-linejoin:miter;stroke-opacity:1"
         d="m 748.46642,670.25207 0.0439,0.10647 -0.0791,-0.0455 c 0,0.0272 0,0.054 0,0.0811 0,33.84695 9.37083,51.46616 22.12165,59.77516 l 3.33365,1.92495 c 0.0201,0.0103 0.0403,0.0204 0.0605,0.0305 l -0.0413,-0.10075 50.03313,28.8866 c -12.75083,-8.309 -22.12166,-25.92821 -22.12166,-59.77517 0,-0.0271 0,-0.054 0,-0.0811 z m 78.80553,92.5835 0.063,0.0362 -0.003,-0.006 c -0.0201,-0.0103 -0.0403,-0.0201 -0.0605,-0.0305 z" />
      <path
         id="path7424"
         style="fill:#e3e3e3;fill-opacity:1;stroke:#000000;stroke-width:0.264583px;stroke-linecap:butt;stroke-linejoin:miter;stroke-opacity:1"
         d="m 885.98773,498.19386 c -22.93062,0 -45.86031,13.23469 -45.86592,13.23795 v 0 0 l 53.4293,30.84718 c 0,0 39.06387,-22.5462 66.20835,-8.78395 h 0.007 l -53.42982,-30.84772 h -0.008 c -6.34625,-3.21731 -13.34257,-4.45399 -20.34038,-4.45399 z" />
      <path
         id="path7436"
         style="fill:#e3e3e3;fill-opacity:1;stroke:#000000;stroke-width:0.264583px;stroke-linecap:butt;stroke-linejoin:miter;stroke-opacity:1"
         d="m 893.55046,559.94959 c 0,0 -0.086,0.0523 -0.093,0.0563 l -5e-4,-0.002 v 0.003 c -1.0553,0.61349 -76.3266,44.67683 -76.3266,132.2927 v 0.006 l 0.022,0.0124 v -0.003 0.003 l 95.403,55.0845 v -0.006 c 0,-88.2337 76.4227,-132.35056 76.4227,-132.35056 z" />
      <path
         id="path7438"
         style="fill:#e3e3e3;fill-opacity:1;stroke:#000000;stroke-width:0.264583px;stroke-linecap:butt;stroke-linejoin:miter;stroke-opacity:1"
         d="m 989.07156,614.98863 c 0,0 -0.086,0.0523 -0.093,0.0563 l -5e-4,-0.002 v 0.003 c -1.0553,0.61349 -76.32664,44.67683 -76.32664,132.2927 v 0.006 l 0.022,0.0124 v -0.003 0.003 l 95.40308,55.0845 v -0.006 c 0,-88.2337 76.4227,-132.35056 76.4227,-132.35056 z" />
      <path
         id="path7440"
         style="fill:#f0f0f0;fill-opacity:0.996078;stroke:#000000;stroke-width:0.264583px;stroke-linecap:butt;stroke-linejoin:miter;stroke-opacity:1"
         d="m 817.11859,692.30146 0.0217,0.0532 c 0.005,28.18752 7.812,42.86068 18.43402,49.7799 l 2.76831,1.59835 c 0.0172,0.009 0.0344,0.0177 0.0517,0.0263 l -0.0103,-0.0248 92.59382,53.46237 c -10.62516,-6.92129 -18.43399,-21.60075 -18.43399,-49.80472 0,-0.005 0,-0.0107 0,-0.016 v -5.3e-4 l -95.40348,-55.06174 z m 116.62748,106.49375 0.0538,0.031 -0.002,-0.005 c -0.0172,-0.009 -0.0344,-0.0176 -0.0517,-0.0264 z" />
      <path
         id="path7442"
         style="fill:#f0f0f0;fill-opacity:0.996078;stroke:#000000;stroke-width:0.264583px;stroke-linecap:butt;stroke-linejoin:miter;stroke-opacity:1"
         d="m 912.57384,747.38976 0.0217,0.0532 c 0.005,28.18752 7.812,42.86068 18.43402,49.7799 l 2.76831,1.59835 c 0.0172,0.009 0.0344,0.0177 0.0517,0.0263 l -0.0103,-0.0248 92.59383,53.46237 c -10.6252,-6.92129 -18.434,-21.60075 -18.434,-49.80472 0,-0.005 0,-0.0107 0,-0.016 v -5.3e-4 l -95.40348,-55.06174 z m 116.62746,106.49375 0.054,0.031 v -0.005 c -0.017,-0.009 -0.034,-0.0176 -0.052,-0.0264 z" />
      <path
         id="path7444"
         style="fill:#bebdbc;fill-opacity:1;stroke:#000000;stroke-width:0.264583px;stroke-linecap:butt;stroke-linejoin:miter;stroke-opacity:1"
         d="m 931.76762,548.91961 c -19.10569,0 -38.2111,11.02931 -38.2111,11.02931 l 95.42571,55.09638 c 0,0 32.54647,-18.78584 55.16047,-7.31686 l 0.01,-10e-4 -95.42519,-55.09639 -0.007,0.001 c -5.28799,-2.68187 -11.11819,-3.71245 -16.94937,-3.71245 z" />
      <path
         id="path7446"
         style="fill:#bebdbc;fill-opacity:1;stroke:#000000;stroke-width:0.264583px;stroke-linecap:butt;stroke-linejoin:miter;stroke-opacity:1"
         d="m 1027.1828,604.017 c -19.1057,0 -38.21109,11.02931 -38.21109,11.02931 l 95.42569,55.09638 c 0,0 32.5465,-18.78584 55.1605,-7.31686 l 0.01,-10e-4 -95.4252,-55.09639 -0.01,10e-4 c -5.288,-2.68187 -11.1182,-3.71245 -16.9494,-3.71245 z" />
      <path
         id="path7467"
         style="fill:#d7d7d7;fill-opacity:0.992157;stroke:#000000;stroke-width:0.264583px;stroke-linecap:butt;stroke-linejoin:miter;stroke-opacity:1"
         d="m 1130.225,688.29903 c -18.875,12.75361 -79.9809,60.18136 -83.9323,145.19063 l 53.437,30.86685 c 3.929,-81.96046 62.7471,-130.36838 83.9608,-145.23611 z m 61.0268,25.86974 c -0.051,0.0296 -0.7444,0.43255 -2.0221,1.24283 l 0.06,-0.0346 c 1.2431,-0.78513 1.9648,-1.20663 1.9648,-1.20663 z" />
      <path
         id="path7469"
         style="fill:#e3e3e3;fill-opacity:1;stroke:#000000;stroke-width:0.264583px;stroke-linecap:butt;stroke-linejoin:miter;stroke-opacity:1"
         d="m 998.21035,814.37195 c -1.99319,3.30031 -4.69863,5.09688 -5.29477,5.46788 1.44976,28.36185 10.27142,43.70676 21.91082,51.29144 l 3.3336,1.92495 c 0.02,0.0103 0.04,0.0204 0.061,0.0305 l -0.041,-0.10078 50.0336,28.8866 c -12.7509,-8.309 -22.1222,-25.92818 -22.1222,-59.77514 0,-0.0272 0,-0.054 0,-0.0811 z m 73.33555,89.42554 0.063,0.0362 v -0.006 c -0.02,-0.0103 -0.04,-0.0201 -0.06,-0.0305 z"
         sodipodi:nodetypes="cccccccsccccccc" />
      <path
         id="path7471"
         style="fill:#e3e3e3;fill-opacity:1;stroke:#000000;stroke-width:0.264583px;stroke-linecap:butt;stroke-linejoin:miter;stroke-opacity:1"
         d="m 1046.0905,842.17872 0.044,0.10647 -0.079,-0.0455 c 0,0.0272 -5e-4,0.054 -5e-4,0.0811 0,33.84695 9.3707,51.46616 22.1216,59.77516 l 3.3336,1.92495 c 0.02,0.0103 0.04,0.0203 0.061,0.0305 l -0.041,-0.10075 50.0332,28.8866 c -12.7509,-8.309 -22.1217,-25.92822 -22.1217,-59.77517 0,-0.0272 5e-4,-0.054 5e-4,-0.0811 z m 78.8055,92.5835 0.063,0.0362 v -0.006 c -0.02,-0.0102 -0.04,-0.0202 -0.06,-0.0305 z" />
      <path
         id="path7473"
         style="fill:#bebdbc;fill-opacity:1;stroke:#000000;stroke-width:0.264583px;stroke-linecap:butt;stroke-linejoin:miter;stroke-opacity:1"
         d="m 1130.2612,639.23693 c -14.9004,0 -29.7933,5.58686 -38.4034,9.50174 l 53.4717,30.83068 c 12.6663,-5.75377 38.8604,-15.09086 58.7029,-5.03071 h 0.01 l -53.4298,-30.84722 h -0.01 c -6.3462,-3.21733 -13.3426,-4.45399 -20.3404,-4.45399 z"
         sodipodi:nodetypes="sccccccss" />
      <path
         id="path7475"
         style="fill:#bebdbc;fill-opacity:1;stroke:#000000;stroke-width:0.264583px;stroke-linecap:butt;stroke-linejoin:miter;stroke-opacity:1"
         d="m 1183.6869,670.08774 c -14.8751,0 -29.7417,5.5672 -38.3584,9.48108 l 53.0267,30.57384 0.4455,0.25683 c 0,0 0.023,-0.32787 -10e-5,0 12.6835,-5.75542 38.8387,-15.05809 58.6574,-5.01001 h 0.01 l -53.4298,-30.84722 h -0.01 c -6.3462,-3.2173 -13.3426,-4.45399 -20.3404,-4.45399 z m 7.5995,44.06037 c -2e-4,1.3e-4 -0.037,0.0225 -0.04,0.0238 v 0.003 c 0,0 0.039,-0.0214 0.041,-0.0228 z"
         sodipodi:nodetypes="sccccccccssccccc" />
      <path
         id="path7457"
         style="fill:#a5a3a2;fill-opacity:1;stroke:#000000;stroke-width:0.264583px;stroke-linecap:butt;stroke-linejoin:miter;stroke-opacity:1"
         d="m 1237.113,700.93858 c -14.8484,0 -29.6884,5.54759 -38.3123,9.46041 -0.1361,1.93334 -1.072,8.85936 -7.5546,12.60232 -6.4851,3.74435 -7.4196,-2.10662 -7.5551,-3.88038 -21.9438,15.37734 -84.1788,66.67608 -84.1788,153.91203 0,87.23624 62.2357,66.686 84.1793,56.72989 0.136,-1.93267 1.0716,-8.85968 7.5546,-12.60287 6.4817,-3.74221 7.4187,2.10003 7.5551,3.87728 21.1733,-14.83449 79.9411,-63.16566 83.9587,-145.03867 -0.021,0.0122 -7.4358,4.1828 -7.4358,-4.46019 0,-8.64158 7.4155,-12.9368 7.4394,-12.95064 -2.3623,-45.84893 -24.0045,-57.64918 -45.6505,-57.64918 z m -43.9378,12.19512 c -1.2184,0.63778 -1.9291,1.04336 -1.9291,1.04336 0,0 -0.7139,0.41661 -1.9394,1.19009 z" />
      <path
         id="path7465"
         style="fill:#d7d7d7;fill-opacity:0.992157;stroke:#000000;stroke-width:0.264583px;stroke-linecap:butt;stroke-linejoin:miter;stroke-opacity:1"
         d="m 1076.7585,657.47611 c -21.2713,14.9243 -79.95023,63.305 -83.88737,145.15599 l 53.42927,30.86219 c 3.9332,-81.90592 62.6818,-130.30046 83.9241,-145.19629 z"
         sodipodi:nodetypes="ccccc" />
      <path
         id="path7597"
         style="fill:#8f8f8f;fill-opacity:1;stroke:#000000;stroke-width:0.264583px;stroke-linecap:butt;stroke-linejoin:miter;stroke-opacity:1"
         d="m 1091.8537,648.73825 v 0.007 c -0.1577,2.04557 -1.1587,8.82467 -7.5484,12.51394 l 106.9408,61.74198 c 6.4817,-3.7424 7.4183,-10.66732 7.5546,-12.60182 z m 106.947,61.66135 c -10e-5,-5e-5 0,0 0,0 z"
         sodipodi:nodetypes="cccccccc" />
      <path
         id="path7603"
         style="fill:#767676;fill-opacity:1;stroke:#000000;stroke-width:0.264583px;stroke-linecap:butt;stroke-linejoin:miter;stroke-opacity:1"
         d="m 1076.7585,657.47611 0.01,0.003 z m 7.6357,3.73155 -0.089,0.0517 -0.5229,0.27596 99.9215,57.7518 0.013,0.13149 -0.013,-0.13176 c 0.1713,1.84939 1.1479,6.86186 6.7107,4.15891 l 0.8305,-0.43821 -0.1726,-0.093 0.1757,0.0868 z"
         sodipodi:nodetypes="cccccccccccccc" />
      <path
         id="path7635"
         style="fill:#767676;fill-opacity:1;stroke:#000000;stroke-width:0.264583px;stroke-linecap:butt;stroke-linejoin:miter;stroke-opacity:1"
         d="m 1103.4494,863.139 c -1.8598,-0.0205 -3.7197,1.0537 -3.7197,1.0537 v 0.16381 l 7.4389,4.29482 c 0,-4.37695 -1.8594,-5.49185 -3.7192,-5.51233 z"
         sodipodi:nodetypes="scccs" />
      <path
         id="path7664"
         style="fill:#8f8f8f;fill-opacity:1;stroke:#000000;stroke-width:0.264583px;stroke-linecap:butt;stroke-linejoin:miter;stroke-opacity:1"
         d="m 1000.3063,806.92692 c 0,8.0182 -6.43115,12.31527 -7.38918,12.91188 l -0.003,0.005 106.81518,61.82672 v 0 0 c 0,0 0,0 0,0 v 0 c 0.01,-0.007 7.4363,-4.29903 7.4363,-13.04673 v 0 l -7.4388,-4.29483 z" />
      <path
         style="fill:#43a047;fill-opacity:0.992157;stroke:#000000;stroke-width:0.264583px;stroke-linecap:butt;stroke-linejoin:miter;stroke-opacity:1"
         d="m 1282.7599,775.99856 c 0,0 -7.436,4.19558 -7.4358,-4.46018 z"
         id="path7766" />
      <path
         id="path7809"
         style="fill:#c1cc31;fill-opacity:1;stroke:#000000;stroke-width:0.264583px;stroke-linecap:butt;stroke-linejoin:miter;stroke-opacity:1"
         d="m 1194.7606,915.93888 c -0.9384,0.0417 -2.093,0.40042 -3.5145,1.2211 l 0.4578,-0.22013 7.0937,4.09535 c -0.1013,-1.36588 -0.6766,-5.2456 -4.037,-5.09632 z"
         sodipodi:nodetypes="scccsccc" />
      <path
         style="fill:#a5a3a2;fill-opacity:1;stroke:#000000;stroke-width:0.264583px;stroke-linecap:butt;stroke-linejoin:miter;stroke-opacity:1"
         d="m 1286.7662,786.88558 c 0,0 76.4228,-44.11687 76.4228,44.11685 0,88.23371 -76.4228,132.35057 -76.4228,132.35057 0,0 -76.4228,44.1169 -76.4228,-44.11686 0,-88.2337 76.4228,-132.35056 76.4228,-132.35056 z"
         id="path7483" />
      <path
         id="path7818"
         style="fill:#ab47bc;fill-opacity:0.992157;stroke:#000000;stroke-width:0.264583px;stroke-linecap:butt;stroke-linejoin:miter;stroke-opacity:1"
         d="m 1191.3395,731.78977 c 0,0 -0.086,0.0523 -0.093,0.0563 l -5e-4,-0.002 v 0.003 c -1.0553,0.61349 -76.3267,44.67683 -76.3267,132.2927 v 0.006 l 0.022,0.0124 v -0.003 0.003 l 95.4031,55.0845 v -0.006 c 0,-88.2337 76.4227,-132.35056 76.4227,-132.35056 z" />
      <path
         id="path7826"
         style="fill:#202021;fill-opacity:1;stroke:#000000;stroke-width:0.264583px;stroke-linecap:butt;stroke-linejoin:miter;stroke-opacity:1"
         d="m 1229.5506,720.76046 c -19.1057,0 -38.2111,11.02931 -38.2111,11.02931 l 95.4257,55.09638 c 0,0 32.5465,-18.78584 55.1605,-7.31686 l 0.01,-10e-4 -95.4252,-55.09639 -0.01,10e-4 c -5.288,-2.68187 -11.1182,-3.71245 -16.9494,-3.71245 z" />
      <path
         id="path7820"
         style="fill:#e3e3e3;fill-opacity:1;stroke:#000000;stroke-width:0.264583px;stroke-linecap:butt;stroke-linejoin:miter;stroke-opacity:1"
         d="m 1114.9193,864.10497 0.022,0.0532 c 0.01,28.18752 7.812,42.86068 18.434,49.7799 l 2.7683,1.59835 c 0.017,0.009 0.034,0.0177 0.052,0.0263 l -0.01,-0.0248 92.5938,53.46237 c -10.6252,-6.92129 -18.434,-21.60075 -18.434,-49.80472 0,-0.005 0,-0.0107 0,-0.016 v -5.3e-4 L 1114.942,864.1173 Z m 116.6274,106.49375 0.054,0.031 v -0.005 c -0.017,-0.009 -0.034,-0.0176 -0.052,-0.0264 z" />
      <path
         style="fill:none;stroke:#3d48ac;stroke-width:0.264583px;stroke-linecap:butt;stroke-linejoin:miter;stroke-opacity:1"
         d="m 1162.7094,891.79456 47.635,27.44811"
         id="path7856" />
      <path
         id="path1496"
         style="fill:#e3e3e3;fill-opacity:1;stroke:#000000;stroke-width:0.264583px;stroke-linecap:butt;stroke-linejoin:miter;stroke-opacity:1"
         d="m 1191.3396,731.78992 c 0,0 -0.086,0.0523 -0.093,0.0563 v 0 c -0.6863,0.39899 -32.7612,19.17594 -55.1083,56.35675 l 80.1383,46.21786 15.3221,8.84648 c 10.5769,-17.57979 23.3273,-31.04682 33.9054,-40.40476 -0.4918,0.43503 -0.9865,0.8758 -1.4873,1.32858 l -0.01,0.005 z m -55.2224,56.44824 -0.012,0.0206 c 0.016,-0.0276 0.016,-0.0276 0.012,-0.0206 z"
         sodipodi:nodetypes="ccccccccccccscs" />
      <path
         id="path1491"
         style="fill:#202021;fill-opacity:1;stroke:#000000;stroke-width:0.264583px;stroke-linecap:butt;stroke-linejoin:miter;stroke-opacity:1"
         d="m 1136.1378,788.20406 c -12.015,19.99048 -21.2183,45.30018 -21.2183,75.93591 v 0.006 l 0.022,0.0124 88.6731,51.19894 6.9856,-4.86069 c 1.5566,-26.75162 10.1281,-49.16077 20.9982,-67.22795 l -15.322,-8.84647 z" />
      <path
         id="path7866"
         style="fill:#a5a3a2;fill-opacity:1;stroke:#000000;stroke-width:0.264583px;stroke-linecap:butt;stroke-linejoin:miter;stroke-opacity:1"
         d="m 1213.02,891.17658 c 0,0 -17.9876,10.38489 -17.9876,36.84322 0,26.45831 17.9617,16.08842 17.9617,16.08842 v -0.0135 c -1.6946,-6.79974 -2.6505,-15.00087 -2.6505,-24.85842 0,-9.90703 0.9658,-19.25635 2.6764,-28.05099 z" />
      <path
         id="path7871"
         style="fill:#f0eff0;fill-opacity:1;stroke:#000000;stroke-width:0.264583px;stroke-linecap:butt;stroke-linejoin:miter;stroke-opacity:1"
         d="m 1114.9412,864.15807 80.0912,63.86173 c 0,-26.45833 17.9876,-36.84322 17.9876,-36.84322 z" />
      <path
         id="path7884"
         style="fill:#e3e3e3;fill-opacity:1;stroke:#000000;stroke-width:0.264583px;stroke-linecap:butt;stroke-linejoin:miter;stroke-opacity:1"
         d="m 1114.9412,864.15807 83.4791,78.39728 v -0.007 c -2.0004,-2.67825 -3.3864,-7.18217 -3.3864,-14.5283 z" />
      <path
         id="path7922"
         style="fill:#8f8f8f;fill-opacity:1;stroke:#000000;stroke-width:0.264583px;stroke-linecap:butt;stroke-linejoin:miter;stroke-opacity:1"
         d="m 1359.226,801.58668 c 0.459,1.39102 0.8822,2.85157 1.2682,4.38319 l 0.069,0.0222 v 0 c 0.132,-0.0754 3.5151,-1.98594 7.3262,-1.98697 v 0 z"
         sodipodi:nodetypes="ccccccc" />
      <path
         id="path7940"
         style="fill:#a5a3a2;fill-opacity:1;stroke:#000000;stroke-width:0.264583px;stroke-linecap:butt;stroke-linejoin:miter;stroke-opacity:1"
         d="m 1309.6797,945.90034 -0.01,0.005 c -12.8306,11.6279 -22.9046,17.44749 -22.9046,17.44749 0,0 -10.0735,5.81128 -22.9035,8.99687 l -0.01,0.005 c 0,0 0,21.91853 22.9128,8.68939 22.9137,-13.22916 22.9134,-35.14412 22.9134,-35.14412 z" />
      <path
         id="path7949"
         style="fill:#ab48bb;fill-opacity:1;stroke:#000000;stroke-width:0.264583px;stroke-linecap:butt;stroke-linejoin:miter;stroke-opacity:1"
         d="m 1286.7571,963.35821 c 0,0.003 -0.3194,0.17709 -0.6419,0.35399 0.3837,-0.20921 0.6347,-0.34986 0.6419,-0.35399 z m -1.7043,0.91983 c -0.045,0.0233 -0.073,0.0394 -0.1199,0.0636 0.049,-0.0254 0.073,-0.039 0.1199,-0.0636 z m -0.3912,0.20206 c -0.2787,0.14327 -0.5868,0.29879 -0.9157,0.46302 0.3321,-0.16568 0.6348,-0.31869 0.9157,-0.46302 z m -1.4382,0.72141 c -0.3417,0.16788 -0.7121,0.34597 -1.0971,0.52917 0.3869,-0.18397 0.7539,-0.36068 1.0971,-0.52917 z m -1.5828,0.76015 c -0.5257,0.24651 -1.0934,0.50583 -1.6862,0.77102 0.5953,-0.26609 1.1587,-0.52377 1.6862,-0.77102 z m -4.885,2.13836 c -0.023,0.01 -0.046,0.019 -0.069,0.0285 0.023,-0.01 0.046,-0.019 0.069,-0.0285 z m -3.8845,1.49397 c -0.027,0.01 -0.054,0.0193 -0.081,0.029 0.027,-0.01 0.054,-0.0193 0.081,-0.029 z m -3.0929,1.05937 c -0.071,0.023 -0.1409,0.0459 -0.2118,0.0687 0.071,-0.0228 0.1411,-0.0458 0.2118,-0.0687 z m -4.5712,1.3498 c -0.097,0.0259 -0.1948,0.0519 -0.2925,0.0775 0.098,-0.0257 0.1951,-0.0516 0.2925,-0.0775 z m -1.3442,0.34673 c -1.822,0.45241 -3.6996,0.84879 -5.612,1.171 l 8.9622,8.74778 c -3.3579,-3.82212 -3.3595,-9.91359 -3.3595,-9.91359 z m 4.3703,10.91459 0.011,0.0114 v 0 c 0,-0.003 -0.01,-0.007 -0.012,-0.0109 z"
         sodipodi:nodetypes="cccccccccccccccccccccccccccccccccccc" />
      <path
         id="path7984"
         style="fill:#a5a3a2;fill-opacity:1;stroke:#000000;stroke-width:0.264583px;stroke-linecap:butt;stroke-linejoin:miter;stroke-opacity:1"
         d="m 1299.3961,764.95017 c -3.148,-0.0262 -7.2594,1.14361 -12.6298,4.24418 -22.9135,13.22917 -22.7572,35.00199 -22.7572,35.00199 l 0.01,-0.005 c 12.7568,-11.5348 22.7495,-17.30592 22.7495,-17.30592 0,0 10.0753,-5.81199 22.9071,-8.99736 l 0.01,-0.003 c 0,0 0,-12.84922 -10.2826,-12.93513 z" />
      <path
         id="path7989"
         style="fill:#f0f0f0;fill-opacity:0.996078;stroke:#000000;stroke-width:0.264583px;stroke-linecap:butt;stroke-linejoin:miter;stroke-opacity:1"
         d="m 1191.3396,731.78992 72.6695,72.40642 c 0,0 -0.1563,-21.77282 22.7572,-35.00199 z" />
      <path
         id="path7996"
         style="fill:#e3e3e3;fill-opacity:1;stroke:#000000;stroke-width:0.264583px;stroke-linecap:butt;stroke-linejoin:miter;stroke-opacity:1"
         d="m 1191.3396,731.78992 95.4267,37.40443 c 5.3704,-3.10057 9.4818,-4.27048 12.6298,-4.24418 0.5812,0.005 1.128,0.0521 1.6454,0.13383 v 0 z" />
      <path
         style="fill:none;stroke:#000000;stroke-width:0.264583px;stroke-linecap:butt;stroke-linejoin:miter;stroke-opacity:1"
         d="M 1195.0324,822.15674 1378.5,928.0818"
         id="path8017" />
      <path
         style="fill:#3949ab;fill-opacity:0.992157;stroke:#000000;stroke-width:0.264583px;stroke-linecap:butt;stroke-linejoin:miter;stroke-opacity:1"
         d="m 1286.7663,928.12999 c 0,0 11.3508,-6.56756 11.3508,6.56755 0,13.1351 -11.3508,19.70267 -11.3508,19.70267 0,0 -11.3511,6.56755 -11.3511,-6.56757 0,-13.1351 11.3511,-19.70265 11.3511,-19.70265 z"
         id="path8029" />
      <path
         style="fill:#3949ab;fill-opacity:0.992157;stroke:#000000;stroke-width:0.264583px;stroke-linecap:butt;stroke-linejoin:miter;stroke-opacity:1"
         d="m 1286.7664,795.83835 c 0,0 11.3508,-6.56756 11.3508,6.56755 0,13.1351 -11.3508,19.70267 -11.3508,19.70267 0,0 -11.3511,6.56755 -11.3511,-6.56757 0,-13.1351 11.3511,-19.70265 11.3511,-19.70265 z"
         id="path8031" />
      <path
         style="fill:#3949ab;fill-opacity:0.992157;stroke:#000000;stroke-width:0.264583px;stroke-linecap:butt;stroke-linejoin:miter;stroke-opacity:1"
         d="m 1344.0503,828.84943 c 0,0 11.3508,-6.56756 11.3508,6.56755 0,13.1351 -11.3508,19.70267 -11.3508,19.70267 0,0 -11.3511,6.56755 -11.3511,-6.56757 0,-13.1351 11.3511,-19.70265 11.3511,-19.70265 z"
         id="path8033" />
      <path
         style="fill:none;stroke:#3849ab;stroke-width:0.264583px;stroke-linecap:butt;stroke-linejoin:miter;stroke-opacity:0.992157"
         d="m 1231.5969,843.26723 13.2292,-22.91355"
         id="path8053"
         sodipodi:nodetypes="cc" />
      <path
         style="fill:none;stroke:#3849ab;stroke-width:0.264583px;stroke-linecap:butt;stroke-linejoin:miter;stroke-opacity:0.992157"
         d="m 1218.3677,866.18078 13.2292,-22.91355"
         id="path8070"
         sodipodi:nodetypes="cc" />
      <path
         style="fill:none;stroke:#3849ab;stroke-width:0.264583px;stroke-linecap:butt;stroke-linejoin:miter;stroke-opacity:0.992157"
         d="m 1341.9365,906.97187 -13.2292,22.91355"
         id="path8088"
         sodipodi:nodetypes="cc" />
      <path
         style="fill:none;stroke:#3849ab;stroke-width:0.264583px;stroke-linecap:butt;stroke-linejoin:miter;stroke-opacity:0.992157"
         d="m 1355.1657,884.05832 -13.2292,22.91355"
         id="path8090"
         sodipodi:nodetypes="cc" />
      <path
         style="fill:none;stroke:#3849ab;stroke-width:0.264583px;stroke-linecap:butt;stroke-linejoin:miter;stroke-opacity:0.992157"
         d="m 1231.5467,970.59872 -15.2317,-8.74313"
         id="path8135"
         sodipodi:nodetypes="cc" />
      <path
         style="fill:none;stroke:#3849ab;stroke-width:0.264583px;stroke-linecap:butt;stroke-linejoin:miter;stroke-opacity:0.992157"
         d="m 1326.7047,770.82667 15.2315,8.74307"
         id="path8184"
         sodipodi:nodetypes="cc" />
      <path
         style="fill:none;stroke:#3849ab;stroke-width:0.264583px;stroke-linecap:butt;stroke-linejoin:miter;stroke-opacity:0.992157"
         d="m 1231.5969,843.26725 -15.3209,-8.84573"
         id="path7842"
         sodipodi:nodetypes="cc" />
      <path
         style="fill:none;stroke:#3849ab;stroke-width:0.264583px;stroke-linecap:butt;stroke-linejoin:miter;stroke-opacity:0.992157"
         d="m 1341.934,779.56846 8.8457,-15.32099"
         id="path7842-5"
         sodipodi:nodetypes="cc" />
      <path
         id="path8414"
         style="fill:#a5a3a2;fill-opacity:1;stroke:#000000;stroke-width:0.264583px;stroke-linecap:butt;stroke-linejoin:miter;stroke-opacity:1"
         d="m 1353.5969,883.15277 -0.01,0.0124 c -7.0037,18.24225 -17.0072,33.36927 -27.1503,45.38635 l -0.011,0.0175 c 0,0 17.6004,10.16187 30.8296,-12.75168 13.2292,-22.91352 -3.6607,-32.66466 -3.6607,-32.66466 z" />
      <path
         id="path8349"
         style="fill:#a5a3a2;fill-opacity:1;stroke:#000000;stroke-width:0.264583px;stroke-linecap:butt;stroke-linejoin:miter;stroke-opacity:1"
         d="m 1237.7663,819.42436 c -6.2009,-0.0138 -14.4622,2.82472 -21.4902,14.99753 -13.2293,22.91358 3.6602,32.66467 3.6602,32.66467 v -0.006 c 7.0043,-18.24686 17.0103,-33.37703 27.1555,-45.39618 l 0.01,-0.0156 c 0,0 -3.8671,-2.23266 -9.3384,-2.24483 z" />
      <path
         id="path8384"
         style="fill:#e3e3e3;fill-opacity:1;stroke:#000000;stroke-width:0.264583px;stroke-linecap:butt;stroke-linejoin:miter;stroke-opacity:1"
         d="m 1136.1368,788.20353 78.9378,74.2978 c -3.6982,-4.93938 -6.9089,-14.03199 1.2015,-28.07944 z" />
      <path
         id="path8386"
         style="fill:#f0eff0;fill-opacity:1;stroke:#000000;stroke-width:0.264583px;stroke-linecap:butt;stroke-linejoin:miter;stroke-opacity:1"
         d="m 1136.1368,788.20353 80.1393,46.21836 c 7.028,-12.17281 15.2893,-15.01132 21.4902,-14.99753 0.8062,0.003 1.5722,0.0561 2.3016,0.14004 z" />
      <path
         id="path8399"
         style="fill:#8f8f8f;fill-opacity:1;stroke:#000000;stroke-width:0.264583px;stroke-linecap:butt;stroke-linejoin:miter;stroke-opacity:1"
         d="m 1133.3752,913.93796 84.8899,68.4072 c -5.5922,-6.41916 -3.5288,-15.23275 -1.5942,-20.28557 z" />
      <path
         id="path8409"
         style="fill:#f0eff0;fill-opacity:1;stroke:#000000;stroke-width:0.264583px;stroke-linecap:butt;stroke-linejoin:miter;stroke-opacity:1"
         d="m 1246.5104,724.47202 77.2971,51.37258 v 0 c 0.088,-0.15126 8.1086,-13.93981 19.4675,-13.7764 0.8051,0.0116 1.6272,0.0955 2.464,0.25733 z" />
      <path
         id="path8404"
         style="fill:#a5a3a2;fill-opacity:1;stroke:#000000;stroke-width:0.264583px;stroke-linecap:butt;stroke-linejoin:miter;stroke-opacity:1"
         d="m 1343.2761,762.06767 c -11.4216,-0.16431 -19.4836,13.80275 -19.4836,13.80275 v 0.003 c 11.7196,-0.27353 23.5872,3.43392 31.1883,16.22227 v 0 c 0,0 11.0266,-19.10435 -4.2049,-27.8474 -2.6179,-1.5027 -5.1329,-2.14561 -7.5034,-2.17969 z" />
      <path
         id="path8394"
         style="fill:#a5a3a2;fill-opacity:1;stroke:#000000;stroke-width:0.264583px;stroke-linecap:butt;stroke-linejoin:miter;stroke-opacity:1"
         d="m 1218.5028,958.06655 c -0.1393,0.24265 -10.9358,19.16604 4.1982,27.85305 15.2316,8.74313 26.9472,-11.54914 26.9472,-11.54914 v -0.003 c -11.7135,0.25262 -23.5634,-3.48475 -31.1428,-16.30236 z" />
      <path
         style="fill:#3949ab;fill-opacity:0.992157;stroke:#000000;stroke-width:0.264583px;stroke-linecap:butt;stroke-linejoin:miter;stroke-opacity:1"
         d="m 1328.1216,885.86063 c 0,0 11.3508,-6.56756 11.3508,6.56755 0,13.1351 -11.3508,19.70267 -11.3508,19.70267 0,0 -11.3511,6.56755 -11.3511,-6.56757 0,-13.1351 11.3511,-19.70265 11.3511,-19.70265 z"
         id="path8431" />
      <path
         style="fill:#3949ab;fill-opacity:0.992157;stroke:#000000;stroke-width:0.264583px;stroke-linecap:butt;stroke-linejoin:miter;stroke-opacity:1"
         d="m 1245.4112,838.10773 c 0,0 11.3508,-6.56756 11.3508,6.56755 0,13.1351 -11.3508,19.70267 -11.3508,19.70267 0,0 -11.3511,6.56755 -11.3511,-6.56757 0,-13.1351 11.3511,-19.70265 11.3511,-19.70265 z"
         id="path8435" />
      <path
         style="fill:#3949ab;fill-opacity:0.992157;stroke:#000000;stroke-width:0.264583px;stroke-linecap:butt;stroke-linejoin:miter;stroke-opacity:1"
         d="m 1229.4825,894.99521 c 0,0 11.3508,-6.56756 11.3508,6.56755 0,13.1351 -11.3508,19.70267 -11.3508,19.70267 0,0 -11.3511,6.56755 -11.3511,-6.56757 0,-13.1351 11.3511,-19.70265 11.3511,-19.70265 z"
         id="path8437" />
      <path
         style="fill:#3949ab;fill-opacity:0.992157;stroke:#000000;stroke-width:0.264583px;stroke-linecap:butt;stroke-linejoin:miter;stroke-opacity:1"
         d="m 1245.4085,933.61225 c 0,0 11.3508,-6.56756 11.3508,6.56755 0,13.1351 -11.3508,19.70267 -11.3508,19.70267 0,0 -11.3511,6.56755 -11.3511,-6.56757 0,-13.1351 11.3511,-19.70265 11.3511,-19.70265 z"
         id="path8439" />
      <path
         style="fill:#3949ab;fill-opacity:0.992157;stroke:#000000;stroke-width:0.264583px;stroke-linecap:butt;stroke-linejoin:miter;stroke-opacity:1"
         d="m 1328.1242,790.3561 c 0,0 11.3508,-6.56756 11.3508,6.56755 0,13.1351 -11.3508,19.70267 -11.3508,19.70267 0,0 -11.3511,6.56755 -11.3511,-6.56757 0,-13.1351 11.3511,-19.70265 11.3511,-19.70265 z"
         id="path8441" />
      <path
         style="fill:#767676;fill-opacity:1;stroke:#000000;stroke-width:0.264583px;stroke-linecap:butt;stroke-linejoin:miter;stroke-opacity:1"
         d="m 1332.5933,949.52005 c 0,0 15.7427,-9.1017 15.7427,9.1017 0,18.2035 -15.7427,27.3054 -15.7427,27.3054 0,0 -15.7427,9.1017 -15.7427,-9.1019 0,-18.2035 15.7427,-27.3052 15.7427,-27.3052 z"
         id="path8522" />
      <path
         id="path8524"
         style="fill:#d7d7d7;fill-opacity:1;stroke:#000000;stroke-width:0.264583px;stroke-linecap:butt;stroke-linejoin:miter;stroke-opacity:1"
         d="m 1286.7662,928.13005 c 0,0 -11.3512,6.5676 -11.3512,19.7027 l 41.4357,28.9796 v -5e-4 c 0.01,-18.1945 15.7427,-27.2919 15.7427,-27.2919 z" />
      <path
         id="path8526"
         style="fill:#e3e3e3;fill-opacity:1;stroke:#000000;stroke-width:0.264583px;stroke-linecap:butt;stroke-linejoin:miter;stroke-opacity:1"
         d="m 1275.415,947.83275 c 0,4.5493 1.3623,6.7343 3.1424,7.6481 h 5e-4 l 40.9763,30.688 c -1.5989,-1.6743 -2.6835,-4.5687 -2.6835,-9.3452 v -0.013 -5e-4 z m 45.793,39.5914 0.01,0.01 v 0 c 0,0 0,0 -0.01,0 z" />
      <path
         id="path8528"
         style="fill:#bebdbc;fill-opacity:1;stroke:#000000;stroke-width:0.264583px;stroke-linecap:butt;stroke-linejoin:miter;stroke-opacity:1"
         d="m 1292.4418,926.48835 c -2.8377,0 -5.6756,1.6417 -5.6756,1.6417 l 45.8272,21.3899 c 0,0 5.9285,-3.4261 10.5094,-1.867 l -48.1283,-20.605 v 5e-4 c -2e-4,0 -4e-4,10e-5 -5e-4,0 -0.7888,-0.404 -1.6588,-0.5601 -2.5296,-0.5601 z m 51.6026,21.5676 c 0,9e-4 0,0 0,0 h 10e-4 z" />
      <path
         style="fill:#767676;fill-opacity:1;stroke:#000000;stroke-width:0.264583px;stroke-linecap:butt;stroke-linejoin:miter;stroke-opacity:1"
         d="m 1291.1105,955.07774 c 0,0 15.7427,-9.1017 15.7427,9.1017 0,18.2035 -15.7427,27.3054 -15.7427,27.3054 0,0 -15.7427,9.10166 -15.7427,-9.1019 0,-18.2035 15.7427,-27.3052 15.7427,-27.3052 z"
         id="path8508" />
      <path
         id="path8510"
         style="fill:#d7d7d7;fill-opacity:1;stroke:#000000;stroke-width:0.264583px;stroke-linecap:butt;stroke-linejoin:miter;stroke-opacity:1"
         d="m 1245.2834,933.68774 c 0,0 -11.3512,6.5676 -11.3512,19.7027 l 41.4357,28.9796 v -5e-4 c 0.01,-18.1945 15.7427,-27.2919 15.7427,-27.2919 z" />
      <path
         id="path8512"
         style="fill:#e3e3e3;fill-opacity:1;stroke:#000000;stroke-width:0.264583px;stroke-linecap:butt;stroke-linejoin:miter;stroke-opacity:1"
         d="m 1233.9322,953.39044 c 0,4.5493 1.3623,6.7343 3.1424,7.6481 h 5e-4 l 40.9763,30.688 c -1.5989,-1.6743 -2.6835,-4.5687 -2.6835,-9.3452 v -0.013 -5e-4 z m 45.793,39.5914 0.01,0.01 v 0 c 0,0 0,0 -0.01,0 z" />
      <path
         id="path8514"
         style="fill:#bebdbc;fill-opacity:1;stroke:#000000;stroke-width:0.264583px;stroke-linecap:butt;stroke-linejoin:miter;stroke-opacity:1"
         d="m 1250.959,932.04604 c -2.8377,0 -5.6756,1.6417 -5.6756,1.6417 l 45.8272,21.3899 c 0,0 5.9285,-3.4261 10.5094,-1.867 l -48.1283,-20.605 v 5e-4 c -2e-4,0 -4e-4,10e-5 -5e-4,0 -0.7888,-0.404 -1.6588,-0.5601 -2.5296,-0.5601 z m 51.6026,21.5676 c 0,9e-4 0,0 0,0 h 10e-4 z" />
      <path
         style="fill:#767676;fill-opacity:1;stroke:#000000;stroke-width:0.264583px;stroke-linecap:butt;stroke-linejoin:miter;stroke-opacity:1"
         d="m 1275.3096,916.38521 c 0,0 15.7427,-9.1017 15.7427,9.1017 0,18.2035 -15.7427,27.3054 -15.7427,27.3054 0,0 -15.7427,9.1017 -15.7427,-9.1019 0,-18.2035 15.7427,-27.3052 15.7427,-27.3052 z"
         id="path8532" />
      <path
         id="path8534"
         style="fill:#d7d7d7;fill-opacity:1;stroke:#000000;stroke-width:0.264583px;stroke-linecap:butt;stroke-linejoin:miter;stroke-opacity:1"
         d="m 1229.4825,894.99521 c 0,0 -11.3512,6.5676 -11.3512,19.7027 l 41.4357,28.9796 v -5e-4 c 0.01,-18.1945 15.7427,-27.2919 15.7427,-27.2919 z" />
      <path
         id="path8536"
         style="fill:#e3e3e3;fill-opacity:1;stroke:#000000;stroke-width:0.264583px;stroke-linecap:butt;stroke-linejoin:miter;stroke-opacity:1"
         d="m 1218.1313,914.69791 c 0,4.5493 1.3623,6.7343 3.1424,7.6481 h 5e-4 l 40.9763,30.688 c -1.5989,-1.6743 -2.6835,-4.5687 -2.6835,-9.3452 v -0.013 -5e-4 z m 45.793,39.5914 0.01,0.01 v 0 c 0,0 0,0 -0.01,0 z" />
      <path
         id="path8538"
         style="fill:#bebdbc;fill-opacity:1;stroke:#000000;stroke-width:0.264583px;stroke-linecap:butt;stroke-linejoin:miter;stroke-opacity:1"
         d="m 1235.1581,893.35351 c -2.8377,0 -5.6756,1.6417 -5.6756,1.6417 l 45.8272,21.3899 c 0,0 5.9285,-3.4261 10.5094,-1.867 l -48.1283,-20.605 v 5e-4 c -2e-4,0 -4e-4,1e-4 -5e-4,0 -0.7888,-0.404 -1.6588,-0.5601 -2.5296,-0.5601 z m 51.6026,21.5676 c 0,9e-4 0,0 0,0 h 10e-4 z" />
      <path
         style="fill:#767676;fill-opacity:1;stroke:#000000;stroke-width:0.264583px;stroke-linecap:butt;stroke-linejoin:miter;stroke-opacity:1"
         d="m 1291.2383,859.49773 c 0,0 15.7427,-9.1017 15.7427,9.1017 0,18.2035 -15.7427,27.3054 -15.7427,27.3054 0,0 -15.7427,9.1017 -15.7427,-9.1019 0,-18.2035 15.7427,-27.3052 15.7427,-27.3052 z"
         id="path8542" />
      <path
         id="path8544"
         style="fill:#d7d7d7;fill-opacity:1;stroke:#000000;stroke-width:0.264583px;stroke-linecap:butt;stroke-linejoin:miter;stroke-opacity:1"
         d="m 1245.4112,838.10773 c 0,0 -11.3512,6.5676 -11.3512,19.7027 l 41.4357,28.9796 v -5e-4 c 0.01,-18.1945 15.7427,-27.2919 15.7427,-27.2919 z" />
      <path
         id="path8546"
         style="fill:#e3e3e3;fill-opacity:1;stroke:#000000;stroke-width:0.264583px;stroke-linecap:butt;stroke-linejoin:miter;stroke-opacity:1"
         d="m 1234.06,857.81043 c 0,4.5493 1.3623,6.7343 3.1424,7.6481 h 5e-4 l 40.9763,30.688 c -1.5989,-1.6743 -2.6835,-4.5687 -2.6835,-9.3452 v -0.013 -5e-4 z m 45.793,39.5914 0.01,0.01 v 0 c 0,0 0,0 -0.01,0 z" />
      <path
         id="path8548"
         style="fill:#bebdbc;fill-opacity:1;stroke:#000000;stroke-width:0.264583px;stroke-linecap:butt;stroke-linejoin:miter;stroke-opacity:1"
         d="m 1251.0868,836.46603 c -2.8377,0 -5.6756,1.6417 -5.6756,1.6417 l 45.8272,21.3899 c 0,0 5.9285,-3.4261 10.5094,-1.867 l -48.1283,-20.605 v 5e-4 c -2e-4,0 -4e-4,1e-4 -5e-4,0 -0.7888,-0.404 -1.6588,-0.5601 -2.5296,-0.5601 z m 51.6026,21.5676 c 0,9e-4 0,0 0,0 h 10e-4 z" />
      <path
         style="fill:#767676;fill-opacity:1;stroke:#000000;stroke-width:0.264583px;stroke-linecap:butt;stroke-linejoin:miter;stroke-opacity:1"
         d="m 1389.8775,850.22533 c 0,0 15.7427,-9.1017 15.7427,9.1017 0,18.2035 -15.7427,27.3054 -15.7427,27.3054 0,0 -15.7427,9.1017 -15.7427,-9.1019 0,-18.2035 15.7427,-27.3052 15.7427,-27.3052 z"
         id="path8562" />
      <path
         id="path8564"
         style="fill:#d7d7d7;fill-opacity:1;stroke:#000000;stroke-width:0.264583px;stroke-linecap:butt;stroke-linejoin:miter;stroke-opacity:1"
         d="m 1344.0504,828.83533 c 0,0 -11.3512,6.5676 -11.3512,19.7027 l 41.4357,28.9796 v -5e-4 c 0.01,-18.1945 15.7427,-27.2919 15.7427,-27.2919 z" />
      <path
         id="path8566"
         style="fill:#e3e3e3;fill-opacity:1;stroke:#000000;stroke-width:0.264583px;stroke-linecap:butt;stroke-linejoin:miter;stroke-opacity:1"
         d="m 1332.6992,848.53803 c 0,4.5493 1.3623,6.7343 3.1424,7.6481 h 5e-4 l 40.9763,30.688 c -1.5989,-1.6743 -2.6835,-4.5687 -2.6835,-9.3452 v -0.013 -5e-4 z m 45.793,39.5914 0.01,0.01 v 0 c 0,0 0,0 -0.01,0 z" />
      <path
         id="path8568"
         style="fill:#bebdbc;fill-opacity:1;stroke:#000000;stroke-width:0.264583px;stroke-linecap:butt;stroke-linejoin:miter;stroke-opacity:1"
         d="m 1349.726,827.19363 c -2.8377,0 -5.6756,1.6417 -5.6756,1.6417 l 45.8272,21.3899 c 0,0 5.9285,-3.4261 10.5094,-1.867 l -48.1283,-20.605 v 5e-4 c -2e-4,0 -4e-4,10e-5 -5e-4,0 -0.7888,-0.404 -1.6588,-0.5601 -2.5296,-0.5601 z m 51.6026,21.5676 c 0,9e-4 0,0 0,0 h 10e-4 z" />
      <path
         style="fill:#767676;fill-opacity:1;stroke:#000000;stroke-width:0.264583px;stroke-linecap:butt;stroke-linejoin:miter;stroke-opacity:1"
         d="m 1373.9507,811.74718 c 0,0 15.7427,-9.1017 15.7427,9.1017 0,18.2035 -15.7427,27.3054 -15.7427,27.3054 0,0 -15.7427,9.1017 -15.7427,-9.1019 0,-18.2035 15.7427,-27.3052 15.7427,-27.3052 z"
         id="path8572" />
      <path
         id="path8574"
         style="fill:#d7d7d7;fill-opacity:1;stroke:#000000;stroke-width:0.264583px;stroke-linecap:butt;stroke-linejoin:miter;stroke-opacity:1"
         d="m 1328.1236,790.35718 c 0,0 -11.3512,6.5676 -11.3512,19.7027 l 41.4357,28.9796 v -5e-4 c 0.01,-18.1945 15.7427,-27.2919 15.7427,-27.2919 z" />
      <path
         id="path8576"
         style="fill:#e3e3e3;fill-opacity:1;stroke:#000000;stroke-width:0.264583px;stroke-linecap:butt;stroke-linejoin:miter;stroke-opacity:1"
         d="m 1316.7724,810.05988 c 0,4.5493 1.3623,6.7343 3.1424,7.6481 h 5e-4 l 40.9763,30.688 c -1.5989,-1.6743 -2.6835,-4.5687 -2.6835,-9.3452 v -0.013 -5e-4 z m 45.793,39.5914 0.01,0.01 v 0 c 0,0 0,0 -0.01,0 z" />
      <path
         id="path8578"
         style="fill:#bebdbc;fill-opacity:1;stroke:#000000;stroke-width:0.264583px;stroke-linecap:butt;stroke-linejoin:miter;stroke-opacity:1"
         d="m 1333.7992,788.71548 c -2.8377,0 -5.6756,1.6417 -5.6756,1.6417 l 45.8272,21.3899 c 0,0 5.9285,-3.4261 10.5094,-1.867 l -48.1283,-20.605 v 5e-4 c -2e-4,0 -4e-4,10e-5 -5e-4,0 -0.7888,-0.404 -1.6588,-0.5601 -2.5296,-0.5601 z m 51.6026,21.5676 c 0,9e-4 0,0 0,0 h 10e-4 z" />
      <path
         style="fill:#767676;fill-opacity:1;stroke:#000000;stroke-width:0.264583px;stroke-linecap:butt;stroke-linejoin:miter;stroke-opacity:1"
         d="m 1332.5936,817.2283 c 0,0 15.7427,-9.1017 15.7427,9.1017 0,18.2035 -15.7427,27.3054 -15.7427,27.3054 0,0 -15.7427,9.1017 -15.7427,-9.1019 0,-18.2035 15.7427,-27.3052 15.7427,-27.3052 z"
         id="path8552" />
      <path
         id="path8554"
         style="fill:#d7d7d7;fill-opacity:1;stroke:#000000;stroke-width:0.264583px;stroke-linecap:butt;stroke-linejoin:miter;stroke-opacity:1"
         d="m 1286.7665,795.8383 c 0,0 -11.3512,6.5676 -11.3512,19.7027 l 41.4357,28.9796 v -5e-4 c 0.01,-18.1945 15.7427,-27.2919 15.7427,-27.2919 z" />
      <path
         id="path8556"
         style="fill:#e3e3e3;fill-opacity:1;stroke:#000000;stroke-width:0.264583px;stroke-linecap:butt;stroke-linejoin:miter;stroke-opacity:1"
         d="m 1275.4153,815.541 c 0,4.5493 1.3623,6.7343 3.1424,7.6481 h 5e-4 l 40.9763,30.688 c -1.5989,-1.6743 -2.6835,-4.5687 -2.6835,-9.3452 v -0.013 -5e-4 z m 45.793,39.5914 0.01,0.01 v 0 c 0,0 0,0 -0.01,0 z" />
      <path
         id="path8558"
         style="fill:#bebdbc;fill-opacity:1;stroke:#000000;stroke-width:0.264583px;stroke-linecap:butt;stroke-linejoin:miter;stroke-opacity:1"
         d="m 1292.4421,794.1966 c -2.8377,0 -5.6756,1.6417 -5.6756,1.6417 l 45.8272,21.3899 c 0,0 5.9285,-3.4261 10.5094,-1.867 l -48.1283,-20.605 v 5e-4 c -2e-4,0 -4e-4,10e-5 -5e-4,0 -0.7888,-0.404 -1.6588,-0.5601 -2.5296,-0.5601 z m 51.6026,21.5676 c 0,9e-4 0,0 0,0 h 10e-4 z" />
      <path
         style="fill:#767676;fill-opacity:1;stroke:#000000;stroke-width:0.264583px;stroke-linecap:butt;stroke-linejoin:miter;stroke-opacity:1"
         d="m 1373.9487,907.25063 c 0,0 15.7427,-9.1017 15.7427,9.1017 0,18.2035 -15.7427,27.3054 -15.7427,27.3054 0,0 -15.7427,9.1017 -15.7427,-9.1019 0,-18.2035 15.7427,-27.3052 15.7427,-27.3052 z"
         id="path8582" />
      <path
         id="path8584"
         style="fill:#d7d7d7;fill-opacity:1;stroke:#000000;stroke-width:0.264583px;stroke-linecap:butt;stroke-linejoin:miter;stroke-opacity:1"
         d="m 1328.1216,885.86063 c 0,0 -11.3512,6.5676 -11.3512,19.7027 l 41.4357,28.9796 v -5e-4 c 0.01,-18.1945 15.7427,-27.2919 15.7427,-27.2919 z" />
      <path
         id="path8586"
         style="fill:#e3e3e3;fill-opacity:1;stroke:#000000;stroke-width:0.264583px;stroke-linecap:butt;stroke-linejoin:miter;stroke-opacity:1"
         d="m 1316.7704,905.56333 c 0,4.5493 1.3623,6.7343 3.1424,7.6481 h 5e-4 l 40.9763,30.688 c -1.5989,-1.6743 -2.6835,-4.5687 -2.6835,-9.3452 v -0.013 -5e-4 z m 45.793,39.5914 0.01,0.01 v 0 c 0,0 0,0 -0.01,0 z" />
      <path
         id="path8588"
         style="fill:#bebdbc;fill-opacity:1;stroke:#000000;stroke-width:0.264583px;stroke-linecap:butt;stroke-linejoin:miter;stroke-opacity:1"
         d="m 1333.7972,884.21893 c -2.8377,0 -5.6756,1.6417 -5.6756,1.6417 l 45.8272,21.3899 c 0,0 5.9285,-3.4261 10.5094,-1.867 l -48.1283,-20.605 v 5e-4 c -2e-4,0 -4e-4,10e-5 -5e-4,0 -0.7888,-0.404 -1.6588,-0.5601 -2.5296,-0.5601 z m 51.6026,21.5676 c 0,9e-4 0,0 0,0 h 10e-4 z" />
      <path
         id="path6848"
         style="fill:#e3e3e3;fill-opacity:1;stroke:#000000;stroke-width:0.264583px;stroke-linecap:butt;stroke-linejoin:miter;stroke-opacity:1"
         d="m 515.07655,363.72351 -0.006,0.003 c 0,0 -57.28187,33.07138 -57.28436,99.21411 11.55502,6.67081 45.47156,26.25114 115.48597,66.67396 0,-66.14583 57.28385,-99.21874 57.28385,-99.21874 l 0.003,-0.003 C 546.27409,381.72899 515.0766,363.72375 515.07649,363.72354 Z"
         sodipodi:nodetypes="ccccccc" />
      <path
         id="path6865"
         style="fill:#f0f0f0;fill-opacity:1;stroke:#000000;stroke-width:0.264583px;stroke-linecap:butt;stroke-linejoin:miter;stroke-opacity:1"
         d="m 457.78807,462.74951 c 0,0.0638 -0.003,0.12689 -0.003,0.19068 0,21.13973 5.8516,32.14383 13.8131,37.33363 l 115.49218,66.67915 c -7.96504,-5.18816 -13.81932,-16.19331 -13.81932,-37.33828 -88.18392,-51.0717 -115.48614,-66.67447 -115.4844,-66.86518 z m 131.37853,105.40131 0.0351,0.0201 -0.003,-0.004 c -0.0109,-0.005 -0.0214,-0.0106 -0.032,-0.0161 z"
         sodipodi:nodetypes="cscccccccccc" />
      <path
         id="path6893"
         style="fill:#cccccc;fill-opacity:1;stroke:#000000;stroke-width:0.264583px;stroke-linecap:butt;stroke-linejoin:miter;stroke-opacity:1"
         d="m 543.72441,355.45735 c -14.32287,-0.003 -28.64786,8.26616 -28.64786,8.26616 l 115.47977,66.67243 c 0,0 24.40008,-14.08517 41.35096,-5.48288 h 0.004 l -115.45143,-66.6564 c -3.97142,-2.02334 -8.35311,-2.79836 -12.73514,-2.79931 z" />
      <path
         id="path7342"
         style="fill:#e3e3e3;fill-opacity:0.992157;stroke:#000000;stroke-width:0.264583px;stroke-linecap:butt;stroke-linejoin:miter;stroke-opacity:1"
         d="m 400.50547,297.57793 v 0 l -0.003,0.003 c 0,-5e-5 -57.28384,33.07286 -57.28384,99.21869 114.56766,66.14385 103.28986,59.63298 114.56768,66.14377 10e-4,-66.14446 57.28435,-99.21668 57.28435,-99.21668 l 0.006,-0.003 -114.57068,-66.14578 z"
         sodipodi:nodetypes="csccccccc" />
      <path
         id="path7352"
         style="fill:#f0f0f0;fill-opacity:1;stroke:#000000;stroke-width:0.264583px;stroke-linecap:butt;stroke-linejoin:miter;stroke-opacity:1"
         d="m 343.2238,396.4095 c 1e-5,0.39325 1e-5,0 0,0.39687 0,21.14497 5.85425,32.15008 13.81931,37.33829 l 2.07068,1.19579 c 0.0123,0.006 0.0248,0.0124 0.0372,0.0185 l -0.004,-0.008 0.005,0.008 112.51354,64.95933 c -7.99542,-5.17182 -13.87922,-16.17951 -13.87922,-37.37806 0,-0.0638 10e-4,-0.12692 0.002,-0.19069 z"
         sodipodi:nodetypes="ccccccccscc" />
      <path
         id="path7354"
         style="fill:#cccccc;fill-opacity:1;stroke:#000000;stroke-width:0.264583px;stroke-linecap:butt;stroke-linejoin:miter;stroke-opacity:1"
         d="m 429.15013,289.30965 c -14.32082,2.1e-4 -28.64164,8.26823 -28.64166,8.26823 l 114.56819,66.14583 c 0,0 24.43731,-14.10718 41.38972,-5.46322 L 441.86356,292.0945 h -0.005 c -3.96466,-2.01197 -8.33605,-2.7853 -12.70827,-2.78535 z"
         sodipodi:nodetypes="scccccss" />
      <path
         id="path8691"
         style="fill:#d6d6d6;fill-opacity:0.992157;stroke:#000000;stroke-width:0.264583px;stroke-linecap:butt;stroke-linejoin:miter;stroke-opacity:1"
         d="m 332.09396,274.2733 c 0,0 -42.92968,24.79014 -42.92968,74.37014 l 54.38634,47.9702 c 0,-66.10633 57.2098,-99.17565 57.27816,-99.21512 z" />
      <path
         id="path8695"
         style="fill:#202021;fill-opacity:1;stroke:#000000;stroke-width:0.264583px;stroke-linecap:butt;stroke-linejoin:miter;stroke-opacity:1"
         d="m 353.23332,268.25821 c -10.73248,0 -21.46483,6.19755 -21.46483,6.19755 l 68.73998,23.12212 0.001,-5.3e-4 c 0,0 16.44834,-9.49497 31.71744,-8.13284 l -69.46139,-19.09701 -0.003,5e-4 c -2.97257,-1.50995 -6.25063,-2.08979 -9.52914,-2.08979 z m 88.6194,23.83266 c 0.003,10e-4 0.005,0.002 0.008,0.004 l 0.004,-5e-4 z" />
      <path
         id="path8693"
         style="fill:#2a2b2c;fill-opacity:1;stroke:#000000;stroke-width:0.264583px;stroke-linecap:butt;stroke-linejoin:miter;stroke-opacity:1"
         d="m 289.16428,348.64344 c 0,17.21421 5.55786,25.72433 12.3145,29.15843 l 0.001,0.003 49.59024,50.45996 c -4.56496,-6.33688 -7.51943,-16.23608 -7.51943,-31.25391 v -0.39687 l 0.23979,0.13901 z"
         sodipodi:nodetypes="ccccsccc" />
      <path
         style="fill:#b71c1c;fill-opacity:1;stroke:#000000;stroke-width:0.264583px;stroke-linecap:butt;stroke-linejoin:miter;stroke-opacity:1"
         d="m 171.8519,181.9304 c 0,0 42.92995,-24.79001 42.92995,24.79 0,49.58001 -42.92995,74.37002 -42.92995,74.37002 0,0 -42.92992,24.79 -42.92992,-24.79001 0,-49.58 42.92992,-74.37001 42.92992,-74.37001 z"
         id="path1254" />
      <path
         id="path1264"
         style="fill:#e1e1e1;fill-opacity:0.992157;stroke:#000000;stroke-width:0.264583px;stroke-linecap:butt;stroke-linejoin:miter;stroke-opacity:1"
         d="m 171.85203,181.93049 c 0,0 -42.93019,24.79014 -42.93019,74.37013 l 160.24241,92.34267 c 0,-49.58 42.9302,-74.37014 42.9302,-74.37014 z" />
      <path
         id="path1275"
         style="fill:#f0f0f0;fill-opacity:1;stroke:#000000;stroke-width:0.264583px;stroke-linecap:butt;stroke-linejoin:miter;stroke-opacity:1"
         d="m 128.92184,256.30062 c 0,17.21379 5.17569,25.46112 11.93209,28.89538 l 0.001,0.003 160.21604,92.38868 -0.032,-0.0775 c -6.72835,-3.45178 -11.87474,-11.70133 -11.87474,-28.86646 z" />
      <path
         id="path1286"
         style="fill:#cccccc;fill-opacity:1;stroke:#000000;stroke-width:0.264583px;stroke-linecap:butt;stroke-linejoin:miter;stroke-opacity:1"
         d="m 193.31687,175.73293 c -10.73248,0 -21.46484,6.19756 -21.46484,6.19756 l 160.23105,92.34888 h 0.003 c 1.6e-4,-8e-5 0.01,-0.006 0.01,-0.006 0,0 16.17189,-9.33717 28.66438,-5.08701 l -156.3238,-90.44499 c -0.50982,-0.33271 -1.03099,-0.6333 -1.56218,-0.90434 l -0.0253,-0.0145 -0.003,5.3e-4 c -2.97247,-1.50981 -6.25027,-2.0898 -9.52862,-2.0898 z" />
      <path
         id="path1316"
         style="fill:#cccccc;fill-opacity:1;stroke:#000000;stroke-width:0.264583px;stroke-linecap:butt;stroke-linejoin:miter;stroke-opacity:1"
         d="m 11.456664,138.90624 129.400366,74.7112 0.006,-0.004 c 12.70338,-21.11972 30.98881,-31.68281 30.98881,-31.68281 0,0 13.54906,-7.82295 25.42377,-5.88905 z m 187.177716,37.4065 c 0.0511,0.0118 0.10195,0.0245 0.15296,0.0367 l 0.007,-0.005 z" />
      <path
         id="path1311"
         style="fill:#e0e0e0;fill-opacity:0.992157;stroke:#000000;stroke-width:0.264583px;stroke-linecap:butt;stroke-linejoin:miter;stroke-opacity:1"
         d="M 11.456664,138.90624 133.43113,277.99232 c -5.3e-4,0 -0.001,-0.003 -0.002,-0.005 -2.77202,-4.7616 -4.50774,-11.72059 -4.50774,-21.68704 0,-0.48179 0.005,-0.96054 0.0134,-1.43764 0.002,-0.13203 0.005,-0.26366 0.008,-0.39533 0.008,-0.38187 0.0193,-0.76215 0.0325,-1.14101 0.004,-0.10518 0.007,-0.2108 0.0109,-0.31575 0.0181,-0.46671 0.04,-0.9316 0.0656,-1.39371 0.006,-0.10612 0.0129,-0.21142 0.0191,-0.31729 0.0212,-0.35749 0.0447,-0.71343 0.0703,-1.06815 0.011,-0.1523 0.0218,-0.30452 0.0336,-0.45631 0.0345,-0.44424 0.0713,-0.88717 0.11265,-1.32705 0.0436,-0.46354 0.0917,-0.92417 0.14263,-1.38286 0.0137,-0.12331 0.0281,-0.246 0.0424,-0.36897 0.041,-0.35442 0.0844,-0.70734 0.12971,-1.05885 0.0131,-0.10177 0.0258,-0.20388 0.0393,-0.30541 0.0601,-0.45243 0.12307,-0.90271 0.19017,-1.3503 0.008,-0.052 0.0164,-0.10358 0.0243,-0.15555 0.0613,-0.40337 0.12591,-0.80463 0.19275,-1.20406 0.0152,-0.091 0.0305,-0.18202 0.046,-0.27285 0.075,-0.43912 0.15249,-0.87618 0.2341,-1.31051 2.6e-4,-0.002 1.9e-4,-0.003 5.2e-4,-0.005 0.0861,-0.45825 0.1765,-0.91341 0.26976,-1.36633 0.0132,-0.0644 0.0269,-0.12844 0.0403,-0.19275 0.0807,-0.38733 0.16429,-0.77259 0.25012,-1.156 0.0148,-0.0659 0.029,-0.13212 0.0439,-0.19792 0.10053,-0.44389 0.20445,-0.88533 0.31161,-1.32395 0.003,-0.0116 0.006,-0.023 0.009,-0.0346 0.13388,-0.54673 0.2742,-1.08822 0.41806,-1.62677 0.056,-0.20979 0.11355,-0.41829 0.17105,-0.62684 0.1053,-0.38181 0.21335,-0.7613 0.32349,-1.13895 0.0582,-0.19958 0.11463,-0.4005 0.17415,-0.59893 0.15375,-0.51242 0.31256,-1.02028 0.47491,-1.52497 0.0683,-0.21229 0.13851,-0.42263 0.20825,-0.63355 0.11682,-0.35314 0.2357,-0.70439 0.35657,-1.05368 0.0713,-0.20625 0.14173,-0.41315 0.21446,-0.61805 0.1724,-0.48557 0.3482,-0.96786 0.52813,-1.44591 0.0862,-0.22899 0.1752,-0.45487 0.26304,-0.68213 0.11039,-0.28554 0.22137,-0.57035 0.33434,-0.85318 0.10441,-0.26145 0.20919,-0.52221 0.31575,-0.78134 0.12165,-0.29577 0.24563,-0.58887 0.37,-0.8816 0.15393,-0.36242 0.31023,-0.72228 0.46819,-1.08004 0.11941,-0.27039 0.23906,-0.54048 0.3607,-0.80822 0.11819,-0.26021 0.23738,-0.519 0.3576,-0.7767 0.10262,-0.21993 0.20651,-0.43818 0.31057,-0.65629 0.22937,-0.48082 0.46208,-0.95691 0.69815,-1.42885 0.0847,-0.16939 0.16868,-0.33974 0.25425,-0.50798 0.14992,-0.29481 0.30185,-0.58668 0.45424,-0.87798 0.0762,-0.14568 0.15263,-0.29083 0.22944,-0.43564 0.51751,-0.97569 1.04828,-1.9312 1.5906,-2.867 0.0652,-0.11252 0.13032,-0.22499 0.19585,-0.33693 0.17517,-0.2992 0.35073,-0.59738 0.52814,-0.89246 0.002,-0.004 0.005,-0.007 0.007,-0.0108 l -0.002,-0.001 0.008,-0.008 c 12.70332,-21.11641 30.98576,-31.67805 30.98576,-31.67805 z" />
      <path
         id="path1407"
         style="fill:#262626;fill-opacity:0.992157;stroke:#000000;stroke-width:0.264583px;stroke-linecap:butt;stroke-linejoin:miter;stroke-opacity:1"
         d="m 171.85203,181.93049 c 0,0 -42.93019,24.79014 -42.93019,74.37013 l 22.91385,13.20488 c 0.0141,-49.56375 42.92967,-74.34585 42.92967,-74.34585 0,0 0.0215,-0.012 0.0222,-0.0124 z"
         sodipodi:nodetypes="cccccc" />
      <path
         id="path1409"
         style="fill:#2a2b2c;fill-opacity:1;stroke:#000000;stroke-width:0.264583px;stroke-linecap:butt;stroke-linejoin:miter;stroke-opacity:1"
         d="m 128.92184,256.30062 c 0,17.21379 5.17569,25.46114 11.93209,28.89538 l 0.001,0.003 21.18837,12.21838 c -5.89292,-3.92886 -10.20765,-12.17028 -10.20765,-27.88719 0,-0.008 0,-0.0161 0,-0.0243 z"
         sodipodi:nodetypes="ccccscc" />
      <path
         id="path1411"
         style="fill:#202021;fill-opacity:1;stroke:#000000;stroke-width:0.264583px;stroke-linecap:butt;stroke-linejoin:miter;stroke-opacity:1"
         d="m 193.31687,175.73293 c -10.73248,0 -21.46484,6.19756 -21.46484,6.19756 l 22.934,13.2178 c 0.14776,-0.0851 18.01271,-10.3459 30.64826,-4.25814 l -20.9982,-12.14913 c -0.50982,-0.33271 -1.03099,-0.6333 -1.56218,-0.90434 l -0.0253,-0.0145 -0.003,5.3e-4 c -2.97247,-1.50981 -6.25027,-2.0898 -9.52862,-2.0898 z"
         sodipodi:nodetypes="scccccccs" />
      <path
         id="path1424"
         style="fill:#f0f0f0;fill-opacity:1;stroke:#000000;stroke-width:0.264583px;stroke-linecap:butt;stroke-linejoin:miter;stroke-opacity:1"
         d="M 11.456664,138.90624 133.43061,277.99129 c -5.3e-4,0 -7.9e-4,-0.003 -0.001,-0.004 -2.77201,-4.7616 -4.50773,-11.72059 -4.50773,-21.68705 z" />
      <path
         id="path1481"
         style="fill:#e3e3e3;fill-opacity:1;stroke:#000000;stroke-width:0.264583px;stroke-linecap:butt;stroke-linejoin:miter;stroke-opacity:1"
         d="m 773.90105,579.10312 c -14.43511,23.98998 -25.49736,54.35618 -25.51369,91.1035 l 0.0346,0.0201 -0.0351,0.061 53.43033,30.7666 c 0.0164,-36.74632 11.07815,-67.11175 25.51266,-91.10141 v -0.003 z" />
      <g
         aria-label="Paraguay"
         id="text2482"
         style="font-style:normal;font-weight:normal;font-size:10.5833px;line-height:1.25;font-family:sans-serif;letter-spacing:0px;word-spacing:0px;white-space:pre;shape-inside:url(#rect2484);fill:#000000;fill-opacity:1;stroke:none"
         transform="rotate(180,372.41746,315.66805)">
        <path
           d="m 212.883,217.929 6.336,3.658 c 2.413,1.393 2.409,3.288 -0.014,5.685 l -0.908,0.899 c -2.423,2.398 -4.842,2.9 -7.256,1.506 l -3.44,-1.986 -4.544,4.496 -2.897,-1.672 z m 0.352,4.189 -3.089,3.056 3.44,1.986 c 0.482,0.279 1.087,0.058 1.814,-0.661 l 0.909,-0.899 c 0.727,-0.719 0.849,-1.218 0.366,-1.497 z"
           style="font-style:normal;font-variant:normal;font-weight:normal;font-stretch:normal;font-family:X-Heighting;-inkscape-font-specification:X-Heighting"
           id="path2488" />
        <path
           d="m 217.015,233.411 2.987,1.725 2.895,-5.205 z m 1.312,4.744 -4.725,-2.728 -2.443,1.438 -2.897,-1.672 17.066,-10.079 3.077,1.776 -8.374,15.097 -2.897,-1.672 z"
           style="font-style:normal;font-variant:normal;font-weight:normal;font-stretch:normal;font-family:X-Heighting;-inkscape-font-specification:X-Heighting"
           id="path2490" />
        <path
           d="m 232.749,229.399 6.336,3.657 c 2.413,1.394 2.409,3.289 -0.012,5.687 l -0.908,0.899 c -1.986,1.967 -3.97,2.658 -5.95,2.075 l -1.981,6.161 -3.132,-1.809 1.926,-6.007 -1.557,-0.899 -4.543,4.497 -2.897,-1.673 z m 0.354,4.189 -3.089,3.057 3.44,1.986 c 0.483,0.279 1.088,0.058 1.814,-0.661 l 0.908,-0.899 c 0.727,-0.72 0.849,-1.219 0.366,-1.497 z"
           style="font-style:normal;font-variant:normal;font-weight:normal;font-stretch:normal;font-family:X-Heighting;-inkscape-font-specification:X-Heighting"
           id="path2492" />
        <path
           d="m 238.74,245.954 2.988,1.725 2.892,-5.207 z m 1.314,4.745 -4.726,-2.728 -2.441,1.438 -2.897,-1.672 17.059,-10.082 3.077,1.776 -8.367,15.1 -2.897,-1.672 z"
           style="font-style:normal;font-variant:normal;font-weight:normal;font-stretch:normal;font-family:X-Heighting;-inkscape-font-specification:X-Heighting"
           id="path2494" />
        <path
           d="m 253.579,253.382 -2.173,-1.254 2.362,-2.623 5.249,3.031 -3.994,3.958 c -2.421,2.399 -4.839,2.902 -7.253,1.508 l -2.716,-1.568 c -2.414,-1.394 -2.41,-3.29 0.011,-5.689 l 5.448,-5.397 c 2.421,-2.398 4.839,-2.9 7.252,-1.507 l 2.715,1.568 c 2.414,1.393 2.41,3.289 -0.01,5.688 l -0.273,0.269 -3.077,-1.492 0.453,-0.45 c 0.727,-0.719 0.848,-1.218 0.366,-1.497 l -2.716,-1.568 c -0.482,-0.278 -1.087,-0.058 -1.813,0.662 l -5.448,5.396 c -0.726,0.72 -0.848,1.219 -0.365,1.498 l 2.715,1.568 c 0.483,0.279 1.088,0.058 1.814,-0.662 z"
           style="font-style:normal;font-variant:normal;font-weight:normal;font-stretch:normal;font-family:X-Heighting;-inkscape-font-specification:X-Heighting"
           id="path2496" />
        <path
           d="m 255.928,257.016 9.077,-8.994 2.896,1.672 -9.076,8.995 c -0.726,0.72 -0.848,1.219 -0.365,1.498 l 2.715,1.567 c 0.483,0.279 1.088,0.059 1.814,-0.661 l 9.076,-8.996 2.896,1.672 -9.076,8.996 c -2.42,2.4 -4.838,2.903 -7.252,1.509 l -2.716,-1.568 c -2.414,-1.394 -2.41,-3.29 0.011,-5.69 z"
           style="font-style:normal;font-variant:normal;font-weight:normal;font-stretch:normal;font-family:X-Heighting;-inkscape-font-specification:X-Heighting"
           id="path2498" />
        <path
           d="m 270.64,264.371 2.987,1.725 2.89,-5.208 z m 1.315,4.746 -4.726,-2.728 -2.44,1.439 -2.897,-1.672 17.051,-10.087 3.077,1.776 -8.359,15.105 -2.897,-1.672 z"
           style="font-style:normal;font-variant:normal;font-weight:normal;font-stretch:normal;font-family:X-Heighting;-inkscape-font-specification:X-Heighting"
           id="path2500" />
        <path
           d="m 281.724,267.966 2.785,-8.684 3.131,1.808 -1.538,4.806 5.72,-2.392 3.131,1.808 -10.333,4.326 -6.143,6.093 -2.897,-1.673 z"
           style="font-style:normal;font-variant:normal;font-weight:normal;font-stretch:normal;font-family:X-Heighting;-inkscape-font-specification:X-Heighting"
           id="path2502" />
      </g>
      <g
         id="g3857"
         transform="matrix(4.06519,0,0,4.06519,2292.9016,-593.67122)"
         style="stroke-width:0.245991">
        <path
           id="path3761"
           style="fill:#0b3d91;stroke-width:0.0650851"
           d="m -380.274,286.119 c 0.588,-1.074 0.802,-2.295 0.597,-3.395 -0.206,-1.099 -0.816,-1.987 -1.695,-2.468 -1.83,-1.002 -4.306,-10e-4 -5.53,2.236 -1.224,2.237 -0.732,4.862 1.098,5.863 0.879,0.481 1.955,0.516 2.993,0.097 1.037,-0.42 1.949,-1.259 2.537,-2.333 z" />
        <g
           fill="#ffffff"
           id="g3855"
           transform="matrix(0.264583,0,0,0.264583,-473.645,272.469)"
           style="stroke-width:0.0605117">
          <path
             id="path3763"
             d="m 333.007,56.7745 c 0.025,-0.0455 0.034,-0.0973 0.026,-0.1438 -0.009,-0.0466 -0.035,-0.0843 -0.072,-0.1046 -0.037,-0.0204 -0.083,-0.0219 -0.127,-0.0041 -0.044,0.0178 -0.082,0.0533 -0.107,0.0988 -0.025,0.0455 -0.034,0.0973 -0.026,0.1439 0.009,0.0466 0.035,0.0842 0.072,0.1046 0.037,0.0203 0.083,0.0218 0.127,0.004 0.044,-0.0177 0.083,-0.0533 0.107,-0.0988 z"
             style="stroke-width:0.245991" />
          <path
             id="path3765"
             d="m 334.574,57.3346 c 0.025,-0.0455 0.034,-0.0973 0.026,-0.1439 -0.009,-0.0466 -0.035,-0.0842 -0.072,-0.1046 -0.037,-0.0203 -0.083,-0.0218 -0.127,-0.004 -0.044,0.0177 -0.083,0.0533 -0.107,0.0988 -0.025,0.0455 -0.034,0.0973 -0.026,0.1439 0.009,0.0465 0.035,0.0842 0.072,0.1045 0.037,0.0204 0.083,0.0219 0.127,0.0041 0.044,-0.0178 0.082,-0.0533 0.107,-0.0988 z"
             style="stroke-width:0.245991" />
          <path
             id="path3767"
             d="m 338.168,55.2577 c 0.025,-0.0455 0.034,-0.0973 0.025,-0.1439 -0.008,-0.0466 -0.034,-0.0842 -0.071,-0.1046 -0.038,-0.0203 -0.083,-0.0218 -0.127,-0.004 -0.044,0.0177 -0.083,0.0533 -0.108,0.0988 -0.025,0.0455 -0.034,0.0973 -0.025,0.1439 0.009,0.0465 0.035,0.0842 0.072,0.1045 0.037,0.0204 0.083,0.0219 0.127,0.0041 0.044,-0.0178 0.082,-0.0533 0.107,-0.0988 z"
             style="stroke-width:0.245991" />
          <path
             id="path3769"
             d="m 336.559,33.5658 c 0.025,-0.0455 0.034,-0.0972 0.025,-0.1438 -0.008,-0.0466 -0.034,-0.0843 -0.071,-0.1046 -0.038,-0.0204 -0.083,-0.0219 -0.127,-0.0041 -0.044,0.0178 -0.083,0.0533 -0.108,0.0988 -0.025,0.0455 -0.034,0.0973 -0.025,0.1439 0.009,0.0466 0.035,0.0842 0.072,0.1046 0.037,0.0203 0.083,0.0218 0.127,0.004 0.044,-0.0177 0.082,-0.0533 0.107,-0.0988 z"
             style="stroke-width:0.245991" />
          <path
             id="path3771"
             d="m 337.675,32.3928 c 0.025,-0.0455 0.034,-0.0973 0.026,-0.1439 -0.009,-0.0465 -0.035,-0.0842 -0.072,-0.1045 -0.037,-0.0204 -0.083,-0.0219 -0.127,-0.0041 -0.044,0.0177 -0.082,0.0533 -0.107,0.0988 -0.025,0.0455 -0.034,0.0973 -0.026,0.1439 0.009,0.0465 0.035,0.0842 0.072,0.1046 0.037,0.0203 0.083,0.0218 0.127,0.004 0.044,-0.0177 0.083,-0.0533 0.107,-0.0988 z"
             style="stroke-width:0.245991" />
          <path
             id="path3773"
             d="m 335.26,32.5876 c 0.039,-0.071 0.024,-0.1543 -0.034,-0.1861 -0.058,-0.0318 -0.137,0 -0.176,0.071 -0.039,0.0709 -0.023,0.1542 0.035,0.186 0.058,0.0318 0.137,0 0.175,-0.0709 z"
             style="stroke-width:0.245991" />
          <path
             id="path3775"
             d="m 342.447,33.0158 c 0.019,-0.0342 0.026,-0.0731 0.019,-0.1081 -0.007,-0.035 -0.026,-0.0632 -0.054,-0.0785 -0.028,-0.0154 -0.062,-0.0165 -0.095,-0.0031 -0.033,0.0133 -0.062,0.04 -0.081,0.0742 -0.019,0.0342 -0.025,0.0731 -0.019,0.1081 0.007,0.035 0.026,0.0632 0.054,0.0785 0.028,0.0153 0.062,0.0164 0.095,0.0031 0.033,-0.0134 0.062,-0.0401 0.081,-0.0742 z"
             style="stroke-width:0.245991" />
          <path
             id="path3777"
             d="m 350.159,40.1901 c 0.039,-0.071 0.024,-0.1543 -0.034,-0.186 -0.059,-0.0318 -0.137,-1e-4 -0.176,0.0709 -0.039,0.071 -0.023,0.1543 0.035,0.1861 0.058,0.0318 0.137,0 0.175,-0.071 z"
             style="stroke-width:0.245991" />
          <path
             id="path3779"
             d="m 350.872,45.0694 c 0.019,-0.0342 0.026,-0.073 0.019,-0.108 -0.007,-0.035 -0.026,-0.0633 -0.054,-0.0786 -0.028,-0.0153 -0.062,-0.0164 -0.095,-0.003 -0.033,0.0133 -0.062,0.04 -0.081,0.0742 -0.019,0.0342 -0.025,0.073 -0.019,0.108 0.007,0.035 0.026,0.0633 0.054,0.0786 0.028,0.0153 0.062,0.0164 0.095,0.0031 0.033,-0.0134 0.062,-0.0401 0.081,-0.0743 z"
             style="stroke-width:0.245991" />
          <path
             id="path3781"
             d="m 331.445,50.2749 c 0.039,-0.071 0.024,-0.1543 -0.034,-0.186 -0.058,-0.0318 -0.137,-1e-4 -0.176,0.0709 -0.039,0.071 -0.023,0.1543 0.035,0.1861 0.058,0.0318 0.137,0 0.175,-0.071 z"
             style="stroke-width:0.245991" />
          <path
             id="path3783"
             d="m 332.903,54.4134 c 0.039,-0.071 0.024,-0.1543 -0.034,-0.1861 -0.059,-0.0317 -0.137,0 -0.176,0.071 -0.039,0.071 -0.023,0.1543 0.035,0.1861 0.058,0.0317 0.137,0 0.175,-0.071 z"
             style="stroke-width:0.245991" />
          <path
             id="path3785"
             d="m 332.455,54.4948 c 0.038,-0.0709 0.023,-0.1542 -0.035,-0.186 -0.058,-0.0318 -0.137,0 -0.176,0.0709 -0.039,0.071 -0.023,0.1543 0.035,0.1861 0.058,0.0318 0.137,0 0.176,-0.071 z"
             style="stroke-width:0.245991" />
          <path
             id="path3787"
             d="m 332.036,54.5928 c 0.039,-0.0709 0.023,-0.1542 -0.035,-0.186 -0.058,-0.0318 -0.137,0 -0.175,0.0709 -0.039,0.071 -0.024,0.1543 0.034,0.1861 0.059,0.0318 0.137,0 0.176,-0.071 z"
             style="stroke-width:0.245991" />
          <path
             id="path3789"
             d="m 332.258,49.8569 c 0.039,-0.071 0.023,-0.1543 -0.035,-0.1861 -0.058,-0.0317 -0.136,0 -0.175,0.071 -0.039,0.071 -0.023,0.1543 0.035,0.1861 0.058,0.0317 0.136,0 0.175,-0.071 z"
             style="stroke-width:0.245991" />
          <path
             id="path3791"
             d="m 332.817,58.8556 c 0.019,-0.0341 0.026,-0.0729 0.019,-0.1078 -0.006,-0.0348 -0.026,-0.063 -0.054,-0.0783 -0.028,-0.0152 -0.062,-0.0163 -0.095,-0.003 -0.033,0.0133 -0.061,0.0399 -0.08,0.074 -0.039,0.071 -0.023,0.1543 0.035,0.186 0.058,0.0318 0.136,0 0.175,-0.0709 z"
             style="stroke-width:0.245991" />
          <path
             id="path3793"
             d="m 335.538,55.5283 c 0.039,-0.071 0.024,-0.1543 -0.034,-0.1861 -0.058,-0.0318 -0.137,0 -0.176,0.071 -0.039,0.0709 -0.023,0.1542 0.035,0.186 0.058,0.0318 0.137,0 0.175,-0.0709 z"
             style="stroke-width:0.245991" />
          <path
             id="path3795"
             d="m 334.049,55.6539 c 0.039,-0.071 0.024,-0.1543 -0.035,-0.1861 -0.058,-0.0318 -0.136,0 -0.175,0.071 -0.039,0.071 -0.023,0.1543 0.035,0.186 0.058,0.0318 0.136,10e-5 0.175,-0.0709 z"
             style="stroke-width:0.245991" />
          <path
             id="path3797"
             d="m 332.716,53.6451 c 0.038,-0.0709 0.023,-0.1542 -0.035,-0.186 -0.058,-0.0318 -0.137,0 -0.176,0.0709 -0.039,0.071 -0.023,0.1543 0.035,0.1861 0.058,0.0318 0.137,0 0.176,-0.071 z"
             style="stroke-width:0.245991" />
          <path
             id="path3799"
             d="m 352.516,37.068 c 0.039,-0.071 0.023,-0.1543 -0.035,-0.1861 -0.058,-0.0318 -0.137,0 -0.176,0.071 -0.038,0.071 -0.023,0.1543 0.035,0.186 0.058,0.0318 0.137,0 0.176,-0.0709 z"
             style="stroke-width:0.245991" />
          <path
             id="path3801"
             d="m 336.822,32.5799 c 0.039,-0.0712 0.023,-0.1547 -0.035,-0.1866 -0.028,-0.0153 -0.062,-0.0164 -0.095,-0.0031 -0.033,0.0134 -0.062,0.0401 -0.081,0.0743 -0.019,0.0342 -0.025,0.073 -0.019,0.108 0.007,0.035 0.026,0.0633 0.054,0.0786 0.058,0.0319 0.137,0 0.176,-0.0712 z"
             style="stroke-width:0.245991" />
          <path
             id="path3803"
             d="m 345.051,34.927 c 0.018,-0.0342 0.025,-0.073 0.019,-0.108 -0.007,-0.035 -0.026,-0.0633 -0.054,-0.0786 -0.028,-0.0153 -0.063,-0.0164 -0.096,-0.003 -0.033,0.0133 -0.062,0.04 -0.08,0.0742 -0.019,0.0342 -0.026,0.073 -0.019,0.108 0.006,0.035 0.026,0.0633 0.054,0.0786 0.028,0.0153 0.062,0.0164 0.095,0.0031 0.033,-0.0134 0.062,-0.0401 0.081,-0.0743 z"
             style="stroke-width:0.245991" />
          <path
             id="path3805"
             d="m 338.945,33.8751 c 0.039,-0.0712 0.023,-0.1547 -0.035,-0.1866 -0.028,-0.0153 -0.063,-0.0164 -0.096,-0.0031 -0.033,0.0134 -0.062,0.0401 -0.08,0.0743 -0.019,0.0341 -0.026,0.073 -0.019,0.108 0.006,0.035 0.026,0.0633 0.054,0.0786 0.058,0.0318 0.137,0 0.176,-0.0712 z"
             style="stroke-width:0.245991" />
          <path
             id="path3807"
             d="m 340.849,32.5571 c 0.019,-0.0342 0.026,-0.0731 0.019,-0.1081 -0.007,-0.035 -0.026,-0.0632 -0.054,-0.0785 -0.028,-0.0154 -0.062,-0.0165 -0.095,-0.0031 -0.033,0.0133 -0.062,0.04 -0.081,0.0742 -0.019,0.0342 -0.025,0.0731 -0.019,0.1081 0.007,0.035 0.026,0.0632 0.054,0.0785 0.028,0.0153 0.062,0.0164 0.095,0.0031 0.033,-0.0134 0.062,-0.0401 0.081,-0.0742 z"
             style="stroke-width:0.245991" />
          <path
             id="path3809"
             d="m 346.926,37.3687 c 0.039,-0.071 0.023,-0.1543 -0.035,-0.186 -0.058,-0.0318 -0.137,-10e-5 -0.176,0.0709 -0.038,0.071 -0.023,0.1543 0.035,0.1861 0.058,0.0318 0.137,0 0.176,-0.071 z"
             style="stroke-width:0.245991" />
          <path
             id="path3811"
             d="m 349.227,41.9392 c 0.038,-0.0709 0.023,-0.1542 -0.035,-0.186 -0.058,-0.0318 -0.137,0 -0.176,0.0709 -0.039,0.071 -0.023,0.1543 0.035,0.1861 0.058,0.0318 0.137,0 0.176,-0.071 z"
             style="stroke-width:0.245991" />
          <path
             id="path3813"
             d="m 352.884,41.908 c 0.039,-0.0709 0.023,-0.1542 -0.035,-0.186 -0.058,-0.0318 -0.136,0 -0.175,0.071 -0.039,0.0709 -0.023,0.1542 0.035,0.186 0.058,0.0318 0.136,0 0.175,-0.071 z"
             style="stroke-width:0.245991" />
          <path
             id="path3815"
             d="m 354.248,41.6839 c 0.038,-0.071 0.023,-0.1543 -0.035,-0.1861 -0.058,-0.0317 -0.137,0 -0.176,0.071 -0.039,0.071 -0.023,0.1543 0.035,0.1861 0.058,0.0317 0.137,0 0.176,-0.071 z"
             style="stroke-width:0.245991" />
          <path
             id="path3817"
             d="m 353.29,43.8061 c 0.039,-0.071 0.024,-0.1543 -0.035,-0.186 -0.058,-0.0318 -0.136,-1e-4 -0.175,0.0709 -0.039,0.071 -0.023,0.1543 0.035,0.1861 0.058,0.0318 0.136,0 0.175,-0.071 z"
             style="stroke-width:0.245991" />
          <path
             id="path3819"
             d="m 337.782,39.0663 c 0.039,-0.071 0.024,-0.1543 -0.035,-0.186 -0.058,-0.0318 -0.136,0 -0.175,0.0709 -0.039,0.071 -0.023,0.1543 0.035,0.1861 0.058,0.0318 0.136,0 0.175,-0.071 z"
             style="stroke-width:0.245991" />
          <path
             id="path3821"
             d="m 339.473,36.1559 c 0.024,-0.0455 0.034,-0.0972 0.025,-0.1438 -0.009,-0.0466 -0.035,-0.0842 -0.072,-0.1046 -0.037,-0.0204 -0.083,-0.0218 -0.127,-0.0041 -0.044,0.0178 -0.082,0.0534 -0.107,0.0989 -0.025,0.0455 -0.034,0.0972 -0.026,0.1438 0.009,0.0466 0.035,0.0842 0.072,0.1046 0.037,0.0204 0.083,0.0219 0.127,0.0041 0.044,-0.0178 0.083,-0.0533 0.108,-0.0989 z"
             style="stroke-width:0.245991" />
          <path
             id="path3823"
             d="m 341.504,34.4434 c 0.025,-0.0455 0.034,-0.0973 0.026,-0.1439 -0.009,-0.0465 -0.035,-0.0842 -0.072,-0.1045 -0.037,-0.0204 -0.083,-0.0219 -0.127,-0.0041 -0.044,0.0177 -0.082,0.0533 -0.107,0.0988 -0.025,0.0455 -0.034,0.0973 -0.026,0.1439 0.009,0.0465 0.035,0.0842 0.072,0.1046 0.037,0.0203 0.083,0.0218 0.127,0.004 0.044,-0.0177 0.083,-0.0533 0.107,-0.0988 z"
             style="stroke-width:0.245991" />
          <path
             id="path3825"
             d="m 350.357,42.2307 c 0.025,-0.0455 0.034,-0.0972 0.025,-0.1438 -0.009,-0.0466 -0.034,-0.0842 -0.072,-0.1046 -0.037,-0.0204 -0.082,-0.0219 -0.126,-0.0041 -0.044,0.0178 -0.083,0.0533 -0.108,0.0988 -0.025,0.0456 -0.034,0.0973 -0.025,0.1439 0.009,0.0466 0.034,0.0842 0.072,0.1046 0.037,0.0204 0.082,0.0218 0.126,0.0041 0.044,-0.0178 0.083,-0.0534 0.108,-0.0989 z"
             style="stroke-width:0.245991" />
          <path
             id="path3827"
             d="m 353.852,44.47 c 0.024,-0.0455 0.034,-0.0973 0.025,-0.1439 -0.009,-0.0465 -0.035,-0.0842 -0.072,-0.1045 -0.037,-0.0204 -0.083,-0.0219 -0.127,-0.0041 -0.044,0.0178 -0.082,0.0533 -0.107,0.0988 -0.025,0.0455 -0.034,0.0973 -0.026,0.1439 0.009,0.0466 0.035,0.0842 0.072,0.1046 0.037,0.0203 0.083,0.0218 0.127,0.004 0.044,-0.0177 0.083,-0.0533 0.108,-0.0988 z"
             style="stroke-width:0.245991" />
          <path
             id="path3829"
             d="m 351.541,44.4245 c 0.025,-0.0455 0.034,-0.0972 0.025,-0.1438 -0.009,-0.0466 -0.034,-0.0842 -0.072,-0.1046 -0.037,-0.0204 -0.083,-0.0219 -0.127,-0.0041 -0.043,0.0178 -0.082,0.0533 -0.107,0.0988 -0.025,0.0456 -0.034,0.0973 -0.025,0.1439 0.008,0.0466 0.034,0.0842 0.071,0.1046 0.038,0.0204 0.083,0.0218 0.127,0.0041 0.044,-0.0178 0.083,-0.0534 0.108,-0.0989 z"
             style="stroke-width:0.245991" />
          <path
             id="path3831"
             d="m 349.756,43.329 c 0.025,-0.0455 0.034,-0.0973 0.025,-0.1439 -0.008,-0.0466 -0.034,-0.0842 -0.072,-0.1046 -0.037,-0.0204 -0.082,-0.0218 -0.126,-0.0041 -0.044,0.0178 -0.083,0.0534 -0.108,0.0989 -0.025,0.0455 -0.034,0.0972 -0.025,0.1438 0.009,0.0466 0.034,0.0842 0.072,0.1046 0.037,0.0204 0.083,0.0219 0.126,0.0041 0.044,-0.0178 0.083,-0.0533 0.108,-0.0988 z"
             style="stroke-width:0.245991" />
          <path
             d="m 336.251,58.6888 0.326,0.2319 -0.361,-0.1667 c -0.056,0.0764 -0.146,0.1113 -0.219,0.0847 l -0.266,0.4065 0.214,-0.4391 c -0.054,-0.0517 -0.067,-0.1426 -0.031,-0.2269 l -0.335,-0.235 0.372,0.173 c 0.054,-0.0664 0.134,-0.0973 0.203,-0.0776 l 0.272,-0.42 -0.22,0.4474 c 0.057,0.0487 0.075,0.1373 0.045,0.2218 z"
             id="path3833"
             style="stroke-width:0.245991" />
          <path
             d="m 332.957,50.7133 0.326,0.2318 -0.361,-0.1667 c -0.056,0.0766 -0.146,0.1113 -0.219,0.0848 l -0.266,0.4065 0.214,-0.439 c -0.054,-0.0518 -0.067,-0.1427 -0.031,-0.2271 l -0.335,-0.235 0.372,0.1731 c 0.054,-0.0664 0.134,-0.0974 0.203,-0.0776 l 0.272,-0.42 -0.22,0.4476 c 0.057,0.0483 0.075,0.1373 0.045,0.2216 z"
             id="path3835"
             style="stroke-width:0.245991" />
          <path
             d="m 352.884,45.2965 0.327,0.2318 -0.361,-0.1667 c -0.056,0.0766 -0.146,0.1113 -0.22,0.0848 l -0.265,0.4065 0.214,-0.439 c -0.053,-0.0516 -0.067,-0.1425 -0.031,-0.2269 l -0.335,-0.235 0.373,0.1731 c 0.053,-0.0665 0.133,-0.0974 0.202,-0.0777 l 0.272,-0.42 -0.22,0.4476 c 0.057,0.048 0.075,0.1366 0.044,0.2215 z"
             id="path3837"
             style="stroke-width:0.245991" />
          <path
             d="m 342.243,30.9402 0.327,0.2318 -0.361,-0.1667 c -0.056,0.0764 -0.146,0.1113 -0.219,0.0848 l -0.266,0.4061 0.214,-0.4386 c -0.054,-0.0518 -0.067,-0.1427 -0.031,-0.2271 l -0.335,-0.235 0.372,0.1731 c 0.054,-0.0664 0.134,-0.0978 0.203,-0.0776 l 0.272,-0.42 -0.22,0.4475 c 0.057,0.0482 0.075,0.1374 0.044,0.2217 z"
             id="path3839"
             style="stroke-width:0.245991" />
          <path
             d="m 353.616,41.3253 0.327,0.2319 -0.362,-0.1667 c -0.056,0.0765 -0.145,0.1113 -0.219,0.0847 l -0.266,0.4066 0.214,-0.4387 c -0.053,-0.0516 -0.066,-0.1425 -0.03,-0.2269 l -0.336,-0.235 0.373,0.1731 c 0.053,-0.0664 0.133,-0.0974 0.202,-0.0776 l 0.272,-0.42 -0.22,0.4476 c 0.057,0.0475 0.076,0.1367 0.045,0.221 z"
             id="path3841"
             style="stroke-width:0.245991" />
          <path
             d="m 341.338,50.0277 c -1.078,-1.4887 -2.161,-2.8834 -3.109,-3.9976 -1.925,-2.2647 -7.209,-8.4341 -9.494,-13.8171 l 0.425,0.0242 c 1.526,3.0353 2.829,4.4396 4.039,5.8674 1.316,1.5524 5.86,6.0408 7.841,8.2145 0.669,0.7343 1.431,1.6335 2.206,2.6444 -0.46,0.2752 -0.933,0.5444 -1.419,0.8057 -0.163,0.0886 -0.327,0.1745 -0.489,0.2585 z m 3.419,-2.0233 c -0.193,-0.4839 -0.362,-0.8778 -0.489,-1.1375 -0.735,-1.5022 -3.91,-9.5724 -4.626,-11.4207 -0.715,-1.8484 -2.075,-8.1226 -2.485,-9.9523 l 0.238,-0.5235 c 1.398,5.7597 1.977,7.3088 2.661,9.3642 0.846,2.5442 2.788,7.457 3.48,9.0692 0.661,1.5411 1.248,2.9471 1.767,4.2237 -0.032,0.0229 -0.064,0.0458 -0.097,0.0691 -0.148,0.1029 -0.298,0.2053 -0.449,0.3078 z m 1.608,10.0587 c -1.037,-2.1552 -2.919,-5.1008 -4.842,-7.7791 0.113,-0.0593 0.227,-0.1195 0.341,-0.1807 0.536,-0.2889 1.058,-0.59 1.564,-0.9003 1.546,2.0447 3.118,4.5142 4.082,6.9899 -0.311,-1.4499 -1.718,-5.5557 -2.649,-7.9248 0.185,-0.1275 0.366,-0.2565 0.545,-0.3863 1.435,3.5447 2.327,6.064 2.773,7.6664 0.616,2.2099 2.052,7.1879 0.903,12.1781 -0.319,-4.4861 -1.804,-7.7658 -2.717,-9.6632 z"
             fill="#fc3d21"
             id="path3843"
             style="stroke-width:0.0148853" />
          <path
             d="m 340.836,40.0637 c -0.509,0.2737 -1.202,0.6336 -1.73,0.9179 -0.707,0.3801 -1.388,0.782 -2.039,1.1993 -0.088,-0.0905 -0.176,-0.1808 -0.264,-0.2711 0.802,-0.5337 1.647,-1.0426 2.522,-1.5133 0.639,-0.344 1.19,-0.6012 1.498,-0.78 0.062,-0.0362 0.192,-0.1205 0.367,-0.2319 0.055,0.1392 0.111,0.2797 0.167,0.4215 -0.172,0.0779 -0.346,0.1633 -0.521,0.2576 z m 3.239,-1.1331 c -0.37,0.1383 -1.16,0.2754 -2.093,0.6195 -0.068,-0.1752 -0.137,-0.3526 -0.205,-0.5309 0.718,-0.4345 1.65,-0.941 2.169,-0.9532 0.782,-0.0188 0.604,0.6873 0.129,0.8646 z m -2.211,11.1727 c -6.03,3.2444 -11.544,3.8224 -12.352,1.2043 -0.628,-2.0332 2.002,-5.5327 6.032,-8.5147 0.074,0.0923 0.147,0.1833 0.219,0.2735 -3.991,2.87 -6.479,6.2056 -5.887,8.1236 0.744,2.41 6.097,1.7301 11.952,-1.4201 1.211,-0.6519 2.346,-1.3512 3.378,-2.0735 3.952,-2.7676 6.405,-5.8838 5.875,-7.9938 -0.162,-0.6456 -1.282,-1.477 -3.347,-1.4726 -0.004,-0.046 0.082,-0.1185 0.122,-0.1258 1.739,0.0766 3.192,0.5383 3.503,1.5443 0.747,2.4182 -3.466,7.2105 -9.495,10.4548 z"
             id="path3845"
             style="stroke-width:0.245991" />
          <path
             d="m 328.149,41.8221 2.097,1.1475 3.757,-2.6863 c 0,0 -1.446,2.6427 -1.559,2.8486 -0.175,0.3203 -0.736,0.556 -0.888,0.5549 0.141,0.0768 1.367,0.7479 1.451,0.794 -0.073,-0.0773 -0.127,-0.6568 0.064,-1.0057 0.094,-0.1716 2.191,-4.004 2.291,-4.187 0.141,-0.2574 0.639,-0.4456 0.86,-0.5035 l -2.023,-1.1065 -3.794,2.6881 c 0,0 1.496,-2.7341 1.578,-2.8828 0.156,-0.286 0.536,-0.4351 0.903,-0.539 l -1.545,-0.8452 c 0.157,0.2347 0.171,0.7104 0.033,1.0066 -0.138,0.2963 -2.175,3.9754 -2.263,4.1356 -0.191,0.3489 -0.623,0.4838 -0.962,0.5807 z"
             id="path3847"
             style="stroke-width:0.245991" />
          <path
             d="m 350.47,46.5813 2.79,1.5266 c -0.18,-0.0388 -0.475,0.0895 -0.731,0.3357 -0.257,0.2462 -4.402,4.3103 -4.402,4.3103 l -1.061,-0.5804 c -0.156,-0.4293 -0.326,-0.8848 -0.509,-1.3671 0.005,-0.0112 0.01,-0.0224 0.014,-0.0336 0.141,-0.3684 1.322,-4.4964 1.37,-4.7056 0.068,-0.2901 -0.139,-0.7676 -0.203,-0.9957 l 1.503,0.8222 c -0.263,0.1239 -0.494,0.2575 -0.591,0.5017 -0.097,0.2442 -0.263,0.7479 -0.263,0.7479 l 1.554,0.8503 c 0.195,-0.1903 0.36,-0.3672 0.494,-0.5472 0.161,-0.2166 0.108,-0.5873 0.035,-0.8651 z m -2.344,1.371 -0.621,2.3804 1.838,-1.7145 z m -2.143,3.3569 c 0.039,0.1115 0.078,0.2237 0.117,0.3356 l -0.408,-0.2228 c 0.066,-0.0236 0.173,-0.0589 0.291,-0.1128 z"
             id="path3849"
             style="stroke-width:0.245991" />
          <path
             d="m 337.996,40.5658 c -0.097,0.2442 -0.263,0.7479 -0.263,0.7479 l 1.554,0.8504 c 0.195,-0.1904 0.36,-0.3673 0.494,-0.5473 0.161,-0.2166 0.109,-0.5873 0.035,-0.8651 l 2.457,1.344 c 0.028,0.07 0.056,0.1398 0.084,0.2092 -0.152,0.0508 -0.324,0.1573 -0.482,0.3091 -0.256,0.2463 -4.402,4.3103 -4.402,4.3103 l -2.434,-1.3319 c 0.189,-0.0675 0.72,-0.2377 0.878,-0.6491 0.142,-0.3683 1.322,-4.4965 1.371,-4.7057 0.067,-0.2901 -0.14,-0.7676 -0.204,-0.9957 l 1.503,0.8222 c -0.262,0.124 -0.494,0.2576 -0.591,0.5017 z m -1.145,3.9373 1.839,-1.7145 -1.217,-0.6659 z"
             id="path3851"
             style="stroke-width:0.245991" />
          <path
             d="m 345.241,47.4744 c -0.254,-0.6236 -0.525,-1.2775 -0.811,-1.9627 0.302,-0.0103 0.577,-0.0809 0.715,-0.2909 0.258,-0.3949 -0.311,-0.9656 -0.971,-1.2153 -0.132,-0.0499 -0.274,-0.0766 -0.418,-0.0868 -0.072,-0.1699 -0.146,-0.3413 -0.22,-0.5149 -0.076,-0.1767 -0.167,-0.3929 -0.27,-0.6415 l 0.324,-0.5922 c -0.038,0.3583 0.086,0.7652 0.285,0.8916 0.086,0.0544 0.586,-0.1255 1.812,0.657 0.595,0.3797 1.348,1.8378 0.822,2.7542 -0.31,0.5414 -0.778,0.8405 -1.268,1.0015 z m -2.721,-3.3482 0.33,-0.6033 c 0.062,0.1536 0.124,0.3047 0.184,0.4524 -0.251,0.0519 -0.446,0.1217 -0.514,0.1509 z m 2.078,3.4886 c -0.165,0.0209 -0.326,0.0303 -0.478,0.0337 -0.787,0.0153 -1.449,-0.265 -1.833,0.1266 -0.271,0.2763 -0.176,0.7214 0.467,1.0583 0.643,0.3369 1.486,0.1963 1.736,0.1175 l -0.807,1.4758 c -0.016,-0.0828 -0.064,-0.4831 -0.278,-0.5382 -0.41,-0.1057 -1.089,-0.3219 -1.788,-0.711 -0.802,-0.4463 -1.079,-1.5858 -0.576,-2.5599 0.703,-1.3621 1.783,-1.2467 2.395,-1.1868 0.063,0.0062 0.134,0.0149 0.211,0.0248 0.269,0.6387 0.486,1.1359 0.621,1.4117 0.091,0.185 0.203,0.4406 0.33,0.7475 z"
             id="path3853"
             style="stroke-width:0.245991" />
        </g>
      </g>
    </g>
  </g>
</svg>
