<svg xmlns="http://www.w3.org/2000/svg" xmlns:xlink="http://www.w3.org/1999/xlink" viewBox="0 0 337.358 197.496" height="746.443" width="1275.053" xmlns:v="https://vecta.io/nano"><style><![CDATA[.B{stroke-width:.265}.C{fill-opacity:.992}.D{fill:#455a64}.E{fill:#546e7a}.F{fill:#757575}.G{fill:#616161}.H{fill:none}.I{fill:#bdbdbd}.J{stroke:#000}.K{fill:#253137}.L{stroke-opacity:.992}.M{fill:#e3e2e2}.N{fill:#bebdbd}]]></style><g class="B J"><use xlink:href="#B" class="C D"/><path d="M132.007 89.455l-22.914 13.229 10.03 5.791 22.914-13.229z" class="C E"/><path d="M.264 39.84v2.645l65.304 37.703 68.741 39.688v-2.646L65.568 77.543z" class="C K"/><path d="M203.049 52.407s22.914 13.229 22.914 39.688-22.914 13.229-22.914 13.229-22.914-13.229-22.914-39.687 22.914-13.229 22.914-13.229z" fill="#ff5252"/><path d="M203.049 52.407l45.827-26.458m-22.913 66.146l45.827-26.458" class="H"/><g class="I C"><path d="M237.419 22.642c-1.743 0-3.486.31-5.068 1.109l-.022-.003-.406.235-.212.122-45.209 26.101.022.003c6.78-3.425 16.525 2.198 16.525 2.198l22.913-13.229 22.914-13.229s-5.729-3.307-11.457-3.307z"/><path d="M260.333 9.412c-1.743 0-3.486.31-5.068 1.109l-.022-.003-.407.235-.213.123-22.272 12.874c1.582-.799 3.324-1.109 5.068-1.109 5.728 0 11.457 3.307 11.457 3.307L271.79 12.72s-5.728-3.307-11.457-3.307z"/></g><path d="M271.79 12.72l-22.913 13.229s22.913 13.229 22.913 39.688l22.914-13.229c0-26.458-22.914-39.687-22.914-39.687z" fill="#e0e0e0" class="C"/><path d="M248.877 25.949L203.05 52.407s22.913 13.229 22.913 39.688l45.827-26.458c0-26.458-22.913-39.687-22.913-39.687zm-28.666 81.166a9.35 9.35 0 0 1-.615.41 9.35 9.35 0 0 0 .615-.41z" fill="#e1e1e1" class="C"/></g><path d="M167.211 74.475l-2.307-8.762" stroke="#e63834" class="B H L"/><g class="J B"><path d="M191.593 49.1c-2.863 0-5.727.826-7.874 3.305h-.005l-.049.065a10.6 10.6 0 0 0-.783 1.047l-15.67 20.957h.091c4.29-4.914 12.833.021 12.833.021l22.913-22.088v-.001c-.003-.001-5.729-3.307-11.456-3.307z" class="C I"/><path d="M203.049 52.407v.001l-22.913 22.088s15.21 8.807 15.21 26.42l30.617-8.821c0-26.452-22.902-39.681-22.913-39.687z" fill="#e2e2e2" class="C"/><path d="M225.031 83.053l.169.836-.169-.836zm.932 9.041l-30.596 8.814c-.004 7.425-2.722 10.145-5.86 10.81h0l25.611-3.102c.665-.028 1.326-.105 1.976-.239l.019-.003v-.003c4.738-.988 8.848-5.074 8.848-16.279z" fill="#f0f0f0" class="C"/><use xlink:href="#C" fill="#2196f3"/></g><path d="M180.136 74.495v17.639" stroke="#e83632" class="B H L"/><use xlink:href="#D" class="B J M"/><path d="M172.454 131.706l-4.168-7.308" stroke="#e63834" class="B H L"/><g class="J B"><path d="M111.395 114.183s15.232 8.8 15.232 26.4-15.232 8.8-15.232 8.8-15.232-8.8-15.232-26.4 15.232-8.8 15.232-8.8z" fill="#e0e0e0" class="C"/><use xlink:href="#E" fill="#f1f0f0"/><use xlink:href="#D" x="-45.827" y="26.458" class="M"/><path d="M126.684 98.743v.001c-.134-.001-.268-.001-.403.003-.007 0-.014 0-.022 0l-.483.032-.103.01-.458.059-.022.004-.447.088-.144.035-.395.11-.081.026-.385.141-.164.068-.329.153-.015.004-.061.036-.091.048-.294.17-.052.035-19.673 11.358-2.822 1.572.006.001.339-.158.164-.068.385-.141.081-.025.395-.11.144-.035.442-.088.027-.005.458-.059.103-.01.478-.031h.027l.403-.003.595.021.039.002.643.064.166.023.49.076.164.029.611.127.621.157.099.028.408.12.654.212.295.105.486.183.297.119.409.173 1.373.661.171.095-.002.001.093.012 22.914-13.229h-.016l.005-.003-.171-.095-1.373-.661-.409-.173-.297-.119-.486-.183-.295-.105-.654-.212-.408-.12-.099-.028-.621-.157-.611-.127-.164-.029-.49-.076-.166-.023-.643-.064-.039-.002-.595-.021z" class="N"/><path d="M271.79 65.636l-45.827 26.458c0 8.652-3.069 13.416-6.367 15.431l45.827-26.458-.004-.012c3.607-1.832 6.371-6.231 6.371-15.419z" fill="#efefef" class="C"/><path d="M294.704 52.407L271.79 65.636c0 8.875-2.579 13.281-6.006 15.222l22.553-13.021-.004-.012c3.607-1.832 6.371-6.232 6.371-15.419zM265.747 80.88a9.08 9.08 0 0 1-.328.175l.004.012z" fill="#eee" class="C"/><path d="M283.181 15.084l-4.721 2.694c3.115 2.796 6.802 6.745 9.878 11.863l5.689-3.264z" fill="#37474f" class="C"/><path d="M273.441 13.792c1.211.836 2.991 2.166 5.019 3.986l4.721-2.694z" fill="#263238" class="C"/><path d="M294.027 26.377l-5.689 3.264c2.445 4.067 4.501 8.867 5.571 14.401l4.5-2.568z" class="C D"/><path d="M298.41 41.474l-4.5 2.568a43.69 43.69 0 0 1 .752 6.511z" class="C E"/><path d="M289.008 11.132c-.871 0-1.741.156-2.53.558l.008-.006-.014.009c-.651.333-1.246.833-1.74 1.556l-1.986 1.777.434.058 3.629 3.778 7.894-6.083v-.001s-2.847-1.646-5.695-1.646z" fill="#424242" class="C"/><path d="M294.703 12.779h0l-7.894 6.083 7.218 7.515 2.88 9.923 9.181-3.778.005.003v-.005l.034-.014-.035-.06c-.051-13.108-11.383-19.664-11.388-19.667z" class="C G"/><g class="F"><path d="M306.136 32.61l-9.202 3.781 1.475 5.083-.151.366 5.647-1.896c.901-.512 2.22-2.852 2.235-7.333h0 0 0z" class="C"/><use xlink:href="#F"/><use xlink:href="#F" x="5.507" y="9.529"/></g><use xlink:href="#G" class="C I"/><g class="G"><use xlink:href="#H"/><use xlink:href="#I"/></g><use xlink:href="#G" x="16.642" y="3.202" class="H"/><use xlink:href="#F" x="16.482" y="15.795" class="F"/><use xlink:href="#G" x="10.975" y="6.267" class="I"/><g class="G"><use xlink:href="#H" x="10.975" y="6.267"/><use xlink:href="#I" x="10.975" y="6.267"/></g><use xlink:href="#F" x="22.15" y="12.731" class="F"/><use xlink:href="#G" x="16.642" y="3.202" class="I"/><g class="G"><use xlink:href="#H" x="16.642" y="3.202"/><use xlink:href="#I" x="16.642" y="3.203"/></g><use xlink:href="#G" x="-5.507" y="-9.529" class="I"/><g class="G"><use xlink:href="#H" x="-5.507" y="-9.528"/><use xlink:href="#I" x="-5.507" y="-9.528"/></g><path d="M100.249 142.51l3.636-2.449m-58.606 13.008l9.143 15.899 3.583-2.413-9.09-15.935z" class="H"/><path d="M45.279 153.069l9.143 15.899 3.583-2.413-9.09-15.935z" class="C D"/><path d="M54.422 168.968l45.827-26.458 3.583-2.413-45.827 26.458z" class="C K"/><path d="M65.534 175.154l-3.636-6.371 9.313-5.497 3.627 6.354zm40.354-52.911l11.031 6.351-3.709 2.014-11.031-6.351z" class="D C"/><path d="M116.918 128.593l-.013 6.361-3.709 2.014.013-6.361z" fill="#78909c" class="C"/><path d="M107.722 107.806s-1.826 1.019 0 2.038 3.652 0 3.652 0 1.826-1.019 0-2.038-3.652 0-3.652 0z" fill="#4dd1e2" class="C"/><path d="M112.181 108.794h0c-.006.531-.615.933-.761 1.022l-.02 15.607.002 2.005c.079-.046.772-.466.779-1.033l.005-.007zm-5.27.069h0c.006.531.615.933.761 1.022l.02 15.607.008 1.931c-.079-.046-.783-.393-.789-.959l-.005-.007z" class="G C"/><path d="M111.329 109.859h0 0c-.095.052-1.819.96-3.583 0h0 0l-.089 17.579.047.036h0c1.764.96 3.489.052 3.583 0h0l.068-.036z" class="C F"/><path d="M102.161 124.246l.005 6.372 11.012 6.339.013-6.361z" class="C E"/><path d="M99.299 91.801c-.51.007-.51.216-.51.216l-22.555 13.022c1.074-.124 5.37.868 22.555 10.79 22.914 13.229 22.914 15.875 22.914 15.875l22.913-13.229s0-2.646-22.913-15.875c-16.469-9.508-21.101-10.816-22.404-10.799zm-23.065 13.238c-.358.041-.358.207-.358.207l.358-.207z" class="C F"/><path d="M110.145 82.717l.15 22.241-7.417 4.282-.15-22.241z" fill="#536d79"/><path d="M106.618 89.046l-.114 22.201.096.073c3.617 1.932 7.152.104 7.346 0l.14-.073-.034-22.154c-.373.193-3.873 1.904-7.414-.036l-.02-.011z" class="C G"/><path d="M121.703 131.705v2.646l22.914-13.229v-2.646z" class="C F"/><path d="M76.385 105.03c-.51.007-.51.216-.51.216v2.646s0-2.646 22.913 10.583c22.883 13.301 22.914 15.875 22.914 15.875v-2.646s0-2.646-22.914-15.875c-16.469-9.508-21.101-10.816-22.404-10.799z" fill="#606162"/><path d="M115.552 86.923c-.086 1.048-1.104 1.944-1.351 2.088l-.024 18.179h-.002l-.09 4.057c.163-.093 1.68-.96 1.693-2.101l.01-.014z" fill="#3849ab" class="C"/><path d="M104.737 87.075l.226 22.196.01.014c.013 1.141 1.463 1.942 1.626 2.035l-.023-3.991h-.002l-.024-18.322c-1.186-.672-1.581-1.339-1.581-1.932h-.002z" fill="#424242" class="C"/><path d="M106.401 84.948s-3.744 2.051 0 4.102 7.487 0 7.487 0 3.744-2.051 0-4.102-7.487 0-7.487 0z" class="C F"/><path d="M111.245 91.942l-1.1-.66.15 22.241 1.1.66zm-8.518-4.943l-1.1-.66.15 22.241 1.1.66z" class="D C"/><path d="M111.245 91.942l7.417-4.282-1.1-.66-7.417 4.282z" fill="#77909c"/><path d="M118.662 87.659l.15 22.241-7.417 4.282-.15-22.241z" class="C E"/><path d="M102.727 86.999l7.417-4.282-1.1-.66-7.417 4.282z" fill="#78909c" class="C"/><use xlink:href="#C" x="-11.391" y="6.5" fill="#2196f3"/><path d="M153.513 72.213l11.391-6.5 15.232-.077-11.276 6.633z" class="C G"/><path d="M180.136 65.636l15.232 17.665-11.391 6.5L168.86 72.27z" class="C F"/><path d="M183.977 89.801l7.682 22.023 11.391-6.5-7.682-22.023z" fill="#606162"/><path d="M183.977 124.977l11.391-6.5 7.682-13.153-11.391 6.5z" fill="#767676"/><use xlink:href="#C" x="-11.391" y="6.5" class="C F"/><path d="M161.224 78.801l-.403.003c-.007 0-.015 0-.022 0l-.483.031-.103.01-.458.059c-.007 0-.015.003-.022.004l-.447.088-.144.035-.395.11-.081.025-.219.08-12.193 7.001c2.478-1.235 5.539-.663 7.796.1l.265.091.515.19.147.056a18.49 18.49 0 0 1 2.23 1.04l.008-.004 11.595-6.686-.062-.038h-.005.002l-.166-.091-.107-.055-.4-.205-.205-.096-.608-.281-.253-.109-.114-.048-.423-.171-.267-.1-.264-.098-.086-.03-.324-.11-.362-.117-1.117-.31-.636-.137c-.01-.003-.019-.004-.029-.006a16.03 16.03 0 0 0-.563-.093l-.152-.023-.478-.053-.236-.023a11.37 11.37 0 0 0-.453-.023l-.281-.01zm-14.97 7.448c-.009.005-.019.008-.028.012h.005z" class="N"/><use xlink:href="#D" x="-22.892" y="13.217" class="M"/><path d="M149.691 85.527h.001c-.134-.001-.268-.001-.403.003-.007 0-.014 0-.022 0l-.483.032-.103.01-.458.059-.022.004-.447.088-.144.035-.395.11-.081.026-.385.141-.164.068-.329.153-.015.004-.061.036-.091.048-.294.17-.052.035-19.673 11.358-2.822 1.572.006.001.339-.158.164-.068.385-.141.081-.025.395-.11.144-.035.442-.088.027-.005.458-.059.103-.01.478-.031.027-.001.403-.003.595.021.039.002.643.064.166.023.49.076.164.029.611.127.621.157.099.028.408.12.654.212.295.105.486.183.297.119.409.173 1.373.661.171.095-.002.001.092.012 22.914-13.229h-.016l.005-.003-.171-.095-1.373-.661-.409-.173-.297-.119-.486-.183-.295-.105-.654-.212-.408-.12-.099-.028-.621-.157-.611-.127-.164-.029-.49-.076-.166-.023-.643-.064-.039-.002-.595-.021z" class="N"/><g fill="#f1f0f0"><use xlink:href="#E" x="22.892" y="-13.216"/><path d="M183.997 107.467l-3.859 2.228-7.685 4.436-.022.012c-.003 5.633-1.564 8.558-3.688 9.934l10.576-6.236h0l1.486-.876c.315-.253.613-.551.893-.888 1.372-1.649 2.285-4.348 2.298-8.61zm-15.254 16.611l-.454.268a6 6 0 0 0 .454-.268z"/></g><path d="M203.049 156.918v2.646" class="H"/><path d="M149.464 125.98l.032 1.342h-.001l-.033 1.304 53.586 30.938 65.303 37.703v-2.646l-65.303-37.703z" fill="#263238" class="C"/><path d="M172.378 112.751l.032 1.342h-.001l-.033 1.304 53.586 30.938v-2.646z" class="C K"/><path d="M268.352 197.267l68.741-39.687v-2.646l-68.741 39.688zM134.309 37.855L88.481 64.314l2.29 1.323 43.537-25.136z" class="D C"/><use xlink:href="#B" x="93.956" y="54.234" class="C E"/><g class="D C"><use xlink:href="#B" x="72.168" y="41.655"/><use xlink:href="#B" x="161.55" y="40.344"/></g><use xlink:href="#B" x="138.637" y="53.573" class="C E"/><use xlink:href="#B" x="115.723" y="66.802" class="C D"/><use xlink:href="#B" x="182.172" y="78.708" class="C E"/><use xlink:href="#B" x="160.404" y="66.141" class="C D"/><use xlink:href="#B" x="137.491" y="79.369" class="C E"/><use xlink:href="#B" x="159.259" y="91.937" class="C D"/><use xlink:href="#B" x="183.318" y="52.911" class="C E"/><use xlink:href="#B" x="205.086" y="65.478" class="C D"/><use xlink:href="#B" x="-21.758" y="-12.573" class="C E"/><path d="M43.807 64.979L66.721 51.75l21.768 12.568-22.914 13.229z" class="C D"/><use xlink:href="#B" x="-20.605" y="-38.366" class="C E"/><use xlink:href="#B" x="2.302" y="-51.599" class="C D"/><path d="M22.04 52.412l22.914-13.229L66.721 51.75 43.807 64.979z" class="C E"/><g class="D C"><use xlink:href="#B" x="-87.061" y="-50.276"/><path d="M44.953 39.182l22.914-13.229 21.768 12.568L66.721 51.75z"/></g><path d="M67.86 25.949L90.774 12.72l21.768 12.568-22.914 13.229z" class="C E"/><path d="M46.092 13.382L69.005.152 90.773 12.72 67.859 25.949z" class="C D"/><path d="M23.179 26.611l22.914-13.229L67.86 25.949l-22.914 13.23zm48.032 136.675l45.69-26.377 3.627 6.354-45.69 26.377zM48.915 150.62l45.827-26.458 9.09 15.935-45.827 26.458zm110.579-18.849l22.914-13.229-10.03-5.791-22.914 13.229z" class="E C"/></g><path d="M276.906 27.678c2.703 3.256 2.537 7.279-.37 8.985-1.396.819-3.251.984-5.156.458s-3.705-1.699-5.003-3.262-1.989-3.389-1.92-5.074.892-3.092 2.288-3.912c2.908-1.707 7.457-.451 10.161 2.805z" fill="#0b3d91"/><g fill="#fff"><use xlink:href="#J"/><use xlink:href="#K"/><use xlink:href="#J" x="2.469" y="0.465"/><use xlink:href="#J" x="3.232" y="9.192"/><use xlink:href="#K" x="3.145" y="9.897"/><use xlink:href="#L"/><path d="M273.401 35.402c.011.013.017.029.016.043s-.008.026-.019.033-.027.008-.043.004-.031-.015-.042-.028-.017-.029-.016-.043.008-.026.019-.033.027-.008.043-.004.031.014.042.028z"/><use xlink:href="#M"/><use xlink:href="#N"/><use xlink:href="#L" x="-2.97" y="-6.974"/><use xlink:href="#L" x="-2.589" y="-8.671"/><use xlink:href="#M" x="-9.1" y="-5.236"/><path d="M267.139 27.053c.023.028.021.061-.003.076s-.063.004-.085-.024-.021-.061.003-.076.063-.004.085.024z"/><use xlink:href="#M" x="-8.869" y="-3.374"/><path d="M267.202 25.325c.011.013.017.028.016.043s-.007.026-.019.033-.027.008-.043.004-.031-.014-.042-.027c-.023-.028-.021-.061.003-.075s.063-.004.085.024z"/><use xlink:href="#M" x="-7.759" y="-5.735"/><path d="M267.988 26.573c.023.028.021.061-.003.076s-.063.004-.085-.024-.021-.061.003-.076.063-.004.085.024z"/><use xlink:href="#L" x="-2.622" y="-8.358"/><use xlink:href="#M" x="1.295" y="1.185"/><path d="M270.854 35.732c.011.013.017.028.016.043s-.008.026-.019.033-.027.008-.043.004-.031-.014-.042-.028-.017-.029-.016-.043.008-.026.019-.033.027-.008.043-.004.031.014.042.028z"/><use xlink:href="#N" x="-1.966" y="4.22"/><path d="M271.737 35.155c.011.013.017.028.016.043s-.008.026-.019.033c-.024.014-.063.004-.086-.024s-.021-.061.003-.076c.012-.007.027-.008.043-.004s.031.014.042.028z"/><use xlink:href="#N" x="-3.727" y="5.285"/><use xlink:href="#M" x="-1.287" y="1.219"/><use xlink:href="#L" x="5.752" y="-4.129"/><use xlink:href="#M" x="1.129" y="-0.763"/><use xlink:href="#L" x="8.069" y="-4.166"/><use xlink:href="#M" x="1.184" y="-1.534"/><use xlink:href="#M" x="-5.592" y="0.792"/><use xlink:href="#J" x="4.387" y="8.075"/><use xlink:href="#K" x="4.757" y="8.971"/><use xlink:href="#J" x="8.953" y="5.342"/><use xlink:href="#J" x="10.4" y="4.349"/><use xlink:href="#J" x="9.344" y="4.431"/><use xlink:href="#J" x="8.602" y="4.919"/><path d="M268.787 25.297l.134-.102-.154.077c-.031-.029-.074-.04-.106-.028l-.15-.156.129.17c-.021.022-.021.059.002.092l-.137.103.159-.08c.029.025.068.035.098.025l.154.161-.132-.173c.023-.021.025-.057.005-.09z"/><use xlink:href="#O"/><path d="M277.333 30.198l.134-.102-.154.077c-.031-.029-.074-.04-.106-.028l-.15-.155.129.17c-.021.022-.021.059.002.092l-.137.103.159-.079c.029.025.068.035.098.025l.154.161-.132-.173c.023-.021.025-.057.005-.09zm-3.882 6.04l.134-.102-.154.077c-.031-.029-.074-.04-.106-.028l-.15-.155.129.17c-.021.022-.021.059.001.092l-.137.103.159-.08c.029.025.068.035.098.026l.154.16-.132-.173c.023-.021.025-.057.005-.09z"/><use xlink:href="#O" x="10.114" y="3.186"/><path d="M271.717 28.624l-1.148 1.686c-.726.96-2.719 3.575-3.394 5.793l.193-.021c.489-1.257.989-1.855 1.445-2.46.495-.658 2.267-2.58 3.024-3.505l.828-1.12-.706-.283-.242-.09zm1.706.715l-.145.469c-.233.622-1.13 3.94-1.33 4.699s-.389 3.308-.451 4.051l.145.203.572-3.821c.212-1.041.762-3.061.967-3.726l.518-1.74-.049-.025-.227-.111zm.041-4.071c-.326.891-.985 2.123-1.681 3.248l.169.063.779.317c.567-.861 1.116-1.893 1.387-2.911-.043.589-.403 2.272-.666 3.246l.276.14.741-3.146c.129-.902.443-2.935-.428-4.901.164 1.805-.29 3.159-.577 3.944z" fill="#fc3d21"/><path d="M272.175 32.626l-.856-.32-1.017-.424-.102.116 1.26.536.74.271.184.083.047-.173-.257-.089zm1.562.364c-.179-.045-.551-.078-1.001-.19l-.058.218c.359.154.821.331 1.06.321.36-.014.229-.292 0-.35zm-1.785-4.411c-2.987-1.132-5.553-1.211-5.742-.14-.147.831 1.3 2.159 3.352 3.241l.081-.116c-2.027-1.038-3.398-2.305-3.259-3.089.174-.985 2.674-.861 5.574.238l1.691.736c2.002.999 3.341 2.178 3.244 3.037-.03.263-.485.627-1.432.682.002.019.046.045.065.047.791-.079 1.425-.304 1.498-.715.175-.988-2.086-2.79-5.072-3.922z"/><path d="M266.242 32.273l.881-.517 1.907.971-.911-1.097c-.102-.123-.376-.202-.445-.197l.61-.358c-.028.033-.013.266.099.401l1.339 1.612c.082.099.324.161.428.178l-.85.499-1.924-.971.922 1.11c.091.11.276.159.451.191l-.649.381c.056-.098.029-.289-.054-.404s-1.271-1.531-1.323-1.593c-.112-.134-.319-.176-.481-.206zm9.897-2.522l1.173-.688c-.08.021-.224-.022-.358-.114l-2.315-1.604-.446.262-.139.561c.099.157.925 1.776.962 1.859.051.114-.011.311-.024.404l.632-.371c-.129-.042-.244-.089-.305-.185l-.172-.292.653-.383c.103.071.19.137.264.206.089.082.09.232.076.345zm-1.168-.484l-.449-.936.961.636zm-1.214-1.285l.03-.138-.171.101.141.037zm-2.917 4.521l-.172-.292.653-.383a2.41 2.41 0 0 1 .264.205c.089.082.09.232.076.345l1.032-.606.024-.086a.73.73 0 0 1-.242-.111l-2.315-1.603-1.023.601c.091.022.346.075.447.235.09.143.916 1.763.953 1.845.051.114-.011.311-.024.404l.631-.37c-.129-.042-.244-.089-.305-.185zm-.797-1.544l.961.635-.511.3zm3.638-1.421l-.236.808c.139-.004.27.016.348.097.146.151-.076.395-.361.513-.057.024-.12.038-.185.046l-.065.212-.079.264.189.228c-.042-.142-.014-.309.069-.365.036-.024.277.034.785-.313.246-.169.491-.773.186-1.125-.18-.208-.415-.315-.65-.366zm-1.015 1.415l.193.232.053-.186a1.65 1.65 0 0 1-.246-.046zm.711-1.454h-.221c-.362.016-.645.146-.849 0-.143-.103-.13-.284.141-.436s.667-.12.787-.095l-.472-.568c-.001.034.004.195-.09.223a3.48 3.48 0 0 0-.77.334c-.337.201-.385.665-.087 1.041.416.526.903.45 1.179.409l.095-.016.187-.582.1-.309z"/></g><path d="M216.7 55.13l-1.691.979 1.202 1.448 1.688-.982zm-.56-1.311c.162-.094.347-.07.556.071l.045.048 2.516 3.031.038.053c.086.213.047.366-.114.46l-2.043 1.192 1.746 2.104-.687.403c-.004.002-.015-.006-.033-.026l-4.51-5.433-.038-.053c-.085-.213-.046-.367.117-.461zm4.263 2.95l1.715 2.066c.013.016.018.028.015.036l-.673.395c-.003.002-.014-.007-.032-.026l-4.494-5.413-.038-.053c-.085-.212-.046-.365.116-.459l2.41-1.391c.02-.012.04-.02.061-.025a.52.52 0 0 1 .532.177l4.462 5.375c.013.015.019.027.017.034l-.671.394c-.004.002-.015-.006-.033-.026l-1.711-2.061zm.754-2.089l-1.195-1.439-1.68.973 1.197 1.442zm2.039-3.312l-1.665.964 1.192 1.437 1.664-.967zm.933 3.227l-.485.284 1.733 2.088-.677.397c-.004.003-.015-.006-.033-.025l-4.477-5.394-.038-.052c-.085-.212-.047-.364.114-.457l2.372-1.369c.16-.092.343-.068.549.072l.046.048 2.497 3.009.038.052c.085.211.048.363-.111.456l-.642.374 2.704 1.514-.882.518zm2.732-1.594l1.703 2.051c.013.016.018.028.015.036l-.663.389c-.004.002-.015-.006-.032-.026l-4.461-5.374-.038-.052c-.085-.211-.047-.362.112-.454l2.375-1.371c.021-.012.041-.02.061-.025a.52.52 0 0 1 .527.177l4.429 5.336c.013.015.018.027.017.034l-.661.388c-.004.002-.015-.006-.033-.025l-1.699-2.047zm.736-2.067l-1.186-1.428-1.655.959 1.188 1.431zm4.098-.753l-1.313.766-.914-1.101 1.989-1.156 2.37 2.855.037.052c.085.209.049.36-.107.452l-2.326 1.364c-.157.093-.338.069-.544-.07l-.045-.048-4.21-5.072-.038-.052c-.085-.21-.048-.36.111-.452l2.667-1.54.904 1.088-2.319 1.343 2.914 3.51 1.638-.959zm2.904 1.373c-.156.092-.337.069-.541-.071l-.045-.047-4.429-5.335c-.015-.021-.021-.032-.017-.035l.657-.379c.01.001.021.009.034.024l3.781 4.555 1.626-.952-3.773-4.546c-.013-.015-.018-.027-.016-.035l.654-.377c.004-.002.015.006.032.025l4.414 5.317.037.052c.085.208.05.358-.106.45zm1.776-4.103l1.684 2.028c.013.016.018.028.015.036l-.648.38c-.004.003-.015-.006-.032-.025l-4.413-5.316-.038-.052c-.084-.208-.048-.357.108-.447l2.324-1.342c.02-.011.04-.019.059-.024.217-.038.39.021.519.177l4.381 5.278c.013.015.019.027.018.034l-.648.38c-.003.002-.014-.006-.032-.025l-1.68-2.025zm.711-2.035l-1.174-1.413-1.62.938 1.176 1.416z"/><path d="M239.474 44.747l-.191-.122-.003-.003-2.292-1.47-1.123-.721.784-.453 1.749 1.125.427.271-.157-.428-.648-1.76.781-.45.414 1.126.734 2.001.178.49 2.209 2.661-.659.387z"/><defs ><path id="B" d="M87.326 90.116l22.914-13.229 21.768 12.568-22.914 13.229z"/><path id="C" d="M180.136 65.636l-15.232.077-7.682 13.153 7.682 22.023 15.232 17.665 15.232-.077 7.682-13.153-7.682-22.023zm-7.616 6.659c3.808 0 7.616 2.2 7.616 2.2s15.232 8.8 15.232 26.399-15.232 8.799-15.232 8.799-15.232-8.8-15.232-26.399c0-8.8 3.808-11 7.616-11z"/><path id="D" d="M180.136 74.495l-22.914 13.229s15.21 8.807 15.21 26.42l22.908-13.24.006.01v-.014c-.008-17.604-15.21-26.406-15.21-26.406z"/><path id="E" d="M149.54 127.361l-15.207 8.78-7.685 4.436c-.002 6.027-1.791 8.955-4.142 10.201h0l22.91-13.226c2.687-1.52 4.125-2.984 4.125-10.188z"/><path id="F" d="M100.409 123.41l-5.667 3.064s1.731 1.019 1.783 3.054l.004.007 5.631-3.07h0l-.002-.019c-.05-1.931-1.592-2.939-1.749-3.037z"/><path id="G" d="M100.249 136.003s1.788 1.049 1.788 3.146-1.788 1.049-1.788 1.049-1.788-1.049-1.788-3.146 1.788-1.049 1.788-1.049z"/><path id="H" d="M104.981 132.603a.86.86 0 0 0-.394.093h-.003l-.082.046-5.538 3.09h0c.529-.269 1.286.171 1.286.171l5.667-3.064s-.488-.335-.935-.336z"/><path id="I" d="M107.667 135.994l-1.867 1.018-3.765 2.052-.003.008.004.077c0 .721-.213 1.065-.49 1.213l-.003.007 5.499-3.062c.348-.088.633-.406.633-1.223 0-.032-.008-.058-.009-.089z"/><path id="J" d="M267.434 26.153c.015.017.022.038.022.057s-.01.035-.026.044-.036.011-.058.005-.042-.019-.056-.037-.022-.038-.022-.057.01-.035.026-.044.036-.011.058-.005.042.019.056.037z"/><path id="K" d="M268.113 25.886c.015.018.022.038.022.057s-.01.035-.026.044-.036.011-.058.005-.042-.019-.056-.037-.022-.038-.022-.057.01-.035.026-.044.036-.011.058-.005.042.019.056.037z"/><path id="L" d="M270.138 35.772c.023.028.021.061-.003.075s-.063.004-.085-.024-.021-.061.003-.075.063-.004.085.024z"/><path id="M" d="M276.438 32.317c.023.027.021.061-.003.075s-.063.004-.085-.024-.021-.061.003-.075.063-.004.085.024z"/><path id="N" d="M276.427 30.345c.011.013.017.029.016.043s-.008.026-.019.033-.027.008-.043.004-.031-.014-.042-.027-.017-.029-.016-.043.008-.026.019-.033.027-.008.043-.004.031.014.042.028z"/><path id="O" d="M267.829 28.581l.134-.102-.154.077c-.031-.029-.074-.04-.106-.028l-.15-.155.129.17c-.021.022-.021.059.002.092l-.137.103.159-.08c.029.025.068.035.098.025l.154.161-.132-.173c.023-.021.025-.057.005-.09z"/></defs></svg>