<?xml version="1.0" encoding="UTF-8" standalone="no"?>
<svg
   xmlns:dc="http://purl.org/dc/elements/1.1/"
   xmlns:cc="http://creativecommons.org/ns#"
   xmlns:rdf="http://www.w3.org/1999/02/22-rdf-syntax-ns#"
   xmlns:svg="http://www.w3.org/2000/svg"
   xmlns="http://www.w3.org/2000/svg"
   xmlns:sodipodi="http://sodipodi.sourceforge.net/DTD/sodipodi-0.dtd"
   xmlns:inkscape="http://www.inkscape.org/namespaces/inkscape"
   sodipodi:docname="satellite.svg"
   inkscape:version="1.0.2-2 (e86c870879, 2021-01-15)"
   id="svg8"
   version="1.1"
   viewBox="0 0 337.35778 197.49631"
   height="746.44275"
   width="1275.0531">
  <title
     id="title1905">Satellite</title>
  <defs
     id="defs2">
    <rect
       x="251.35416"
       y="188.64792"
       width="82.285416"
       height="17.727083"
       id="rect9486" />
    <inkscape:perspective
       sodipodi:type="inkscape:persp3d"
       inkscape:vp_x="-207.38656 : 775.9932 : 1"
       inkscape:vp_y="0 : 3779.5274 : 0"
       inkscape:vp_z="1792.6134 : 775.9932 : 1"
       inkscape:persp3d-origin="792.61345 : 442.6599 : 1"
       id="perspective1223" />
    <inkscape:perspective
       sodipodi:type="inkscape:persp3d"
       inkscape:vp_x="-69.905031 : 775.9932 : 1"
       inkscape:vp_y="0 : 3779.5274 : 0"
       inkscape:vp_z="1930.0949 : 775.9932 : 1"
       inkscape:persp3d-origin="930.09498 : 442.6599 : 1"
       id="perspective1207" />
    <inkscape:perspective
       sodipodi:type="inkscape:persp3d"
       inkscape:vp_x="-184.47297 : 921.51409 : 1"
       inkscape:vp_y="0 : 3779.5274 : 0"
       inkscape:vp_z="1815.527 : 921.51409 : 1"
       inkscape:persp3d-origin="815.52704 : 588.1807 : 1"
       id="perspective1177" />
    <inkscape:perspective
       sodipodi:type="inkscape:persp3d"
       inkscape:vp_x="119.89748 : 863.8226 : 1"
       inkscape:vp_y="0 : 3779.5274 : 0"
       inkscape:vp_z="2119.8975 : 863.8226 : 1"
       inkscape:persp3d-origin="1119.8975 : 530.4893 : 1"
       id="perspective1161" />
    <inkscape:perspective
       sodipodi:type="inkscape:persp3d"
       inkscape:vp_x="66.03444 : 684.4639 : 1"
       inkscape:vp_y="0 : 3779.5274 : 0"
       inkscape:vp_z="2066.0344 : 684.4639 : 1"
       inkscape:persp3d-origin="1066.0344 : 351.13051 : 1"
       id="perspective1159" />
    <inkscape:perspective
       sodipodi:type="inkscape:persp3d"
       inkscape:vp_x="-22.551887 : 738.9425 : 1"
       inkscape:vp_y="0 : 3779.5274 : 0"
       inkscape:vp_z="1977.4481 : 738.9425 : 1"
       inkscape:persp3d-origin="977.44809 : 405.60911 : 1"
       id="perspective1155" />
    <inkscape:perspective
       sodipodi:type="inkscape:persp3d"
       inkscape:vp_x="-48.808471 : -35.100785 : 1"
       inkscape:vp_y="0 : 999.99997 : 0"
       inkscape:vp_z="480.35817 : -35.100785 : 1"
       inkscape:persp3d-origin="215.77486 : -123.29528 : 1"
       id="perspective1083" />
    <rect
       x="251.35416"
       y="188.64792"
       width="82.285416"
       height="17.727083"
       id="rect9494" />
  </defs>
  <sodipodi:namedview
     id="base"
     pagecolor="#ffffff"
     bordercolor="#666666"
     borderopacity="1.0"
     inkscape:pageopacity="0.0"
     inkscape:pageshadow="2"
     inkscape:zoom="0.70710678"
     inkscape:cx="828.75032"
     inkscape:cy="253.26771"
     inkscape:document-units="px"
     inkscape:current-layer="layer2"
     showgrid="false"
     inkscape:showpageshadow="true"
     showborder="true"
     inkscape:window-width="1920"
     inkscape:window-height="1017"
     inkscape:window-x="1912"
     inkscape:window-y="-8"
     inkscape:window-maximized="1"
     units="px"
     inkscape:snap-object-midpoints="false"
     showguides="false"
     inkscape:guide-bbox="true"
     inkscape:snap-grids="false"
     inkscape:document-rotation="0"
     inkscape:snap-intersection-paths="true"
     inkscape:lockguides="false"
     fit-margin-top="0"
     fit-margin-left="0"
     fit-margin-right="0"
     fit-margin-bottom="0">
    <inkscape:grid
       type="axonomgrid"
       id="grid815"
       units="px"
       empspacing="5"
       spacingy="26.458333"
       originx="-68.635006"
       originy="-167.51541" />
    <sodipodi:guide
       position="304.65226,148.28703"
       orientation="0.5,-0.8660254"
       id="guide7832"
       inkscape:label=""
       inkscape:locked="false"
       inkscape:color="rgb(0,0,255)" />
    <sodipodi:guide
       position="314.53071,136.42419"
       orientation="0.5,-0.8660254"
       id="guide7834"
       inkscape:label=""
       inkscape:locked="false"
       inkscape:color="rgb(0,0,255)" />
    <sodipodi:guide
       position="260.04153,113.92005"
       orientation="0.5,-0.8660254"
       id="guide9471"
       inkscape:label=""
       inkscape:locked="false"
       inkscape:color="rgb(0,0,255)" />
  </sodipodi:namedview>
  <metadata
     id="metadata5">
    <rdf:RDF>
      <cc:Work
         rdf:about="">
        <dc:format>image/svg+xml</dc:format>
        <dc:type
           rdf:resource="http://purl.org/dc/dcmitype/StillImage" />
        <dc:title>Satellite</dc:title>
        <dc:date>2020/01/30</dc:date>
        <dc:creator>
          <cc:Agent>
            <dc:title>hentai-chan</dc:title>
          </cc:Agent>
        </dc:creator>
        <dc:rights>
          <cc:Agent>
            <dc:title>hentai-chan</dc:title>
          </cc:Agent>
        </dc:rights>
        <cc:license
           rdf:resource="http://creativecommons.org/licenses/by-nc-nd/4.0/" />
        <dc:publisher>
          <cc:Agent>
            <dc:title>Advanced Systems</dc:title>
          </cc:Agent>
        </dc:publisher>
        <dc:source>https://github.com/Advanced-Systems/vector-assets</dc:source>
      </cc:Work>
      <cc:License
         rdf:about="http://creativecommons.org/licenses/by-nc-nd/4.0/">
        <cc:permits
           rdf:resource="http://creativecommons.org/ns#Reproduction" />
        <cc:permits
           rdf:resource="http://creativecommons.org/ns#Distribution" />
        <cc:requires
           rdf:resource="http://creativecommons.org/ns#Notice" />
        <cc:requires
           rdf:resource="http://creativecommons.org/ns#Attribution" />
        <cc:prohibits
           rdf:resource="http://creativecommons.org/ns#CommercialUse" />
      </cc:License>
    </rdf:RDF>
  </metadata>
  <g
     inkscape:label="Layer 1"
     inkscape:groupmode="layer"
     id="layer1"
     transform="translate(-68.635016,64.651194)" />
  <g
     inkscape:groupmode="layer"
     id="layer2"
     inkscape:label="Tools"
     style="display:inline"
     transform="translate(-68.635016,-167.51551)">
    <g
       inkscape:groupmode="layer"
       id="layer3"
       inkscape:label="Colors"
       style="display:inline" />
    <g
       inkscape:groupmode="layer"
       id="layer4"
       inkscape:label="SocialMediaIcons" />
    <g
       id="g1370">
      <path
         style="fill:#455a64;fill-opacity:0.992157;stroke:#000000;stroke-width:0.264583px;stroke-linecap:butt;stroke-linejoin:miter;stroke-opacity:1"
         d="m 155.96054,257.63221 22.91361,-13.22933 21.76761,12.56773 -22.91359,13.22933 z"
         id="path4696" />
      <path
         style="fill:#546e7a;fill-opacity:0.992157;stroke:#000000;stroke-width:0.264583px;stroke-linecap:butt;stroke-linejoin:miter;stroke-opacity:1"
         d="m 200.64176,256.97061 -22.9136,13.22935 10.02988,5.79083 22.91394,-13.22917 z"
         id="path4831" />
      <path
         id="path4573"
         style="fill:#253137;fill-opacity:0.992157;stroke:#000000;stroke-width:0.264583px;stroke-linecap:butt;stroke-linejoin:miter;stroke-opacity:1"
         d="m 68.899455,207.35608 v 2.64531 l 65.303505,37.70313 68.74051,39.6875 v -2.64584 l -68.74051,-39.6875 z" />
      <path
         style="fill:#ff5252;stroke:#000000;stroke-width:0.264583px;stroke-linecap:butt;stroke-linejoin:miter;stroke-opacity:1"
         d="m 271.68424,219.92326 c 0,0 22.91361,13.22917 22.91361,39.6875 0,26.45834 -22.91361,13.22917 -22.91361,13.22917 0,0 -22.91357,-13.22917 -22.91357,-39.6875 0,-26.45834 22.91357,-13.22917 22.91357,-13.22917 z"
         id="path1079" />
      <path
         style="fill:none;stroke:#000000;stroke-width:0.264583px;stroke-linecap:butt;stroke-linejoin:miter;stroke-opacity:1"
         d="m 271.68423,219.92326 45.82719,-26.45833"
         id="path1081" />
      <path
         style="fill:none;stroke:#000000;stroke-width:0.264583px;stroke-linecap:butt;stroke-linejoin:miter;stroke-opacity:1"
         d="m 294.59784,259.61076 45.82715,-26.45833"
         id="path1083" />
      <path
         id="path1124"
         style="fill:#bdbdbd;fill-opacity:0.992157;stroke:#000000;stroke-width:0.264583px;stroke-linecap:butt;stroke-linejoin:miter;stroke-opacity:1"
         d="m 306.05448,190.15764 c -1.74347,0 -3.48591,0.30977 -5.06791,1.10898 l -0.0217,-0.003 -0.40618,0.23462 c -0.0709,0.0407 -0.14227,0.0796 -0.21238,0.12247 l -45.20862,26.10125 0.0217,0.003 c 6.77973,-3.42524 16.52511,2.19832 16.52511,2.19832 l 22.91331,-13.22917 22.91387,-13.22917 c 0,0 -5.72873,-3.30729 -11.4572,-3.30729 z" />
      <path
         id="path1136"
         style="fill:#bdbdbd;fill-opacity:0.992157;stroke:#000000;stroke-width:0.264583px;stroke-linecap:butt;stroke-linejoin:miter;stroke-opacity:1"
         d="m 328.96832,176.92848 c -1.74347,0 -3.48591,0.30976 -5.06791,1.10897 l -0.0222,-0.003 -0.40669,0.23513 c -0.0712,0.0409 -0.14301,0.0799 -0.21344,0.12298 l -22.27152,12.87416 c 1.582,-0.79922 3.32444,-1.10898 5.06791,-1.10898 5.72847,0 11.4572,3.30729 11.4572,3.30729 l 22.91331,-13.22917 c 0,0 -5.7282,-3.30729 -11.45667,-3.30729 z" />
      <path
         id="path1144"
         style="fill:#e0e0e0;fill-opacity:0.992157;stroke:#000000;stroke-width:0.264583px;stroke-linecap:butt;stroke-linejoin:miter;stroke-opacity:1"
         d="m 340.42499,180.23577 -22.91331,13.22916 c 0,0 22.91331,13.22917 22.91331,39.6875 l 22.91384,-13.22916 c 0,-26.45833 -22.91384,-39.6875 -22.91384,-39.6875 z" />
      <path
         id="path1108"
         style="fill:#e1e1e1;fill-opacity:0.992157;stroke:#000000;stroke-width:0.264583px;stroke-linecap:butt;stroke-linejoin:miter;stroke-opacity:1"
         d="m 317.51169,193.46493 -45.82718,26.45834 c 0,0 22.91332,13.22916 22.91332,39.6875 l 45.82718,-26.45834 c 0,-26.45833 -22.91332,-39.6875 -22.91332,-39.6875 z m -28.66596,81.1661 c -0.20362,0.14769 -0.40883,0.2844 -0.61494,0.41032 0.20611,-0.12592 0.41132,-0.26263 0.61494,-0.41032 z" />
      <path
         style="fill:none;stroke:#e63834;stroke-width:0.264583px;stroke-linecap:butt;stroke-linejoin:miter;stroke-opacity:0.992157"
         d="m 235.84614,241.99057 -2.30711,-8.76175"
         id="path1224"
         sodipodi:nodetypes="cc" />
      <path
         id="path1226"
         style="fill:#bdbdbd;fill-opacity:0.992157;stroke:#000000;stroke-width:0.264583px;stroke-linecap:butt;stroke-linejoin:miter;stroke-opacity:1"
         d="m 260.22783,216.61598 c -2.86335,0 -5.72651,0.82649 -7.87445,3.30522 h -0.005 l -0.0486,0.0651 c -0.27361,0.32112 -0.53499,0.67016 -0.78341,1.04749 L 235.846,241.99064 h 0.0915 c 4.29008,-4.914 12.83282,0.0206 12.83282,0.0206 l 22.91281,-22.08753 v -5.3e-4 c -0.003,-0.001 -5.72884,-3.30729 -11.45614,-3.30729 z" />
      <path
         id="path1246"
         style="fill:#e2e2e2;fill-opacity:0.992157;stroke:#000000;stroke-width:0.264583px;stroke-linecap:butt;stroke-linejoin:miter;stroke-opacity:1"
         d="m 271.68397,219.92327 v 5.3e-4 l -22.91332,22.08755 c 0,0 15.20992,8.80657 15.20992,26.4201 l 30.61724,-8.82068 c 0,-26.45199 -22.90183,-39.68065 -22.91281,-39.68699 0,0 0,-5.3e-4 0,-5.3e-4 z" />
      <path
         id="path1278"
         style="fill:#f0f0f0;fill-opacity:0.992157;stroke:#000000;stroke-width:0.264583px;stroke-linecap:butt;stroke-linejoin:miter;stroke-opacity:1"
         d="m 293.66611,250.56945 c 0.0583,0.27747 0.11623,0.55491 0.16949,0.83614 -0.0533,-0.28115 -0.11123,-0.55878 -0.16949,-0.83614 z m 0.9317,9.04132 -30.59554,8.81446 c -0.004,7.42505 -2.72164,10.14468 -5.8601,10.80966 v 0 l 25.61135,-3.10214 c 0.66452,-0.0284 1.32609,-0.10493 1.97612,-0.23926 l 0.019,-0.003 v -0.003 c 4.73839,-0.98833 8.84803,-5.074 8.84803,-16.2791 z" />
      <path
         id="path4253"
         style="fill:#2196f3;fill-opacity:1;stroke:#000000;stroke-width:0.264583px;stroke-linecap:butt;stroke-linejoin:miter;stroke-opacity:1"
         d="m 248.77065,233.15243 -15.23162,0.0765 -7.6817,13.15268 7.6817,22.02295 15.23162,17.66456 15.23163,-0.0765 7.6817,-13.15268 -7.6817,-22.02295 z m -7.61556,6.65851 c 3.80791,0 7.61556,2.20038 7.61556,2.20038 0,0 15.23163,8.79973 15.23163,26.39942 0,17.59969 -15.23163,8.79946 -15.23163,8.79946 0,0 -15.23162,-8.79973 -15.23162,-26.39942 0,-8.79984 3.80815,-10.99984 7.61606,-10.99984 z" />
      <path
         style="fill:none;stroke:#e83632;stroke-width:0.264583px;stroke-linecap:butt;stroke-linejoin:miter;stroke-opacity:0.992157"
         d="m 248.77066,242.01131 v 17.63892"
         id="path1315" />
      <path
         id="path1319"
         style="fill:#e3e2e2;fill-opacity:1;stroke:#000000;stroke-width:0.264583px;stroke-linecap:butt;stroke-linejoin:miter;stroke-opacity:1"
         d="m 248.77065,242.01132 -22.91385,13.22917 c 0,0 15.20993,8.80657 15.20993,26.4201 l 22.90765,-13.23952 0.006,0.0103 c 0,-0.005 0,-0.009 0,-0.014 v 0 c -0.008,-17.60379 -15.20991,-26.40563 -15.20991,-26.40563 z" />
      <path
         style="fill:none;stroke:#e63834;stroke-width:0.264583px;stroke-linecap:butt;stroke-linejoin:miter;stroke-opacity:0.992157"
         d="m 241.08868,299.22187 -4.16824,-7.30779"
         id="path1361" />
      <path
         style="fill:#e0e0e0;fill-opacity:0.992157;stroke:#000000;stroke-width:0.264583px;stroke-linecap:butt;stroke-linejoin:miter;stroke-opacity:1"
         d="m 180.02988,281.69858 c 0,0 15.23163,8.79984 15.23163,26.39952 0,17.59969 -15.23163,8.79985 -15.23163,8.79985 0,0 -15.23161,-8.79985 -15.23161,-26.39953 0,-17.59968 15.23161,-8.79984 15.23161,-8.79984 z"
         id="path1396" />
      <path
         id="path1400"
         style="fill:#f1f0f0;fill-opacity:1;stroke:#000000;stroke-width:0.264583px;stroke-linecap:butt;stroke-linejoin:miter;stroke-opacity:1"
         d="m 218.17458,294.87734 -15.20735,8.78033 -7.6848,4.43643 c -0.002,6.02713 -1.79101,8.95533 -4.14238,10.20146 v 0 l 22.90952,-13.2259 c 2.68733,-1.52001 4.12504,-2.98408 4.12504,-10.18818 z"
         sodipodi:nodetypes="ccccccsc" />
      <path
         id="path1402"
         style="fill:#e3e2e2;fill-opacity:1;stroke:#000000;stroke-width:0.264583px;stroke-linecap:butt;stroke-linejoin:miter;stroke-opacity:1"
         d="m 202.94374,268.46941 -22.91386,13.22917 c 0,0 15.20993,8.80658 15.20993,26.4201 l 22.90765,-13.23951 0.006,0.0103 c 0,-0.005 0,-0.009 0,-0.0139 v -5.3e-4 c -0.008,-17.60379 -15.20991,-26.40563 -15.20991,-26.40563 z" />
      <path
         id="path1414"
         style="fill:#bebdbd;fill-opacity:1;stroke:#000000;stroke-width:0.264583px;stroke-linecap:butt;stroke-linejoin:miter;stroke-opacity:1"
         d="m 195.31889,266.25916 5.2e-4,5.1e-4 c -0.13414,-9.8e-4 -0.2685,-0.001 -0.40256,0.003 -0.007,2.4e-4 -0.0145,-2.6e-4 -0.0217,0 -0.002,5e-5 -0.003,4.8e-4 -0.005,5.3e-4 -0.15975,0.006 -0.31892,0.0167 -0.478,0.031 -0.0344,0.003 -0.069,0.006 -0.10336,0.0104 -0.15303,0.0157 -0.30606,0.0346 -0.45785,0.0589 -0.007,9.8e-4 -0.0148,0.002 -0.0222,0.004 -0.002,2.9e-4 -0.003,2.4e-4 -0.005,5.3e-4 -0.14827,0.0243 -0.29528,0.0547 -0.44183,0.0878 -0.048,0.0109 -0.0959,0.0227 -0.14366,0.0346 -0.13258,0.0329 -0.26465,0.0688 -0.39533,0.10954 -0.0271,0.008 -0.0541,0.017 -0.0811,0.0259 -0.12973,0.0423 -0.25762,0.0899 -0.38499,0.14057 -0.055,0.0219 -0.1098,0.0447 -0.16433,0.0682 -0.11066,0.0476 -0.22015,0.099 -0.32866,0.15346 -0.003,0.002 -0.007,0.003 -0.0103,0.005 l -0.005,-5.3e-4 -0.0615,0.0357 c -0.0305,0.0159 -0.0612,0.0311 -0.0915,0.0476 -0.099,0.0536 -0.19716,0.1103 -0.29404,0.16999 -0.0177,0.011 -0.0346,0.024 -0.0522,0.0352 l -19.67322,11.35795 -2.82205,1.572 0.006,5.3e-4 c 0.003,-0.002 0.007,-0.003 0.01,-0.005 0.10851,-0.0545 0.21801,-0.10589 0.32867,-0.15349 0.0545,-0.0235 0.10933,-0.0463 0.16433,-0.0682 0.12737,-0.0507 0.25526,-0.0983 0.38499,-0.14058 0.027,-0.009 0.054,-0.0173 0.0811,-0.0253 0.13068,-0.0407 0.26275,-0.0766 0.39532,-0.10954 0.0478,-0.0119 0.0957,-0.0237 0.14366,-0.0346 0.14655,-0.0331 0.29357,-0.0636 0.44184,-0.0878 0.002,-2.9e-4 0.003,-2.4e-4 0.005,-5.3e-4 0.007,-0.002 0.0152,-0.003 0.0222,-0.004 0.15179,-0.0243 0.30483,-0.0432 0.45785,-0.0589 0.0343,-0.004 0.069,-0.007 0.10336,-0.0103 0.15909,-0.0143 0.31825,-0.025 0.478,-0.031 0.002,-5e-5 0.003,-4.8e-4 0.005,-5.3e-4 0.007,-2.6e-4 0.0147,2.7e-4 0.0217,0 0.13405,-0.004 0.26842,-0.004 0.40256,-0.003 0.19868,0.002 0.39735,0.008 0.59531,0.0212 0.013,10e-4 0.0264,6.9e-4 0.0393,0.002 0.21558,0.0148 0.43004,0.0371 0.64337,0.0636 0.0555,0.007 0.11058,0.0147 0.16588,0.0227 0.16463,0.0226 0.32811,0.0476 0.49041,0.076 0.0548,0.01 0.10984,0.0188 0.16433,0.029 0.20577,0.0386 0.41039,0.0803 0.61082,0.1266 0.21066,0.0487 0.41738,0.10171 0.62064,0.15711 0.0333,0.009 0.0656,0.0189 0.0987,0.0279 0.13853,0.0387 0.27343,0.0794 0.40772,0.12039 0.22431,0.0684 0.4431,0.13909 0.65371,0.21188 0.10072,0.0348 0.19735,0.0701 0.29455,0.10541 0.16744,0.0609 0.33039,0.12173 0.48628,0.18296 0.10137,0.0398 0.20114,0.0795 0.29714,0.11885 0.14296,0.0587 0.27918,0.11642 0.40928,0.17312 0.64714,0.28209 1.13284,0.5317 1.37252,0.66092 0.11135,0.0601 0.17105,0.0946 0.17105,0.0946 l -0.002,0.001 0.0925,0.0124 22.91385,-13.22917 h -0.0155 l 0.005,-0.003 c 0,0 -0.0597,-0.0345 -0.17105,-0.0946 -0.23968,-0.12922 -0.72539,-0.37885 -1.37253,-0.66095 -0.1301,-0.0567 -0.26632,-0.11441 -0.40927,-0.17312 -0.096,-0.0394 -0.19577,-0.079 -0.29715,-0.11885 -0.15588,-0.0612 -0.31884,-0.12208 -0.48627,-0.18293 -0.0972,-0.0353 -0.19383,-0.0706 -0.29456,-0.10541 -0.2106,-0.0728 -0.42939,-0.14343 -0.6537,-0.21188 -0.13428,-0.041 -0.2692,-0.0817 -0.40773,-0.12041 -0.0331,-0.009 -0.0654,-0.0188 -0.0987,-0.0279 -0.20325,-0.0554 -0.40997,-0.1084 -0.62064,-0.15708 -0.20043,-0.0463 -0.40504,-0.088 -0.61081,-0.1266 -0.0545,-0.0102 -0.10951,-0.0193 -0.16433,-0.029 -0.1623,-0.0284 -0.32579,-0.0534 -0.49041,-0.076 -0.0553,-0.008 -0.11037,-0.0159 -0.16588,-0.0227 -0.21333,-0.0264 -0.42779,-0.0488 -0.64337,-0.0636 -0.0129,-8.7e-4 -0.0263,-7.6e-4 -0.0393,-0.002 -0.19796,-0.0129 -0.39663,-0.019 -0.59531,-0.0207 z" />
      <path
         id="path1096"
         style="fill:#efefef;fill-opacity:0.992157;stroke:#000000;stroke-width:0.264583px;stroke-linecap:butt;stroke-linejoin:miter;stroke-opacity:1"
         d="m 340.42499,233.15243 -45.82718,26.45834 c 0,8.65198 -3.06911,13.41596 -6.36704,15.43058 l 45.82718,-26.45834 -0.004,-0.0119 c 3.60696,-1.83224 6.37066,-6.23126 6.37066,-15.4187 z" />
      <path
         id="path1102"
         style="fill:#eeeeee;fill-opacity:0.992157;stroke:#000000;stroke-width:0.264583px;stroke-linecap:butt;stroke-linejoin:miter;stroke-opacity:1"
         d="m 363.33883,219.92327 -22.91384,13.22916 c 0,8.87521 -2.57947,13.28135 -6.00633,15.22233 l 22.55313,-13.02091 -0.004,-0.0119 c 3.6068,-1.83234 6.37066,-6.23152 6.37066,-15.4187 z m -28.95687,28.47268 c -0.10848,0.0608 -0.21751,0.11925 -0.32763,0.17518 l 0.004,0.0119 z" />
      <path
         id="path1176"
         style="fill:#37474f;fill-opacity:0.992157;stroke:#000000;stroke-width:0.264583px;stroke-linecap:butt;stroke-linejoin:miter;stroke-opacity:1"
         d="m 351.81552,182.59997 -4.72065,2.69389 c 3.11529,2.79573 6.80175,6.74488 9.87846,11.86284 l 5.68907,-3.26388 z" />
      <path
         id="path1178"
         style="fill:#263238;fill-opacity:0.992157;stroke:#000000;stroke-width:0.264583px;stroke-linecap:butt;stroke-linejoin:miter;stroke-opacity:1"
         d="m 342.07607,181.30754 c 1.2106,0.83585 2.99074,2.16628 5.0188,3.98632 l 4.72065,-2.69389 z" />
      <path
         id="path1180"
         style="fill:#455a64;fill-opacity:0.992157;stroke:#000000;stroke-width:0.264583px;stroke-linecap:butt;stroke-linejoin:miter;stroke-opacity:1"
         d="m 362.6624,193.89282 -5.68907,3.26388 c 2.44499,4.06712 4.50117,8.86703 5.57125,14.40067 l 4.49998,-2.5678 z" />
      <path
         id="path1182"
         style="fill:#546e7a;fill-opacity:0.992157;stroke:#000000;stroke-width:0.264583px;stroke-linecap:butt;stroke-linejoin:miter;stroke-opacity:1"
         d="m 367.04456,208.98957 -4.49998,2.5678 c 0.39981,2.06748 0.65918,4.23853 0.7524,6.51071 z" />
      <path
         id="path1262"
         style="fill:#424242;fill-opacity:0.992157;stroke:#000000;stroke-width:0.264583px;stroke-linecap:butt;stroke-linejoin:miter;stroke-opacity:1"
         d="m 357.64254,178.64827 c -0.87066,6e-5 -1.74077,0.15558 -2.53008,0.55759 l 0.008,-0.006 -0.014,0.009 c -0.65072,0.3325 -1.24592,0.83338 -1.73995,1.55649 l -1.98594,1.77716 0.4341,0.0579 3.62921,3.77807 7.89358,-6.08284 v -5.3e-4 c 0,0 -2.84726,-1.64621 -5.69473,-1.64641 z" />
      <path
         id="path1208"
         style="fill:#616161;fill-opacity:0.992157;stroke:#000000;stroke-width:0.264583px;stroke-linecap:butt;stroke-linejoin:miter;stroke-opacity:1"
         d="m 363.33833,180.29468 v 5.3e-4 l -7.89358,6.08283 7.21765,7.51479 2.88044,9.92342 9.18083,-3.77806 0.005,0.003 v -0.005 l 0.0336,-0.014 -0.0346,-0.0599 c -0.0507,-13.10799 -11.38283,-19.66376 -11.38846,-19.66702 z"
         sodipodi:nodetypes="ccccccccccsc" />
      <path
         id="path1273"
         style="fill:#757575;fill-opacity:0.992157;stroke:#000000;stroke-width:0.264583px;stroke-linecap:butt;stroke-linejoin:miter;stroke-opacity:1"
         d="m 374.77121,200.12554 -9.20202,3.78113 1.47537,5.0829 -0.15142,0.36638 5.64692,-1.89596 c 0.90096,-0.51155 2.21988,-2.85159 2.23478,-7.33345 v 0 0 0 z"
         sodipodi:nodetypes="cccccccccc" />
      <path
         id="path3315"
         style="fill:#757575;fill-opacity:1;stroke:#000000;stroke-width:0.264583px;stroke-linecap:butt;stroke-linejoin:miter;stroke-opacity:1"
         d="m 169.04416,290.92607 -5.66728,3.06435 c 0,0 1.73127,1.01946 1.78335,3.05406 l 0.004,0.007 5.63118,-3.06959 v 0 l -0.002,-0.0188 c -0.0499,-1.93117 -1.59173,-2.93886 -1.74925,-3.03702 z"
         sodipodi:nodetypes="ccccccccc" />
      <path
         id="path3363"
         style="fill:#757575;fill-opacity:1;stroke:#000000;stroke-width:0.264583px;stroke-linecap:butt;stroke-linejoin:miter;stroke-opacity:1"
         d="m 174.55118,300.45451 -5.66728,3.06435 c 0,0 1.73127,1.01946 1.78335,3.05406 l 0.004,0.007 5.63118,-3.06959 v 0 l -0.002,-0.0188 c -0.0499,-1.93117 -1.59173,-2.93886 -1.74925,-3.03702 z"
         sodipodi:nodetypes="ccccccccc" />
      <path
         style="fill:#bdbdbd;fill-opacity:0.992157;stroke:#000000;stroke-width:0.264583px;stroke-linecap:butt;stroke-linejoin:miter;stroke-opacity:1"
         d="m 168.8839,303.51886 c 0,0 1.7882,1.04854 1.7882,3.14561 0,2.09708 -1.7882,1.04854 -1.7882,1.04854 0,0 -1.7882,-1.04854 -1.7882,-3.14561 0,-2.09707 1.7882,-1.04854 1.7882,-1.04854 z"
         id="path3365" />
      <path
         id="path3367"
         style="fill:#616161;fill-opacity:1;stroke:#000000;stroke-width:0.264583px;stroke-linecap:butt;stroke-linejoin:miter;stroke-opacity:1"
         d="m 173.61562,300.11909 c -0.13621,8e-5 -0.27076,0.0295 -0.39429,0.093 l -0.003,-5e-4 -0.0822,0.046 -5.53846,3.09022 v 0 c 0.52901,-0.26924 1.28623,0.17105 1.28623,0.17105 1.88149,-1.03536 3.81115,-1.98425 5.66728,-3.06435 0,0 -0.48829,-0.33532 -0.93517,-0.33551 z"
         sodipodi:nodetypes="cccccccccc" />
      <path
         id="path3369"
         style="fill:#616161;fill-opacity:1;stroke:#000000;stroke-width:0.264583px;stroke-linecap:butt;stroke-linejoin:miter;stroke-opacity:1"
         d="m 176.30206,303.51022 -1.86655,1.01753 -3.76463,2.05206 -0.003,0.008 c 5.3e-4,0.0259 0.004,0.0501 0.004,0.0765 0,0.72105 -0.21297,1.06508 -0.4904,1.21285 l -0.003,0.007 5.49941,-3.06184 c 0.34753,-0.0879 0.63303,-0.4064 0.63303,-1.2232 0,-0.0318 -0.008,-0.0581 -0.009,-0.0894 z" />
      <path
         style="fill:none;fill-opacity:0.992157;stroke:#000000;stroke-width:0.264583px;stroke-linecap:butt;stroke-linejoin:miter;stroke-opacity:1"
         d="m 185.52633,306.72126 c 0,0 1.7882,1.04854 1.7882,3.14561 0,2.09708 -1.7882,1.04854 -1.7882,1.04854 0,0 -1.7882,-1.04854 -1.7882,-3.14561 0,-2.09707 1.7882,-1.04854 1.7882,-1.04854 z"
         id="path1359" />
      <path
         id="path3377"
         style="fill:#757575;fill-opacity:1;stroke:#000000;stroke-width:0.264583px;stroke-linecap:butt;stroke-linejoin:miter;stroke-opacity:1"
         d="m 185.52633,306.72126 -5.66728,3.06435 c 0,0 1.73127,1.01946 1.78335,3.05406 l 0.004,0.007 5.63118,-3.06959 v 0 l -0.002,-0.0188 c -0.0499,-1.93117 -1.59173,-2.93886 -1.74925,-3.03702 z"
         sodipodi:nodetypes="ccccccccc" />
      <path
         style="fill:#bdbdbd;fill-opacity:1;stroke:#000000;stroke-width:0.264583px;stroke-linecap:butt;stroke-linejoin:miter;stroke-opacity:1"
         d="m 179.85905,309.78561 c 0,0 1.7882,1.04854 1.7882,3.14561 0,2.09708 -1.7882,1.04854 -1.7882,1.04854 0,0 -1.7882,-1.04854 -1.7882,-3.14561 0,-2.09707 1.7882,-1.04854 1.7882,-1.04854 z"
         id="path3379" />
      <path
         id="path3381"
         style="fill:#616161;fill-opacity:1;stroke:#000000;stroke-width:0.264583px;stroke-linecap:butt;stroke-linejoin:miter;stroke-opacity:1"
         d="m 184.59077,306.38584 c -0.13621,8e-5 -0.27076,0.0295 -0.39429,0.093 l -0.003,-5e-4 -0.0822,0.046 -5.53846,3.09022 v 0 c 0.52901,-0.26924 1.28623,0.17105 1.28623,0.17105 1.88149,-1.03536 3.81115,-1.98425 5.66728,-3.06435 0,0 -0.48829,-0.33532 -0.93517,-0.33551 z"
         sodipodi:nodetypes="cccccccccc" />
      <path
         id="path3383"
         style="fill:#616161;fill-opacity:1;stroke:#000000;stroke-width:0.264583px;stroke-linecap:butt;stroke-linejoin:miter;stroke-opacity:1"
         d="m 187.27722,309.77697 -1.86656,1.01753 -3.76462,2.05206 -0.003,0.008 c 5.3e-4,0.0259 0.004,0.0501 0.004,0.0765 0,0.72105 -0.21298,1.06508 -0.49041,1.21285 l -0.003,0.007 5.49941,-3.06184 c 0.34753,-0.0879 0.63304,-0.4064 0.63304,-1.22319 0,-0.0318 -0.008,-0.0581 -0.009,-0.0894 z" />
      <path
         id="path3387"
         style="fill:#757575;fill-opacity:1;stroke:#000000;stroke-width:0.264583px;stroke-linecap:butt;stroke-linejoin:miter;stroke-opacity:1"
         d="m 191.19357,303.65689 -5.66728,3.06435 c 0,0 1.73127,1.01946 1.78335,3.05406 l 0.004,0.007 5.63118,-3.06959 v 0 l -0.002,-0.0188 c -0.0499,-1.93117 -1.59173,-2.93886 -1.74925,-3.03702 z"
         sodipodi:nodetypes="ccccccccc" />
      <path
         style="fill:#bdbdbd;fill-opacity:1;stroke:#000000;stroke-width:0.264583px;stroke-linecap:butt;stroke-linejoin:miter;stroke-opacity:1"
         d="m 185.52629,306.72124 c 0,0 1.7882,1.04854 1.7882,3.14561 0,2.09708 -1.7882,1.04854 -1.7882,1.04854 0,0 -1.7882,-1.04854 -1.7882,-3.14561 0,-2.09707 1.7882,-1.04854 1.7882,-1.04854 z"
         id="path3389" />
      <path
         id="path3391"
         style="fill:#616161;fill-opacity:1;stroke:#000000;stroke-width:0.264583px;stroke-linecap:butt;stroke-linejoin:miter;stroke-opacity:1"
         d="m 190.25801,303.32147 c -0.13621,8e-5 -0.27076,0.0295 -0.39429,0.093 l -0.003,-5e-4 -0.0822,0.046 -5.53846,3.09022 v 0 c 0.52901,-0.26924 1.28623,0.17105 1.28623,0.17105 1.88149,-1.03536 3.81115,-1.98425 5.66728,-3.06435 0,0 -0.48829,-0.33532 -0.93517,-0.33551 z"
         sodipodi:nodetypes="cccccccccc" />
      <path
         id="path3393"
         style="fill:#616161;fill-opacity:1;stroke:#000000;stroke-width:0.264583px;stroke-linecap:butt;stroke-linejoin:miter;stroke-opacity:1"
         d="m 192.94446,306.71259 -1.86655,1.01754 -3.76463,2.05205 -0.003,0.008 c 5.3e-4,0.0259 0.004,0.0501 0.004,0.0765 0,0.72104 -0.21297,1.06508 -0.49041,1.21285 l -0.003,0.007 5.4994,-3.06183 c 0.34753,-0.0879 0.63304,-0.4064 0.63304,-1.2232 0,-0.0318 -0.008,-0.0581 -0.009,-0.0894 z" />
      <path
         style="fill:#bdbdbd;fill-opacity:1;stroke:#000000;stroke-width:0.264583px;stroke-linecap:butt;stroke-linejoin:miter;stroke-opacity:1"
         d="m 163.37688,293.99042 c 0,0 1.7882,1.04854 1.7882,3.14561 0,2.09708 -1.7882,1.04854 -1.7882,1.04854 0,0 -1.7882,-1.04854 -1.7882,-3.14561 0,-2.09707 1.7882,-1.04854 1.7882,-1.04854 z"
         id="path1375" />
      <path
         id="path3333"
         style="fill:#616161;fill-opacity:1;stroke:#000000;stroke-width:0.264583px;stroke-linecap:butt;stroke-linejoin:miter;stroke-opacity:1"
         d="m 168.1086,290.59065 c -0.13621,8e-5 -0.27076,0.0295 -0.39429,0.093 l -0.003,-5e-4 -0.0822,0.046 -5.53846,3.09022 v 0 c 0.52901,-0.26924 1.28623,0.17105 1.28623,0.17105 1.88149,-1.03536 3.81115,-1.98425 5.66728,-3.06435 0,0 -0.48829,-0.33532 -0.93517,-0.33551 z"
         sodipodi:nodetypes="cccccccccc" />
      <path
         id="path3351"
         style="fill:#616161;fill-opacity:1;stroke:#000000;stroke-width:0.264583px;stroke-linecap:butt;stroke-linejoin:miter;stroke-opacity:1"
         d="m 170.79504,293.98178 -1.86655,1.01754 -3.76463,2.05205 -0.003,0.008 c 5.3e-4,0.0259 0.004,0.0501 0.004,0.0765 0,0.72104 -0.21298,1.06508 -0.49041,1.21285 l -0.003,0.007 5.49941,-3.06184 c 0.34753,-0.0879 0.63304,-0.4064 0.63304,-1.22319 0,-0.0318 -0.008,-0.0581 -0.009,-0.0894 z" />
      <path
         style="fill:none;stroke:#000000;stroke-width:0.264583px;stroke-linecap:butt;stroke-linejoin:miter;stroke-opacity:1"
         d="m 168.8839,310.02567 3.63618,-2.44867"
         id="path3415" />
      <path
         style="fill:none;stroke:#000000;stroke-width:0.264583px;stroke-linecap:butt;stroke-linejoin:miter;stroke-opacity:1"
         d="m 113.91352,320.58476 9.1432,15.89923 3.58273,-2.41268 -9.08975,-15.93522 z"
         id="path3421" />
      <path
         style="fill:#455a64;fill-opacity:0.992157;stroke:#000000;stroke-width:0.264583px;stroke-linecap:butt;stroke-linejoin:miter;stroke-opacity:1"
         d="m 113.91352,320.58476 9.1432,15.89923 3.58273,-2.41268 -9.08975,-15.93522 z"
         id="path3429" />
      <path
         style="fill:#253137;fill-opacity:0.992157;stroke:#000000;stroke-width:0.264583px;stroke-linecap:butt;stroke-linejoin:miter;stroke-opacity:1"
         d="m 123.05672,336.48399 45.82718,-26.45833 3.58273,-2.41268 -45.82718,26.45833 z"
         id="path3433" />
      <path
         style="fill:#455a64;fill-opacity:0.992157;stroke:#000000;stroke-width:0.264583px;stroke-linecap:butt;stroke-linejoin:miter;stroke-opacity:1"
         d="m 134.16934,342.6696 -3.63618,-6.3708 9.3128,-5.49658 3.6268,6.35436 z"
         id="path3399-7-3" />
      <path
         style="fill:#455a64;fill-opacity:0.992157;stroke:#000000;stroke-width:0.264583px;stroke-linecap:butt;stroke-linejoin:miter;stroke-opacity:1"
         d="m 174.52276,289.75883 11.03058,6.3506 -3.70871,2.01393 -11.03058,-6.3506 z"
         id="path3485" />
      <path
         style="fill:#78909c;fill-opacity:0.992157;stroke:#000000;stroke-width:0.264583px;stroke-linecap:butt;stroke-linejoin:miter;stroke-opacity:1"
         d="m 185.55334,296.10943 -0.0135,6.36091 -3.70871,2.01392 0.0135,-6.3609 z"
         id="path3487" />
      <path
         style="fill:#4dd1e2;fill-opacity:0.992157;stroke:#000000;stroke-width:0.264583px;stroke-linecap:butt;stroke-linejoin:miter;stroke-opacity:1"
         d="m 176.3575,275.32242 c 0,0 -1.82603,1.01895 0,2.03791 1.82603,1.01896 3.65206,0 3.65206,0 0,0 1.82603,-1.01896 0,-2.03791 -1.82603,-1.01896 -3.65206,0 -3.65206,0 z"
         id="path3522" />
      <path
         id="path3631"
         style="fill:#616161;fill-opacity:0.992157;stroke:#000000;stroke-width:0.264583px;stroke-linecap:butt;stroke-linejoin:miter;stroke-opacity:1"
         d="m 180.81603,276.31043 v 0 c -0.006,0.53056 -0.6149,0.93321 -0.76068,1.02163 l -0.0202,15.60679 c -2.6e-4,-1.8e-4 -7.9e-4,0 -10e-4,0 l 0.003,2.00454 c 0.0794,-0.0464 0.77249,-0.46625 0.77876,-1.03301 l 0.005,-0.007 z"
         sodipodi:nodetypes="ccccccccc" />
      <path
         id="path3642"
         style="fill:#616161;fill-opacity:0.992157;stroke:#000000;stroke-width:0.264583px;stroke-linecap:butt;stroke-linejoin:miter;stroke-opacity:1"
         d="m 175.54593,276.37911 v 0 c 0.006,0.53057 0.6149,0.93321 0.76068,1.02163 l 0.0202,15.60679 c 2.6e-4,-1.8e-4 7.9e-4,0 0.001,0 l 0.007,1.93098 c -0.0794,-0.0464 -0.78254,-0.39269 -0.78881,-0.95945 l -0.005,-0.007 z"
         sodipodi:nodetypes="ccccccccc" />
      <path
         id="path3619"
         style="fill:#757575;fill-opacity:0.992157;stroke:#000000;stroke-width:0.264583px;stroke-linecap:butt;stroke-linejoin:miter;stroke-opacity:1"
         d="m 179.9645,277.37477 v 0 0 c -0.0946,0.0518 -1.81889,0.96004 -3.58324,0 v 0 0 l -0.0889,17.57935 0.0465,0.0362 v 0 c 1.76435,0.96001 3.48867,0.0518 3.58325,0 v 0 l 0.0682,-0.0362 z"
         sodipodi:nodetypes="ccccccccccccc" />
      <path
         style="fill:#546e7a;fill-opacity:0.992157;stroke:#000000;stroke-width:0.264583px;stroke-linecap:butt;stroke-linejoin:miter;stroke-opacity:1"
         d="m 170.79555,291.76159 0.005,6.37207 11.01208,6.33944 0.0135,-6.3609 z"
         id="path3475" />
      <path
         id="path3675"
         style="fill:#757575;fill-opacity:0.992157;stroke:#000000;stroke-width:0.999999px;stroke-linecap:butt;stroke-linejoin:miter;stroke-opacity:1"
         d="M 375.30273 346.9668 C 373.37606 346.99152 373.375 347.7832 373.375 347.7832 L 288.12695 397.00195 C 292.18645 396.5332 308.42309 400.28319 373.375 437.7832 C 459.97755 487.78322 459.97852 497.7832 459.97852 497.7832 L 546.58008 447.7832 C 546.58008 447.7832 546.58106 437.78322 459.97852 387.7832 C 397.73293 351.84572 380.22646 346.90363 375.30273 346.9668 z M 288.12695 397.00195 C 286.77379 397.15821 286.77344 397.7832 286.77344 397.7832 L 288.12695 397.00195 z "
         transform="matrix(0.26458333,0,0,0.26458333,68.635016,167.51551)" />
      <path
         style="fill:#536d79;fill-opacity:1;stroke:#000000;stroke-width:0.264583px;stroke-linecap:butt;stroke-linejoin:miter;stroke-opacity:1"
         d="m 178.77974,250.2326 0.14987,22.24082 -7.41737,4.28244 -0.14987,-22.24084 z"
         id="path4131" />
      <path
         id="path4013"
         style="fill:#616161;fill-opacity:0.992157;stroke:#000000;stroke-width:0.264582px;stroke-linecap:butt;stroke-linejoin:miter;stroke-opacity:1"
         d="m 175.2534,256.56192 -0.1142,22.20125 0.0956,0.0728 c 3.6171,1.93238 7.1519,0.10427 7.3458,0 l 0.14005,-0.0728 -0.0336,-22.1537 c -0.3729,0.19294 -3.87305,1.90385 -7.41401,-0.0362 -0.007,-0.004 -0.0127,-0.008 -0.0196,-0.0114 z"
         sodipodi:nodetypes="ccccccsc" />
      <path
         style="fill:#757575;fill-opacity:0.992157;stroke:#000000;stroke-width:0.264583px;stroke-linecap:butt;stroke-linejoin:miter;stroke-opacity:1"
         d="m 190.33759,299.22054 v 2.64584 l 22.91359,-13.22916 v -2.64584 z"
         id="path3790" />
      <path
         id="path3841"
         style="fill:#606162;fill-opacity:1;stroke:#000000;stroke-width:0.999999px;stroke-linecap:butt;stroke-linejoin:miter;stroke-opacity:1"
         d="M 288.69922 396.9668 C 286.77254 396.99152 286.77344 397.7832 286.77344 397.7832 L 286.77344 407.7832 C 286.77344 407.7832 286.77245 397.78323 373.375 447.7832 C 459.86076 498.05504 459.97852 507.7832 459.97852 507.7832 L 459.97852 497.7832 C 459.97852 497.7832 459.97755 487.78322 373.375 437.7832 C 311.12942 401.84572 293.62294 396.90363 288.69922 396.9668 z "
         transform="matrix(0.26458333,0,0,0.26458333,68.635016,167.51551)" />
      <path
         id="path4009"
         style="fill:#3849ab;fill-opacity:0.992157;stroke:#000000;stroke-width:0.264582px;stroke-linecap:butt;stroke-linejoin:miter;stroke-opacity:1"
         d="m 184.18709,254.43906 c -0.0863,1.04789 -1.10359,1.94355 -1.35069,2.08824 l -0.0238,18.17925 h -0.002 l -0.09,4.05662 c 0.16277,-0.0934 1.67989,-0.96036 1.69275,-2.10119 l 0.0103,-0.014 z"
         sodipodi:nodetypes="cccccccc" />
      <path
         id="path4011"
         style="fill:#424242;fill-opacity:0.992157;stroke:#000000;stroke-width:0.264582px;stroke-linecap:butt;stroke-linejoin:miter;stroke-opacity:1"
         d="m 173.37238,254.59099 c 0.0255,8.72597 0.2272,19.26791 0.22634,22.19553 l 0.0103,0.014 c 0.0129,1.1408 1.463,1.94205 1.62578,2.03545 l -0.0228,-3.99088 h -0.002 l -0.0243,-18.32241 c -1.18629,-0.67198 -1.5814,-1.33895 -1.5813,-1.93166 h -0.002 z"
         sodipodi:nodetypes="cccccccccc" />
      <path
         style="fill:#757575;fill-opacity:0.992157;stroke:#000000;stroke-width:0.264582px;stroke-linecap:butt;stroke-linejoin:miter;stroke-opacity:1"
         d="m 175.03618,252.464 c 0,0 -3.74356,2.05102 0,4.10205 3.74356,2.05103 7.48711,0 7.48711,0 0,0 3.74356,-2.05103 0,-4.10205 -3.74355,-2.05103 -7.48711,0 -7.48711,0 z"
         id="path4015" />
      <path
         style="fill:#455a64;fill-opacity:0.992157;stroke:#000000;stroke-width:0.264583px;stroke-linecap:butt;stroke-linejoin:miter;stroke-opacity:1"
         d="m 179.88001,259.45775 -1.10027,-0.66031 0.14987,22.24083 1.10027,0.66031 z"
         id="path4061"
         sodipodi:nodetypes="cc" />
      <path
         style="fill:#455a64;fill-opacity:0.992157;stroke:#000000;stroke-width:0.264583px;stroke-linecap:butt;stroke-linejoin:miter;stroke-opacity:1"
         d="m 171.36236,254.51502 -1.10027,-0.66031 0.14987,22.24083 1.10027,0.66031 z"
         id="path4078"
         sodipodi:nodetypes="cc" />
      <path
         style="fill:#77909c;fill-opacity:1;stroke:#000000;stroke-width:0.264583px;stroke-linecap:butt;stroke-linejoin:miter;stroke-opacity:1"
         d="m 179.88001,259.45775 7.41737,-4.28242 -1.10027,-0.66031 -7.41737,4.28242 z"
         id="path4095" />
      <path
         style="fill:#546e7a;fill-opacity:0.992157;stroke:#000000;stroke-width:0.264583px;stroke-linecap:butt;stroke-linejoin:miter;stroke-opacity:1"
         d="m 187.29738,255.17533 0.14987,22.24082 -7.41737,4.28244 -0.14987,-22.24084 z"
         id="path4112" />
      <path
         style="fill:#78909c;fill-opacity:0.992157;stroke:#000000;stroke-width:0.264583px;stroke-linecap:butt;stroke-linejoin:miter;stroke-opacity:1"
         d="m 171.36236,254.51502 7.41738,-4.28242 -1.10027,-0.66031 -7.41738,4.28242 z"
         id="path4129" />
      <path
         id="path4272"
         style="fill:#2196f3;fill-opacity:1;stroke:#000000;stroke-width:0.264583px;stroke-linecap:butt;stroke-linejoin:miter;stroke-opacity:1"
         d="m 237.37997,239.65248 -15.23162,0.0765 -7.6817,13.15268 7.6817,22.02295 15.23162,17.66456 15.23163,-0.0765 7.6817,-13.15268 -7.6817,-22.02295 z m -7.61556,6.65851 c 3.80791,0 7.61556,2.20038 7.61556,2.20038 0,0 15.23163,8.79973 15.23163,26.39942 0,17.59969 -15.23163,8.79946 -15.23163,8.79946 0,0 -15.23162,-8.79973 -15.23162,-26.39942 0,-8.79984 3.80815,-10.99984 7.61606,-10.99984 z" />
      <path
         style="fill:#616161;fill-opacity:0.992157;stroke:#000000;stroke-width:0.264583px;stroke-linecap:butt;stroke-linejoin:miter;stroke-opacity:1"
         d="m 222.14835,239.72897 11.39071,-6.50005 15.2316,-0.0765 -11.27568,6.63342 z"
         id="path4274" />
      <path
         style="fill:#757575;fill-opacity:0.992157;stroke:#000000;stroke-width:0.264583px;stroke-linecap:butt;stroke-linejoin:miter;stroke-opacity:1"
         d="m 248.77066,233.15242 15.23161,17.66457 -11.39068,6.50005 -15.11657,-17.53124 z"
         id="path4276" />
      <path
         style="fill:#606162;fill-opacity:1;stroke:#000000;stroke-width:0.264583px;stroke-linecap:butt;stroke-linejoin:miter;stroke-opacity:1"
         d="m 252.61159,257.31704 7.68171,22.02295 11.39067,-6.50006 -7.6817,-22.02294 z"
         id="path4278"
         sodipodi:nodetypes="ccccc" />
      <path
         style="fill:#767676;fill-opacity:1;stroke:#000000;stroke-width:0.264583px;stroke-linecap:butt;stroke-linejoin:miter;stroke-opacity:1"
         d="m 252.61159,292.49268 11.39068,-6.50008 7.6817,-13.15267 c 0,0 -11.39068,6.50004 -11.39068,6.50004 z"
         id="path4280" />
      <path
         id="path4297"
         style="fill:#757575;fill-opacity:0.992157;stroke:#000000;stroke-width:0.264583px;stroke-linecap:butt;stroke-linejoin:miter;stroke-opacity:1"
         d="m 237.37997,239.65248 -15.23162,0.0765 -7.6817,13.15268 7.6817,22.02295 15.23162,17.66456 15.23163,-0.0765 7.6817,-13.15268 -7.6817,-22.02295 z m -7.61556,6.65851 c 3.80791,0 7.61556,2.20038 7.61556,2.20038 0,0 15.23163,8.79973 15.23163,26.39942 0,17.59969 -15.23163,8.79946 -15.23163,8.79946 0,0 -15.23162,-8.79973 -15.23162,-26.39942 0,-8.79984 3.80815,-10.99984 7.61606,-10.99984 z" />
      <path
         id="path1326"
         style="fill:#bebdbd;fill-opacity:1;stroke:#000000;stroke-width:0.264583px;stroke-linecap:butt;stroke-linejoin:miter;stroke-opacity:1"
         d="m 229.85914,246.31702 c -0.13413,0 -0.26851,0 -0.40256,0.003 -0.007,0 -0.0147,-2.6e-4 -0.0217,0 -0.002,5e-5 -0.003,0 -0.005,0 -0.15975,0.006 -0.31892,0.0167 -0.478,0.031 -0.0343,0.003 -0.069,0.006 -0.10336,0.0103 -0.15303,0.0156 -0.30606,0.0346 -0.45785,0.0589 -0.007,0 -0.0152,0.003 -0.0222,0.004 -0.002,0 -0.003,2.1e-4 -0.005,0 -0.14827,0.0241 -0.29528,0.0547 -0.44183,0.0878 -0.048,0.0108 -0.0959,0.0227 -0.14366,0.0346 -0.13258,0.0329 -0.26464,0.0688 -0.39532,0.10957 -0.0271,0.008 -0.0541,0.0164 -0.0811,0.0254 -0.0738,0.0241 -0.14621,0.053 -0.21911,0.0801 -4.53512,2.57733 -9.88573,5.70963 -12.19253,7.00111 2.47817,-1.23515 5.53879,-0.66323 7.7959,0.10025 0.0892,0.0301 0.17852,0.0603 0.26511,0.091 0.17731,0.0628 0.34943,0.126 0.51469,0.18966 0.049,0.0188 0.0994,0.0375 0.14728,0.0563 1.34254,0.52895 2.22984,1.04023 2.22984,1.04023 l 0.008,-0.004 c 1.2e-4,2e-5 0.007,0.004 0.007,0.004 l 11.58793,-6.69002 c -0.016,-0.01 -0.0585,-0.0356 -0.062,-0.0377 h -0.005 0.002 c 0,0 -0.061,-0.0347 -0.16588,-0.0915 -0.0247,-0.0132 -0.0771,-0.0395 -0.10697,-0.0553 -0.10712,-0.0567 -0.23049,-0.12107 -0.39997,-0.20463 -0.058,-0.0286 -0.14006,-0.0651 -0.20464,-0.0961 -0.18317,-0.0878 -0.37738,-0.17979 -0.60772,-0.28112 -0.082,-0.036 -0.16531,-0.072 -0.2527,-0.10904 -0.0378,-0.0161 -0.0749,-0.0319 -0.11368,-0.048 -0.13526,-0.0563 -0.2763,-0.11383 -0.42272,-0.17106 -0.0859,-0.0335 -0.17704,-0.0669 -0.26665,-0.10025 -0.0875,-0.0328 -0.17334,-0.0656 -0.26407,-0.0982 -0.0284,-0.0103 -0.0577,-0.0201 -0.0863,-0.0305 -0.10502,-0.0372 -0.21517,-0.0737 -0.32401,-0.11009 -0.11898,-0.0396 -0.23864,-0.079 -0.36173,-0.11729 -0.35805,-0.11168 -0.73006,-0.21754 -1.11673,-0.31006 -0.20856,-0.0499 -0.42094,-0.0957 -0.63562,-0.13745 -0.01,-0.003 -0.0195,-0.004 -0.0294,-0.006 -0.002,0 -0.004,0 -0.006,0 -0.18356,-0.0353 -0.37015,-0.065 -0.55707,-0.093 -0.0508,-0.007 -0.10094,-0.0161 -0.15192,-0.0233 -0.001,-1.6e-4 -0.002,0 -0.003,0 -0.15735,-0.0217 -0.31601,-0.0375 -0.47491,-0.0532 -0.0785,-0.008 -0.15681,-0.0169 -0.23564,-0.0233 -0.15044,-0.0116 -0.30162,-0.0177 -0.45269,-0.0233 -0.0936,-0.003 -0.18695,-0.009 -0.2806,-0.01 z m -14.97015,7.44759 c -0.009,0.005 -0.0188,0.008 -0.0279,0.0124 h 0.005 z" />
      <path
         id="path1398"
         style="fill:#e3e2e2;fill-opacity:1;stroke:#000000;stroke-width:0.264583px;stroke-linecap:butt;stroke-linejoin:miter;stroke-opacity:1"
         d="m 225.87851,255.22807 -22.91386,13.22917 c 0,0 15.20993,8.80658 15.20993,26.4201 l 22.90765,-13.23951 0.006,0.0103 c 0,-0.005 0,-0.009 0,-0.0139 v -5.3e-4 c -0.008,-17.60379 -15.20991,-26.40563 -15.20991,-26.40563 z" />
      <path
         id="path1406"
         style="fill:#bebdbd;fill-opacity:1;stroke:#000000;stroke-width:0.264583px;stroke-linecap:butt;stroke-linejoin:miter;stroke-opacity:1"
         d="m 218.32556,253.04349 5.1e-4,5e-4 c -0.13414,-9.8e-4 -0.2685,-0.001 -0.40256,0.003 -0.007,2.4e-4 -0.0145,-2.6e-4 -0.0217,0 -0.002,6e-5 -0.003,4.8e-4 -0.005,5.3e-4 -0.15975,0.006 -0.31892,0.0167 -0.47801,0.031 -0.0344,0.003 -0.069,0.006 -0.10335,0.0104 -0.15303,0.0157 -0.30606,0.0346 -0.45786,0.0589 -0.007,9.8e-4 -0.0148,0.002 -0.0222,0.004 -0.002,2.9e-4 -0.003,2.4e-4 -0.005,5.3e-4 -0.14827,0.0243 -0.29528,0.0547 -0.44184,0.0878 -0.048,0.0109 -0.0959,0.0227 -0.14366,0.0346 -0.13258,0.0329 -0.26464,0.0688 -0.39532,0.10953 -0.0271,0.008 -0.0541,0.017 -0.0811,0.0259 -0.12973,0.0423 -0.25762,0.0899 -0.38499,0.14058 -0.055,0.0218 -0.10981,0.0447 -0.16433,0.0682 -0.11066,0.0476 -0.22016,0.099 -0.32866,0.15345 -0.003,0.002 -0.007,0.003 -0.0103,0.005 l -0.005,-5.3e-4 -0.0615,0.0357 c -0.0305,0.0159 -0.0612,0.0311 -0.0915,0.0475 -0.099,0.0536 -0.19716,0.11031 -0.29404,0.17 -0.0177,0.011 -0.0346,0.024 -0.0522,0.0352 l -19.67322,11.35795 -2.82205,1.572 0.006,5.3e-4 c 0.003,-0.002 0.007,-0.003 0.01,-0.005 0.1085,-0.0545 0.218,-0.10588 0.32866,-0.15348 0.0545,-0.0235 0.10934,-0.0463 0.16434,-0.0682 0.12736,-0.0507 0.25526,-0.0983 0.38498,-0.14058 0.027,-0.009 0.054,-0.0173 0.0811,-0.0253 0.13068,-0.0407 0.26274,-0.0766 0.39532,-0.10953 0.0478,-0.0119 0.0957,-0.0237 0.14366,-0.0346 0.14655,-0.0331 0.29357,-0.0636 0.44184,-0.0878 0.002,-2.9e-4 0.003,-2.4e-4 0.005,-5.3e-4 0.007,-0.002 0.0152,-0.003 0.0222,-0.004 0.15179,-0.0243 0.30482,-0.0432 0.45785,-0.0589 0.0344,-0.004 0.069,-0.007 0.10335,-0.0103 0.15909,-0.0143 0.31826,-0.025 0.47801,-0.031 0.002,-5e-5 0.003,-4.7e-4 0.005,-5.3e-4 0.007,-2.6e-4 0.0147,2.7e-4 0.0217,0 0.13405,-0.004 0.26843,-0.004 0.40256,-0.003 0.19868,0.002 0.39735,0.008 0.59531,0.0212 0.013,0.001 0.0264,6.9e-4 0.0393,0.002 0.21558,0.0148 0.43004,0.0371 0.64337,0.0636 0.0555,0.007 0.11058,0.0147 0.16588,0.0227 0.16462,0.0226 0.32811,0.0476 0.49041,0.076 0.0548,0.01 0.10983,0.0187 0.16433,0.0289 0.20577,0.0386 0.41039,0.0803 0.61082,0.1266 0.21066,0.0487 0.41738,0.10171 0.62063,0.15711 0.0333,0.009 0.0656,0.0189 0.0987,0.0279 0.13853,0.0387 0.27344,0.0794 0.40773,0.12038 0.22431,0.0684 0.4431,0.13909 0.65371,0.21188 0.10072,0.0348 0.19735,0.0701 0.29455,0.10541 0.16743,0.0609 0.33039,0.12174 0.48628,0.18296 0.10137,0.0399 0.20114,0.0795 0.29714,0.11885 0.14296,0.0587 0.27917,0.11642 0.40928,0.17312 0.64713,0.2821 1.13284,0.5317 1.37252,0.66093 0.11135,0.0601 0.17105,0.0946 0.17105,0.0946 l -0.002,10e-4 0.0925,0.0124 22.91385,-13.22917 h -0.0155 l 0.005,-0.003 c 0,0 -0.0597,-0.0345 -0.17104,-0.0946 -0.23968,-0.12923 -0.72539,-0.37886 -1.37253,-0.66096 -0.1301,-0.0567 -0.26632,-0.11441 -0.40928,-0.17312 -0.096,-0.0394 -0.19577,-0.079 -0.29714,-0.11885 -0.15589,-0.0612 -0.31884,-0.12208 -0.48627,-0.18293 -0.0972,-0.0353 -0.19384,-0.0706 -0.29456,-0.10541 -0.21061,-0.0728 -0.42939,-0.14343 -0.6537,-0.21188 -0.13429,-0.041 -0.2692,-0.0817 -0.40773,-0.12041 -0.0331,-0.009 -0.0654,-0.0188 -0.0987,-0.0279 -0.20325,-0.0554 -0.40998,-0.1084 -0.62064,-0.15709 -0.20043,-0.0463 -0.40504,-0.088 -0.61081,-0.1266 -0.0545,-0.0102 -0.10951,-0.0193 -0.16433,-0.029 -0.1623,-0.0284 -0.32579,-0.0534 -0.49041,-0.076 -0.0553,-0.008 -0.11037,-0.0159 -0.16588,-0.0227 -0.21334,-0.0264 -0.4278,-0.0488 -0.64338,-0.0636 -0.0129,-8.8e-4 -0.0263,-7.7e-4 -0.0393,-0.002 -0.19796,-0.0129 -0.39663,-0.019 -0.59531,-0.0207 z" />
      <path
         id="path1392"
         style="fill:#f1f0f0;fill-opacity:1;stroke:#000000;stroke-width:0.264583px;stroke-linecap:butt;stroke-linejoin:miter;stroke-opacity:1"
         d="m 241.06673,281.66058 -15.20735,8.78033 -7.6848,4.43643 c -0.002,6.02713 -1.79101,8.95533 -4.14238,10.20146 v 0 l 22.90952,-13.2259 c 2.68733,-1.52001 4.12504,-2.98408 4.12504,-10.18818 z"
         sodipodi:nodetypes="ccccccsc" />
      <path
         id="path1390"
         style="fill:#f1f0f0;fill-opacity:1;stroke:#000000;stroke-width:0.264583px;stroke-linecap:butt;stroke-linejoin:miter;stroke-opacity:1"
         d="m 252.63243,274.98348 -3.85921,2.22827 -7.6848,4.43643 -0.0217,0.0124 c -0.003,5.63272 -1.56446,8.55777 -3.68815,9.93376 l 10.5761,-6.23631 v 0 l 1.48622,-0.87643 c 0.31527,-0.25347 0.61296,-0.55057 0.89349,-0.88781 1.37176,-1.64907 2.28532,-4.34756 2.29754,-8.61031 z m -15.25385,16.61086 -0.45372,0.26768 c 0.15386,-0.0815 0.30502,-0.17132 0.45372,-0.26768 z"
         sodipodi:nodetypes="ccccccccscccc" />
      <path
         style="display:inline;fill:none;stroke:#000000;stroke-width:0.264583px;stroke-linecap:butt;stroke-linejoin:miter;stroke-opacity:1"
         d="m 271.68424,324.43368 v 2.64583"
         id="path4333" />
      <path
         id="path4401"
         style="fill:#263238;fill-opacity:0.992157;stroke:#000000;stroke-width:0.264583px;stroke-linecap:butt;stroke-linejoin:miter;stroke-opacity:1"
         d="m 218.09913,293.49603 c 0.0198,0.4418 0.032,0.888 0.032,1.34152 h -5.3e-4 c -3e-5,0.45358 -0.0127,0.88532 -0.0326,1.30432 l 53.58589,30.93765 65.3035,37.70312 v -2.64583 l -65.3035,-37.70313 z" />
      <path
         id="path4443"
         style="fill:#253137;fill-opacity:0.992157;stroke:#000000;stroke-width:0.264583px;stroke-linecap:butt;stroke-linejoin:miter;stroke-opacity:1"
         d="m 241.01307,280.26686 c 0.0198,0.4418 0.032,0.88799 0.032,1.34151 l -5.1e-4,-5e-4 c -3e-5,0.45358 -0.0127,0.88532 -0.0326,1.30432 l 53.58587,30.93815 v -2.64583 z" />
      <path
         style="fill:#455a64;fill-opacity:0.992157;stroke:#000000;stroke-width:0.264583px;stroke-linecap:butt;stroke-linejoin:miter;stroke-opacity:1"
         d="m 336.98745,364.78268 68.74105,-39.6875 v -2.64583 l -68.74105,39.6875 z"
         id="path4500" />
      <path
         id="path4624"
         style="display:inline;fill:#455a64;fill-opacity:0.992157;stroke:#000000;stroke-width:0.264583px;stroke-linecap:butt;stroke-linejoin:miter;stroke-opacity:1"
         d="m 202.94398,205.37118 -45.82769,26.45834 2.2903,1.32344 43.53739,-25.13594 z"
         sodipodi:nodetypes="ccccc" />
      <path
         style="fill:#546e7a;fill-opacity:0.992157;stroke:#000000;stroke-width:0.264583px;stroke-linecap:butt;stroke-linejoin:miter;stroke-opacity:1"
         d="m 249.91661,311.86611 22.91361,-13.22933 21.76761,12.56773 -22.91359,13.22933 z"
         id="path4649" />
      <path
         style="fill:#455a64;fill-opacity:0.992157;stroke:#000000;stroke-width:0.264583px;stroke-linecap:butt;stroke-linejoin:miter;stroke-opacity:1"
         d="m 228.12935,299.28704 22.91361,-13.22933 21.76761,12.56773 -22.91359,13.22933 z"
         id="path4657" />
      <path
         style="fill:#455a64;fill-opacity:0.992157;stroke:#000000;stroke-width:0.264583px;stroke-linecap:butt;stroke-linejoin:miter;stroke-opacity:1"
         d="m 317.51138,297.97551 22.91361,-13.22933 21.76761,12.56773 -22.91359,13.22933 z"
         id="path4659" />
      <path
         style="fill:#546e7a;fill-opacity:0.992157;stroke:#000000;stroke-width:0.264583px;stroke-linecap:butt;stroke-linejoin:miter;stroke-opacity:1"
         d="m 294.59784,311.20451 22.91361,-13.22933 21.76761,12.56773 -22.91359,13.22933 z"
         id="path4661" />
      <path
         style="fill:#455a64;fill-opacity:0.992157;stroke:#000000;stroke-width:0.264583px;stroke-linecap:butt;stroke-linejoin:miter;stroke-opacity:1"
         d="m 271.68424,324.43384 22.91361,-13.22933 21.76761,12.56773 -22.91359,13.22933 z"
         id="path4663" />
      <path
         style="fill:#546e7a;fill-opacity:0.992157;stroke:#000000;stroke-width:0.264583px;stroke-linecap:butt;stroke-linejoin:miter;stroke-opacity:1"
         d="m 338.13343,336.33979 22.91361,-13.22933 21.76761,12.56773 -22.91359,13.22933 z"
         id="path4665" />
      <path
         style="fill:#455a64;fill-opacity:0.992157;stroke:#000000;stroke-width:0.264583px;stroke-linecap:butt;stroke-linejoin:miter;stroke-opacity:1"
         d="m 316.3654,323.77257 22.91361,-13.22933 21.76761,12.56773 -22.91359,13.22933 z"
         id="path4667" />
      <path
         style="fill:#546e7a;fill-opacity:0.992157;stroke:#000000;stroke-width:0.264583px;stroke-linecap:butt;stroke-linejoin:miter;stroke-opacity:1"
         d="m 293.45203,337.00148 22.91361,-13.22933 21.76761,12.56773 -22.91359,13.22933 z"
         id="path4669" />
      <path
         style="fill:#455a64;fill-opacity:0.992157;stroke:#000000;stroke-width:0.264583px;stroke-linecap:butt;stroke-linejoin:miter;stroke-opacity:1"
         d="m 315.21982,349.56912 22.91361,-13.22933 21.76761,12.56773 -22.91359,13.22933 z"
         id="path4671" />
      <path
         style="fill:#546e7a;fill-opacity:0.992157;stroke:#000000;stroke-width:0.264583px;stroke-linecap:butt;stroke-linejoin:miter;stroke-opacity:1"
         d="m 339.27899,310.54324 22.91361,-13.22933 21.76761,12.56773 -22.91359,13.22933 z"
         id="path4673" />
      <path
         style="fill:#455a64;fill-opacity:0.992157;stroke:#000000;stroke-width:0.264583px;stroke-linecap:butt;stroke-linejoin:miter;stroke-opacity:1"
         d="m 361.04702,323.11046 22.91361,-13.22933 21.76761,12.56773 -22.91359,13.22933 z"
         id="path4675" />
      <path
         style="fill:#546e7a;fill-opacity:0.992157;stroke:#000000;stroke-width:0.264583px;stroke-linecap:butt;stroke-linejoin:miter;stroke-opacity:1"
         d="m 134.20269,245.05885 22.91361,-13.22933 21.76761,12.56773 -22.91359,13.22933 z"
         id="path4694" />
      <path
         style="fill:#455a64;fill-opacity:0.992157;stroke:#000000;stroke-width:0.264583px;stroke-linecap:butt;stroke-linejoin:miter;stroke-opacity:1"
         d="m 112.44243,232.49536 22.91361,-13.22933 21.76761,12.56773 -22.91359,13.22933 z"
         id="path4715" />
      <path
         style="fill:#546e7a;fill-opacity:0.992157;stroke:#000000;stroke-width:0.264583px;stroke-linecap:butt;stroke-linejoin:miter;stroke-opacity:1"
         d="m 135.35601,219.26603 22.91361,-13.22933 21.76761,12.56773 -22.91359,13.22933 z"
         id="path4717" />
      <path
         style="fill:#455a64;fill-opacity:0.992157;stroke:#000000;stroke-width:0.264583px;stroke-linecap:butt;stroke-linejoin:miter;stroke-opacity:1"
         d="m 158.26277,206.03278 22.91361,-13.22933 21.76761,12.56773 -22.91359,13.22933 z"
         id="path4719" />
      <path
         style="fill:#546e7a;fill-opacity:0.992157;stroke:#000000;stroke-width:0.264583px;stroke-linecap:butt;stroke-linejoin:miter;stroke-opacity:1"
         d="m 90.674797,219.92763 22.913613,-13.22933 21.76761,12.56773 -22.91359,13.22933 z"
         id="path4721" />
      <path
         style="fill:#455a64;fill-opacity:0.992157;stroke:#000000;stroke-width:0.264583px;stroke-linecap:butt;stroke-linejoin:miter;stroke-opacity:1"
         d="m 68.899596,207.35592 22.913611,-13.22933 21.767613,12.56773 -22.913593,13.22933 z"
         id="path4723" />
      <path
         style="fill:#455a64;fill-opacity:0.992157;stroke:#000000;stroke-width:0.264583px;stroke-linecap:butt;stroke-linejoin:miter;stroke-opacity:1"
         d="m 113.58838,206.6983 22.91361,-13.22933 21.76761,12.56773 -22.91359,13.22933 z"
         id="path4725" />
      <path
         style="fill:#546e7a;fill-opacity:0.992157;stroke:#000000;stroke-width:0.264583px;stroke-linecap:butt;stroke-linejoin:miter;stroke-opacity:1"
         d="m 136.49496,193.46517 22.91361,-13.22933 21.76761,12.56773 -22.91359,13.22933 z"
         id="path4727" />
      <path
         style="fill:#455a64;fill-opacity:0.992157;stroke:#000000;stroke-width:0.264583px;stroke-linecap:butt;stroke-linejoin:miter;stroke-opacity:1"
         d="m 114.72675,180.89759 22.91361,-13.22933 21.76761,12.56773 -22.91359,13.22933 z"
         id="path4729" />
      <path
         style="fill:#546e7a;fill-opacity:0.992157;stroke:#000000;stroke-width:0.264583px;stroke-linecap:butt;stroke-linejoin:miter;stroke-opacity:1"
         d="m 91.813737,194.12677 22.913613,-13.22933 21.76761,12.56773 -22.91359,13.22933 z"
         id="path4731" />
      <path
         style="fill:#546e7a;fill-opacity:0.992157;stroke:#000000;stroke-width:0.264583px;stroke-linecap:butt;stroke-linejoin:miter;stroke-opacity:1"
         d="m 139.84596,330.80223 45.68971,-26.37719 3.6268,6.35434 -45.68971,26.37719 z"
         id="path3473" />
      <path
         style="fill:#546e7a;fill-opacity:0.992157;stroke:#000000;stroke-width:0.264583px;stroke-linecap:butt;stroke-linejoin:miter;stroke-opacity:1"
         d="m 117.5497,318.13609 45.82718,-26.45833 9.08975,15.93522 -45.82718,26.45833 z"
         id="path3431" />
      <path
         style="fill:#546e7a;fill-opacity:0.992157;stroke:#000000;stroke-width:0.264583px;stroke-linecap:butt;stroke-linejoin:miter;stroke-opacity:1"
         d="m 228.12935,299.28704 22.9136,-13.22935 -10.02988,-5.79083 -22.91394,13.22917 z"
         id="path4829" />
      <g
         id="g7255"
         transform="translate(-117.87051,-167.2949)">
        <path
           id="circle2"
           style="fill:#0b3d91;stroke-width:0.264583"
           d="m 463.412,362.489 c 2.703,3.256 2.537,7.279 -0.37,8.985 -1.396,0.819 -3.251,0.984 -5.156,0.458 -1.905,-0.526 -3.705,-1.699 -5.003,-3.262 -1.299,-1.564 -1.989,-3.389 -1.92,-5.074 0.069,-1.685 0.892,-3.092 2.288,-3.912 2.908,-1.707 7.457,-0.451 10.161,2.805 z" />
        <g
           fill="#ffffff"
           id="g96"
           transform="matrix(0.264583,0,0,0.264583,462.124,307.944)">
          <path
             id="circle4"
             d="m -30.9333,200.392 c 0.055,0.066 0.0843,0.143 0.0814,0.215 -0.0029,0.071 -0.0378,0.131 -0.097,0.166 -0.0592,0.034 -0.1378,0.041 -0.2185,0.019 -0.0807,-0.022 -0.157,-0.072 -0.212,-0.138 -0.0551,-0.067 -0.0843,-0.144 -0.0814,-0.215 0.0029,-0.072 0.0378,-0.131 0.097,-0.166 0.0591,-0.035 0.1377,-0.042 0.2185,-0.02 0.0807,0.023 0.157,0.072 0.212,0.139 z" />
          <path
             id="circle6"
             d="m -28.3663,199.38 c 0.055,0.067 0.0842,0.144 0.0813,0.215 -0.0029,0.072 -0.0378,0.131 -0.097,0.166 -0.0591,0.035 -0.1377,0.042 -0.2185,0.02 -0.0807,-0.023 -0.157,-0.072 -0.212,-0.139 -0.055,-0.066 -0.0843,-0.143 -0.0814,-0.215 0.003,-0.071 0.0378,-0.131 0.097,-0.166 0.0592,-0.034 0.1378,-0.041 0.2185,-0.019 0.0808,0.022 0.157,0.072 0.2121,0.138 z" />
          <path
             id="circle8"
             d="m -21.6003,202.147 c 0.055,0.066 0.0843,0.144 0.0813,0.215 -0.0029,0.072 -0.0378,0.131 -0.097,0.166 -0.0591,0.035 -0.1377,0.042 -0.2185,0.019 -0.0807,-0.022 -0.157,-0.072 -0.212,-0.138 -0.055,-0.066 -0.0843,-0.144 -0.0813,-0.215 0.0029,-0.071 0.0378,-0.131 0.097,-0.166 0.0591,-0.034 0.1377,-0.041 0.2185,-0.019 0.0807,0.022 0.157,0.072 0.212,0.138 z" />
          <path
             id="circle10"
             d="m -18.7175,235.131 c 0.055,0.066 0.0842,0.143 0.0813,0.215 -0.0029,0.071 -0.0378,0.131 -0.097,0.166 -0.0591,0.034 -0.1377,0.041 -0.2184,0.019 -0.0807,-0.022 -0.157,-0.072 -0.212,-0.138 -0.055,-0.066 -0.0843,-0.144 -0.0813,-0.215 0.0029,-0.072 0.0378,-0.131 0.0969,-0.166 0.0592,-0.035 0.1378,-0.042 0.2185,-0.019 0.0807,0.022 0.157,0.072 0.212,0.138 z" />
          <path
             id="circle12"
             d="m -16.4784,236.788 c 0.055,0.067 0.0842,0.144 0.0813,0.215 -0.0029,0.072 -0.0378,0.131 -0.097,0.166 -0.0591,0.035 -0.1377,0.042 -0.2184,0.019 -0.0808,-0.022 -0.157,-0.072 -0.212,-0.138 -0.055,-0.066 -0.0843,-0.143 -0.0813,-0.215 0.0029,-0.071 0.0378,-0.131 0.0969,-0.165 0.0592,-0.035 0.1378,-0.042 0.2185,-0.02 0.0807,0.022 0.157,0.072 0.212,0.138 z" />
          <path
             id="circle14"
             d="m -20.7104,236.746 c 0.0857,0.104 0.0805,0.231 -0.0117,0.285 -0.0923,0.055 -0.2366,0.015 -0.3224,-0.089 -0.0858,-0.103 -0.0805,-0.23 0.0117,-0.285 0.0923,-0.054 0.2366,-0.014 0.3224,0.089 z" />
          <path
             id="circle16"
             d="m -8.38029,235.347 c 0.04131,0.05 0.06328,0.108 0.06107,0.161 -0.0022,0.054 -0.0284,0.099 -0.07284,0.125 -0.04443,0.026 -0.10345,0.031 -0.16408,0.015 -0.06063,-0.017 -0.1179,-0.055 -0.15922,-0.104 -0.04131,-0.05 -0.06328,-0.108 -0.06107,-0.162 0.0022,-0.053 0.02841,-0.098 0.07284,-0.124 0.04443,-0.026 0.10345,-0.032 0.16408,-0.015 0.06063,0.017 0.1179,0.054 0.15922,0.104 z" />
          <path
             id="circle18"
             d="m 3.09855,223.689 c 0.08577,0.103 0.08051,0.231 -0.01175,0.285 -0.09226,0.054 -0.23658,0.014 -0.32235,-0.089 -0.08577,-0.104 -0.08051,-0.231 0.01175,-0.285 0.09226,-0.055 0.23658,-0.015 0.32235,0.089 z" />
          <path
             id="circle20"
             d="m 3.05848,216.233 c 0.04131,0.05 0.06328,0.108 0.06107,0.161 -0.00221,0.054 -0.02841,0.099 -0.07285,0.125 -0.04444,0.026 -0.10347,0.031 -0.1641,0.014 -0.06064,-0.016 -0.11791,-0.054 -0.15922,-0.103 -0.04132,-0.05 -0.06328,-0.108 -0.06107,-0.162 0.0022,-0.053 0.02841,-0.098 0.07285,-0.124 0.04444,-0.026 0.10347,-0.032 0.1641,-0.015 0.06064,0.017 0.11791,0.054 0.15922,0.104 z" />
          <path
             id="circle22"
             d="m -31.9388,210.389 c 0.0858,0.104 0.0806,0.231 -0.0117,0.285 -0.0922,0.055 -0.2366,0.015 -0.3224,-0.089 -0.0858,-0.103 -0.0806,-0.231 0.0117,-0.285 0.0923,-0.054 0.2366,-0.014 0.3224,0.089 z" />
          <path
             id="circle24"
             d="m -30.4963,203.975 c 0.0858,0.104 0.0806,0.231 -0.0117,0.285 -0.0923,0.055 -0.2366,0.015 -0.3224,-0.089 -0.0858,-0.103 -0.0806,-0.231 0.0117,-0.285 0.0922,-0.054 0.2366,-0.014 0.3224,0.089 z" />
          <path
             id="circle26"
             d="m -31.2948,203.899 c 0.0858,0.103 0.0806,0.231 -0.0117,0.285 -0.0923,0.054 -0.2366,0.014 -0.3224,-0.089 -0.0858,-0.103 -0.0806,-0.231 0.0117,-0.285 0.0922,-0.054 0.2366,-0.014 0.3224,0.089 z" />
          <path
             id="circle28"
             d="m -32.0452,203.794 c 0.0858,0.104 0.0805,0.231 -0.0117,0.286 -0.0923,0.054 -0.2367,0.014 -0.3225,-0.089 -0.0858,-0.104 -0.0805,-0.231 0.0117,-0.286 0.0923,-0.054 0.2366,-0.014 0.3225,0.089 z" />
          <path
             id="circle30"
             d="m -30.4224,210.937 c 0.0858,0.103 0.0806,0.231 -0.0116,0.285 -0.0923,0.054 -0.2367,0.014 -0.3225,-0.089 -0.0858,-0.103 -0.0805,-0.231 0.0117,-0.285 0.0923,-0.054 0.2366,-0.015 0.3224,0.089 z" />
          <path
             id="circle32"
             d="m -31.8069,197.263 c 0.0412,0.049 0.0631,0.107 0.0609,0.161 -0.0022,0.053 -0.0283,0.098 -0.0726,0.124 -0.0443,0.026 -0.1032,0.031 -0.1637,0.014 -0.0604,-0.016 -0.1176,-0.054 -0.1588,-0.103 -0.0858,-0.104 -0.0805,-0.231 0.0117,-0.285 0.0923,-0.055 0.2367,-0.015 0.3225,0.089 z" />
          <path
             id="circle34"
             d="m -26.2247,202.013 c 0.0858,0.103 0.0806,0.231 -0.0117,0.285 -0.0923,0.054 -0.2366,0.014 -0.3224,-0.089 -0.0858,-0.103 -0.0806,-0.231 0.0117,-0.285 0.0923,-0.054 0.2366,-0.015 0.3224,0.089 z" />
          <path
             id="circle36"
             d="m -28.8363,201.978 c 0.0858,0.104 0.0806,0.231 -0.0117,0.286 -0.0922,0.054 -0.2366,0.014 -0.3224,-0.089 -0.0858,-0.104 -0.0806,-0.231 0.0117,-0.286 0.0923,-0.054 0.2366,-0.014 0.3224,0.089 z" />
          <path
             id="circle38"
             d="m -30.6207,205.157 c 0.0858,0.104 0.0805,0.231 -0.0117,0.285 -0.0923,0.055 -0.2366,0.015 -0.3224,-0.089 -0.0859,-0.103 -0.0806,-0.231 0.0116,-0.285 0.0923,-0.054 0.2367,-0.014 0.3225,0.089 z" />
          <path
             id="circle40"
             d="m 7.99335,228.165 c 0.08577,0.103 0.0805,0.231 -0.01175,0.285 -0.09226,0.054 -0.23658,0.014 -0.32234,-0.089 -0.08577,-0.103 -0.0805,-0.231 0.01175,-0.285 0.09226,-0.054 0.23658,-0.014 0.32234,0.089 z" />
          <path
             id="circle42"
             d="m -18.0047,236.595 c 0.0413,0.049 0.0633,0.107 0.0611,0.161 -0.0022,0.054 -0.0284,0.098 -0.0729,0.124 -0.0444,0.027 -0.1034,0.032 -0.1641,0.015 -0.0606,-0.017 -0.1179,-0.054 -0.1592,-0.104 -0.0413,-0.049 -0.0633,-0.108 -0.0611,-0.161 0.0022,-0.054 0.0284,-0.099 0.0729,-0.125 0.0444,-0.026 0.1034,-0.031 0.1641,-0.014 0.0606,0.017 0.1179,0.054 0.1592,0.104 z" />
          <path
             id="circle44"
             d="m -4.3719,232.184 c 0.04131,0.05 0.06328,0.108 0.06107,0.161 -0.00221,0.054 -0.02841,0.099 -0.07284,0.125 -0.04443,0.026 -0.10346,0.031 -0.16409,0.014 -0.06063,-0.016 -0.1179,-0.054 -0.15921,-0.103 -0.04131,-0.05 -0.06328,-0.108 -0.06107,-0.162 0.0022,-0.053 0.02841,-0.098 0.07284,-0.124 0.04443,-0.026 0.10346,-0.032 0.16409,-0.015 0.06063,0.017 0.1179,0.054 0.15921,0.104 z" />
          <path
             id="circle46"
             d="m -14.6686,234.414 c 0.0414,0.049 0.0633,0.107 0.0611,0.161 -0.0022,0.054 -0.0284,0.098 -0.0728,0.125 -0.0925,0.054 -0.2373,0.014 -0.3233,-0.09 -0.086,-0.103 -0.0808,-0.231 0.0117,-0.286 0.0445,-0.026 0.1035,-0.031 0.1641,-0.014 0.0607,0.017 0.1179,0.054 0.1592,0.104 z" />
          <path
             id="circle48"
             d="m -11.0271,236.208 c 0.0413,0.05 0.0633,0.108 0.0611,0.161 -0.0023,0.054 -0.0285,0.099 -0.0729,0.125 -0.0444,0.026 -0.1034,0.031 -0.1641,0.014 -0.0606,-0.016 -0.1179,-0.054 -0.1592,-0.103 -0.0413,-0.05 -0.0633,-0.108 -0.0611,-0.162 0.0022,-0.053 0.0284,-0.098 0.0729,-0.124 0.0444,-0.026 0.1034,-0.032 0.1641,-0.015 0.0606,0.017 0.1179,0.054 0.1592,0.104 z" />
          <path
             id="circle50"
             d="m -1.76329,228.295 c 0.08577,0.103 0.08051,0.231 -0.01174,0.285 -0.09226,0.054 -0.23658,0.014 -0.32235,-0.089 -0.08577,-0.104 -0.08052,-0.231 0.01174,-0.285 0.09226,-0.055 0.23658,-0.015 0.32235,0.089 z" />
          <path
             id="circle52"
             d="m 1.02685,221.14 c 0.08577,0.104 0.08051,0.231 -0.01175,0.285 -0.092258,0.055 -0.236583,0.015 -0.322357,-0.089 -0.085773,-0.103 -0.080515,-0.231 0.011745,-0.285 0.09226,-0.054 0.236585,-0.014 0.322362,0.089 z" />
          <path
             id="circle54"
             d="m 7.36766,220.805 c 0.08577,0.103 0.0805,0.231 -0.01176,0.285 -0.09226,0.054 -0.23658,0.014 -0.32235,-0.089 -0.08577,-0.103 -0.08051,-0.231 0.01176,-0.285 0.09226,-0.054 0.23658,-0.014 0.32235,0.089 z" />
          <path
             id="circle56"
             d="m 9.78682,221.001 c 0.08576,0.104 0.0805,0.231 -0.01176,0.285 -0.09226,0.055 -0.23658,0.015 -0.32235,-0.089 -0.08577,-0.103 -0.0805,-0.23 0.01176,-0.285 0.09226,-0.054 0.23658,-0.014 0.32235,0.089 z" />
          <path
             id="circle58"
             d="m 7.57535,217.891 c 0.08577,0.103 0.08051,0.231 -0.01175,0.285 -0.09226,0.054 -0.23659,0.015 -0.32236,-0.089 -0.08577,-0.103 -0.08051,-0.231 0.01176,-0.285 0.09226,-0.054 0.23658,-0.014 0.32235,0.089 z" />
          <path
             id="circle60"
             d="m -18.0371,226.683 c 0.0857,0.103 0.0805,0.231 -0.0118,0.285 -0.0922,0.054 -0.2365,0.014 -0.3223,-0.089 -0.0858,-0.103 -0.0806,-0.231 0.0117,-0.285 0.0922,-0.054 0.2366,-0.014 0.3224,0.089 z" />
          <path
             id="circle62"
             d="m -14.3503,230.909 c 0.055,0.066 0.0842,0.143 0.0813,0.214 -0.0029,0.072 -0.0378,0.131 -0.097,0.166 -0.0591,0.035 -0.1377,0.042 -0.2184,0.02 -0.0808,-0.023 -0.157,-0.072 -0.212,-0.139 -0.055,-0.066 -0.0843,-0.143 -0.0813,-0.215 0.0029,-0.071 0.0378,-0.131 0.0969,-0.165 0.0592,-0.035 0.1378,-0.042 0.2185,-0.02 0.0807,0.023 0.157,0.072 0.212,0.139 z" />
          <path
             id="circle64"
             d="m -10.3851,233.286 c 0.0551,0.067 0.0843,0.144 0.0814,0.215 -0.003,0.072 -0.0379,0.131 -0.097,0.166 -0.0592,0.035 -0.1377,0.042 -0.2185,0.019 -0.0807,-0.022 -0.1569,-0.072 -0.2119,-0.138 -0.055,-0.066 -0.0843,-0.143 -0.0814,-0.215 0.003,-0.071 0.0379,-0.131 0.097,-0.165 0.0592,-0.035 0.1378,-0.042 0.2185,-0.02 0.0807,0.022 0.1569,0.072 0.2119,0.138 z" />
          <path
             id="circle66"
             d="m 2.90784,220.581 c 0.055,0.066 0.08425,0.144 0.08131,0.215 -0.00295,0.071 -0.03783,0.131 -0.097,0.166 -0.05916,0.035 -0.13774,0.042 -0.21847,0.019 -0.08072,-0.022 -0.15697,-0.072 -0.21197,-0.138 -0.055,-0.066 -0.08425,-0.144 -0.08131,-0.215 0.00294,-0.071 0.03783,-0.131 0.09699,-0.166 0.05916,-0.034 0.13775,-0.041 0.21848,-0.019 0.08072,0.022 0.15697,0.072 0.21197,0.138 z" />
          <path
             id="circle68"
             d="m 8.37379,216.828 c 0.055,0.066 0.08425,0.144 0.0813,0.215 -0.00294,0.071 -0.03783,0.131 -0.097,0.166 -0.05916,0.035 -0.13775,0.042 -0.21847,0.019 -0.08073,-0.022 -0.15698,-0.072 -0.21197,-0.138 -0.055,-0.066 -0.08425,-0.144 -0.0813,-0.215 0.00294,-0.071 0.03783,-0.131 0.09699,-0.166 0.05917,-0.034 0.13776,-0.041 0.21848,-0.019 0.08073,0.022 0.15697,0.072 0.21197,0.138 z" />
          <path
             id="circle70"
             d="m 4.38479,217.139 c 0.055,0.066 0.08424,0.143 0.0813,0.215 -0.00294,0.071 -0.03783,0.131 -0.097,0.165 -0.05916,0.035 -0.13775,0.042 -0.21847,0.02 -0.08073,-0.023 -0.15698,-0.072 -0.21198,-0.139 -0.055,-0.066 -0.08425,-0.143 -0.0813,-0.215 0.00294,-0.071 0.03783,-0.131 0.09699,-0.165 0.05916,-0.035 0.13775,-0.042 0.21848,-0.02 0.08072,0.023 0.15697,0.072 0.21198,0.139 z" />
          <path
             id="circle72"
             d="m 1.58059,218.983 c 0.055,0.066 0.08425,0.143 0.08131,0.215 -0.00294,0.071 -0.03783,0.131 -0.09699,0.165 -0.05916,0.035 -0.13775,0.042 -0.21848,0.02 -0.08072,-0.023 -0.15697,-0.072 -0.21198,-0.139 -0.055,-0.066 -0.08424,-0.143 -0.0813,-0.215 0.00294,-0.071 0.03783,-0.131 0.09699,-0.165 0.05916,-0.035 0.13775,-0.042 0.21847,-0.02 0.08073,0.023 0.15698,0.072 0.21198,0.139 z" />
          <path
             d="m -25.8178,197.156 0.5054,-0.385 -0.5828,0.29 c -0.1169,-0.11 -0.2806,-0.153 -0.4016,-0.105 l -0.5666,-0.588 0.486,0.642 c -0.0794,0.084 -0.0784,0.223 0.0061,0.347 l -0.5192,0.391 0.5997,-0.301 c 0.1098,0.095 0.2567,0.133 0.3705,0.096 l 0.5808,0.607 -0.4981,-0.654 c 0.0865,-0.079 0.0945,-0.215 0.0198,-0.34 z"
             id="path74" />
          <path
             d="m -29.4369,209.568 0.5054,-0.385 -0.5828,0.29 c -0.1164,-0.11 -0.2806,-0.153 -0.4015,-0.105 l -0.5666,-0.587 0.4864,0.641 c -0.0798,0.084 -0.0788,0.223 0.0057,0.347 l -0.5192,0.391 0.5996,-0.301 c 0.1098,0.095 0.2568,0.133 0.3705,0.096 l 0.5808,0.607 -0.4976,-0.654 c 0.087,-0.079 0.0945,-0.216 0.0193,-0.34 z"
             id="path76" />
          <path
             d="m 6.48338,215.679 0.5054,-0.385 -0.58276,0.29 c -0.11639,-0.11 -0.28053,-0.153 -0.4015,-0.105 l -0.56643,-0.587 0.4863,0.641 c -0.0794,0.084 -0.07835,0.223 0.00603,0.347 l -0.51917,0.39 0.59964,-0.3 c 0.10976,0.094 0.25668,0.133 0.37043,0.096 l 0.58061,0.607 -0.49739,-0.654 c 0.08595,-0.079 0.09397,-0.215 0.01884,-0.34 z"
             id="path78" />
          <path
             d="m -8.19063,238.508 0.50532,-0.385 -0.58267,0.29 c -0.11689,-0.11 -0.28052,-0.153 -0.40147,-0.106 l -0.56596,-0.586 0.48584,0.641 c -0.07987,0.084 -0.07882,0.223 0.00557,0.347 l -0.51909,0.39 0.59955,-0.301 c 0.10976,0.095 0.25713,0.134 0.37041,0.097 l 0.58059,0.606 -0.49739,-0.654 c 0.08643,-0.078 0.09448,-0.215 0.0193,-0.339 z"
             id="path80" />
          <path
             d="m 8.78656,221.61 0.50539,-0.385 -0.58274,0.29 c -0.11639,-0.11 -0.28052,-0.153 -0.40149,-0.105 l -0.5664,-0.587 0.48582,0.641 c -0.0794,0.083 -0.07835,0.222 0.00603,0.346 L 7.714,222.201 8.31363,221.9 c 0.10976,0.095 0.25667,0.133 0.37042,0.096 l 0.58057,0.607 -0.49736,-0.654 c 0.08641,-0.078 0.09447,-0.215 0.0193,-0.339 z"
             id="path82" />
          <path
             d="m -14.7451,209.729 c -1.4774,2.365 -2.9876,4.588 -4.3375,6.373 -2.7424,3.627 -10.2778,13.512 -12.8273,21.893 l 0.7289,-0.081 c 1.8491,-4.75 3.7384,-7.011 5.4604,-9.297 1.8724,-2.486 8.5672,-9.751 11.4281,-13.246 0.9667,-1.181 2.0514,-2.621 3.1297,-4.232 -0.8677,-0.368 -1.7577,-0.726 -2.6675,-1.07 -0.3057,-0.117 -0.6112,-0.23 -0.9148,-0.34 z m 6.44901,2.703 c -0.20849,0.753 -0.39724,1.366 -0.54891,1.772 -0.88031,2.35 -4.2698,14.89 -5.0259,17.76 -0.756,2.871 -1.4716,12.502 -1.7032,15.312 l 0.5484,0.767 c 0.9155,-8.857 1.5144,-11.26 2.1613,-14.441 0.8004,-3.936 2.87944,-11.571 3.6556,-14.082 0.74212,-2.401 1.39186,-4.589 1.9573,-6.575 -0.06208,-0.031 -0.12417,-0.062 -0.18671,-0.094 -0.28303,-0.14 -0.569,-0.28 -0.85788,-0.419 z m 0.15652,-15.387 c -1.23294,3.369 -3.72133,8.023 -6.35223,12.277 0.212,0.078 0.4245,0.157 0.6375,0.237 1.005,0.381 1.9875,0.782 2.9447,1.199 2.14147,-3.255 4.21817,-7.156 5.24195,-11.003 -0.16081,2.226 -1.52355,8.586 -2.51676,12.267 0.35277,0.174 0.70107,0.35 1.044,0.528 1.55864,-5.513 2.4455,-9.418 2.79975,-11.889 0.48861,-3.409 1.67573,-11.092 -1.61801,-18.524 0.61916,6.823 -1.09561,11.941 -2.1809,14.908 z"
             fill="#fc3d21"
             id="path84" />
          <path
             d="m -13.0112,224.855 c -0.9521,-0.361 -2.2465,-0.833 -3.2353,-1.208 -1.3222,-0.501 -2.6062,-1.037 -3.8422,-1.601 -0.1294,0.147 -0.2582,0.292 -0.3871,0.438 1.5284,0.724 3.1242,1.405 4.7618,2.026 1.1964,0.453 2.217,0.785 2.7969,1.023 0.1175,0.048 0.3653,0.162 0.6972,0.312 0.0592,-0.216 0.119,-0.435 0.1793,-0.655 -0.318,-0.1 -0.6424,-0.211 -0.9706,-0.335 z m 5.90477,1.375 c -0.67744,-0.17 -2.08087,-0.295 -3.78497,-0.718 -0.0727,0.272 -0.1454,0.548 -0.2178,0.825 1.35709,0.582 3.10236,1.25 4.0045,1.215 1.35947,-0.054 0.86623,-1.103 -0.00173,-1.322 z m -6.74787,-16.671 c -11.2888,-4.278 -20.9871,-4.576 -21.7021,-0.53 -0.5554,3.142 4.9124,8.161 12.6708,12.251 0.1032,-0.147 0.2059,-0.293 0.3076,-0.437 -7.6616,-3.924 -12.8414,-8.71 -12.3179,-11.674 0.6582,-3.724 10.1047,-3.255 21.0661,0.899 2.2688,0.859 4.41582,1.798 6.39109,2.783 7.566083,3.774 12.62741,8.231 12.26089,11.479 -0.11206,0.993 -1.8341,2.368 -5.411465,2.577 0.005821,0.07 0.173392,0.171 0.244697,0.178 2.990888,-0.298 5.386398,-1.148 5.661838,-2.703 0.66095,-3.736 -7.88363,-10.545 -19.17155,-14.823 z"
             id="path86" />
          <path
             d="m -35.4373,223.522 3.3309,-1.955 7.207,3.67 c 0,0 -3.1944,-3.846 -3.4433,-4.146 -0.3872,-0.466 -1.4199,-0.764 -1.6818,-0.746 0.223,-0.131 2.1711,-1.275 2.3049,-1.353 -0.1067,0.124 -0.0486,1.007 0.3732,1.515 0.2074,0.249 4.84,5.827 5.0612,6.094 0.3112,0.374 1.2231,0.607 1.6195,0.671 l -3.2119,1.886 -7.2722,-3.67 c 0,0 3.3051,3.98 3.4849,4.196 0.3457,0.416 1.0419,0.602 1.7045,0.721 l -2.4535,1.44 c 0.2112,-0.372 0.1102,-1.093 -0.2058,-1.526 -0.316,-0.434 -4.8056,-5.786 -4.9992,-6.019 -0.4218,-0.508 -1.2062,-0.667 -1.8184,-0.778 z"
             id="path88" />
          <path
             d="m 1.96778,213.988 4.43183,-2.602 c -0.30069,0.078 -0.84543,-0.085 -1.35362,-0.431 -0.50819,-0.346 -8.74818,-6.061 -8.74818,-6.061 l -1.68503,0.989 c -0.15802,0.666 -0.33272,1.373 -0.52416,2.122 0.01142,0.016 0.02284,0.033 0.03281,0.049 0.34145,0.543 3.4631,6.665 3.60217,6.976 0.19265,0.432 -0.04116,1.176 -0.09192,1.528 l 2.3868702,-1.401 c -0.4868162,-0.16 -0.9221062,-0.338 -1.1540202,-0.698 -0.23191,-0.359 -0.65112,-1.104 -0.65112,-1.104 l 2.468714,-1.449 c 0.388066,0.268 0.719756,0.518 0.998396,0.777 0.33548,0.31 0.34117,0.877 0.28726,1.305 z m -4.4162,-1.829 -1.6975,-3.537 3.630842,2.402 z m -4.58886,-4.855 c 0.03856,-0.173 0.07715,-0.346 0.11525,-0.52 l -0.64694,0.38 c 0.11976,0.029 0.31346,0.071 0.53169,0.14 z"
             id="path90" />
          <path
             d="m -18.0586,224.392 c -0.232,-0.359 -0.6513,-1.103 -0.6513,-1.103 l 2.4686,-1.449 c 0.388,0.267 0.7197,0.518 0.9984,0.776 0.3355,0.311 0.3412,0.877 0.2874,1.305 l 3.9015,-2.29 c 0.0306,-0.109 0.0607,-0.217 0.0913,-0.325 -0.2756,-0.061 -0.6016,-0.205 -0.915,-0.418 -0.5082,-0.345 -8.7485,-6.06 -8.7485,-6.06 l -3.8665,2.27 c 0.3449,0.082 1.309,0.284 1.6905,0.89 0.342,0.542 3.4636,6.664 3.6027,6.975 0.1927,0.432 -0.041,1.176 -0.0918,1.527 l 2.3867,-1.4 c -0.4868,-0.16 -0.9221,-0.338 -1.154,-0.698 z m -3.011,-5.836 3.631,2.401 -1.9332,1.135 z"
             id="path92" />
          <path
             d="m -7.31984,213.184 c -0.27694,0.97 -0.57422,1.987 -0.8919,3.054 0.52648,-0.016 1.02104,0.062 1.31427,0.365 0.55024,0.57 -0.28638,1.493 -1.36414,1.94 -0.21555,0.089 -0.45436,0.144 -0.70038,0.175 -0.08103,0.265 -0.16312,0.532 -0.24681,0.802 -0.08484,0.275 -0.18576,0.612 -0.2989,0.998 l 0.71577,0.862 c -0.15926,-0.538 -0.05215,-1.166 0.25987,-1.378 0.13437,-0.091 1.04682,0.129 2.96559,-1.183 0.93126,-0.637 1.85442,-2.922 0.70472,-4.253 -0.67969,-0.787 -1.56769,-1.19 -2.45809,-1.382 z m -3.83696,5.349 0.7291,0.878 c 0.0679,-0.238 0.1351,-0.473 0.2016,-0.703 -0.4482,-0.053 -0.8055,-0.137 -0.9307,-0.175 z m 2.68775,-5.495 c -0.29207,-0.014 -0.57373,-0.011 -0.83684,-0.001 -1.36661,0.059 -2.43901,0.553 -3.20731,0 -0.5417,-0.389 -0.4928,-1.073 0.5323,-1.649 1.0251,-0.577 2.52203,-0.453 2.97534,-0.36 l -1.78374,-2.148 c -0.0053,0.127 0.0166,0.737 -0.3395,0.843 -0.6832,0.203 -1.8015,0.601 -2.9109,1.263 -1.2721,0.759 -1.4534,2.512 -0.3286,3.933 1.5727,1.987 3.4131,1.7 4.45706,1.545 0.10757,-0.016 0.22838,-0.037 0.35897,-0.06 0.29873,-0.994 0.54443,-1.769 0.70681,-2.2 0.10914,-0.29 0.23631,-0.688 0.37641,-1.166 z"
             id="path94" />
        </g>
      </g>
      <g
         aria-label="Paraguay"
         id="text9484"
         style="font-style:normal;font-weight:normal;font-size:10.5833px;line-height:1.25;font-family:sans-serif;letter-spacing:0px;word-spacing:0px;white-space:pre;shape-inside:url(#rect9486);fill:#000000;fill-opacity:1;stroke:none"
         transform="translate(-29.388623,-29.524613)">
        <path
           d="m 314.724,252.171 -1.691,0.979 1.202,1.448 1.688,-0.982 z m -0.56,-1.311 c 0.162,-0.094 0.347,-0.07 0.556,0.071 l 0.045,0.048 2.516,3.031 0.038,0.053 c 0.086,0.213 0.047,0.366 -0.114,0.46 l -2.043,1.192 1.746,2.104 -0.687,0.403 c -0.004,0.002 -0.015,-0.006 -0.033,-0.026 l -4.51,-5.433 -0.038,-0.053 c -0.085,-0.213 -0.046,-0.367 0.117,-0.461 z"
           style="font-style:normal;font-variant:normal;font-weight:normal;font-stretch:normal;font-family:Orena;-inkscape-font-specification:Orena"
           id="path10037" />
        <path
           d="m 318.427,253.81 1.715,2.066 c 0.013,0.016 0.018,0.028 0.015,0.036 l -0.673,0.395 c -0.003,0.002 -0.014,-0.007 -0.032,-0.026 l -4.494,-5.413 -0.038,-0.053 c -0.085,-0.212 -0.046,-0.365 0.116,-0.459 l 2.41,-1.391 c 0.02,-0.012 0.04,-0.02 0.061,-0.025 0.223,-0.041 0.401,0.019 0.532,0.177 l 4.462,5.375 c 0.013,0.015 0.019,0.027 0.017,0.034 l -0.671,0.394 c -0.004,0.002 -0.015,-0.006 -0.033,-0.026 l -1.711,-2.061 z m 0.754,-2.089 -1.195,-1.439 -1.68,0.973 1.197,1.442 z"
           style="font-style:normal;font-variant:normal;font-weight:normal;font-stretch:normal;font-family:Orena;-inkscape-font-specification:Orena"
           id="path10039" />
        <path
           d="m 321.22,248.409 -1.665,0.964 1.192,1.437 1.664,-0.967 z m 0.933,3.227 -0.485,0.284 1.733,2.088 -0.677,0.397 c -0.004,0.003 -0.015,-0.006 -0.033,-0.025 l -4.477,-5.394 -0.038,-0.052 c -0.085,-0.212 -0.047,-0.364 0.114,-0.457 l 2.372,-1.369 c 0.16,-0.092 0.343,-0.068 0.549,0.072 l 0.046,0.048 2.497,3.009 0.038,0.052 c 0.085,0.211 0.048,0.363 -0.111,0.456 l -0.642,0.374 2.704,1.514 -0.882,0.518 z"
           style="font-style:normal;font-variant:normal;font-weight:normal;font-stretch:normal;font-family:Orena;-inkscape-font-specification:Orena"
           id="path10041" />
        <path
           d="m 324.885,250.042 1.703,2.051 c 0.013,0.016 0.018,0.028 0.015,0.036 l -0.663,0.389 c -0.004,0.002 -0.015,-0.006 -0.032,-0.026 l -4.461,-5.374 -0.038,-0.052 c -0.085,-0.211 -0.047,-0.362 0.112,-0.454 l 2.375,-1.371 c 0.021,-0.012 0.041,-0.02 0.061,-0.025 0.22,-0.039 0.396,0.02 0.527,0.177 l 4.429,5.336 c 0.013,0.015 0.018,0.027 0.017,0.034 l -0.661,0.388 c -0.004,0.002 -0.015,-0.006 -0.033,-0.025 l -1.699,-2.047 z m 0.736,-2.067 -1.186,-1.428 -1.655,0.959 1.188,1.431 z"
           style="font-style:normal;font-variant:normal;font-weight:normal;font-stretch:normal;font-family:Orena;-inkscape-font-specification:Orena"
           id="path10043" />
        <path
           d="m 329.719,247.222 -1.313,0.766 -0.914,-1.101 1.989,-1.156 2.37,2.855 0.037,0.052 c 0.085,0.209 0.049,0.36 -0.107,0.452 l -2.326,1.364 c -0.157,0.093 -0.338,0.069 -0.544,-0.07 l -0.045,-0.048 -4.21,-5.072 -0.038,-0.052 c -0.085,-0.21 -0.048,-0.36 0.111,-0.452 l 2.667,-1.54 0.904,1.088 -2.319,1.343 2.914,3.51 1.638,-0.959 z"
           style="font-style:normal;font-variant:normal;font-weight:normal;font-stretch:normal;font-family:Orena;-inkscape-font-specification:Orena"
           id="path10045" />
        <path
           d="m 332.623,248.595 c -0.156,0.092 -0.337,0.069 -0.541,-0.071 l -0.045,-0.047 -4.429,-5.335 c -0.015,-0.021 -0.021,-0.032 -0.017,-0.035 l 0.657,-0.379 c 0.01,0.001 0.021,0.009 0.034,0.024 l 3.781,4.555 1.626,-0.952 -3.773,-4.546 c -0.013,-0.015 -0.018,-0.027 -0.016,-0.035 l 0.654,-0.377 c 0.004,-0.002 0.015,0.006 0.032,0.025 l 4.414,5.317 0.037,0.052 c 0.085,0.208 0.05,0.358 -0.106,0.45 z"
           style="font-style:normal;font-variant:normal;font-weight:normal;font-stretch:normal;font-family:Orena;-inkscape-font-specification:Orena"
           id="path10047" />
        <path
           d="m 334.399,244.492 1.684,2.028 c 0.013,0.016 0.018,0.028 0.015,0.036 l -0.648,0.38 c -0.004,0.003 -0.015,-0.006 -0.032,-0.025 l -4.413,-5.316 -0.038,-0.052 c -0.084,-0.208 -0.048,-0.357 0.108,-0.447 l 2.324,-1.342 c 0.02,-0.011 0.04,-0.019 0.059,-0.024 0.217,-0.038 0.39,0.021 0.519,0.177 l 4.381,5.278 c 0.013,0.015 0.019,0.027 0.018,0.034 l -0.648,0.38 c -0.003,0.002 -0.014,-0.006 -0.032,-0.025 l -1.68,-2.025 z m 0.711,-2.035 -1.174,-1.413 -1.62,0.938 1.176,1.416 z"
           style="font-style:normal;font-variant:normal;font-weight:normal;font-stretch:normal;font-family:Orena;-inkscape-font-specification:Orena"
           id="path10049" />
        <path
           d="m 337.498,241.788 -0.191,-0.122 -0.003,-0.003 -2.292,-1.47 -1.123,-0.721 0.784,-0.453 1.749,1.125 0.427,0.271 -0.157,-0.428 -0.648,-1.76 0.781,-0.45 0.414,1.126 0.734,2.001 0.178,0.49 2.209,2.661 -0.659,0.387 z"
           style="font-style:normal;font-variant:normal;font-weight:normal;font-stretch:normal;font-family:Orena;-inkscape-font-specification:Orena"
           id="path10051" />
      </g>
    </g>
  </g>
  <g
     inkscape:groupmode="layer"
     id="layer5"
     inkscape:label="tmp"
     sodipodi:insensitive="true"
     style="display:none"
     transform="translate(-68.635016,-167.51551)">
    <path
       id="path4285"
       style="display:inline;fill:#ab47bc;fill-opacity:0.992157;stroke:#000000;stroke-width:0.264583px;stroke-linecap:butt;stroke-linejoin:miter;stroke-opacity:1"
       d="m 290.15129,299.87472 -15.20735,8.78033 -7.6848,4.43643 c -0.002,6.02713 -1.79101,8.95533 -4.14238,10.20146 v 0 l 21.46746,-12.65866 c 3.01474,-0.77166 5.5671,-3.55132 5.5671,-10.75542 z"
       sodipodi:nodetypes="ccccccsc" />
    <path
       id="path4294"
       style="display:inline;fill:#7cb342;fill-opacity:0.992157;stroke:#000000;stroke-width:0.999999px;stroke-linecap:butt;stroke-linejoin:miter;stroke-opacity:1"
       d="m 1010.7656,1025.1816 c -0.507,0 -1.0148,0 -1.5215,0.012 -0.027,9e-4 -0.055,0 -0.082,0 -0.01,2e-4 -0.013,0 -0.019,0 -0.6038,0.022 -1.2054,0.063 -1.8067,0.1172 -0.1302,0.012 -0.2606,0.024 -0.3906,0.037 -0.5784,0.059 -1.1568,0.1307 -1.7305,0.2227 -0.028,0 -0.056,0.01 -0.084,0.014 -0.01,0 -0.013,9e-4 -0.02,0 -0.5604,0.092 -1.116,0.2067 -1.6699,0.332 -0.1814,0.041 -0.3623,0.086 -0.543,0.1309 -0.5011,0.1243 -1.0002,0.2599 -1.4941,0.414 -0.1024,0.032 -0.2046,0.064 -0.3066,0.098 -0.4903,0.1599 -0.9737,0.3399 -1.45512,0.5313 -0.20792,0.083 -0.415,0.1688 -0.6211,0.2578 -0.41824,0.18 -0.83207,0.3743 -1.24218,0.58 -0.21334,0.1073 -0.42578,0.2176 -0.63672,0.3321 -0.37421,0.2026 -0.74517,0.4167 -1.11133,0.6425 -1.88413,1.1652 -3.65816,2.6387 -5.27148,4.4864 h -0.0215 c -0.003,0 -0.006,0.01 -0.01,0.012 h -0.0156 l -79.57227,44.5469 h -0.0195 c 17.03308,-8.6014 41.50586,5.5332 41.50586,5.5332 l 86.60354,-50 h -0.059 l 0.019,-0.012 c 0,0 -0.2255,-0.1304 -0.6465,-0.3574 -0.9059,-0.4884 -2.7416,-1.4319 -5.1875,-2.4981 -0.4917,-0.2142 -1.0066,-0.4324 -1.5469,-0.6543 -0.3628,-0.149 -0.7399,-0.2987 -1.123,-0.4492 -0.5892,-0.2314 -1.2051,-0.4614 -1.8379,-0.6914 -0.3673,-0.1336 -0.7326,-0.2668 -1.1133,-0.3984 -0.796,-0.2751 -1.6229,-0.5421 -2.4707,-0.8008 -0.5075,-0.155 -1.0174,-0.3089 -1.541,-0.4551 -0.1253,-0.035 -0.2489,-0.071 -0.375,-0.1055 -0.7682,-0.2095 -1.5495,-0.4097 -2.3457,-0.5937 -0.7575,-0.175 -1.5309,-0.3327 -2.3086,-0.4785 -0.206,-0.039 -0.4139,-0.073 -0.6211,-0.1094 -0.6134,-0.1075 -1.2313,-0.2017 -1.8535,-0.2871 -0.209,-0.029 -0.4171,-0.06 -0.6269,-0.086 -0.8063,-0.1 -1.6169,-0.1845 -2.4317,-0.2403 -0.049,0 -0.098,0 -0.1465,-0.01 -0.7482,-0.049 -1.4991,-0.072 -2.25,-0.078 z"
       sodipodi:nodetypes="ssscsssscssscscsccccccccccccssssssssssssssscs"
       transform="scale(0.26458333)" />
  </g>
</svg>
