<?xml version="1.0" encoding="UTF-8" standalone="no"?>
<svg
   xmlns:dc="http://purl.org/dc/elements/1.1/"
   xmlns:cc="http://creativecommons.org/ns#"
   xmlns:rdf="http://www.w3.org/1999/02/22-rdf-syntax-ns#"
   xmlns:svg="http://www.w3.org/2000/svg"
   xmlns="http://www.w3.org/2000/svg"
   xmlns:sodipodi="http://sodipodi.sourceforge.net/DTD/sodipodi-0.dtd"
   xmlns:inkscape="http://www.inkscape.org/namespaces/inkscape"
   sodipodi:docname="satellite.svg"
   inkscape:version="1.0.1 (3bc2e813f5, 2020-09-07)"
   id="svg8"
   version="1.1"
   viewBox="0 0 337.35778 197.49631"
   height="746.44275"
   width="1275.0531">
  <title
     id="title1905">Satellite</title>
  <defs
     id="defs2">
    <rect
       x="251.35416"
       y="188.64792"
       width="82.285416"
       height="17.727083"
       id="rect9486" />
    <inkscape:perspective
       sodipodi:type="inkscape:persp3d"
       inkscape:vp_x="-207.38656 : 775.9932 : 1"
       inkscape:vp_y="0 : 3779.5274 : 0"
       inkscape:vp_z="1792.6134 : 775.9932 : 1"
       inkscape:persp3d-origin="792.61345 : 442.6599 : 1"
       id="perspective1223" />
    <inkscape:perspective
       sodipodi:type="inkscape:persp3d"
       inkscape:vp_x="-69.905031 : 775.9932 : 1"
       inkscape:vp_y="0 : 3779.5274 : 0"
       inkscape:vp_z="1930.0949 : 775.9932 : 1"
       inkscape:persp3d-origin="930.09498 : 442.6599 : 1"
       id="perspective1207" />
    <inkscape:perspective
       sodipodi:type="inkscape:persp3d"
       inkscape:vp_x="-184.47297 : 921.51409 : 1"
       inkscape:vp_y="0 : 3779.5274 : 0"
       inkscape:vp_z="1815.527 : 921.51409 : 1"
       inkscape:persp3d-origin="815.52704 : 588.1807 : 1"
       id="perspective1177" />
    <inkscape:perspective
       sodipodi:type="inkscape:persp3d"
       inkscape:vp_x="119.89748 : 863.8226 : 1"
       inkscape:vp_y="0 : 3779.5274 : 0"
       inkscape:vp_z="2119.8975 : 863.8226 : 1"
       inkscape:persp3d-origin="1119.8975 : 530.4893 : 1"
       id="perspective1161" />
    <inkscape:perspective
       sodipodi:type="inkscape:persp3d"
       inkscape:vp_x="66.03444 : 684.4639 : 1"
       inkscape:vp_y="0 : 3779.5274 : 0"
       inkscape:vp_z="2066.0344 : 684.4639 : 1"
       inkscape:persp3d-origin="1066.0344 : 351.13051 : 1"
       id="perspective1159" />
    <inkscape:perspective
       sodipodi:type="inkscape:persp3d"
       inkscape:vp_x="-22.551887 : 738.9425 : 1"
       inkscape:vp_y="0 : 3779.5274 : 0"
       inkscape:vp_z="1977.4481 : 738.9425 : 1"
       inkscape:persp3d-origin="977.44809 : 405.60911 : 1"
       id="perspective1155" />
    <inkscape:perspective
       sodipodi:type="inkscape:persp3d"
       inkscape:vp_x="-48.808471 : -35.100785 : 1"
       inkscape:vp_y="0 : 999.99997 : 0"
       inkscape:vp_z="480.35817 : -35.100785 : 1"
       inkscape:persp3d-origin="215.77486 : -123.29528 : 1"
       id="perspective1083" />
    <rect
       x="251.35416"
       y="188.64792"
       width="82.285416"
       height="17.727083"
       id="rect9494" />
  </defs>
  <sodipodi:namedview
     id="base"
     pagecolor="#ffffff"
     bordercolor="#666666"
     borderopacity="1.0"
     inkscape:pageopacity="0.0"
     inkscape:pageshadow="2"
     inkscape:zoom="0.35355339"
     inkscape:cx="622.55859"
     inkscape:cy="40.821796"
     inkscape:document-units="px"
     inkscape:current-layer="layer2"
     showgrid="false"
     inkscape:showpageshadow="true"
     showborder="true"
     inkscape:window-width="1920"
     inkscape:window-height="1017"
     inkscape:window-x="1912"
     inkscape:window-y="-8"
     inkscape:window-maximized="1"
     units="px"
     inkscape:snap-object-midpoints="false"
     showguides="false"
     inkscape:guide-bbox="true"
     inkscape:snap-grids="false"
     inkscape:document-rotation="0"
     inkscape:snap-intersection-paths="true"
     inkscape:lockguides="false"
     fit-margin-top="0"
     fit-margin-left="0"
     fit-margin-right="0"
     fit-margin-bottom="0">
    <inkscape:grid
       type="axonomgrid"
       id="grid815"
       units="px"
       empspacing="5"
       spacingy="26.458333"
       originx="-68.635006"
       originy="-167.51541" />
    <sodipodi:guide
       position="304.65226,148.28703"
       orientation="0.5,-0.8660254"
       id="guide7832"
       inkscape:label=""
       inkscape:locked="false"
       inkscape:color="rgb(0,0,255)" />
    <sodipodi:guide
       position="314.53071,136.42419"
       orientation="0.5,-0.8660254"
       id="guide7834"
       inkscape:label=""
       inkscape:locked="false"
       inkscape:color="rgb(0,0,255)" />
    <sodipodi:guide
       position="260.04153,113.92005"
       orientation="0.5,-0.8660254"
       id="guide9471"
       inkscape:label=""
       inkscape:locked="false"
       inkscape:color="rgb(0,0,255)" />
  </sodipodi:namedview>
  <metadata
     id="metadata5">
    <rdf:RDF>
      <cc:Work
         rdf:about="">
        <dc:format>image/svg+xml</dc:format>
        <dc:type
           rdf:resource="http://purl.org/dc/dcmitype/StillImage" />
        <dc:title>Satellite</dc:title>
        <dc:date>2020/01/30</dc:date>
        <dc:creator>
          <cc:Agent>
            <dc:title>hentai-chan</dc:title>
          </cc:Agent>
        </dc:creator>
        <dc:rights>
          <cc:Agent>
            <dc:title>hentai-chan</dc:title>
          </cc:Agent>
        </dc:rights>
        <cc:license
           rdf:resource="" />
        <dc:publisher>
          <cc:Agent>
            <dc:title>Advanced Systems</dc:title>
          </cc:Agent>
        </dc:publisher>
        <dc:source>https://github.com/Advanced-Systems/vector-assets</dc:source>
      </cc:Work>
    </rdf:RDF>
  </metadata>
  <g
     inkscape:label="Layer 1"
     inkscape:groupmode="layer"
     id="layer1"
     transform="translate(-68.635016,64.651194)" />
  <g
     inkscape:groupmode="layer"
     id="layer2"
     inkscape:label="Tools"
     style="display:inline"
     transform="translate(-68.635016,-167.51551)">
    <g
       inkscape:groupmode="layer"
       id="layer3"
       inkscape:label="Colors"
       style="display:inline" />
    <g
       inkscape:groupmode="layer"
       id="layer4"
       inkscape:label="SocialMediaIcons" />
    <g
       id="g12587"
       transform="translate(-26.192413,-31.430896)">
      <path
         style="fill:#455a64;fill-opacity:0.992157;stroke:#000000;stroke-width:0.264583px;stroke-linecap:butt;stroke-linejoin:miter;stroke-opacity:1"
         d="m 182.15295,289.06311 22.91361,-13.22933 21.76761,12.56773 -22.91359,13.22933 z"
         id="path4696" />
      <path
         style="fill:#546e7a;fill-opacity:0.992157;stroke:#000000;stroke-width:0.264583px;stroke-linecap:butt;stroke-linejoin:miter;stroke-opacity:1"
         d="m 226.83417,288.40151 -22.9136,13.22935 10.02988,5.79083 22.91394,-13.22917 z"
         id="path4831" />
      <path
         id="path4573"
         style="fill:#253137;fill-opacity:0.992157;stroke:#000000;stroke-width:0.999999px;stroke-linecap:butt;stroke-linejoin:miter;stroke-opacity:1"
         d="M 359.40234,902.50195 V 912.5 l 246.81641,142.5 259.80664,150 v -10 L 606.21875,1045 Z"
         transform="scale(0.26458333)" />
      <path
         style="fill:#ff5252;stroke:#000000;stroke-width:0.264583px;stroke-linecap:butt;stroke-linejoin:miter;stroke-opacity:1"
         d="m 297.87665,251.35416 c 0,0 22.91361,13.22917 22.91361,39.6875 0,26.45834 -22.91361,13.22917 -22.91361,13.22917 0,0 -22.91357,-13.22917 -22.91357,-39.6875 0,-26.45834 22.91357,-13.22917 22.91357,-13.22917 z"
         id="path1079" />
      <path
         style="fill:none;stroke:#000000;stroke-width:0.264583px;stroke-linecap:butt;stroke-linejoin:miter;stroke-opacity:1"
         d="m 297.87664,251.35416 45.82719,-26.45833"
         id="path1081" />
      <path
         style="fill:none;stroke:#000000;stroke-width:0.264583px;stroke-linecap:butt;stroke-linejoin:miter;stroke-opacity:1"
         d="M 320.79025,291.04166 366.6174,264.58333"
         id="path1083" />
      <path
         id="path1124"
         style="fill:#bdbdbd;fill-opacity:0.992157;stroke:#000000;stroke-width:0.999999px;stroke-linecap:butt;stroke-linejoin:miter;stroke-opacity:1"
         d="m 1255.7363,837.5 c -6.5895,0 -13.1751,1.17076 -19.1543,4.19141 l -0.082,-0.0117 -1.5352,0.88672 c -0.2678,0.15377 -0.5377,0.30101 -0.8027,0.46289 l -170.8672,98.65039 0.082,0.0117 C 1089.0011,928.74562 1125.834,950 1125.834,950 l 86.6015,-50 86.6036,-50 c 0,0 -21.6519,-12.5 -43.3028,-12.5 z"
         transform="scale(0.26458333)" />
      <path
         id="path1136"
         style="fill:#bdbdbd;fill-opacity:0.992157;stroke:#000000;stroke-width:0.999999px;stroke-linecap:butt;stroke-linejoin:miter;stroke-opacity:1"
         d="m 1342.3398,787.5 c -6.5895,0 -13.1751,1.17076 -19.1543,4.19141 l -0.084,-0.0117 -1.5371,0.88867 c -0.2691,0.15451 -0.5405,0.30215 -0.8067,0.46484 l -84.1758,48.65821 c 5.9792,-3.02065 12.5648,-4.19141 19.1543,-4.19141 21.6509,0 43.3028,12.5 43.3028,12.5 l 86.6015,-50 c 0,0 -21.6499,-12.5 -43.3008,-12.5 z"
         transform="scale(0.26458333)" />
      <path
         id="path1144"
         style="fill:#e0e0e0;fill-opacity:0.992157;stroke:#000000;stroke-width:0.999999px;stroke-linecap:butt;stroke-linejoin:miter;stroke-opacity:1"
         d="m 1385.6406,800 -86.6015,50 c 0,0 86.6015,50.00001 86.6015,150 l 86.6035,-50 c 0,-99.99999 -86.6035,-150 -86.6035,-150 z"
         transform="scale(0.26458333)" />
      <path
         id="path1108"
         style="fill:#e1e1e1;fill-opacity:0.992157;stroke:#000000;stroke-width:0.264583px;stroke-linecap:butt;stroke-linejoin:miter;stroke-opacity:1"
         d="m 343.7041,224.89583 -45.82718,26.45834 c 0,0 22.91332,13.22916 22.91332,39.6875 l 45.82718,-26.45834 c 0,-26.45833 -22.91332,-39.6875 -22.91332,-39.6875 z m -28.66596,81.1661 c -0.20362,0.14769 -0.40883,0.2844 -0.61494,0.41032 0.20611,-0.12592 0.41132,-0.26263 0.61494,-0.41032 z" />
      <path
         style="fill:none;stroke:#e63834;stroke-width:0.264583px;stroke-linecap:butt;stroke-linejoin:miter;stroke-opacity:0.992157"
         d="m 262.03855,273.42147 -2.30711,-8.76175"
         id="path1224"
         sodipodi:nodetypes="cc" />
      <path
         id="path1226"
         style="fill:#bdbdbd;fill-opacity:0.992157;stroke:#000000;stroke-width:0.999999px;stroke-linecap:butt;stroke-linejoin:miter;stroke-opacity:1"
         d="m 1082.5332,937.5 c -10.8221,0 -21.6435,3.12377 -29.7617,12.49219 h -0.018 l -0.1836,0.24609 c -1.0341,1.21368 -2.022,2.53289 -2.9609,3.95899 l -59.22659,79.20703 h 0.34571 c 16.21448,-18.5726 48.50198,0.078 48.50198,0.078 l 86.5996,-83.48045 v -0.002 c -0.01,-0.005 -21.6523,-12.5 -43.2988,-12.5 z"
         transform="scale(0.26458333)" />
      <path
         id="path1246"
         style="fill:#e2e2e2;fill-opacity:0.992157;stroke:#000000;stroke-width:0.999999px;stroke-linecap:butt;stroke-linejoin:miter;stroke-opacity:1"
         d="m 1125.832,950 v 0.002 l -86.6015,83.4805 c 0,0 57.4863,33.2847 57.4863,99.8555 L 1212.4355,1100 c 0,-99.976 -86.5581,-149.97409 -86.5996,-149.99805 0,0 0,-0.002 0,-0.002 z"
         transform="scale(0.26458333)" />
      <path
         id="path1278"
         style="fill:#f0f0f0;fill-opacity:0.992157;stroke:#000000;stroke-width:0.999999px;stroke-linecap:butt;stroke-linejoin:miter;stroke-opacity:1"
         d="m 1208.9141,1065.8281 c 0.2202,1.0487 0.4393,2.0973 0.6406,3.1602 -0.2013,-1.0626 -0.4204,-2.1119 -0.6406,-3.1602 z m 3.5214,34.1719 -115.6367,33.3145 c -0.014,28.0632 -10.2865,38.3421 -22.1484,40.8554 v 0 l 96.7988,-11.7246 c 2.5116,-0.1072 5.012,-0.3966 7.4688,-0.9043 l 0.072,-0.01 v -0.01 c 17.9089,-3.7354 33.4414,-19.1773 33.4414,-61.5273 z"
         transform="scale(0.26458333)" />
      <path
         id="path4253"
         style="fill:#2196f3;fill-opacity:1;stroke:#000000;stroke-width:0.264583px;stroke-linecap:butt;stroke-linejoin:miter;stroke-opacity:1"
         d="m 274.96306,264.58333 -15.23162,0.0765 -7.6817,13.15268 7.6817,22.02295 15.23162,17.66456 15.23163,-0.0765 7.6817,-13.15268 -7.6817,-22.02295 z m -7.61556,6.65851 c 3.80791,0 7.61556,2.20038 7.61556,2.20038 0,0 15.23163,8.79973 15.23163,26.39942 0,17.59969 -15.23163,8.79946 -15.23163,8.79946 0,0 -15.23162,-8.79973 -15.23162,-26.39942 0,-8.79984 3.80815,-10.99984 7.61606,-10.99984 z" />
      <path
         style="fill:none;stroke:#e83632;stroke-width:0.264583px;stroke-linecap:butt;stroke-linejoin:miter;stroke-opacity:0.992157"
         d="m 274.96307,273.44221 v 17.63892"
         id="path1315" />
      <path
         id="path1319"
         style="fill:#e3e2e2;fill-opacity:1;stroke:#000000;stroke-width:0.999999px;stroke-linecap:butt;stroke-linejoin:miter;stroke-opacity:1"
         d="m 1039.2305,1033.4824 -86.60355,50 c 0,0 57.48635,33.2847 57.48635,99.8555 l 86.5801,-50.0391 0.023,0.039 c 0,-0.018 0,-0.035 0,-0.053 v 0 c -0.032,-66.534 -57.4863,-99.8008 -57.4863,-99.8008 z"
         transform="scale(0.26458333)" />
      <path
         style="fill:none;stroke:#e63834;stroke-width:0.264583px;stroke-linecap:butt;stroke-linejoin:miter;stroke-opacity:0.992157"
         d="m 267.28109,330.65277 -4.16824,-7.30779"
         id="path1361" />
      <path
         style="fill:#e0e0e0;fill-opacity:0.992157;stroke:#000000;stroke-width:0.264583px;stroke-linecap:butt;stroke-linejoin:miter;stroke-opacity:1"
         d="m 206.22229,313.12948 c 0,0 15.23163,8.79984 15.23163,26.39952 0,17.59969 -15.23163,8.79985 -15.23163,8.79985 0,0 -15.23161,-8.79985 -15.23161,-26.39953 0,-17.59968 15.23161,-8.79984 15.23161,-8.79984 z"
         id="path1396" />
      <path
         id="path1400"
         style="fill:#f1f0f0;fill-opacity:1;stroke:#000000;stroke-width:0.264583px;stroke-linecap:butt;stroke-linejoin:miter;stroke-opacity:1"
         d="m 244.36699,326.30824 -15.20735,8.78033 -7.6848,4.43643 c -0.002,6.02713 -1.79101,8.95533 -4.14238,10.20146 v 0 l 22.90952,-13.2259 c 2.68733,-1.52001 4.12504,-2.98408 4.12504,-10.18818 z"
         sodipodi:nodetypes="ccccccsc" />
      <path
         id="path1402"
         style="fill:#e3e2e2;fill-opacity:1;stroke:#000000;stroke-width:0.264583px;stroke-linecap:butt;stroke-linejoin:miter;stroke-opacity:1"
         d="m 229.13615,299.90031 -22.91386,13.22917 c 0,0 15.20993,8.80658 15.20993,26.4201 l 22.90765,-13.23951 0.006,0.0103 c 0,-0.005 0,-0.009 0,-0.0139 v -5.3e-4 c -0.008,-17.60379 -15.20991,-26.40563 -15.20991,-26.40563 z" />
      <path
         id="path1414"
         style="fill:#bebdbd;fill-opacity:1;stroke:#000000;stroke-width:0.264583px;stroke-linecap:butt;stroke-linejoin:miter;stroke-opacity:1"
         d="m 221.5113,297.69006 5.2e-4,5.1e-4 c -0.13414,-9.8e-4 -0.2685,-10e-4 -0.40256,0.003 -0.007,2.4e-4 -0.0145,-2.6e-4 -0.0217,0 -0.002,5e-5 -0.003,4.8e-4 -0.005,5.3e-4 -0.15975,0.006 -0.31892,0.0167 -0.478,0.031 -0.0344,0.003 -0.069,0.006 -0.10336,0.0104 -0.15303,0.0157 -0.30606,0.0346 -0.45785,0.0589 -0.007,9.8e-4 -0.0148,0.002 -0.0222,0.004 -0.002,2.9e-4 -0.003,2.4e-4 -0.005,5.3e-4 -0.14827,0.0243 -0.29528,0.0547 -0.44183,0.0878 -0.048,0.0109 -0.0959,0.0227 -0.14366,0.0346 -0.13258,0.0329 -0.26465,0.0688 -0.39533,0.10954 -0.0271,0.008 -0.0541,0.017 -0.0811,0.0259 -0.12973,0.0423 -0.25762,0.0899 -0.38499,0.14057 -0.055,0.0219 -0.1098,0.0447 -0.16433,0.0682 -0.11066,0.0476 -0.22015,0.099 -0.32866,0.15346 -0.003,0.002 -0.007,0.003 -0.0103,0.005 l -0.005,-5.3e-4 -0.0615,0.0357 c -0.0305,0.0159 -0.0612,0.0311 -0.0915,0.0476 -0.099,0.0536 -0.19716,0.1103 -0.29404,0.16999 -0.0177,0.011 -0.0346,0.024 -0.0522,0.0352 l -19.67322,11.35795 -2.82205,1.572 0.006,5.3e-4 c 0.003,-0.002 0.007,-0.003 0.01,-0.005 0.10851,-0.0545 0.21801,-0.10589 0.32867,-0.15349 0.0545,-0.0235 0.10933,-0.0463 0.16433,-0.0682 0.12737,-0.0507 0.25526,-0.0983 0.38499,-0.14058 0.027,-0.009 0.054,-0.0173 0.0811,-0.0253 0.13068,-0.0407 0.26275,-0.0766 0.39532,-0.10954 0.0478,-0.0119 0.0957,-0.0237 0.14366,-0.0346 0.14655,-0.0331 0.29357,-0.0636 0.44184,-0.0878 0.002,-2.9e-4 0.003,-2.4e-4 0.005,-5.3e-4 0.007,-0.002 0.0152,-0.003 0.0222,-0.004 0.15179,-0.0243 0.30483,-0.0432 0.45785,-0.0589 0.0343,-0.004 0.069,-0.007 0.10336,-0.0103 0.15909,-0.0143 0.31825,-0.025 0.478,-0.031 0.002,-5e-5 0.003,-4.8e-4 0.005,-5.3e-4 0.007,-2.6e-4 0.0147,2.7e-4 0.0217,0 0.13405,-0.004 0.26842,-0.004 0.40256,-0.003 0.19868,0.002 0.39735,0.008 0.59531,0.0212 0.013,10e-4 0.0264,6.9e-4 0.0393,0.002 0.21558,0.0148 0.43004,0.0371 0.64337,0.0636 0.0555,0.007 0.11058,0.0147 0.16588,0.0227 0.16463,0.0226 0.32811,0.0476 0.49041,0.076 0.0548,0.01 0.10984,0.0188 0.16433,0.029 0.20577,0.0386 0.41039,0.0803 0.61082,0.1266 0.21066,0.0487 0.41738,0.10171 0.62064,0.15711 0.0333,0.009 0.0656,0.0189 0.0987,0.0279 0.13853,0.0387 0.27343,0.0794 0.40772,0.12039 0.22431,0.0684 0.4431,0.13909 0.65371,0.21188 0.10072,0.0348 0.19735,0.0701 0.29455,0.10541 0.16744,0.0609 0.33039,0.12173 0.48628,0.18296 0.10137,0.0398 0.20114,0.0795 0.29714,0.11885 0.14296,0.0587 0.27918,0.11642 0.40928,0.17312 0.64714,0.28209 1.13284,0.5317 1.37252,0.66092 0.11135,0.0601 0.17105,0.0946 0.17105,0.0946 l -0.002,0.001 0.0925,0.0124 22.91385,-13.22917 h -0.0155 l 0.005,-0.003 c 0,0 -0.0597,-0.0345 -0.17105,-0.0946 -0.23968,-0.12922 -0.72539,-0.37885 -1.37253,-0.66095 -0.1301,-0.0567 -0.26632,-0.11441 -0.40927,-0.17312 -0.096,-0.0394 -0.19577,-0.079 -0.29715,-0.11885 -0.15588,-0.0612 -0.31884,-0.12208 -0.48627,-0.18293 -0.0972,-0.0353 -0.19383,-0.0706 -0.29456,-0.10541 -0.2106,-0.0728 -0.42939,-0.14343 -0.6537,-0.21188 -0.13428,-0.041 -0.2692,-0.0817 -0.40773,-0.12041 -0.0331,-0.009 -0.0654,-0.0188 -0.0987,-0.0279 -0.20325,-0.0554 -0.40997,-0.1084 -0.62064,-0.15708 -0.20043,-0.0463 -0.40504,-0.088 -0.61081,-0.1266 -0.0545,-0.0102 -0.10951,-0.0193 -0.16433,-0.029 -0.1623,-0.0284 -0.32579,-0.0534 -0.49041,-0.076 -0.0553,-0.008 -0.11037,-0.0159 -0.16588,-0.0227 -0.21333,-0.0264 -0.42779,-0.0488 -0.64337,-0.0636 -0.0129,-8.7e-4 -0.0263,-7.6e-4 -0.0393,-0.002 -0.19796,-0.0129 -0.39663,-0.019 -0.59531,-0.0207 z" />
      <path
         id="path1096"
         style="fill:#efefef;fill-opacity:0.992157;stroke:#000000;stroke-width:0.999999px;stroke-linecap:butt;stroke-linejoin:miter;stroke-opacity:1"
         d="m 1385.6406,1000 -173.2051,100 c 0,32.7004 -11.5998,50.706 -24.0644,58.3203 l 173.2051,-100 -0.014,-0.045 c 13.6326,-6.925 24.0781,-23.5512 24.0781,-58.2754 z"
         transform="scale(0.26458333)" />
      <path
         id="path1102"
         style="fill:#eeeeee;fill-opacity:0.992157;stroke:#000000;stroke-width:0.999999px;stroke-linecap:butt;stroke-linejoin:miter;stroke-opacity:1"
         d="m 1472.2441,950 -86.6035,50 c 0,33.5441 -9.7492,50.1972 -22.7011,57.5332 l 85.2402,-49.2129 -0.014,-0.045 c 13.632,-6.9254 24.0781,-23.55221 24.0781,-58.2754 z m -109.4433,107.6133 c -0.41,0.2297 -0.8221,0.4507 -1.2383,0.6621 l 0.014,0.045 z"
         transform="scale(0.26458333)" />
      <path
         id="path1176"
         style="fill:#37474f;fill-opacity:0.992157;stroke:#000000;stroke-width:0.999999px;stroke-linecap:butt;stroke-linejoin:miter;stroke-opacity:1"
         d="m 1428.6914,808.93555 -17.8418,10.18164 c 11.7743,10.56654 25.7074,25.49245 37.3359,44.83593 l 21.502,-12.33593 z"
         transform="scale(0.26458333)" />
      <path
         id="path1178"
         style="fill:#263238;fill-opacity:0.992157;stroke:#000000;stroke-width:0.999999px;stroke-linecap:butt;stroke-linejoin:miter;stroke-opacity:1"
         d="m 1391.8809,804.05078 c 4.5755,3.15914 11.3036,8.18753 18.9687,15.06641 l 17.8418,-10.18164 z"
         transform="scale(0.26458333)" />
      <path
         id="path1180"
         style="fill:#455a64;fill-opacity:0.992157;stroke:#000000;stroke-width:0.999999px;stroke-linecap:butt;stroke-linejoin:miter;stroke-opacity:1"
         d="m 1469.6875,851.61719 -21.502,12.33593 c 9.2409,15.37181 17.0123,33.51321 21.0567,54.42774 l 17.0078,-9.70508 z"
         transform="scale(0.26458333)" />
      <path
         id="path1182"
         style="fill:#546e7a;fill-opacity:0.992157;stroke:#000000;stroke-width:0.999999px;stroke-linecap:butt;stroke-linejoin:miter;stroke-opacity:1"
         d="m 1486.25,908.67578 -17.0078,9.70508 c 1.5111,7.81408 2.4914,16.01963 2.8437,24.60742 z"
         transform="scale(0.26458333)" />
      <path
         id="path1262"
         style="fill:#424242;fill-opacity:0.992157;stroke:#000000;stroke-width:0.999999px;stroke-linecap:butt;stroke-linejoin:miter;stroke-opacity:1"
         d="m 1450.7148,794 c -3.2907,2.3e-4 -6.5793,0.58801 -9.5625,2.10742 l 0.031,-0.0234 -0.053,0.0332 c -2.4594,1.25669 -4.709,3.1498 -6.5762,5.88281 l -7.5059,6.7168 1.6407,0.21875 13.7167,14.27929 29.834,-22.99023 v -0.002 c 0,0 -10.7613,-6.22191 -21.5234,-6.22266 z"
         transform="scale(0.26458333)" />
      <path
         id="path1208"
         style="fill:#616161;fill-opacity:0.992157;stroke:#000000;stroke-width:0.999999px;stroke-linecap:butt;stroke-linejoin:miter;stroke-opacity:1"
         d="m 1472.2422,800.22266 v 0.002 l -29.834,22.99023 27.2793,28.40235 10.8867,37.50586 34.6992,-14.2793 0.02,0.0117 v -0.0195 l 0.1269,-0.0527 -0.1308,-0.22656 c -0.1917,-49.54201 -43.0217,-74.31971 -43.043,-74.33203 z"
         transform="scale(0.26458333)"
         sodipodi:nodetypes="ccccccccccsc" />
      <path
         id="path1273"
         style="fill:#757575;fill-opacity:0.992157;stroke:#000000;stroke-width:0.999999px;stroke-linecap:butt;stroke-linejoin:miter;stroke-opacity:1"
         d="m 1515.4531,875.17394 -34.7793,14.2909 5.5762,19.21094 -0.5723,1.38477 21.3427,-7.16585 c 3.4052,-1.93342 8.3901,-10.77765 8.4464,-27.71697 v 0 0 0 z"
         transform="scale(0.26458333)"
         sodipodi:nodetypes="cccccccccc" />
      <path
         id="path3315"
         style="fill:#757575;fill-opacity:1;stroke:#000000;stroke-width:0.264583px;stroke-linecap:butt;stroke-linejoin:miter;stroke-opacity:1"
         d="m 195.23657,322.35697 -5.66728,3.06435 c 0,0 1.73127,1.01946 1.78335,3.05406 l 0.004,0.007 5.63118,-3.06959 v 0 l -0.002,-0.0188 c -0.0499,-1.93117 -1.59173,-2.93886 -1.74925,-3.03702 z"
         sodipodi:nodetypes="ccccccccc" />
      <path
         id="path3363"
         style="fill:#757575;fill-opacity:1;stroke:#000000;stroke-width:0.264583px;stroke-linecap:butt;stroke-linejoin:miter;stroke-opacity:1"
         d="m 200.74359,331.88541 -5.66728,3.06435 c 0,0 1.73127,1.01946 1.78335,3.05406 l 0.004,0.007 5.63118,-3.06959 v 0 l -0.002,-0.0188 c -0.0499,-1.93117 -1.59173,-2.93886 -1.74925,-3.03702 z"
         sodipodi:nodetypes="ccccccccc" />
      <path
         style="fill:#bdbdbd;fill-opacity:0.992157;stroke:#000000;stroke-width:0.264583px;stroke-linecap:butt;stroke-linejoin:miter;stroke-opacity:1"
         d="m 195.07631,334.94976 c 0,0 1.7882,1.04854 1.7882,3.14561 0,2.09708 -1.7882,1.04854 -1.7882,1.04854 0,0 -1.7882,-1.04854 -1.7882,-3.14561 0,-2.09707 1.7882,-1.04854 1.7882,-1.04854 z"
         id="path3365" />
      <path
         id="path3367"
         style="fill:#616161;fill-opacity:1;stroke:#000000;stroke-width:0.264583px;stroke-linecap:butt;stroke-linejoin:miter;stroke-opacity:1"
         d="m 199.80803,331.54999 c -0.13621,8e-5 -0.27076,0.0295 -0.39429,0.093 l -0.003,-5e-4 -0.0822,0.046 -5.53846,3.09022 v 0 c 0.52901,-0.26924 1.28623,0.17105 1.28623,0.17105 1.88149,-1.03536 3.81115,-1.98425 5.66728,-3.06435 0,0 -0.48829,-0.33532 -0.93517,-0.33551 z"
         sodipodi:nodetypes="cccccccccc" />
      <path
         id="path3369"
         style="fill:#616161;fill-opacity:1;stroke:#000000;stroke-width:0.264583px;stroke-linecap:butt;stroke-linejoin:miter;stroke-opacity:1"
         d="m 202.49447,334.94112 -1.86655,1.01753 -3.76463,2.05206 -0.003,0.008 c 5.3e-4,0.0259 0.004,0.0501 0.004,0.0765 0,0.72105 -0.21297,1.06508 -0.4904,1.21285 l -0.003,0.007 5.49941,-3.06184 c 0.34753,-0.0879 0.63303,-0.4064 0.63303,-1.2232 0,-0.0318 -0.008,-0.0581 -0.009,-0.0894 z" />
      <path
         style="fill:none;fill-opacity:0.992157;stroke:#000000;stroke-width:0.264583px;stroke-linecap:butt;stroke-linejoin:miter;stroke-opacity:1"
         d="m 211.71874,338.15216 c 0,0 1.7882,1.04854 1.7882,3.14561 0,2.09708 -1.7882,1.04854 -1.7882,1.04854 0,0 -1.7882,-1.04854 -1.7882,-3.14561 0,-2.09707 1.7882,-1.04854 1.7882,-1.04854 z"
         id="path1359" />
      <path
         id="path3377"
         style="fill:#757575;fill-opacity:1;stroke:#000000;stroke-width:0.264583px;stroke-linecap:butt;stroke-linejoin:miter;stroke-opacity:1"
         d="m 211.71874,338.15216 -5.66728,3.06435 c 0,0 1.73127,1.01946 1.78335,3.05406 l 0.004,0.007 5.63118,-3.06959 v 0 l -0.002,-0.0188 c -0.0499,-1.93117 -1.59173,-2.93886 -1.74925,-3.03702 z"
         sodipodi:nodetypes="ccccccccc" />
      <path
         style="fill:#bdbdbd;fill-opacity:1;stroke:#000000;stroke-width:0.264583px;stroke-linecap:butt;stroke-linejoin:miter;stroke-opacity:1"
         d="m 206.05146,341.21651 c 0,0 1.7882,1.04854 1.7882,3.14561 0,2.09708 -1.7882,1.04854 -1.7882,1.04854 0,0 -1.7882,-1.04854 -1.7882,-3.14561 0,-2.09707 1.7882,-1.04854 1.7882,-1.04854 z"
         id="path3379" />
      <path
         id="path3381"
         style="fill:#616161;fill-opacity:1;stroke:#000000;stroke-width:0.264583px;stroke-linecap:butt;stroke-linejoin:miter;stroke-opacity:1"
         d="m 210.78318,337.81674 c -0.13621,8e-5 -0.27076,0.0295 -0.39429,0.093 l -0.003,-5e-4 -0.0822,0.046 -5.53846,3.09022 v 0 c 0.52901,-0.26924 1.28623,0.17105 1.28623,0.17105 1.88149,-1.03536 3.81115,-1.98425 5.66728,-3.06435 0,0 -0.48829,-0.33532 -0.93517,-0.33551 z"
         sodipodi:nodetypes="cccccccccc" />
      <path
         id="path3383"
         style="fill:#616161;fill-opacity:1;stroke:#000000;stroke-width:0.264583px;stroke-linecap:butt;stroke-linejoin:miter;stroke-opacity:1"
         d="m 213.46963,341.20787 -1.86656,1.01753 -3.76462,2.05206 -0.003,0.008 c 5.3e-4,0.0259 0.004,0.0501 0.004,0.0765 0,0.72105 -0.21298,1.06508 -0.49041,1.21285 l -0.003,0.007 5.49941,-3.06184 c 0.34753,-0.0879 0.63304,-0.4064 0.63304,-1.22319 0,-0.0318 -0.008,-0.0581 -0.009,-0.0894 z" />
      <path
         id="path3387"
         style="fill:#757575;fill-opacity:1;stroke:#000000;stroke-width:0.264583px;stroke-linecap:butt;stroke-linejoin:miter;stroke-opacity:1"
         d="m 217.38598,335.08779 -5.66728,3.06435 c 0,0 1.73127,1.01946 1.78335,3.05406 l 0.004,0.007 5.63118,-3.06959 v 0 l -0.002,-0.0188 c -0.0499,-1.93117 -1.59173,-2.93886 -1.74925,-3.03702 z"
         sodipodi:nodetypes="ccccccccc" />
      <path
         style="fill:#bdbdbd;fill-opacity:1;stroke:#000000;stroke-width:0.264583px;stroke-linecap:butt;stroke-linejoin:miter;stroke-opacity:1"
         d="m 211.7187,338.15214 c 0,0 1.7882,1.04854 1.7882,3.14561 0,2.09708 -1.7882,1.04854 -1.7882,1.04854 0,0 -1.7882,-1.04854 -1.7882,-3.14561 0,-2.09707 1.7882,-1.04854 1.7882,-1.04854 z"
         id="path3389" />
      <path
         id="path3391"
         style="fill:#616161;fill-opacity:1;stroke:#000000;stroke-width:0.264583px;stroke-linecap:butt;stroke-linejoin:miter;stroke-opacity:1"
         d="m 216.45042,334.75237 c -0.13621,8e-5 -0.27076,0.0295 -0.39429,0.093 l -0.003,-5e-4 -0.0822,0.046 -5.53846,3.09022 v 0 c 0.52901,-0.26924 1.28623,0.17105 1.28623,0.17105 1.88149,-1.03536 3.81115,-1.98425 5.66728,-3.06435 0,0 -0.48829,-0.33532 -0.93517,-0.33551 z"
         sodipodi:nodetypes="cccccccccc" />
      <path
         id="path3393"
         style="fill:#616161;fill-opacity:1;stroke:#000000;stroke-width:0.264583px;stroke-linecap:butt;stroke-linejoin:miter;stroke-opacity:1"
         d="m 219.13687,338.14349 -1.86655,1.01754 -3.76463,2.05205 -0.003,0.008 c 5.3e-4,0.0259 0.004,0.0501 0.004,0.0765 0,0.72104 -0.21297,1.06508 -0.49041,1.21285 l -0.003,0.007 5.4994,-3.06183 c 0.34753,-0.0879 0.63304,-0.4064 0.63304,-1.2232 0,-0.0318 -0.008,-0.0581 -0.009,-0.0894 z" />
      <path
         style="fill:#bdbdbd;fill-opacity:1;stroke:#000000;stroke-width:0.264583px;stroke-linecap:butt;stroke-linejoin:miter;stroke-opacity:1"
         d="m 189.56929,325.42132 c 0,0 1.7882,1.04854 1.7882,3.14561 0,2.09708 -1.7882,1.04854 -1.7882,1.04854 0,0 -1.7882,-1.04854 -1.7882,-3.14561 0,-2.09707 1.7882,-1.04854 1.7882,-1.04854 z"
         id="path1375" />
      <path
         id="path3333"
         style="fill:#616161;fill-opacity:1;stroke:#000000;stroke-width:0.264583px;stroke-linecap:butt;stroke-linejoin:miter;stroke-opacity:1"
         d="m 194.30101,322.02155 c -0.13621,8e-5 -0.27076,0.0295 -0.39429,0.093 l -0.003,-5e-4 -0.0822,0.046 -5.53846,3.09022 v 0 c 0.52901,-0.26924 1.28623,0.17105 1.28623,0.17105 1.88149,-1.03536 3.81115,-1.98425 5.66728,-3.06435 0,0 -0.48829,-0.33532 -0.93517,-0.33551 z"
         sodipodi:nodetypes="cccccccccc" />
      <path
         id="path3351"
         style="fill:#616161;fill-opacity:1;stroke:#000000;stroke-width:0.999999px;stroke-linecap:butt;stroke-linejoin:miter;stroke-opacity:1"
         d="m 744.51953,1229.9062 -7.05469,3.8458 -14.22851,7.7558 -0.0117,0.031 c 0.002,0.098 0.0156,0.1895 0.0156,0.289 0,2.7252 -0.80495,4.0255 -1.85351,4.584 l -0.01,0.027 20.78516,-11.5723 c 1.3135,-0.3323 2.39258,-1.536 2.39258,-4.6231 0,-0.1201 -0.0294,-0.2196 -0.0332,-0.3379 z"
         transform="scale(0.26458333)" />
      <path
         style="fill:none;stroke:#000000;stroke-width:0.264583px;stroke-linecap:butt;stroke-linejoin:miter;stroke-opacity:1"
         d="m 195.07631,341.45657 3.63618,-2.44867"
         id="path3415" />
      <path
         style="fill:none;stroke:#000000;stroke-width:0.264583px;stroke-linecap:butt;stroke-linejoin:miter;stroke-opacity:1"
         d="m 140.10593,352.01566 9.1432,15.89923 3.58273,-2.41268 -9.08975,-15.93522 z"
         id="path3421" />
      <path
         style="fill:#455a64;fill-opacity:0.992157;stroke:#000000;stroke-width:0.264583px;stroke-linecap:butt;stroke-linejoin:miter;stroke-opacity:1"
         d="m 140.10593,352.01566 9.1432,15.89923 3.58273,-2.41268 -9.08975,-15.93522 z"
         id="path3429" />
      <path
         style="fill:#253137;fill-opacity:0.992157;stroke:#000000;stroke-width:0.264583px;stroke-linecap:butt;stroke-linejoin:miter;stroke-opacity:1"
         d="m 149.24913,367.91489 45.82718,-26.45833 3.58273,-2.41268 -45.82718,26.45833 z"
         id="path3433" />
      <path
         style="fill:#455a64;fill-opacity:0.992157;stroke:#000000;stroke-width:0.264583px;stroke-linecap:butt;stroke-linejoin:miter;stroke-opacity:1"
         d="m 160.36175,374.1005 -3.63618,-6.3708 9.3128,-5.49658 3.6268,6.35436 z"
         id="path3399-7-3" />
      <path
         style="fill:#455a64;fill-opacity:0.992157;stroke:#000000;stroke-width:0.264583px;stroke-linecap:butt;stroke-linejoin:miter;stroke-opacity:1"
         d="m 200.71517,321.18973 11.03058,6.3506 -3.70871,2.01393 -11.03058,-6.3506 z"
         id="path3485" />
      <path
         style="fill:#78909c;fill-opacity:0.992157;stroke:#000000;stroke-width:0.264583px;stroke-linecap:butt;stroke-linejoin:miter;stroke-opacity:1"
         d="m 211.74575,327.54033 -0.0135,6.36091 -3.70871,2.01392 0.0135,-6.3609 z"
         id="path3487" />
      <path
         style="fill:#4dd1e2;fill-opacity:0.992157;stroke:#000000;stroke-width:0.264583px;stroke-linecap:butt;stroke-linejoin:miter;stroke-opacity:1"
         d="m 202.54991,306.75332 c 0,0 -1.82603,1.01895 0,2.03791 1.82603,1.01896 3.65206,0 3.65206,0 0,0 1.82603,-1.01896 0,-2.03791 -1.82603,-1.01896 -3.65206,0 -3.65206,0 z"
         id="path3522" />
      <path
         id="path3631"
         style="fill:#616161;fill-opacity:0.992157;stroke:#000000;stroke-width:0.264583px;stroke-linecap:butt;stroke-linejoin:miter;stroke-opacity:1"
         d="m 207.00844,307.74133 v 0 c -0.006,0.53056 -0.6149,0.93321 -0.76068,1.02163 l -0.0202,15.60679 c -2.6e-4,-1.8e-4 -7.9e-4,0 -0.001,0 l 0.003,2.00454 c 0.0794,-0.0464 0.77249,-0.46625 0.77876,-1.03301 l 0.005,-0.007 z"
         sodipodi:nodetypes="ccccccccc" />
      <path
         id="path3642"
         style="fill:#616161;fill-opacity:0.992157;stroke:#000000;stroke-width:0.264583px;stroke-linecap:butt;stroke-linejoin:miter;stroke-opacity:1"
         d="m 201.73834,307.81001 v 0 c 0.006,0.53057 0.6149,0.93321 0.76068,1.02163 l 0.0202,15.60679 c 2.6e-4,-1.8e-4 7.9e-4,0 0.001,0 l 0.007,1.93098 c -0.0794,-0.0464 -0.78254,-0.39269 -0.78881,-0.95945 l -0.005,-0.007 z"
         sodipodi:nodetypes="ccccccccc" />
      <path
         id="path3619"
         style="fill:#757575;fill-opacity:0.992157;stroke:#000000;stroke-width:0.264583px;stroke-linecap:butt;stroke-linejoin:miter;stroke-opacity:1"
         d="m 206.15691,308.80567 v 0 0 c -0.0946,0.0518 -1.81889,0.96004 -3.58324,0 v 0 0 l -0.0889,17.57935 0.0465,0.0362 v 0 c 1.76435,0.96001 3.48867,0.0518 3.58325,0 v 0 l 0.0682,-0.0362 z"
         sodipodi:nodetypes="ccccccccccccc" />
      <path
         style="fill:#546e7a;fill-opacity:0.992157;stroke:#000000;stroke-width:0.264583px;stroke-linecap:butt;stroke-linejoin:miter;stroke-opacity:1"
         d="m 196.98796,323.19249 0.005,6.37207 11.01208,6.33944 0.0135,-6.3609 z"
         id="path3475" />
      <path
         style="fill:#757575;fill-opacity:0.992157;stroke:#000000;stroke-width:0.264583px;stroke-linecap:butt;stroke-linejoin:miter;stroke-opacity:1"
         d="m 193.61641,314.77644 c -22.91359,-13.22917 -22.91359,-10.58333 -22.91359,-10.58333 l 22.91359,-13.22917 c 0,0 0,-2.64583 22.91359,10.58333 z"
         id="path3675" />
      <path
         style="fill:#767676;fill-opacity:1;stroke:#000000;stroke-width:0.264583px;stroke-linecap:butt;stroke-linejoin:miter;stroke-opacity:1"
         d="m 193.61641,314.77644 c 22.91359,13.22917 22.91359,15.875 22.91359,15.875 l 22.91359,-13.22917 c 0,0 0,-2.64583 -22.91359,-15.875 z"
         id="path3677" />
      <path
         style="fill:#536d79;fill-opacity:1;stroke:#000000;stroke-width:0.264583px;stroke-linecap:butt;stroke-linejoin:miter;stroke-opacity:1"
         d="m 204.97215,281.6635 0.14987,22.24082 -7.41737,4.28244 -0.14987,-22.24084 z"
         id="path4131" />
      <path
         id="path4013"
         style="fill:#616161;fill-opacity:0.992157;stroke:#000000;stroke-width:0.264582px;stroke-linecap:butt;stroke-linejoin:miter;stroke-opacity:1"
         d="m 201.44581,287.99282 -0.1142,22.20125 0.0956,0.0728 c 3.6171,1.93238 7.1519,0.10427 7.3458,0 l 0.14005,-0.0728 -0.0336,-22.1537 c -0.3729,0.19294 -3.87305,1.90385 -7.41401,-0.0362 -0.007,-0.004 -0.0127,-0.008 -0.0196,-0.0114 z"
         sodipodi:nodetypes="ccccccsc" />
      <path
         style="fill:#757575;fill-opacity:0.992157;stroke:#000000;stroke-width:0.264583px;stroke-linecap:butt;stroke-linejoin:miter;stroke-opacity:1"
         d="m 216.53,330.65144 v 2.64584 l 22.91359,-13.22916 v -2.64584 z"
         id="path3790" />
      <path
         style="fill:#606162;fill-opacity:1;stroke:#000000;stroke-width:0.264583px;stroke-linecap:butt;stroke-linejoin:miter;stroke-opacity:1"
         d="m 193.61641,314.77644 v 2.64583 c -22.91359,-13.22916 -22.91359,-10.58333 -22.91359,-10.58333 v -2.64583 c 0,0 0,-2.64583 22.91359,10.58333 z"
         id="path3841" />
      <path
         style="fill:#606162;fill-opacity:1;stroke:#000000;stroke-width:0.264583px;stroke-linecap:butt;stroke-linejoin:miter;stroke-opacity:1"
         d="m 193.61641,317.42227 v -2.64583 c 22.91359,13.22917 22.91359,15.875 22.91359,15.875 v 2.64583 c 0,0 -0.0309,-2.57391 -22.91359,-15.875 z"
         id="path3911" />
      <path
         id="path4009"
         style="fill:#3849ab;fill-opacity:0.992157;stroke:#000000;stroke-width:0.264582px;stroke-linecap:butt;stroke-linejoin:miter;stroke-opacity:1"
         d="m 210.3795,285.86996 c -0.0863,1.04789 -1.10359,1.94355 -1.35069,2.08824 l -0.0238,18.17925 h -0.002 l -0.09,4.05662 c 0.16277,-0.0934 1.67989,-0.96036 1.69275,-2.10119 l 0.0103,-0.014 z"
         sodipodi:nodetypes="cccccccc" />
      <path
         id="path4011"
         style="fill:#424242;fill-opacity:0.992157;stroke:#000000;stroke-width:0.264582px;stroke-linecap:butt;stroke-linejoin:miter;stroke-opacity:1"
         d="m 199.56479,286.02189 c 0.0255,8.72597 0.2272,19.26791 0.22634,22.19553 l 0.0103,0.014 c 0.0129,1.1408 1.463,1.94205 1.62578,2.03545 l -0.0228,-3.99088 h -0.002 l -0.0243,-18.32241 c -1.18629,-0.67198 -1.5814,-1.33895 -1.5813,-1.93166 h -0.002 z"
         sodipodi:nodetypes="cccccccccc" />
      <path
         style="fill:#757575;fill-opacity:0.992157;stroke:#000000;stroke-width:0.264582px;stroke-linecap:butt;stroke-linejoin:miter;stroke-opacity:1"
         d="m 201.22859,283.8949 c 0,0 -3.74356,2.05102 0,4.10205 3.74356,2.05103 7.48711,0 7.48711,0 0,0 3.74356,-2.05103 0,-4.10205 -3.74355,-2.05103 -7.48711,0 -7.48711,0 z"
         id="path4015" />
      <path
         style="fill:#455a64;fill-opacity:0.992157;stroke:#000000;stroke-width:0.264583px;stroke-linecap:butt;stroke-linejoin:miter;stroke-opacity:1"
         d="m 206.07242,290.88865 -1.10027,-0.66031 0.14987,22.24083 1.10027,0.66031 z"
         id="path4061"
         sodipodi:nodetypes="cc" />
      <path
         style="fill:#455a64;fill-opacity:0.992157;stroke:#000000;stroke-width:0.264583px;stroke-linecap:butt;stroke-linejoin:miter;stroke-opacity:1"
         d="m 197.55477,285.94592 -1.10027,-0.66031 0.14987,22.24083 1.10027,0.66031 z"
         id="path4078"
         sodipodi:nodetypes="cc" />
      <path
         style="fill:#77909c;fill-opacity:1;stroke:#000000;stroke-width:0.264583px;stroke-linecap:butt;stroke-linejoin:miter;stroke-opacity:1"
         d="m 206.07242,290.88865 7.41737,-4.28242 -1.10027,-0.66031 -7.41737,4.28242 z"
         id="path4095" />
      <path
         style="fill:#546e7a;fill-opacity:0.992157;stroke:#000000;stroke-width:0.264583px;stroke-linecap:butt;stroke-linejoin:miter;stroke-opacity:1"
         d="m 213.48979,286.60623 0.14987,22.24082 -7.41737,4.28244 -0.14987,-22.24084 z"
         id="path4112" />
      <path
         style="fill:#78909c;fill-opacity:0.992157;stroke:#000000;stroke-width:0.264583px;stroke-linecap:butt;stroke-linejoin:miter;stroke-opacity:1"
         d="m 197.55477,285.94592 7.41738,-4.28242 -1.10027,-0.66031 -7.41738,4.28242 z"
         id="path4129" />
      <path
         id="path4272"
         style="fill:#2196f3;fill-opacity:1;stroke:#000000;stroke-width:0.264583px;stroke-linecap:butt;stroke-linejoin:miter;stroke-opacity:1"
         d="m 263.57238,271.08338 -15.23162,0.0765 -7.6817,13.15268 7.6817,22.02295 15.23162,17.66456 15.23163,-0.0765 7.6817,-13.15268 -7.6817,-22.02295 z m -7.61556,6.65851 c 3.80791,0 7.61556,2.20038 7.61556,2.20038 0,0 15.23163,8.79973 15.23163,26.39942 0,17.59969 -15.23163,8.79946 -15.23163,8.79946 0,0 -15.23162,-8.79973 -15.23162,-26.39942 0,-8.79984 3.80815,-10.99984 7.61606,-10.99984 z" />
      <path
         style="fill:#616161;fill-opacity:0.992157;stroke:#000000;stroke-width:0.264583px;stroke-linecap:butt;stroke-linejoin:miter;stroke-opacity:1"
         d="m 248.34076,271.15987 11.39071,-6.50005 15.2316,-0.0765 -11.27568,6.63342 z"
         id="path4274" />
      <path
         style="fill:#757575;fill-opacity:0.992157;stroke:#000000;stroke-width:0.264583px;stroke-linecap:butt;stroke-linejoin:miter;stroke-opacity:1"
         d="m 274.96307,264.58332 15.23161,17.66457 -11.39068,6.50005 -15.11657,-17.53124 z"
         id="path4276" />
      <path
         style="fill:#606162;fill-opacity:1;stroke:#000000;stroke-width:0.264583px;stroke-linecap:butt;stroke-linejoin:miter;stroke-opacity:1"
         d="m 278.804,288.74794 7.68171,22.02295 11.39067,-6.50006 -7.6817,-22.02294 z"
         id="path4278"
         sodipodi:nodetypes="ccccc" />
      <path
         style="fill:#767676;fill-opacity:1;stroke:#000000;stroke-width:0.264583px;stroke-linecap:butt;stroke-linejoin:miter;stroke-opacity:1"
         d="m 278.804,323.92358 11.39068,-6.50008 7.6817,-13.15267 c 0,0 -11.39068,6.50004 -11.39068,6.50004 z"
         id="path4280" />
      <path
         id="path4297"
         style="fill:#757575;fill-opacity:0.992157;stroke:#000000;stroke-width:0.264583px;stroke-linecap:butt;stroke-linejoin:miter;stroke-opacity:1"
         d="m 263.57238,271.08338 -15.23162,0.0765 -7.6817,13.15268 7.6817,22.02295 15.23162,17.66456 15.23163,-0.0765 7.6817,-13.15268 -7.6817,-22.02295 z m -7.61556,6.65851 c 3.80791,0 7.61556,2.20038 7.61556,2.20038 0,0 15.23163,8.79973 15.23163,26.39942 0,17.59969 -15.23163,8.79946 -15.23163,8.79946 0,0 -15.23162,-8.79973 -15.23162,-26.39942 0,-8.79984 3.80815,-10.99984 7.61606,-10.99984 z" />
      <path
         id="path1326"
         style="fill:#bebdbd;fill-opacity:1;stroke:#000000;stroke-width:0.999999px;stroke-linecap:butt;stroke-linejoin:miter;stroke-opacity:1"
         d="m 967.75391,1049.7559 c -0.50695,0 -1.01484,0 -1.52149,0.012 -0.0265,0 -0.0556,-10e-4 -0.082,0 -0.008,2e-4 -0.012,0 -0.0195,0 -0.60378,0.023 -1.20536,0.063 -1.80664,0.1172 -0.12983,0.013 -0.26061,0.024 -0.39063,0.039 -0.57838,0.059 -1.15677,0.1308 -1.73047,0.2226 -0.0265,0 -0.0575,0.01 -0.084,0.016 -0.008,0 -0.012,8e-4 -0.0195,0 -0.56039,0.091 -1.11603,0.2069 -1.66992,0.332 -0.18127,0.041 -0.36231,0.086 -0.54297,0.1309 -0.50109,0.1245 -1.00023,0.2602 -1.49414,0.4141 -0.10243,0.03 -0.2046,0.062 -0.30664,0.096 -0.27908,0.091 -0.55262,0.2003 -0.82813,0.3027 -17.14062,9.7411 -37.36342,21.5797 -46.08203,26.4609 9.36633,-4.6683 20.934,-2.5067 29.46484,0.3789 0.33697,0.1138 0.67472,0.2281 1.00196,0.3438 0.67018,0.2375 1.32071,0.4762 1.94531,0.7168 0.1853,0.071 0.37563,0.1418 0.55664,0.2129 5.07418,1.9992 8.42774,3.9316 8.42774,3.9316 l 0.0293,-0.017 c 4.6e-4,10e-5 0.0254,0.014 0.0254,0.014 l 43.79688,-25.2851 c -0.0603,-0.036 -0.22096,-0.1344 -0.23438,-0.1426 h -0.0176 0.008 c 0,0 -0.23076,-0.1313 -0.62696,-0.3457 -0.0933,-0.05 -0.29144,-0.1492 -0.40429,-0.209 -0.40485,-0.2144 -0.87114,-0.4576 -1.51172,-0.7734 -0.21906,-0.1081 -0.52936,-0.2461 -0.77344,-0.3633 -0.69229,-0.3319 -1.42632,-0.6795 -2.29687,-1.0625 -0.30973,-0.1359 -0.62482,-0.2723 -0.95508,-0.4121 -0.14282,-0.061 -0.28308,-0.1205 -0.42969,-0.1816 -0.51122,-0.2128 -1.04425,-0.4302 -1.59766,-0.6465 -0.32451,-0.1268 -0.66914,-0.2527 -1.00781,-0.3789 -0.33083,-0.1241 -0.65516,-0.248 -0.99805,-0.3711 -0.10746,-0.039 -0.21793,-0.076 -0.32617,-0.1152 -0.39694,-0.1405 -0.81326,-0.2785 -1.22461,-0.4161 -0.44971,-0.1497 -0.90197,-0.2987 -1.36718,-0.4433 -1.35325,-0.4221 -2.75928,-0.8222 -4.22071,-1.1719 -0.78825,-0.1886 -1.59096,-0.3616 -2.40234,-0.5195 -0.0375,-0.01 -0.0738,-0.016 -0.11133,-0.024 -0.008,0 -0.0157,0 -0.0234,0 -0.69377,-0.1332 -1.39902,-0.2456 -2.10546,-0.3515 -0.19186,-0.028 -0.38154,-0.061 -0.57422,-0.088 -0.004,-6e-4 -0.008,0 -0.0117,0 -0.59472,-0.082 -1.19437,-0.1419 -1.79492,-0.2011 -0.29682,-0.03 -0.59268,-0.064 -0.89063,-0.088 -0.56857,-0.044 -1.13997,-0.067 -1.71094,-0.088 -0.35364,-0.012 -0.7066,-0.034 -1.06054,-0.037 z m -56.58008,28.1484 c -0.0334,0.018 -0.0711,0.029 -0.10547,0.047 h 0.0176 z"
         transform="scale(0.26458333)" />
      <path
         id="path1398"
         style="fill:#e3e2e2;fill-opacity:1;stroke:#000000;stroke-width:0.264583px;stroke-linecap:butt;stroke-linejoin:miter;stroke-opacity:1"
         d="m 252.07092,286.65897 -22.91386,13.22917 c 0,0 15.20993,8.80658 15.20993,26.4201 l 22.90765,-13.23951 0.006,0.0103 c 0,-0.005 0,-0.009 0,-0.0139 v -5.3e-4 c -0.008,-17.60379 -15.20991,-26.40563 -15.20991,-26.40563 z" />
      <path
         id="path1406"
         style="fill:#bebdbd;fill-opacity:1;stroke:#000000;stroke-width:0.264583px;stroke-linecap:butt;stroke-linejoin:miter;stroke-opacity:1"
         d="m 244.51797,284.47439 5.1e-4,5e-4 c -0.13414,-9.8e-4 -0.2685,-0.001 -0.40256,0.003 -0.007,2.4e-4 -0.0145,-2.6e-4 -0.0217,0 -0.002,6e-5 -0.003,4.8e-4 -0.005,5.3e-4 -0.15975,0.006 -0.31892,0.0167 -0.47801,0.031 -0.0344,0.003 -0.069,0.006 -0.10335,0.0104 -0.15303,0.0157 -0.30606,0.0346 -0.45786,0.0589 -0.007,9.8e-4 -0.0148,0.002 -0.0222,0.004 -0.002,2.9e-4 -0.003,2.4e-4 -0.005,5.3e-4 -0.14827,0.0243 -0.29528,0.0547 -0.44184,0.0878 -0.048,0.0109 -0.0959,0.0227 -0.14366,0.0346 -0.13258,0.0329 -0.26464,0.0688 -0.39532,0.10953 -0.0271,0.008 -0.0541,0.017 -0.0811,0.0259 -0.12973,0.0423 -0.25762,0.0899 -0.38499,0.14058 -0.055,0.0218 -0.10981,0.0447 -0.16433,0.0682 -0.11066,0.0476 -0.22016,0.099 -0.32866,0.15345 -0.003,0.002 -0.007,0.003 -0.0103,0.005 l -0.005,-5.3e-4 -0.0615,0.0357 c -0.0305,0.0159 -0.0612,0.0311 -0.0915,0.0475 -0.099,0.0536 -0.19716,0.11031 -0.29404,0.17 -0.0177,0.011 -0.0346,0.024 -0.0522,0.0352 l -19.67322,11.35795 -2.82205,1.572 0.006,5.3e-4 c 0.003,-0.002 0.007,-0.003 0.01,-0.005 0.1085,-0.0545 0.218,-0.10588 0.32866,-0.15348 0.0545,-0.0235 0.10934,-0.0463 0.16434,-0.0682 0.12736,-0.0507 0.25526,-0.0983 0.38498,-0.14058 0.027,-0.009 0.054,-0.0173 0.0811,-0.0253 0.13068,-0.0407 0.26274,-0.0766 0.39532,-0.10953 0.0478,-0.0119 0.0957,-0.0237 0.14366,-0.0346 0.14655,-0.0331 0.29357,-0.0636 0.44184,-0.0878 0.002,-2.9e-4 0.003,-2.4e-4 0.005,-5.3e-4 0.007,-0.002 0.0152,-0.003 0.0222,-0.004 0.15179,-0.0243 0.30482,-0.0432 0.45785,-0.0589 0.0344,-0.004 0.069,-0.007 0.10335,-0.0103 0.15909,-0.0143 0.31826,-0.025 0.47801,-0.031 0.002,-5e-5 0.003,-4.7e-4 0.005,-5.3e-4 0.007,-2.6e-4 0.0147,2.7e-4 0.0217,0 0.13405,-0.004 0.26843,-0.004 0.40256,-0.003 0.19868,0.002 0.39735,0.008 0.59531,0.0212 0.013,0.001 0.0264,6.9e-4 0.0393,0.002 0.21558,0.0148 0.43004,0.0371 0.64337,0.0636 0.0555,0.007 0.11058,0.0147 0.16588,0.0227 0.16462,0.0226 0.32811,0.0476 0.49041,0.076 0.0548,0.01 0.10983,0.0187 0.16433,0.0289 0.20577,0.0386 0.41039,0.0803 0.61082,0.1266 0.21066,0.0487 0.41738,0.10171 0.62063,0.15711 0.0333,0.009 0.0656,0.0189 0.0987,0.0279 0.13853,0.0387 0.27344,0.0794 0.40773,0.12038 0.22431,0.0684 0.4431,0.13909 0.65371,0.21188 0.10072,0.0348 0.19735,0.0701 0.29455,0.10541 0.16743,0.0609 0.33039,0.12174 0.48628,0.18296 0.10137,0.0399 0.20114,0.0795 0.29714,0.11885 0.14296,0.0587 0.27917,0.11642 0.40928,0.17312 0.64713,0.2821 1.13284,0.5317 1.37252,0.66093 0.11135,0.0601 0.17105,0.0946 0.17105,0.0946 l -0.002,10e-4 0.0925,0.0124 22.91385,-13.22917 h -0.0155 l 0.005,-0.003 c 0,0 -0.0597,-0.0345 -0.17104,-0.0946 -0.23968,-0.12923 -0.72539,-0.37886 -1.37253,-0.66096 -0.1301,-0.0567 -0.26632,-0.11441 -0.40928,-0.17312 -0.096,-0.0394 -0.19577,-0.079 -0.29714,-0.11885 -0.15589,-0.0612 -0.31884,-0.12208 -0.48627,-0.18293 -0.0972,-0.0353 -0.19384,-0.0706 -0.29456,-0.10541 -0.21061,-0.0728 -0.42939,-0.14343 -0.6537,-0.21188 -0.13429,-0.041 -0.2692,-0.0817 -0.40773,-0.12041 -0.0331,-0.009 -0.0654,-0.0188 -0.0987,-0.0279 -0.20325,-0.0554 -0.40998,-0.1084 -0.62064,-0.15709 -0.20043,-0.0463 -0.40504,-0.088 -0.61081,-0.1266 -0.0545,-0.0102 -0.10951,-0.0193 -0.16433,-0.029 -0.1623,-0.0284 -0.32579,-0.0534 -0.49041,-0.076 -0.0553,-0.008 -0.11037,-0.0159 -0.16588,-0.0227 -0.21334,-0.0264 -0.4278,-0.0488 -0.64338,-0.0636 -0.0129,-8.8e-4 -0.0263,-7.7e-4 -0.0393,-0.002 -0.19796,-0.0129 -0.39663,-0.019 -0.59531,-0.0207 z" />
      <path
         id="path1392"
         style="fill:#f1f0f0;fill-opacity:1;stroke:#000000;stroke-width:0.264583px;stroke-linecap:butt;stroke-linejoin:miter;stroke-opacity:1"
         d="m 267.25914,313.09148 -15.20735,8.78033 -7.6848,4.43643 c -0.002,6.02713 -1.79101,8.95533 -4.14238,10.20146 v 0 l 22.90952,-13.2259 c 2.68733,-1.52001 4.12504,-2.98408 4.12504,-10.18818 z"
         sodipodi:nodetypes="ccccccsc" />
      <path
         id="path1390"
         style="fill:#f1f0f0;fill-opacity:1;stroke:#000000;stroke-width:0.999999px;stroke-linecap:butt;stroke-linejoin:miter;stroke-opacity:1"
         d="m 1053.8262,1158.1016 -14.586,8.4218 -29.0449,16.7676 -0.082,0.047 c -0.01,21.289 -5.9129,32.3443 -13.93947,37.5449 l 39.97267,-23.5703 v 0 l 5.6172,-3.3125 c 1.1916,-0.958 2.3167,-2.0809 3.377,-3.3555 5.1846,-6.2327 8.6374,-16.4317 8.6836,-32.5429 z m -57.65237,62.7812 -1.71485,1.0117 c 0.58155,-0.3082 1.15283,-0.6475 1.71485,-1.0117 z"
         transform="scale(0.26458333)"
         sodipodi:nodetypes="ccccccccscccc" />
      <path
         style="display:inline;fill:none;stroke:#000000;stroke-width:0.264583px;stroke-linecap:butt;stroke-linejoin:miter;stroke-opacity:1"
         d="m 297.87665,355.86458 v 2.64583"
         id="path4333" />
      <path
         id="path4401"
         style="fill:#263238;fill-opacity:0.992157;stroke:#000000;stroke-width:0.999999px;stroke-linecap:butt;stroke-linejoin:miter;stroke-opacity:1"
         d="m 923.30664,1228.0703 c 0.0748,1.6698 0.12109,3.3562 0.12109,5.0703 h -0.002 c -1.2e-4,1.7143 -0.048,3.3461 -0.12305,4.9297 L 1125.832,1355 l 246.8164,142.5 v -10 L 1125.832,1345 Z"
         transform="scale(0.26458333)" />
      <path
         id="path4443"
         style="fill:#253137;fill-opacity:0.992157;stroke:#000000;stroke-width:0.264583px;stroke-linecap:butt;stroke-linejoin:miter;stroke-opacity:1"
         d="m 267.20548,311.69776 c 0.0198,0.4418 0.032,0.88799 0.032,1.34151 l -5.1e-4,-5e-4 c -3e-5,0.45358 -0.0127,0.88532 -0.0326,1.30432 l 53.58587,30.93815 v -2.64583 z" />
      <path
         style="fill:#455a64;fill-opacity:0.992157;stroke:#000000;stroke-width:0.264583px;stroke-linecap:butt;stroke-linejoin:miter;stroke-opacity:1"
         d="m 363.17986,396.21358 68.74105,-39.6875 v -2.64583 l -68.74105,39.6875 z"
         id="path4500" />
      <path
         id="path4624"
         style="display:inline;fill:#455a64;fill-opacity:0.992157;stroke:#000000;stroke-width:0.999999px;stroke-linecap:butt;stroke-linejoin:miter;stroke-opacity:1"
         d="m 866.02734,895 -173.20703,100 8.65625,5.002 L 866.02734,905 Z"
         transform="scale(0.26458333)"
         sodipodi:nodetypes="ccccc" />
      <path
         style="fill:#546e7a;fill-opacity:0.992157;stroke:#000000;stroke-width:0.264583px;stroke-linecap:butt;stroke-linejoin:miter;stroke-opacity:1"
         d="m 276.10902,343.29701 22.91361,-13.22933 21.76761,12.56773 -22.91359,13.22933 z"
         id="path4649" />
      <path
         style="fill:#455a64;fill-opacity:0.992157;stroke:#000000;stroke-width:0.264583px;stroke-linecap:butt;stroke-linejoin:miter;stroke-opacity:1"
         d="m 254.32176,330.71794 22.91361,-13.22933 21.76761,12.56773 -22.91359,13.22933 z"
         id="path4657" />
      <path
         style="fill:#455a64;fill-opacity:0.992157;stroke:#000000;stroke-width:0.264583px;stroke-linecap:butt;stroke-linejoin:miter;stroke-opacity:1"
         d="m 343.70379,329.40641 22.91361,-13.22933 21.76761,12.56773 -22.91359,13.22933 z"
         id="path4659" />
      <path
         style="fill:#546e7a;fill-opacity:0.992157;stroke:#000000;stroke-width:0.264583px;stroke-linecap:butt;stroke-linejoin:miter;stroke-opacity:1"
         d="m 320.79025,342.63541 22.91361,-13.22933 21.76761,12.56773 -22.91359,13.22933 z"
         id="path4661" />
      <path
         style="fill:#455a64;fill-opacity:0.992157;stroke:#000000;stroke-width:0.264583px;stroke-linecap:butt;stroke-linejoin:miter;stroke-opacity:1"
         d="m 297.87665,355.86474 22.91361,-13.22933 21.76761,12.56773 -22.91359,13.22933 z"
         id="path4663" />
      <path
         style="fill:#546e7a;fill-opacity:0.992157;stroke:#000000;stroke-width:0.264583px;stroke-linecap:butt;stroke-linejoin:miter;stroke-opacity:1"
         d="m 364.32584,367.77069 22.91361,-13.22933 21.76761,12.56773 -22.91359,13.22933 z"
         id="path4665" />
      <path
         style="fill:#455a64;fill-opacity:0.992157;stroke:#000000;stroke-width:0.264583px;stroke-linecap:butt;stroke-linejoin:miter;stroke-opacity:1"
         d="m 342.55781,355.20347 22.91361,-13.22933 21.76761,12.56773 -22.91359,13.22933 z"
         id="path4667" />
      <path
         style="fill:#546e7a;fill-opacity:0.992157;stroke:#000000;stroke-width:0.264583px;stroke-linecap:butt;stroke-linejoin:miter;stroke-opacity:1"
         d="m 319.64444,368.43238 22.91361,-13.22933 21.76761,12.56773 -22.91359,13.22933 z"
         id="path4669" />
      <path
         style="fill:#455a64;fill-opacity:0.992157;stroke:#000000;stroke-width:0.264583px;stroke-linecap:butt;stroke-linejoin:miter;stroke-opacity:1"
         d="m 341.41223,381.00002 22.91361,-13.22933 21.76761,12.56773 -22.91359,13.22933 z"
         id="path4671" />
      <path
         style="fill:#546e7a;fill-opacity:0.992157;stroke:#000000;stroke-width:0.264583px;stroke-linecap:butt;stroke-linejoin:miter;stroke-opacity:1"
         d="m 365.4714,341.97414 22.91361,-13.22933 21.76761,12.56773 -22.91359,13.22933 z"
         id="path4673" />
      <path
         style="fill:#455a64;fill-opacity:0.992157;stroke:#000000;stroke-width:0.264583px;stroke-linecap:butt;stroke-linejoin:miter;stroke-opacity:1"
         d="m 387.23943,354.54136 22.91361,-13.22933 21.76761,12.56773 -22.91359,13.22933 z"
         id="path4675" />
      <path
         style="fill:#546e7a;fill-opacity:0.992157;stroke:#000000;stroke-width:0.264583px;stroke-linecap:butt;stroke-linejoin:miter;stroke-opacity:1"
         d="m 160.3951,276.48975 22.91361,-13.22933 21.76761,12.56773 -22.91359,13.22933 z"
         id="path4694" />
      <path
         style="fill:#455a64;fill-opacity:0.992157;stroke:#000000;stroke-width:0.264583px;stroke-linecap:butt;stroke-linejoin:miter;stroke-opacity:1"
         d="m 138.63484,263.92626 22.91361,-13.22933 21.76761,12.56773 -22.91359,13.22933 z"
         id="path4715" />
      <path
         style="fill:#546e7a;fill-opacity:0.992157;stroke:#000000;stroke-width:0.264583px;stroke-linecap:butt;stroke-linejoin:miter;stroke-opacity:1"
         d="m 161.54842,250.69693 22.91361,-13.22933 21.76761,12.56773 -22.91359,13.22933 z"
         id="path4717" />
      <path
         style="fill:#455a64;fill-opacity:0.992157;stroke:#000000;stroke-width:0.264583px;stroke-linecap:butt;stroke-linejoin:miter;stroke-opacity:1"
         d="m 184.45518,237.46368 22.91361,-13.22933 21.76761,12.56773 -22.91359,13.22933 z"
         id="path4719" />
      <path
         style="fill:#546e7a;fill-opacity:0.992157;stroke:#000000;stroke-width:0.264583px;stroke-linecap:butt;stroke-linejoin:miter;stroke-opacity:1"
         d="m 116.86721,251.35853 22.91361,-13.22933 21.76761,12.56773 -22.91359,13.22933 z"
         id="path4721" />
      <path
         style="fill:#455a64;fill-opacity:0.992157;stroke:#000000;stroke-width:0.264583px;stroke-linecap:butt;stroke-linejoin:miter;stroke-opacity:1"
         d="m 95.092009,238.78682 22.913611,-13.22933 21.76761,12.56773 -22.91359,13.22933 z"
         id="path4723" />
      <path
         style="fill:#455a64;fill-opacity:0.992157;stroke:#000000;stroke-width:0.264583px;stroke-linecap:butt;stroke-linejoin:miter;stroke-opacity:1"
         d="m 139.78079,238.1292 22.91361,-13.22933 21.76761,12.56773 -22.91359,13.22933 z"
         id="path4725" />
      <path
         style="fill:#546e7a;fill-opacity:0.992157;stroke:#000000;stroke-width:0.264583px;stroke-linecap:butt;stroke-linejoin:miter;stroke-opacity:1"
         d="m 162.68737,224.89607 22.91361,-13.22933 21.76761,12.56773 -22.91359,13.22933 z"
         id="path4727" />
      <path
         style="fill:#455a64;fill-opacity:0.992157;stroke:#000000;stroke-width:0.264583px;stroke-linecap:butt;stroke-linejoin:miter;stroke-opacity:1"
         d="m 140.91916,212.32849 22.91361,-13.22933 21.76761,12.56773 -22.91359,13.22933 z"
         id="path4729" />
      <path
         style="fill:#546e7a;fill-opacity:0.992157;stroke:#000000;stroke-width:0.264583px;stroke-linecap:butt;stroke-linejoin:miter;stroke-opacity:1"
         d="m 118.00615,225.55767 22.91361,-13.22933 21.76761,12.56773 -22.91359,13.22933 z"
         id="path4731" />
      <path
         style="fill:#546e7a;fill-opacity:0.992157;stroke:#000000;stroke-width:0.264583px;stroke-linecap:butt;stroke-linejoin:miter;stroke-opacity:1"
         d="m 166.03837,362.23313 45.68971,-26.37719 3.6268,6.35434 -45.68971,26.37719 z"
         id="path3473" />
      <path
         style="fill:#546e7a;fill-opacity:0.992157;stroke:#000000;stroke-width:0.264583px;stroke-linecap:butt;stroke-linejoin:miter;stroke-opacity:1"
         d="m 143.74211,349.56699 45.82718,-26.45833 9.08975,15.93522 -45.82718,26.45833 z"
         id="path3431" />
      <path
         style="fill:#546e7a;fill-opacity:0.992157;stroke:#000000;stroke-width:0.264583px;stroke-linecap:butt;stroke-linejoin:miter;stroke-opacity:1"
         d="m 254.32176,330.71794 22.9136,-13.22935 -10.02988,-5.79083 -22.91394,13.22917 z"
         id="path4829" />
      <g
         id="g7255"
         transform="translate(-91.6781,-135.864)">
        <path
           id="circle2"
           style="fill:#0b3d91;stroke-width:0.264583"
           d="m 463.412,362.489 c 2.703,3.256 2.537,7.279 -0.37,8.985 -1.396,0.819 -3.251,0.984 -5.156,0.458 -1.905,-0.526 -3.705,-1.699 -5.003,-3.262 -1.299,-1.564 -1.989,-3.389 -1.92,-5.074 0.069,-1.685 0.892,-3.092 2.288,-3.912 2.908,-1.707 7.457,-0.451 10.161,2.805 z" />
        <g
           fill="#ffffff"
           id="g96"
           transform="matrix(0.264583,0,0,0.264583,462.124,307.944)">
          <path
             id="circle4"
             d="m -30.9333,200.392 c 0.055,0.066 0.0843,0.143 0.0814,0.215 -0.0029,0.071 -0.0378,0.131 -0.097,0.166 -0.0592,0.034 -0.1378,0.041 -0.2185,0.019 -0.0807,-0.022 -0.157,-0.072 -0.212,-0.138 -0.0551,-0.067 -0.0843,-0.144 -0.0814,-0.215 0.0029,-0.072 0.0378,-0.131 0.097,-0.166 0.0591,-0.035 0.1377,-0.042 0.2185,-0.02 0.0807,0.023 0.157,0.072 0.212,0.139 z" />
          <path
             id="circle6"
             d="m -28.3663,199.38 c 0.055,0.067 0.0842,0.144 0.0813,0.215 -0.0029,0.072 -0.0378,0.131 -0.097,0.166 -0.0591,0.035 -0.1377,0.042 -0.2185,0.02 -0.0807,-0.023 -0.157,-0.072 -0.212,-0.139 -0.055,-0.066 -0.0843,-0.143 -0.0814,-0.215 0.003,-0.071 0.0378,-0.131 0.097,-0.166 0.0592,-0.034 0.1378,-0.041 0.2185,-0.019 0.0808,0.022 0.157,0.072 0.2121,0.138 z" />
          <path
             id="circle8"
             d="m -21.6003,202.147 c 0.055,0.066 0.0843,0.144 0.0813,0.215 -0.0029,0.072 -0.0378,0.131 -0.097,0.166 -0.0591,0.035 -0.1377,0.042 -0.2185,0.019 -0.0807,-0.022 -0.157,-0.072 -0.212,-0.138 -0.055,-0.066 -0.0843,-0.144 -0.0813,-0.215 0.0029,-0.071 0.0378,-0.131 0.097,-0.166 0.0591,-0.034 0.1377,-0.041 0.2185,-0.019 0.0807,0.022 0.157,0.072 0.212,0.138 z" />
          <path
             id="circle10"
             d="m -18.7175,235.131 c 0.055,0.066 0.0842,0.143 0.0813,0.215 -0.0029,0.071 -0.0378,0.131 -0.097,0.166 -0.0591,0.034 -0.1377,0.041 -0.2184,0.019 -0.0807,-0.022 -0.157,-0.072 -0.212,-0.138 -0.055,-0.066 -0.0843,-0.144 -0.0813,-0.215 0.0029,-0.072 0.0378,-0.131 0.0969,-0.166 0.0592,-0.035 0.1378,-0.042 0.2185,-0.019 0.0807,0.022 0.157,0.072 0.212,0.138 z" />
          <path
             id="circle12"
             d="m -16.4784,236.788 c 0.055,0.067 0.0842,0.144 0.0813,0.215 -0.0029,0.072 -0.0378,0.131 -0.097,0.166 -0.0591,0.035 -0.1377,0.042 -0.2184,0.019 -0.0808,-0.022 -0.157,-0.072 -0.212,-0.138 -0.055,-0.066 -0.0843,-0.143 -0.0813,-0.215 0.0029,-0.071 0.0378,-0.131 0.0969,-0.165 0.0592,-0.035 0.1378,-0.042 0.2185,-0.02 0.0807,0.022 0.157,0.072 0.212,0.138 z" />
          <path
             id="circle14"
             d="m -20.7104,236.746 c 0.0857,0.104 0.0805,0.231 -0.0117,0.285 -0.0923,0.055 -0.2366,0.015 -0.3224,-0.089 -0.0858,-0.103 -0.0805,-0.23 0.0117,-0.285 0.0923,-0.054 0.2366,-0.014 0.3224,0.089 z" />
          <path
             id="circle16"
             d="m -8.38029,235.347 c 0.04131,0.05 0.06328,0.108 0.06107,0.161 -0.0022,0.054 -0.0284,0.099 -0.07284,0.125 -0.04443,0.026 -0.10345,0.031 -0.16408,0.015 -0.06063,-0.017 -0.1179,-0.055 -0.15922,-0.104 -0.04131,-0.05 -0.06328,-0.108 -0.06107,-0.162 0.0022,-0.053 0.02841,-0.098 0.07284,-0.124 0.04443,-0.026 0.10345,-0.032 0.16408,-0.015 0.06063,0.017 0.1179,0.054 0.15922,0.104 z" />
          <path
             id="circle18"
             d="m 3.09855,223.689 c 0.08577,0.103 0.08051,0.231 -0.01175,0.285 -0.09226,0.054 -0.23658,0.014 -0.32235,-0.089 -0.08577,-0.104 -0.08051,-0.231 0.01175,-0.285 0.09226,-0.055 0.23658,-0.015 0.32235,0.089 z" />
          <path
             id="circle20"
             d="m 3.05848,216.233 c 0.04131,0.05 0.06328,0.108 0.06107,0.161 -0.00221,0.054 -0.02841,0.099 -0.07285,0.125 -0.04444,0.026 -0.10347,0.031 -0.1641,0.014 -0.06064,-0.016 -0.11791,-0.054 -0.15922,-0.103 -0.04132,-0.05 -0.06328,-0.108 -0.06107,-0.162 0.0022,-0.053 0.02841,-0.098 0.07285,-0.124 0.04444,-0.026 0.10347,-0.032 0.1641,-0.015 0.06064,0.017 0.11791,0.054 0.15922,0.104 z" />
          <path
             id="circle22"
             d="m -31.9388,210.389 c 0.0858,0.104 0.0806,0.231 -0.0117,0.285 -0.0922,0.055 -0.2366,0.015 -0.3224,-0.089 -0.0858,-0.103 -0.0806,-0.231 0.0117,-0.285 0.0923,-0.054 0.2366,-0.014 0.3224,0.089 z" />
          <path
             id="circle24"
             d="m -30.4963,203.975 c 0.0858,0.104 0.0806,0.231 -0.0117,0.285 -0.0923,0.055 -0.2366,0.015 -0.3224,-0.089 -0.0858,-0.103 -0.0806,-0.231 0.0117,-0.285 0.0922,-0.054 0.2366,-0.014 0.3224,0.089 z" />
          <path
             id="circle26"
             d="m -31.2948,203.899 c 0.0858,0.103 0.0806,0.231 -0.0117,0.285 -0.0923,0.054 -0.2366,0.014 -0.3224,-0.089 -0.0858,-0.103 -0.0806,-0.231 0.0117,-0.285 0.0922,-0.054 0.2366,-0.014 0.3224,0.089 z" />
          <path
             id="circle28"
             d="m -32.0452,203.794 c 0.0858,0.104 0.0805,0.231 -0.0117,0.286 -0.0923,0.054 -0.2367,0.014 -0.3225,-0.089 -0.0858,-0.104 -0.0805,-0.231 0.0117,-0.286 0.0923,-0.054 0.2366,-0.014 0.3225,0.089 z" />
          <path
             id="circle30"
             d="m -30.4224,210.937 c 0.0858,0.103 0.0806,0.231 -0.0116,0.285 -0.0923,0.054 -0.2367,0.014 -0.3225,-0.089 -0.0858,-0.103 -0.0805,-0.231 0.0117,-0.285 0.0923,-0.054 0.2366,-0.015 0.3224,0.089 z" />
          <path
             id="circle32"
             d="m -31.8069,197.263 c 0.0412,0.049 0.0631,0.107 0.0609,0.161 -0.0022,0.053 -0.0283,0.098 -0.0726,0.124 -0.0443,0.026 -0.1032,0.031 -0.1637,0.014 -0.0604,-0.016 -0.1176,-0.054 -0.1588,-0.103 -0.0858,-0.104 -0.0805,-0.231 0.0117,-0.285 0.0923,-0.055 0.2367,-0.015 0.3225,0.089 z" />
          <path
             id="circle34"
             d="m -26.2247,202.013 c 0.0858,0.103 0.0806,0.231 -0.0117,0.285 -0.0923,0.054 -0.2366,0.014 -0.3224,-0.089 -0.0858,-0.103 -0.0806,-0.231 0.0117,-0.285 0.0923,-0.054 0.2366,-0.015 0.3224,0.089 z" />
          <path
             id="circle36"
             d="m -28.8363,201.978 c 0.0858,0.104 0.0806,0.231 -0.0117,0.286 -0.0922,0.054 -0.2366,0.014 -0.3224,-0.089 -0.0858,-0.104 -0.0806,-0.231 0.0117,-0.286 0.0923,-0.054 0.2366,-0.014 0.3224,0.089 z" />
          <path
             id="circle38"
             d="m -30.6207,205.157 c 0.0858,0.104 0.0805,0.231 -0.0117,0.285 -0.0923,0.055 -0.2366,0.015 -0.3224,-0.089 -0.0859,-0.103 -0.0806,-0.231 0.0116,-0.285 0.0923,-0.054 0.2367,-0.014 0.3225,0.089 z" />
          <path
             id="circle40"
             d="m 7.99335,228.165 c 0.08577,0.103 0.0805,0.231 -0.01175,0.285 -0.09226,0.054 -0.23658,0.014 -0.32234,-0.089 -0.08577,-0.103 -0.0805,-0.231 0.01175,-0.285 0.09226,-0.054 0.23658,-0.014 0.32234,0.089 z" />
          <path
             id="circle42"
             d="m -18.0047,236.595 c 0.0413,0.049 0.0633,0.107 0.0611,0.161 -0.0022,0.054 -0.0284,0.098 -0.0729,0.124 -0.0444,0.027 -0.1034,0.032 -0.1641,0.015 -0.0606,-0.017 -0.1179,-0.054 -0.1592,-0.104 -0.0413,-0.049 -0.0633,-0.108 -0.0611,-0.161 0.0022,-0.054 0.0284,-0.099 0.0729,-0.125 0.0444,-0.026 0.1034,-0.031 0.1641,-0.014 0.0606,0.017 0.1179,0.054 0.1592,0.104 z" />
          <path
             id="circle44"
             d="m -4.3719,232.184 c 0.04131,0.05 0.06328,0.108 0.06107,0.161 -0.00221,0.054 -0.02841,0.099 -0.07284,0.125 -0.04443,0.026 -0.10346,0.031 -0.16409,0.014 -0.06063,-0.016 -0.1179,-0.054 -0.15921,-0.103 -0.04131,-0.05 -0.06328,-0.108 -0.06107,-0.162 0.0022,-0.053 0.02841,-0.098 0.07284,-0.124 0.04443,-0.026 0.10346,-0.032 0.16409,-0.015 0.06063,0.017 0.1179,0.054 0.15921,0.104 z" />
          <path
             id="circle46"
             d="m -14.6686,234.414 c 0.0414,0.049 0.0633,0.107 0.0611,0.161 -0.0022,0.054 -0.0284,0.098 -0.0728,0.125 -0.0925,0.054 -0.2373,0.014 -0.3233,-0.09 -0.086,-0.103 -0.0808,-0.231 0.0117,-0.286 0.0445,-0.026 0.1035,-0.031 0.1641,-0.014 0.0607,0.017 0.1179,0.054 0.1592,0.104 z" />
          <path
             id="circle48"
             d="m -11.0271,236.208 c 0.0413,0.05 0.0633,0.108 0.0611,0.161 -0.0023,0.054 -0.0285,0.099 -0.0729,0.125 -0.0444,0.026 -0.1034,0.031 -0.1641,0.014 -0.0606,-0.016 -0.1179,-0.054 -0.1592,-0.103 -0.0413,-0.05 -0.0633,-0.108 -0.0611,-0.162 0.0022,-0.053 0.0284,-0.098 0.0729,-0.124 0.0444,-0.026 0.1034,-0.032 0.1641,-0.015 0.0606,0.017 0.1179,0.054 0.1592,0.104 z" />
          <path
             id="circle50"
             d="m -1.76329,228.295 c 0.08577,0.103 0.08051,0.231 -0.01174,0.285 -0.09226,0.054 -0.23658,0.014 -0.32235,-0.089 -0.08577,-0.104 -0.08052,-0.231 0.01174,-0.285 0.09226,-0.055 0.23658,-0.015 0.32235,0.089 z" />
          <path
             id="circle52"
             d="m 1.02685,221.14 c 0.08577,0.104 0.08051,0.231 -0.01175,0.285 -0.092258,0.055 -0.236583,0.015 -0.322357,-0.089 -0.085773,-0.103 -0.080515,-0.231 0.011745,-0.285 0.09226,-0.054 0.236585,-0.014 0.322362,0.089 z" />
          <path
             id="circle54"
             d="m 7.36766,220.805 c 0.08577,0.103 0.0805,0.231 -0.01176,0.285 -0.09226,0.054 -0.23658,0.014 -0.32235,-0.089 -0.08577,-0.103 -0.08051,-0.231 0.01176,-0.285 0.09226,-0.054 0.23658,-0.014 0.32235,0.089 z" />
          <path
             id="circle56"
             d="m 9.78682,221.001 c 0.08576,0.104 0.0805,0.231 -0.01176,0.285 -0.09226,0.055 -0.23658,0.015 -0.32235,-0.089 -0.08577,-0.103 -0.0805,-0.23 0.01176,-0.285 0.09226,-0.054 0.23658,-0.014 0.32235,0.089 z" />
          <path
             id="circle58"
             d="m 7.57535,217.891 c 0.08577,0.103 0.08051,0.231 -0.01175,0.285 -0.09226,0.054 -0.23659,0.015 -0.32236,-0.089 -0.08577,-0.103 -0.08051,-0.231 0.01176,-0.285 0.09226,-0.054 0.23658,-0.014 0.32235,0.089 z" />
          <path
             id="circle60"
             d="m -18.0371,226.683 c 0.0857,0.103 0.0805,0.231 -0.0118,0.285 -0.0922,0.054 -0.2365,0.014 -0.3223,-0.089 -0.0858,-0.103 -0.0806,-0.231 0.0117,-0.285 0.0922,-0.054 0.2366,-0.014 0.3224,0.089 z" />
          <path
             id="circle62"
             d="m -14.3503,230.909 c 0.055,0.066 0.0842,0.143 0.0813,0.214 -0.0029,0.072 -0.0378,0.131 -0.097,0.166 -0.0591,0.035 -0.1377,0.042 -0.2184,0.02 -0.0808,-0.023 -0.157,-0.072 -0.212,-0.139 -0.055,-0.066 -0.0843,-0.143 -0.0813,-0.215 0.0029,-0.071 0.0378,-0.131 0.0969,-0.165 0.0592,-0.035 0.1378,-0.042 0.2185,-0.02 0.0807,0.023 0.157,0.072 0.212,0.139 z" />
          <path
             id="circle64"
             d="m -10.3851,233.286 c 0.0551,0.067 0.0843,0.144 0.0814,0.215 -0.003,0.072 -0.0379,0.131 -0.097,0.166 -0.0592,0.035 -0.1377,0.042 -0.2185,0.019 -0.0807,-0.022 -0.1569,-0.072 -0.2119,-0.138 -0.055,-0.066 -0.0843,-0.143 -0.0814,-0.215 0.003,-0.071 0.0379,-0.131 0.097,-0.165 0.0592,-0.035 0.1378,-0.042 0.2185,-0.02 0.0807,0.022 0.1569,0.072 0.2119,0.138 z" />
          <path
             id="circle66"
             d="m 2.90784,220.581 c 0.055,0.066 0.08425,0.144 0.08131,0.215 -0.00295,0.071 -0.03783,0.131 -0.097,0.166 -0.05916,0.035 -0.13774,0.042 -0.21847,0.019 -0.08072,-0.022 -0.15697,-0.072 -0.21197,-0.138 -0.055,-0.066 -0.08425,-0.144 -0.08131,-0.215 0.00294,-0.071 0.03783,-0.131 0.09699,-0.166 0.05916,-0.034 0.13775,-0.041 0.21848,-0.019 0.08072,0.022 0.15697,0.072 0.21197,0.138 z" />
          <path
             id="circle68"
             d="m 8.37379,216.828 c 0.055,0.066 0.08425,0.144 0.0813,0.215 -0.00294,0.071 -0.03783,0.131 -0.097,0.166 -0.05916,0.035 -0.13775,0.042 -0.21847,0.019 -0.08073,-0.022 -0.15698,-0.072 -0.21197,-0.138 -0.055,-0.066 -0.08425,-0.144 -0.0813,-0.215 0.00294,-0.071 0.03783,-0.131 0.09699,-0.166 0.05917,-0.034 0.13776,-0.041 0.21848,-0.019 0.08073,0.022 0.15697,0.072 0.21197,0.138 z" />
          <path
             id="circle70"
             d="m 4.38479,217.139 c 0.055,0.066 0.08424,0.143 0.0813,0.215 -0.00294,0.071 -0.03783,0.131 -0.097,0.165 -0.05916,0.035 -0.13775,0.042 -0.21847,0.02 -0.08073,-0.023 -0.15698,-0.072 -0.21198,-0.139 -0.055,-0.066 -0.08425,-0.143 -0.0813,-0.215 0.00294,-0.071 0.03783,-0.131 0.09699,-0.165 0.05916,-0.035 0.13775,-0.042 0.21848,-0.02 0.08072,0.023 0.15697,0.072 0.21198,0.139 z" />
          <path
             id="circle72"
             d="m 1.58059,218.983 c 0.055,0.066 0.08425,0.143 0.08131,0.215 -0.00294,0.071 -0.03783,0.131 -0.09699,0.165 -0.05916,0.035 -0.13775,0.042 -0.21848,0.02 -0.08072,-0.023 -0.15697,-0.072 -0.21198,-0.139 -0.055,-0.066 -0.08424,-0.143 -0.0813,-0.215 0.00294,-0.071 0.03783,-0.131 0.09699,-0.165 0.05916,-0.035 0.13775,-0.042 0.21847,-0.02 0.08073,0.023 0.15698,0.072 0.21198,0.139 z" />
          <path
             d="m -25.8178,197.156 0.5054,-0.385 -0.5828,0.29 c -0.1169,-0.11 -0.2806,-0.153 -0.4016,-0.105 l -0.5666,-0.588 0.486,0.642 c -0.0794,0.084 -0.0784,0.223 0.0061,0.347 l -0.5192,0.391 0.5997,-0.301 c 0.1098,0.095 0.2567,0.133 0.3705,0.096 l 0.5808,0.607 -0.4981,-0.654 c 0.0865,-0.079 0.0945,-0.215 0.0198,-0.34 z"
             id="path74" />
          <path
             d="m -29.4369,209.568 0.5054,-0.385 -0.5828,0.29 c -0.1164,-0.11 -0.2806,-0.153 -0.4015,-0.105 l -0.5666,-0.587 0.4864,0.641 c -0.0798,0.084 -0.0788,0.223 0.0057,0.347 l -0.5192,0.391 0.5996,-0.301 c 0.1098,0.095 0.2568,0.133 0.3705,0.096 l 0.5808,0.607 -0.4976,-0.654 c 0.087,-0.079 0.0945,-0.216 0.0193,-0.34 z"
             id="path76" />
          <path
             d="m 6.48338,215.679 0.5054,-0.385 -0.58276,0.29 c -0.11639,-0.11 -0.28053,-0.153 -0.4015,-0.105 l -0.56643,-0.587 0.4863,0.641 c -0.0794,0.084 -0.07835,0.223 0.00603,0.347 l -0.51917,0.39 0.59964,-0.3 c 0.10976,0.094 0.25668,0.133 0.37043,0.096 l 0.58061,0.607 -0.49739,-0.654 c 0.08595,-0.079 0.09397,-0.215 0.01884,-0.34 z"
             id="path78" />
          <path
             d="m -8.19063,238.508 0.50532,-0.385 -0.58267,0.29 c -0.11689,-0.11 -0.28052,-0.153 -0.40147,-0.106 l -0.56596,-0.586 0.48584,0.641 c -0.07987,0.084 -0.07882,0.223 0.00557,0.347 l -0.51909,0.39 0.59955,-0.301 c 0.10976,0.095 0.25713,0.134 0.37041,0.097 l 0.58059,0.606 -0.49739,-0.654 c 0.08643,-0.078 0.09448,-0.215 0.0193,-0.339 z"
             id="path80" />
          <path
             d="m 8.78656,221.61 0.50539,-0.385 -0.58274,0.29 c -0.11639,-0.11 -0.28052,-0.153 -0.40149,-0.105 l -0.5664,-0.587 0.48582,0.641 c -0.0794,0.083 -0.07835,0.222 0.00603,0.346 L 7.714,222.201 8.31363,221.9 c 0.10976,0.095 0.25667,0.133 0.37042,0.096 l 0.58057,0.607 -0.49736,-0.654 c 0.08641,-0.078 0.09447,-0.215 0.0193,-0.339 z"
             id="path82" />
          <path
             d="m -14.7451,209.729 c -1.4774,2.365 -2.9876,4.588 -4.3375,6.373 -2.7424,3.627 -10.2778,13.512 -12.8273,21.893 l 0.7289,-0.081 c 1.8491,-4.75 3.7384,-7.011 5.4604,-9.297 1.8724,-2.486 8.5672,-9.751 11.4281,-13.246 0.9667,-1.181 2.0514,-2.621 3.1297,-4.232 -0.8677,-0.368 -1.7577,-0.726 -2.6675,-1.07 -0.3057,-0.117 -0.6112,-0.23 -0.9148,-0.34 z m 6.44901,2.703 c -0.20849,0.753 -0.39724,1.366 -0.54891,1.772 -0.88031,2.35 -4.2698,14.89 -5.0259,17.76 -0.756,2.871 -1.4716,12.502 -1.7032,15.312 l 0.5484,0.767 c 0.9155,-8.857 1.5144,-11.26 2.1613,-14.441 0.8004,-3.936 2.87944,-11.571 3.6556,-14.082 0.74212,-2.401 1.39186,-4.589 1.9573,-6.575 -0.06208,-0.031 -0.12417,-0.062 -0.18671,-0.094 -0.28303,-0.14 -0.569,-0.28 -0.85788,-0.419 z m 0.15652,-15.387 c -1.23294,3.369 -3.72133,8.023 -6.35223,12.277 0.212,0.078 0.4245,0.157 0.6375,0.237 1.005,0.381 1.9875,0.782 2.9447,1.199 2.14147,-3.255 4.21817,-7.156 5.24195,-11.003 -0.16081,2.226 -1.52355,8.586 -2.51676,12.267 0.35277,0.174 0.70107,0.35 1.044,0.528 1.55864,-5.513 2.4455,-9.418 2.79975,-11.889 0.48861,-3.409 1.67573,-11.092 -1.61801,-18.524 0.61916,6.823 -1.09561,11.941 -2.1809,14.908 z"
             fill="#fc3d21"
             id="path84" />
          <path
             d="m -13.0112,224.855 c -0.9521,-0.361 -2.2465,-0.833 -3.2353,-1.208 -1.3222,-0.501 -2.6062,-1.037 -3.8422,-1.601 -0.1294,0.147 -0.2582,0.292 -0.3871,0.438 1.5284,0.724 3.1242,1.405 4.7618,2.026 1.1964,0.453 2.217,0.785 2.7969,1.023 0.1175,0.048 0.3653,0.162 0.6972,0.312 0.0592,-0.216 0.119,-0.435 0.1793,-0.655 -0.318,-0.1 -0.6424,-0.211 -0.9706,-0.335 z m 5.90477,1.375 c -0.67744,-0.17 -2.08087,-0.295 -3.78497,-0.718 -0.0727,0.272 -0.1454,0.548 -0.2178,0.825 1.35709,0.582 3.10236,1.25 4.0045,1.215 1.35947,-0.054 0.86623,-1.103 -0.00173,-1.322 z m -6.74787,-16.671 c -11.2888,-4.278 -20.9871,-4.576 -21.7021,-0.53 -0.5554,3.142 4.9124,8.161 12.6708,12.251 0.1032,-0.147 0.2059,-0.293 0.3076,-0.437 -7.6616,-3.924 -12.8414,-8.71 -12.3179,-11.674 0.6582,-3.724 10.1047,-3.255 21.0661,0.899 2.2688,0.859 4.41582,1.798 6.39109,2.783 7.566083,3.774 12.62741,8.231 12.26089,11.479 -0.11206,0.993 -1.8341,2.368 -5.411465,2.577 0.005821,0.07 0.173392,0.171 0.244697,0.178 2.990888,-0.298 5.386398,-1.148 5.661838,-2.703 0.66095,-3.736 -7.88363,-10.545 -19.17155,-14.823 z"
             id="path86" />
          <path
             d="m -35.4373,223.522 3.3309,-1.955 7.207,3.67 c 0,0 -3.1944,-3.846 -3.4433,-4.146 -0.3872,-0.466 -1.4199,-0.764 -1.6818,-0.746 0.223,-0.131 2.1711,-1.275 2.3049,-1.353 -0.1067,0.124 -0.0486,1.007 0.3732,1.515 0.2074,0.249 4.84,5.827 5.0612,6.094 0.3112,0.374 1.2231,0.607 1.6195,0.671 l -3.2119,1.886 -7.2722,-3.67 c 0,0 3.3051,3.98 3.4849,4.196 0.3457,0.416 1.0419,0.602 1.7045,0.721 l -2.4535,1.44 c 0.2112,-0.372 0.1102,-1.093 -0.2058,-1.526 -0.316,-0.434 -4.8056,-5.786 -4.9992,-6.019 -0.4218,-0.508 -1.2062,-0.667 -1.8184,-0.778 z"
             id="path88" />
          <path
             d="m 1.96778,213.988 4.43183,-2.602 c -0.30069,0.078 -0.84543,-0.085 -1.35362,-0.431 -0.50819,-0.346 -8.74818,-6.061 -8.74818,-6.061 l -1.68503,0.989 c -0.15802,0.666 -0.33272,1.373 -0.52416,2.122 0.01142,0.016 0.02284,0.033 0.03281,0.049 0.34145,0.543 3.4631,6.665 3.60217,6.976 0.19265,0.432 -0.04116,1.176 -0.09192,1.528 l 2.3868702,-1.401 c -0.4868162,-0.16 -0.9221062,-0.338 -1.1540202,-0.698 -0.23191,-0.359 -0.65112,-1.104 -0.65112,-1.104 l 2.468714,-1.449 c 0.388066,0.268 0.719756,0.518 0.998396,0.777 0.33548,0.31 0.34117,0.877 0.28726,1.305 z m -4.4162,-1.829 -1.6975,-3.537 3.630842,2.402 z m -4.58886,-4.855 c 0.03856,-0.173 0.07715,-0.346 0.11525,-0.52 l -0.64694,0.38 c 0.11976,0.029 0.31346,0.071 0.53169,0.14 z"
             id="path90" />
          <path
             d="m -18.0586,224.392 c -0.232,-0.359 -0.6513,-1.103 -0.6513,-1.103 l 2.4686,-1.449 c 0.388,0.267 0.7197,0.518 0.9984,0.776 0.3355,0.311 0.3412,0.877 0.2874,1.305 l 3.9015,-2.29 c 0.0306,-0.109 0.0607,-0.217 0.0913,-0.325 -0.2756,-0.061 -0.6016,-0.205 -0.915,-0.418 -0.5082,-0.345 -8.7485,-6.06 -8.7485,-6.06 l -3.8665,2.27 c 0.3449,0.082 1.309,0.284 1.6905,0.89 0.342,0.542 3.4636,6.664 3.6027,6.975 0.1927,0.432 -0.041,1.176 -0.0918,1.527 l 2.3867,-1.4 c -0.4868,-0.16 -0.9221,-0.338 -1.154,-0.698 z m -3.011,-5.836 3.631,2.401 -1.9332,1.135 z"
             id="path92" />
          <path
             d="m -7.31984,213.184 c -0.27694,0.97 -0.57422,1.987 -0.8919,3.054 0.52648,-0.016 1.02104,0.062 1.31427,0.365 0.55024,0.57 -0.28638,1.493 -1.36414,1.94 -0.21555,0.089 -0.45436,0.144 -0.70038,0.175 -0.08103,0.265 -0.16312,0.532 -0.24681,0.802 -0.08484,0.275 -0.18576,0.612 -0.2989,0.998 l 0.71577,0.862 c -0.15926,-0.538 -0.05215,-1.166 0.25987,-1.378 0.13437,-0.091 1.04682,0.129 2.96559,-1.183 0.93126,-0.637 1.85442,-2.922 0.70472,-4.253 -0.67969,-0.787 -1.56769,-1.19 -2.45809,-1.382 z m -3.83696,5.349 0.7291,0.878 c 0.0679,-0.238 0.1351,-0.473 0.2016,-0.703 -0.4482,-0.053 -0.8055,-0.137 -0.9307,-0.175 z m 2.68775,-5.495 c -0.29207,-0.014 -0.57373,-0.011 -0.83684,-0.001 -1.36661,0.059 -2.43901,0.553 -3.20731,0 -0.5417,-0.389 -0.4928,-1.073 0.5323,-1.649 1.0251,-0.577 2.52203,-0.453 2.97534,-0.36 l -1.78374,-2.148 c -0.0053,0.127 0.0166,0.737 -0.3395,0.843 -0.6832,0.203 -1.8015,0.601 -2.9109,1.263 -1.2721,0.759 -1.4534,2.512 -0.3286,3.933 1.5727,1.987 3.4131,1.7 4.45706,1.545 0.10757,-0.016 0.22838,-0.037 0.35897,-0.06 0.29873,-0.994 0.54443,-1.769 0.70681,-2.2 0.10914,-0.29 0.23631,-0.688 0.37641,-1.166 z"
             id="path94" />
        </g>
      </g>
      <g
         aria-label="Paraguay"
         id="text9484"
         style="font-style:normal;font-weight:normal;font-size:10.5833px;line-height:1.25;font-family:sans-serif;letter-spacing:0px;word-spacing:0px;white-space:pre;shape-inside:url(#rect9486);fill:#000000;fill-opacity:1;stroke:none"
         transform="translate(-3.1962104,1.9062831)">
        <path
           d="m 314.724,252.171 -1.691,0.979 1.202,1.448 1.688,-0.982 z m -0.56,-1.311 c 0.162,-0.094 0.347,-0.07 0.556,0.071 l 0.045,0.048 2.516,3.031 0.038,0.053 c 0.086,0.213 0.047,0.366 -0.114,0.46 l -2.043,1.192 1.746,2.104 -0.687,0.403 c -0.004,0.002 -0.015,-0.006 -0.033,-0.026 l -4.51,-5.433 -0.038,-0.053 c -0.085,-0.213 -0.046,-0.367 0.117,-0.461 z"
           style="font-style:normal;font-variant:normal;font-weight:normal;font-stretch:normal;font-family:Orena;-inkscape-font-specification:Orena"
           id="path10037" />
        <path
           d="m 318.427,253.81 1.715,2.066 c 0.013,0.016 0.018,0.028 0.015,0.036 l -0.673,0.395 c -0.003,0.002 -0.014,-0.007 -0.032,-0.026 l -4.494,-5.413 -0.038,-0.053 c -0.085,-0.212 -0.046,-0.365 0.116,-0.459 l 2.41,-1.391 c 0.02,-0.012 0.04,-0.02 0.061,-0.025 0.223,-0.041 0.401,0.019 0.532,0.177 l 4.462,5.375 c 0.013,0.015 0.019,0.027 0.017,0.034 l -0.671,0.394 c -0.004,0.002 -0.015,-0.006 -0.033,-0.026 l -1.711,-2.061 z m 0.754,-2.089 -1.195,-1.439 -1.68,0.973 1.197,1.442 z"
           style="font-style:normal;font-variant:normal;font-weight:normal;font-stretch:normal;font-family:Orena;-inkscape-font-specification:Orena"
           id="path10039" />
        <path
           d="m 321.22,248.409 -1.665,0.964 1.192,1.437 1.664,-0.967 z m 0.933,3.227 -0.485,0.284 1.733,2.088 -0.677,0.397 c -0.004,0.003 -0.015,-0.006 -0.033,-0.025 l -4.477,-5.394 -0.038,-0.052 c -0.085,-0.212 -0.047,-0.364 0.114,-0.457 l 2.372,-1.369 c 0.16,-0.092 0.343,-0.068 0.549,0.072 l 0.046,0.048 2.497,3.009 0.038,0.052 c 0.085,0.211 0.048,0.363 -0.111,0.456 l -0.642,0.374 2.704,1.514 -0.882,0.518 z"
           style="font-style:normal;font-variant:normal;font-weight:normal;font-stretch:normal;font-family:Orena;-inkscape-font-specification:Orena"
           id="path10041" />
        <path
           d="m 324.885,250.042 1.703,2.051 c 0.013,0.016 0.018,0.028 0.015,0.036 l -0.663,0.389 c -0.004,0.002 -0.015,-0.006 -0.032,-0.026 l -4.461,-5.374 -0.038,-0.052 c -0.085,-0.211 -0.047,-0.362 0.112,-0.454 l 2.375,-1.371 c 0.021,-0.012 0.041,-0.02 0.061,-0.025 0.22,-0.039 0.396,0.02 0.527,0.177 l 4.429,5.336 c 0.013,0.015 0.018,0.027 0.017,0.034 l -0.661,0.388 c -0.004,0.002 -0.015,-0.006 -0.033,-0.025 l -1.699,-2.047 z m 0.736,-2.067 -1.186,-1.428 -1.655,0.959 1.188,1.431 z"
           style="font-style:normal;font-variant:normal;font-weight:normal;font-stretch:normal;font-family:Orena;-inkscape-font-specification:Orena"
           id="path10043" />
        <path
           d="m 329.719,247.222 -1.313,0.766 -0.914,-1.101 1.989,-1.156 2.37,2.855 0.037,0.052 c 0.085,0.209 0.049,0.36 -0.107,0.452 l -2.326,1.364 c -0.157,0.093 -0.338,0.069 -0.544,-0.07 l -0.045,-0.048 -4.21,-5.072 -0.038,-0.052 c -0.085,-0.21 -0.048,-0.36 0.111,-0.452 l 2.667,-1.54 0.904,1.088 -2.319,1.343 2.914,3.51 1.638,-0.959 z"
           style="font-style:normal;font-variant:normal;font-weight:normal;font-stretch:normal;font-family:Orena;-inkscape-font-specification:Orena"
           id="path10045" />
        <path
           d="m 332.623,248.595 c -0.156,0.092 -0.337,0.069 -0.541,-0.071 l -0.045,-0.047 -4.429,-5.335 c -0.015,-0.021 -0.021,-0.032 -0.017,-0.035 l 0.657,-0.379 c 0.01,0.001 0.021,0.009 0.034,0.024 l 3.781,4.555 1.626,-0.952 -3.773,-4.546 c -0.013,-0.015 -0.018,-0.027 -0.016,-0.035 l 0.654,-0.377 c 0.004,-0.002 0.015,0.006 0.032,0.025 l 4.414,5.317 0.037,0.052 c 0.085,0.208 0.05,0.358 -0.106,0.45 z"
           style="font-style:normal;font-variant:normal;font-weight:normal;font-stretch:normal;font-family:Orena;-inkscape-font-specification:Orena"
           id="path10047" />
        <path
           d="m 334.399,244.492 1.684,2.028 c 0.013,0.016 0.018,0.028 0.015,0.036 l -0.648,0.38 c -0.004,0.003 -0.015,-0.006 -0.032,-0.025 l -4.413,-5.316 -0.038,-0.052 c -0.084,-0.208 -0.048,-0.357 0.108,-0.447 l 2.324,-1.342 c 0.02,-0.011 0.04,-0.019 0.059,-0.024 0.217,-0.038 0.39,0.021 0.519,0.177 l 4.381,5.278 c 0.013,0.015 0.019,0.027 0.018,0.034 l -0.648,0.38 c -0.003,0.002 -0.014,-0.006 -0.032,-0.025 l -1.68,-2.025 z m 0.711,-2.035 -1.174,-1.413 -1.62,0.938 1.176,1.416 z"
           style="font-style:normal;font-variant:normal;font-weight:normal;font-stretch:normal;font-family:Orena;-inkscape-font-specification:Orena"
           id="path10049" />
        <path
           d="m 337.498,241.788 -0.191,-0.122 -0.003,-0.003 -2.292,-1.47 -1.123,-0.721 0.784,-0.453 1.749,1.125 0.427,0.271 -0.157,-0.428 -0.648,-1.76 0.781,-0.45 0.414,1.126 0.734,2.001 0.178,0.49 2.209,2.661 -0.659,0.387 z"
           style="font-style:normal;font-variant:normal;font-weight:normal;font-stretch:normal;font-family:Orena;-inkscape-font-specification:Orena"
           id="path10051" />
      </g>
    </g>
  </g>
  <g
     inkscape:groupmode="layer"
     id="layer5"
     inkscape:label="tmp"
     sodipodi:insensitive="true"
     style="display:none"
     transform="translate(-68.635016,-167.51551)">
    <path
       id="path4285"
       style="display:inline;fill:#ab47bc;fill-opacity:0.992157;stroke:#000000;stroke-width:0.264583px;stroke-linecap:butt;stroke-linejoin:miter;stroke-opacity:1"
       d="m 290.15129,299.87472 -15.20735,8.78033 -7.6848,4.43643 c -0.002,6.02713 -1.79101,8.95533 -4.14238,10.20146 v 0 l 21.46746,-12.65866 c 3.01474,-0.77166 5.5671,-3.55132 5.5671,-10.75542 z"
       sodipodi:nodetypes="ccccccsc" />
    <path
       id="path4294"
       style="display:inline;fill:#7cb342;fill-opacity:0.992157;stroke:#000000;stroke-width:0.999999px;stroke-linecap:butt;stroke-linejoin:miter;stroke-opacity:1"
       d="m 1010.7656,1025.1816 c -0.507,0 -1.0148,0 -1.5215,0.012 -0.027,9e-4 -0.055,0 -0.082,0 -0.01,2e-4 -0.013,0 -0.019,0 -0.6038,0.022 -1.2054,0.063 -1.8067,0.1172 -0.1302,0.012 -0.2606,0.024 -0.3906,0.037 -0.5784,0.059 -1.1568,0.1307 -1.7305,0.2227 -0.028,0 -0.056,0.01 -0.084,0.014 -0.01,0 -0.013,9e-4 -0.02,0 -0.5604,0.092 -1.116,0.2067 -1.6699,0.332 -0.1814,0.041 -0.3623,0.086 -0.543,0.1309 -0.5011,0.1243 -1.0002,0.2599 -1.4941,0.414 -0.1024,0.032 -0.2046,0.064 -0.3066,0.098 -0.4903,0.1599 -0.9737,0.3399 -1.45512,0.5313 -0.20792,0.083 -0.415,0.1688 -0.6211,0.2578 -0.41824,0.18 -0.83207,0.3743 -1.24218,0.58 -0.21334,0.1073 -0.42578,0.2176 -0.63672,0.3321 -0.37421,0.2026 -0.74517,0.4167 -1.11133,0.6425 -1.88413,1.1652 -3.65816,2.6387 -5.27148,4.4864 h -0.0215 c -0.003,0 -0.006,0.01 -0.01,0.012 h -0.0156 l -79.57227,44.5469 h -0.0195 c 17.03308,-8.6014 41.50586,5.5332 41.50586,5.5332 l 86.60354,-50 h -0.059 l 0.019,-0.012 c 0,0 -0.2255,-0.1304 -0.6465,-0.3574 -0.9059,-0.4884 -2.7416,-1.4319 -5.1875,-2.4981 -0.4917,-0.2142 -1.0066,-0.4324 -1.5469,-0.6543 -0.3628,-0.149 -0.7399,-0.2987 -1.123,-0.4492 -0.5892,-0.2314 -1.2051,-0.4614 -1.8379,-0.6914 -0.3673,-0.1336 -0.7326,-0.2668 -1.1133,-0.3984 -0.796,-0.2751 -1.6229,-0.5421 -2.4707,-0.8008 -0.5075,-0.155 -1.0174,-0.3089 -1.541,-0.4551 -0.1253,-0.035 -0.2489,-0.071 -0.375,-0.1055 -0.7682,-0.2095 -1.5495,-0.4097 -2.3457,-0.5937 -0.7575,-0.175 -1.5309,-0.3327 -2.3086,-0.4785 -0.206,-0.039 -0.4139,-0.073 -0.6211,-0.1094 -0.6134,-0.1075 -1.2313,-0.2017 -1.8535,-0.2871 -0.209,-0.029 -0.4171,-0.06 -0.6269,-0.086 -0.8063,-0.1 -1.6169,-0.1845 -2.4317,-0.2403 -0.049,0 -0.098,0 -0.1465,-0.01 -0.7482,-0.049 -1.4991,-0.072 -2.25,-0.078 z"
       sodipodi:nodetypes="ssscsssscssscscsccccccccccccssssssssssssssscs"
       transform="scale(0.26458333)" />
  </g>
</svg>
